<svg xmlns="http://www.w3.org/2000/svg" viewBox="0 0 865.65 736.71"><defs><style>.cls-1{fill:#1b1464;}.cls-2{fill:#8cc63f;}.cls-3{fill:none;stroke:#c1272d;stroke-miterlimit:10;stroke-width:13px;}</style></defs><title>aikido4_1</title><g id="Capa_2" data-name="Capa 2"><g id="Capa_1-2" data-name="Capa 1"><path class="cls-1" d="M506.19,558.24c-2.49-2.86-6.47-6.7-10.68-5.48-3.58,1-4.77,5-5.05,8.25a24,24,0,0,0,2.14,11.48,16,16,0,0,0,8.33,8.67c4.58,1.89,9.72.34,13.74-2.17q1-.6,1.89-1.29a2.57,2.57,0,0,0,.9-3.42,2.53,2.53,0,0,0-3.42-.89,26.54,26.54,0,0,1-3.46,2.19l-.82.4-.35.15c-.3.14.57-.22,0,0s-1,.37-1.55.52-1,.22-1.52.33c-.17,0,.7-.08.26,0l-.36,0c-.24,0-.49,0-.73,0a11.56,11.56,0,0,1-1.32-.06c-.47,0,.59.11.25,0l-.27,0c-.22,0-.44-.09-.65-.15-.4-.1-.78-.26-1.17-.39-.1,0,.65.3.23.1l-.23-.11-.58-.31c-.35-.2-.69-.43-1-.66s.51.44,0,0l-.46-.41c-.3-.28-.59-.57-.87-.88l-.4-.48-.2-.25c.19.21.37.51.12.15a18.9,18.9,0,0,1-1.36-2.18c-.2-.39-.39-.78-.57-1.18-.28-.62.2.52,0,0-.09-.22-.18-.43-.26-.65a24.19,24.19,0,0,1-.76-2.51q-.15-.63-.27-1.26c0-.21-.07-.42-.11-.63a2.51,2.51,0,0,0,0-.27c-.08-.53.06.53,0,.22-.08-.81-.15-1.61-.16-2.43,0-.4,0-.79,0-1.19,0-.17,0-.34,0-.51,0-.38.14-.81,0,0a13.12,13.12,0,0,1,.45-2c0-.13.09-.27.14-.4.14-.39-.19.43-.14.33a1.6,1.6,0,0,0,.1-.23q.19-.36.42-.72s.08-.1.11-.16c.12-.23-.44.49-.25.33s.18-.21.27-.3.2-.16.28-.25c-.16.17-.62.39-.17.15.09-.06.22-.11.31-.17s-.73.23-.22.1l.36-.09c.43-.13-.81,0-.21,0h.37c.64,0-.49-.12-.17,0s.6.15.89.25c.56.19-.58-.29-.09,0,.18.09.36.18.53.28a9.78,9.78,0,0,1,1.05.67l.27.2c.12.08-.52-.43-.19-.15l.61.52c.42.36.82.75,1.2,1.14s.87.91,1.28,1.39a2.5,2.5,0,0,0,3.53,0,2.56,2.56,0,0,0,0-3.54Z"/><path class="cls-1" d="M485.12,489.25c-6.71,2-13.31,5.28-17.69,10.9a26.15,26.15,0,0,0-5.32,16.6,48.11,48.11,0,0,0,4.3,18.1,81.12,81.12,0,0,0,9.87,16.85,79.54,79.54,0,0,0,14,14.74,2.58,2.58,0,0,0,3.54,0,2.53,2.53,0,0,0,0-3.54,78.45,78.45,0,0,1-21.56-27.32,54.18,54.18,0,0,1-3.21-8c-.43-1.39-.81-2.81-1.12-4.24-.15-.68-.28-1.36-.39-2.05-.05-.32-.1-.63-.14-.95.06.43-.06-.59-.08-.77a32.83,32.83,0,0,1-.15-4.09c0-.65.06-1.29.12-1.94,0-.16.12-1,.05-.46q.07-.55.18-1.11a24.34,24.34,0,0,1,1-3.65c.1-.28.21-.56.32-.83-.2.48.2-.43.25-.53.29-.61.61-1.2,1-1.78a21.49,21.49,0,0,1,5.92-6.25,35.6,35.6,0,0,1,10.53-4.85c3.08-.92,1.77-5.74-1.33-4.82Z"/><path class="cls-1" d="M494.89,511.64a29.36,29.36,0,0,0-8.49,18.94c-.36,6.85,1.75,13.67,5,19.63,6.69,12.29,18.88,22.59,32.49,26.2,7.42,2,15.28,1.66,22.2-1.81,2.88-1.45.35-5.76-2.52-4.32-.37.18-.73.36-1.1.52-.06,0-.44.19-.07,0l-.45.18c-.74.28-1.5.54-2.26.75s-1.39.36-2.09.5l-.94.16c-.75.12.3,0-.16,0l-.71.08a28.65,28.65,0,0,1-8.63-.48,43,43,0,0,1-17-7.91A52.46,52.46,0,0,1,497,550a43.42,43.42,0,0,1-2.27-4.12,29.62,29.62,0,0,1-1.69-4.12,35.93,35.93,0,0,1-1.2-4.44c-.07-.36-.13-.73-.19-1.09,0-.16-.06-.32-.08-.48-.12-.78,0,.28,0-.18-.09-.77-.16-1.53-.19-2.3a23.91,23.91,0,0,1,7-18.06c2.24-2.31-1.29-5.85-3.54-3.53Z"/><path class="cls-1" d="M506,540.76c.08,0,.63,0,.25,0s.23.05.25.05c.3.06.6.14.89.22.66.18,1.3.39,1.94.6a17.11,17.11,0,0,0,4.42.9l-2.16-3.76c-.88,1.81-1.73,3.64-2.68,5.41-.49.92-1,1.82-1.57,2.7-.29.44-.59.86-.9,1.29s.29-.35.07-.09l-.22.27c-.17.19-.33.38-.5.56a2.5,2.5,0,1,0,3.53,3.54c3-3.17,4.71-7.3,6.59-11.15a2.54,2.54,0,0,0-2.16-3.77l-.52,0c-.38,0,.58.12-.07,0-.32-.06-.63-.13-.94-.21-.67-.17-1.32-.39-2-.6a17.26,17.26,0,0,0-4.25-.92,2.51,2.51,0,0,0-2.5,2.5,2.55,2.55,0,0,0,2.5,2.5Z"/><path class="cls-1" d="M563.27,139.09c-4.26-3.87-9.59-7.42-15.59-7.28-4.95.12-9.29,2.79-12.65,6.27a55.37,55.37,0,0,0-9.16,13.72c-2.68,5.28-4.93,10.76-7.19,16.23-.3.71-.59,1.41-.88,2.12-.15.35-.29.69-.43,1-.08.17-.45,1.07-.26.61-.54,1.27-1.08,2.54-1.65,3.8a46.75,46.75,0,0,1-3.12,6c-1.74,2.72,2.59,5.23,4.32,2.52a76.4,76.4,0,0,0,5.66-11.91c.5-1.2,1-2.41,1.49-3.61s1.11-2.68,1.49-3.57c.94-2.22,2.18-5.07,3.32-7.49s2.46-5,3.86-7.47q1-1.71,2.07-3.36c.33-.5.67-1,1-1.49l.52-.71.27-.35.14-.18a31.11,31.11,0,0,1,2.35-2.65c.37-.38.76-.75,1.16-1.1l.59-.51.29-.24c.51-.4-.42.3.1-.07a17.66,17.66,0,0,1,2.66-1.62c.21-.1.75-.32.22-.11.22-.09.44-.18.66-.25a11.58,11.58,0,0,1,1.53-.43c.19,0,1.11-.18.38-.09l.8-.08a12.34,12.34,0,0,1,1.72,0l.37,0c.64.06-.55-.1.09,0l1,.19a15.32,15.32,0,0,1,1.75.53l.4.15c.54.2-.29-.14.2.08s.69.32,1,.49a22,22,0,0,1,2,1.16,27.61,27.61,0,0,1,4,3.14c2.38,2.16,5.92-1.36,3.54-3.54Z"/><path class="cls-1" d="M637.36,279.68a15.6,15.6,0,0,0,9-.22,11.69,11.69,0,0,0,6-5.16c2.85-4.95,2.91-11.25,2.27-16.76a58,58,0,0,0-5.18-18.33c-3.27-6.83-9.26-11.6-15.29-16-7.77-5.64-16.36-10.2-23.6-16.55a51.91,51.91,0,0,1-9.81-11.31,59.86,59.86,0,0,1-6.16-14.19c-3.09-9.93-4.95-20.42-10.13-29.57-3.35-5.93-9.43-13.93-17.2-13.25-5.72.5-9.59,5.58-10.6,10.93a17.77,17.77,0,0,0,5.76,17,19.47,19.47,0,0,0,4.49,2.84,2.57,2.57,0,0,0,3.42-.9,2.51,2.51,0,0,0-.9-3.42,17.49,17.49,0,0,1-2.14-1.13,9.72,9.72,0,0,1-1.71-1.24,16.46,16.46,0,0,1-1.49-1.52,9.09,9.09,0,0,1-.93-1.32,14.59,14.59,0,0,1-.92-1.75c.22.5-.14-.4-.18-.51-.13-.37-.24-.74-.34-1.12s-.14-.54-.2-.82c0-.13-.19-1.2-.11-.57a14.52,14.52,0,0,1-.12-1.86c0-.61,0-1.22.1-1.82s-.07.37,0,0c0-.13,0-.27.07-.4.07-.35.14-.7.23-1.06.15-.56.33-1.11.53-1.65.13-.34-.15.28.13-.27.13-.28.27-.55.42-.82s.31-.53.48-.78.48-.65.13-.22a11.92,11.92,0,0,1,1.19-1.27c.2-.17.6-.45.16-.14.23-.16.46-.32.7-.46s.39-.21.59-.32c.49-.27-.4.14-.06,0l.39-.14c.27-.09.54-.15.81-.22.62-.15-.19,0,.18,0s.59,0,.88,0,1.1.14.43,0a12.52,12.52,0,0,1,1.7.45l.39.15c-.45-.19-.09,0,0,0,.34.17.67.34,1,.54,3,1.75,5.54,5,7.51,8.14,5.14,8.25,7,18,9.71,27.2a84.76,84.76,0,0,0,5.24,14,51.74,51.74,0,0,0,8.6,12.25c6.35,6.8,14.31,11.71,22,16.77a119.55,119.55,0,0,1,11.13,8,66.25,66.25,0,0,1,5.36,5c.38.39.73.78,1.07,1.2s-.06-.08-.09-.13l.24.33.49.71a31.11,31.11,0,0,1,1.74,3c.28.55.54,1.11.79,1.67.07.16.38.87.31.69s.25.63.32.82a56.4,56.4,0,0,1,2.55,8.36,42.33,42.33,0,0,1,1.14,8.24,35.94,35.94,0,0,1,0,4c0,.32,0,.64-.08,1,0,.15-.13,1.09,0,.48-.1.66-.22,1.33-.37,2s-.27,1.06-.45,1.58c-.08.26-.18.53-.28.79-.16.42,0,0,0-.09l-.22.49a11.4,11.4,0,0,1-.78,1.36c-.06.11-.53.73-.3.44s-.36.4-.46.5-.32.3-.48.46c-.48.47.27-.13-.2.17a13.6,13.6,0,0,1-1.38.79c.64-.31-.21.07-.38.13l-.69.19c-.13,0-.93.18-.58.12l-.24,0-.6,0a15.57,15.57,0,0,1-1.81-.05l-.57-.06c.11,0,.47.07,0,0s-.81-.15-1.22-.24c-3.13-.7-4.47,4.12-1.33,4.82Z"/><path class="cls-1" d="M561.91,171c3.21,0,3.22-5,0-5s-3.23,5,0,5Z"/><path class="cls-1" d="M561.05,166.31a61.89,61.89,0,0,0-3.88,16.85,68.2,68.2,0,0,0,.93,15.56c.78,5.06,1.72,10,2.07,15.13a97.85,97.85,0,0,0,1.42,13.33c2.19,10.46,9.43,18.93,17.37,25.71s17.22,11.76,26.89,15.81c10.88,4.54,22.17,8,33.07,12.54a2.51,2.51,0,0,0,3.07-1.75,2.56,2.56,0,0,0-1.74-3.08c-18.41-7.6-38.41-12.35-54.58-24.49a72.71,72.71,0,0,1-11.34-10.7,34.62,34.62,0,0,1-7.2-12.53,53.37,53.37,0,0,1-1.78-12.14,130.37,130.37,0,0,0-1.66-14.61,79.69,79.69,0,0,1-1.63-16.73,56.13,56.13,0,0,1,3.81-17.57,2.52,2.52,0,0,0-1.75-3.08,2.56,2.56,0,0,0-3.07,1.75Z"/><path class="cls-1" d="M643.64,279.12a19.54,19.54,0,0,1-12.82,10.08c-5.47,1.31-11.42.48-16.89-1.25a42.25,42.25,0,0,1-16.4-9.35c-5.57-5.28-10.47-11.21-18.14-13.41-6.54-1.88-14.13-1.56-19.47-6.34-4.48-4-6.81-9.64-8.4-15.35-1.73-6.21-2.65-12.6-4.23-18.85a54,54,0,0,0-3-8.91,30.24,30.24,0,0,0-4.62-7c-3.87-4.6-8.55-8.43-12.78-12.69-3.84-3.87-7.49-8.13-8.62-13.42a14.4,14.4,0,0,1-.27-3.75c.13-3.22-4.87-3.21-5,0-.52,13,11.48,21.43,19.68,29.67a41.56,41.56,0,0,1,5.53,6.52,28.73,28.73,0,0,1,3.37,7.69c1.92,6.34,2.84,12.93,4.41,19.36s3.8,12.8,8.1,17.92a21.94,21.94,0,0,0,8.15,6.16c3.51,1.49,7.29,2,11,2.74s7.26,1.58,10.43,3.72,5.8,5,8.49,7.72a46,46,0,0,0,9.07,7.33,56.34,56.34,0,0,0,8.8,4.2c11.6,4.38,26.39,4.66,34.9-5.79a29,29,0,0,0,3-4.46c1.54-2.83-2.77-5.35-4.31-2.52Z"/><path class="cls-1" d="M514.44,175.63c-10.65,27.38-10.61,57-14.55,85.68A191.56,191.56,0,0,1,489.45,303c-4.95,13.17-11,25.88-16.59,38.78-5.44,12.53-10.58,25.29-13.79,38.6a186.48,186.48,0,0,0-4.69,36.91c-.43,12.15.18,24.86,4.2,36.44,3.92,11.3,11.26,21.32,18.81,30.45,16.21,19.61,36.22,36,51.13,56.67,13.17,18.29,22.42,39,31.43,59.52,8.92,20.35,17.74,41,30.32,59.4a144,144,0,0,0,22,25.6c8.78,8,18.83,14.48,28.57,21.2,20.51,14.16,44,29.71,69.84,30.17,11,.19,22.42-1.73,33.08-4.05,11-2.41,22.12-6,31.77-12a54.73,54.73,0,0,0,11.88-9.77c2.15-2.39-1.38-5.94-3.54-3.54-14.78,16.39-39.6,21.25-60.57,23.5a86.12,86.12,0,0,1-16.83.59,74.42,74.42,0,0,1-17.9-4.1c-12.19-4.25-23.5-10.82-34.3-17.83-19.51-12.65-39.14-25.65-53.66-44.12-13.46-17.12-22.82-37-31.59-56.86-8.87-20-17.25-40.43-28.77-59.16-12.76-20.75-30.28-37.22-46.85-54.83-8.69-9.23-17.19-18.82-23.8-29.69-6.29-10.35-9.28-21.38-10-33.44-1.6-25.36,3.1-50.79,12.33-74.36,9.92-25.34,23.49-49.43,29.59-76.15,6.29-27.52,5.47-56.09,11.66-83.63A142.66,142.66,0,0,1,519.26,177c1.17-3-3.66-4.3-4.82-1.33Z"/><path class="cls-1" d="M618.78,212c0-7.88-.28-15.78.31-23.64a61,61,0,0,1,1.61-10.69,37.61,37.61,0,0,1,1.63-5.05c.11-.28.08-.2.3-.69.16-.34.33-.68.5-1,.38-.73.79-1.45,1.23-2.14a16.55,16.55,0,0,1,6.55-5.92,18.87,18.87,0,0,1,4.45-1.5,22.6,22.6,0,0,1,6.3-.43c5.84.4,11.41,1.89,17.29.87,2.92-.5,5.72-1.51,8.57-2.29a28.73,28.73,0,0,1,7.82-1c10.32,0,20.69-.56,31,.25a25.62,25.62,0,0,1,6.39,1.16,13,13,0,0,1,2.29,1,23.23,23.23,0,0,1,2,1.3c2.79,2.19,4.89,5.11,7.35,7.63a27.72,27.72,0,0,0,10.73,7c4.49,1.57,9.42,1.87,14.15,2,5,.18,10.06.06,15.08.43a44.18,44.18,0,0,1,12.16,2.71c14,5.19,30.68,18.35,27.53,35a26.7,26.7,0,0,1-1.92,6.12,2.57,2.57,0,0,0,.89,3.42,2.51,2.51,0,0,0,3.42-.9,28,28,0,0,0-.8-26.56c-4.34-7.85-11.68-13.91-19.47-18.14a60.81,60.81,0,0,0-12.09-5,57.17,57.17,0,0,0-14.26-1.86c-5.28-.15-10.59,0-15.85-.54a25.4,25.4,0,0,1-12.2-4c-3-2-5.41-5.1-7.92-7.84A23.74,23.74,0,0,0,713.9,155c-4.63-1.55-9.86-1.52-14.69-1.63-5.6-.13-11.2,0-16.8,0-2.54,0-5.07.06-7.6.06a32.18,32.18,0,0,0-8.83,1.28,69.15,69.15,0,0,1-8.78,2.3,31.4,31.4,0,0,1-8.55-.25,66.5,66.5,0,0,0-8.79-.93,28.66,28.66,0,0,0-6.65.86,22,22,0,0,0-9.63,5.21c-5.37,5.05-7.66,12.56-8.73,19.64-1.22,8.15-1.17,16.4-1.11,24.62,0,1.94,0,3.88,0,5.81,0,3.22,5,3.23,5,0Z"/><path class="cls-1" d="M675.5,123.36c21.29.08,38.43,14.81,49,32.22a94.24,94.24,0,0,1,7.44,15.16,2.59,2.59,0,0,0,3.08,1.75,2.53,2.53,0,0,0,1.75-3.08c-7.7-20.11-22-39.48-42.63-47.55a51.8,51.8,0,0,0-18.63-3.5c-3.22,0-3.22,5,0,5Z"/><path class="cls-1" d="M804.86,222.9c1.33,13.44-.16,27.13-2.16,40.43-2.11,13.95-5.11,27.73-7.6,41.61-2.61,14.57-5.2,29.09-8.62,43.49-3.09,13.08-6.26,26.16-8.09,39.48-2,14.49-2.69,29.69,1.7,43.82,1,3.07,5.78,1.76,4.83-1.33-3.82-12.3-3.56-25.47-2.09-38.13,1.55-13.34,4.67-26.45,7.76-39.5,1.46-6.16,2.93-12.32,4.2-18.52,1.61-7.85,3-15.74,4.36-23.62,2.48-14.08,5.5-28.05,7.77-42.16,2.41-15,4.44-30.41,2.94-45.57a2.56,2.56,0,0,0-2.5-2.5,2.52,2.52,0,0,0-2.5,2.5Z"/><path class="cls-1" d="M780,428c-.27,9.52,2.13,19.06,5,28.07,3.22,10.25,7.33,20.21,11.5,30.11,1.89,4.47,3.82,8.93,5.68,13.42,2,4.83,3.84,9.74,5.93,14.53a259.75,259.75,0,0,0,17.51,32.69c6.51,10.54,13.48,20.78,20.35,31.09,6.4,9.62,12.39,19.41,14.22,31A44.35,44.35,0,0,1,855,636.83c-5.74,10.66-14.82,19.06-23.21,27.61q-6.91,7-14,13.93c-4,3.9-8.23,7.62-11.92,11.84-6.14,7-11.65,15.49-19.81,20.35a20.2,20.2,0,0,1-5.81,2.39c-3.13.74-1.81,5.57,1.33,4.82,9.56-2.27,16.4-10.35,22.4-17.57a128.24,128.24,0,0,1,9.51-10.79c4.71-4.54,9.45-9,14.1-13.66s9.53-9.59,14.22-14.47a146.1,146.1,0,0,0,12.37-13.95c6.28-8.44,10.63-18.3,11.33-28.87.73-10.94-2.66-21.7-7.83-31.23-3-5.54-6.69-10.72-10.19-16s-7-10.44-10.42-15.7a356.37,356.37,0,0,1-19.17-32.33c-5-9.85-8.91-20.16-13.21-30.32-4.12-9.75-8.33-19.46-11.94-29.41-3.41-9.38-6.62-19.17-7.56-29.16A52.26,52.26,0,0,1,785,428c.1-3.22-4.9-3.21-5,0Z"/><path class="cls-1" d="M741.51,575.25c5.94,10.54,12.85,20.52,18.43,31.26,5.83,11.22,9.29,23.26,12.52,35.43,1.88,7.13,3.75,14.27,6.08,21.27,1,3,5.84,1.73,4.82-1.33-4.17-12.53-6.82-25.49-10.87-38a128,128,0,0,0-7-17.5c-2.69-5.44-5.77-10.67-8.93-15.84-3.6-5.9-7.29-11.74-10.68-17.76-1.58-2.8-5.91-.29-4.32,2.52Z"/><path class="cls-1" d="M657.37,273.5c-4.71,16.78-1.52,34.53-3.25,51.65-2,19.47-3.79,39-3.76,58.59,0,8.95.16,18.05,1.68,26.89a98.49,98.49,0,0,0,6.4,21.37c6,14.37,14.5,27.5,23.2,40.37,8.6,12.72,17.57,25.29,24.75,38.9.86,1.63,1.69,3.29,2.49,5a2.5,2.5,0,0,0,4.32-2.52C706.62,500,698,487.52,689.47,475c-8.62-12.67-17.32-25.41-23.92-39.28a107.15,107.15,0,0,1-7.48-20.61c-1.94-8-2.4-16.12-2.62-24.32-.5-19.36,1-38.71,2.9-58,.44-4.53,1-9.06,1.23-13.61.21-4.31.19-8.63.16-13-.06-8.44-.3-17,1.1-25.39a57,57,0,0,1,1.35-6.06c.87-3.1-4-4.43-4.82-1.33Z"/><path class="cls-1" d="M523.76,577.76c1.33,8.65-3,18.27-12.15,20a2.5,2.5,0,0,0-1.83,2.41c.58,8.1,2.34,16.13,6.47,23.2,1.62,2.78,5.94.27,4.32-2.52-3.67-6.29-5.27-13.47-5.79-20.68l-1.84,2.41A19.09,19.09,0,0,0,526,593a26,26,0,0,0,2.64-16.56,2.53,2.53,0,0,0-3.08-1.74,2.56,2.56,0,0,0-1.75,3.07Z"/><path class="cls-1" d="M510.85,612.62c-4.78-4.11-10.56-7.45-17.08-6.87-5.51.5-10.43,3.13-15.38,5.38A102,102,0,0,1,460.58,617a148.65,148.65,0,0,1-20.73,3.75c-5.87.61-12,.94-17.7-.18a57.19,57.19,0,0,1-14.71-5.22c-9.74-4.9-18.43-11.55-27.63-17.33-9.7-6.11-20.53-11.49-32.29-11-3.2.14-3.22,5.14,0,5,9.87-.44,18.91,3.7,27.32,8.77,9.21,5.55,17.77,12.15,27.21,17.33a71.92,71.92,0,0,0,14.74,6.26,52,52,0,0,0,16.56,1.81,146.69,146.69,0,0,0,40.35-7.82c5.82-2,11.11-5.32,17-7a14.57,14.57,0,0,1,7.55-.36,22.09,22.09,0,0,1,9.1,5.12,2.55,2.55,0,0,0,3.53,0,2.51,2.51,0,0,0,0-3.53Z"/><path class="cls-1" d="M345.36,586.71c-3.61,5.16-3.68,11.65-2.32,17.58,1.53,6.67,4.68,13,7.9,18.94s6.67,11.49,9.58,17.44c.28.57.56,1.15.82,1.72.06.15.35.81.31.7s.07.19.1.24l.21.53c.6,1.55,1.13,3.14,1.66,4.72,1.25,3.77,2.36,7.6,3.32,11.46a107.76,107.76,0,0,1,3.49,24.74c.09,7.85-1.09,15.6-4.9,22.55a22.84,22.84,0,0,1-3,4.45,10,10,0,0,1-2.94,2.45c-.14.07-.86.42-.43.24a7.92,7.92,0,0,1-.82.28c-.24.07-.48.12-.73.18-.08,0-.52.08-.18,0s-.21,0-.29,0h-.82c-.18,0-.94-.12-.36,0a13.14,13.14,0,0,1-1.64-.42l-.4-.15c.43.17.07,0,0,0l-.8-.41a15.62,15.62,0,0,1-1.69-1.08c-.33-.24.25.2-.07-.06l-.3-.24c-.26-.21-.51-.44-.76-.66-.56-.51-1.09-1.05-1.6-1.6a37.66,37.66,0,0,1-5.25-7.65c-4.06-7.52-6.28-16-7.81-24.36a185.82,185.82,0,0,1-2.58-30q-.07-3.78-.09-7.56c0-3.21-5-3.22-5,0,.09,20,.87,41.14,8.93,59.81,4.13,9.58,15.19,26,27.16,16.61a25.78,25.78,0,0,0,6.77-9.19,43.37,43.37,0,0,0,3.8-11.81c1.43-8.61.86-17.38-.48-26A144.32,144.32,0,0,0,368,646a101.68,101.68,0,0,0-8.23-17.16c-3.49-6.15-7.13-12.36-9.71-18.92a42.51,42.51,0,0,1-2.67-9.42c0,.21-.07-.52-.08-.7q-.06-.54-.09-1.08a23.42,23.42,0,0,1,0-2.37c0-.35,0-.69.08-1,0-.07.08-.49,0-.1,0-.17.05-.33.08-.5a16.53,16.53,0,0,1,.53-2.07,7.26,7.26,0,0,1,.61-1.5,16,16,0,0,1,1.14-1.86,2.51,2.51,0,0,0-.9-3.42,2.55,2.55,0,0,0-3.42.89Z"/><path class="cls-1" d="M285.34,598.52c-6.29,5.69-14.95,6.92-22.74,9.43-3,1-6.42,2.17-8.4,4.74-2.41,3.13-.75,6.74,1.95,9a21.78,21.78,0,0,0,13.46,5.2c4.7.17,9.37-1,13.89-2.19,4.2-1.11,8.4-2.34,12.77-2.54,3.12-.15,6.26-.08,9.35-.51a9.73,9.73,0,0,0,7-3.93c2.15-3.09,2.28-7.37,2.31-11,0-3.22-5-3.22-5,0a34.15,34.15,0,0,1-.31,4.84,16.07,16.07,0,0,1-.46,1.91c-.09.27-.18.54-.29.81.2-.49-.09.14-.17.29s-.26.42-.39.62c.35-.52,0,0-.16.16s-.32.31-.49.46c.44-.39,0,0-.24.13s-.34.18-.52.27c-.38.2.07,0,.13,0l-.33.12a11.43,11.43,0,0,1-1.53.39c-.09,0-.86.14-.56.1s-.37,0-.51,0c-.64.06-1.29.1-1.94.13-1.42.06-2.84.09-4.26.13A55.93,55.93,0,0,0,286,618.91c-7.47,1.91-16.13,5.14-23.49,1.16a12.92,12.92,0,0,1-4.19-3.29c-.08-.11-.47-.92-.26-.43a2,2,0,0,1-.11-.39c0,.13,0,.5,0,.1,0-.14,0-.48,0,.13a1.62,1.62,0,0,1,.09-.35c-.06.06-.18.53,0,.1a2.14,2.14,0,0,1,.2-.32c-.3.47.14-.12.28-.25s.21-.19.32-.28c-.33.27,0,0,0,0a14.62,14.62,0,0,1,1.84-1.06,27.46,27.46,0,0,1,3.79-1.41C273,610,282,608.26,288.88,602.05c2.39-2.16-1.16-5.69-3.54-3.53Z"/><path class="cls-1" d="M226.42,606.77a27.47,27.47,0,0,0-3.93,5.45,19.65,19.65,0,0,0-2.92,7.4,4.67,4.67,0,0,0,.65,3.16,4.19,4.19,0,0,0,3.92,1.76,9.8,9.8,0,0,0,4.74-1.64,15.67,15.67,0,0,0,3.71-3.95c1-1.46,1.9-3,2.94-4.43,0,0,.12-.13.14-.19l-.16.21.15-.18c.12-.16.25-.31.39-.47a12.6,12.6,0,0,1,.89-.9l.17-.15c.26-.23.34-.1-.05,0a3.3,3.3,0,0,0,.49-.34c.16-.1.33-.2.51-.29l.26-.14c.42-.22-.52.21,0,0A2.5,2.5,0,1,0,237,607.3c-3.31,1.26-5.33,3.94-7.19,6.84-.39.61-.78,1.23-1.19,1.84-.2.3-.4.59-.61.88-.07.09-.4.56-.17.23s-.14.17-.22.27-.42.47-.64.7l-.37.34c-.07.06-.57.49-.23.21s-.12.07-.21.13l-.42.25a3,3,0,0,0-.44.22s.52-.19.27-.11-.23.08-.35.12c-.29.1-.59.19-.89.27l-.35.07-.21,0s.68-.05.36-.06a3.21,3.21,0,0,0-.62,0c.12,0,.76.14.33,0s.33.16.29.13c-.5-.26.37.39.13.13s.45.6.23.3c-.07-.1-.21-.45,0,.05.29.66,0-.61.05.12.08.57,0-.09,0-.27s0-.16,0-.25c0-.32-.14.72,0,.28.06-.23.1-.46.16-.69a15,15,0,0,1,.5-1.47c0-.1.21-.5,0-.07l.06-.14c.12-.27.25-.55.39-.82.26-.54.55-1.07.85-1.6.62-1.09,1.29-2.16,2-3.19l.49-.69c.07-.09.39-.5.07-.1s0,0,.06-.07c.26-.32.53-.63.82-.93a2.5,2.5,0,0,0-3.54-3.53Z"/><path class="cls-1" d="M229.45,610.69a96.3,96.3,0,0,1,21.79-10.94,2.56,2.56,0,0,0,1.75-3.07,2.52,2.52,0,0,0-3.08-1.75,100.89,100.89,0,0,0-23,11.45,2.56,2.56,0,0,0-.9,3.42,2.52,2.52,0,0,0,3.42.89Z"/><path class="cls-1" d="M242.25,599.31c-2.73,1.51-4.68,4.7-6.22,7.3-1.86,3.16-3.58,6.71-4,10.4-.36,3.37,1.64,6.41,5.29,6.2,4.64-.28,6.87-5.44,8.58-9.09a31.41,31.41,0,0,1,3.35-5.92c2.16-2.8,4.65-5.33,6.41-8.42,1.6-2.8-2.72-5.32-4.31-2.52-2.45,4.28-6.46,7.47-8.63,11.92-.82,1.68-1.56,3.39-2.43,5a24.48,24.48,0,0,1-1.33,2.27c-.13.21-.27.41-.42.61.25-.34,0,.06-.11.14l-.37.41c-.09.09-.76.64-.24.27-.22.16-1,.4-.33.24-.65.16.36.07-.33.06a3.38,3.38,0,0,0-.45,0c-.52,0,.6.11.13,0s.49.28-.15-.08c.53.3.39.32.22.14s.38.56.16.2.17.55,0,0c0-.12,0-.25-.08-.37.22.61,0,.43,0,.13s0-.59,0-.89c0-.7-.11.42,0-.31.06-.32.13-.65.21-1a21.14,21.14,0,0,1,.71-2.17c0-.14.44-1.07.23-.59.16-.36.33-.73.5-1.09.37-.78.77-1.54,1.19-2.28s.88-1.52,1.36-2.26c.27-.4.54-.81.83-1.2l.23-.33.24-.31,0,.05c.44-.52.87-1.05,1.36-1.53.2-.2.43-.37.62-.57s-.49.18-.11.09a2.06,2.06,0,0,0,.37-.23c2.81-1.56.3-5.88-2.52-4.31Z"/><path class="cls-1" d="M265.22,585.17a60.56,60.56,0,0,0-14.91,13.56c-4.17,5.28-8,11.67-7.94,18.62a2.52,2.52,0,0,0,1.83,2.41c4.31.82,8.17-2,11.31-4.57s5.78-5.58,8.62-8.42c2.28-2.28-1.26-5.82-3.54-3.54-2.53,2.54-4.93,5.2-7.62,7.57a25.24,25.24,0,0,1-4.27,3.14,6.73,6.73,0,0,1-1.95.85c-.19.06-1.08.17-.59.14l-.44,0c-.69,0,.48.12-.19,0l1.84,2.41c-.08-5.66,3.38-11.28,6.94-15.66a56.4,56.4,0,0,1,13.44-12.21c2.71-1.71.21-6-2.53-4.31Z"/><path class="cls-1" d="M267.66,589.24c11.12,1,22.4.65,33.42,2.57,10.43,1.82,20,6.2,29.24,11.28a98.53,98.53,0,0,1,13.94,9,2.57,2.57,0,0,0,3.53,0,2.52,2.52,0,0,0,0-3.54c-8.13-6.47-17.47-11.52-27-15.73a77.74,77.74,0,0,0-16.19-5.39,122.45,122.45,0,0,0-17.29-2c-6.57-.38-13.14-.54-19.7-1.14a2.51,2.51,0,0,0-2.5,2.5,2.56,2.56,0,0,0,2.5,2.5Z"/><path class="cls-1" d="M262.16,609.21c.22-.37.44-.73.68-1.09l.38-.52h0l.16-.2a21.35,21.35,0,0,1,1.8-1.88c.32-.3.66-.59,1-.87.64-.53-.34.24.33-.26l.44-.31a25.94,25.94,0,0,1,2.39-1.51,30.61,30.61,0,0,1,9.59-3.41,2.52,2.52,0,0,0,1.75-3.07,2.54,2.54,0,0,0-3.07-1.75c-7.62,1.43-15.75,5.43-19.76,12.34a2.5,2.5,0,1,0,4.31,2.53Z"/><path class="cls-1" d="M304.71,623.32c8.66,2.51,16.56,6.73,24.53,10.86,4.33,2.24,8.7,4.41,13.07,6.58a88.59,88.59,0,0,1,11.95,6.52c3.9,2.74,7.53,5.86,11.71,8.19,2.82,1.57,5.34-2.75,2.53-4.32-3.76-2.08-7.07-4.81-10.53-7.33a77.47,77.47,0,0,0-11.82-6.73c-8.51-4.21-16.86-8.75-25.42-12.85A95.77,95.77,0,0,0,306,618.5c-3.1-.9-4.42,3.92-1.33,4.82Z"/><path class="cls-1" d="M359.58,721.21a59.69,59.69,0,0,0,10.84-2,99.39,99.39,0,0,1,10.58-2.7c7-1.06,14.05.09,21-1.14s13.32-4.18,20.3-4.57c7.26-.41,14.49,1.16,21.75.35,12.78-1.42,23.71-8.54,35.64-12.7,13.12-4.56,27.32-3,40.87-5.42,4-.7,7.84-1.83,11.75-2.82a35.94,35.94,0,0,1,10.74-1.52c6.26.36,13.15,3.11,19.27.65a2.58,2.58,0,0,0,1.74-3.08,2.52,2.52,0,0,0-3.07-1.75c-2.46,1-5.08.84-7.67.55-3-.33-5.86-.95-8.81-1.25-6.75-.7-13.36,1.61-19.82,3.23-6.93,1.73-14,2.29-21.09,2.74-6.87.45-13.9.66-20.58,2.42-12.1,3.18-22.71,10.45-34.93,13.23-6.84,1.56-13.65.64-20.56.36a46.15,46.15,0,0,0-11.07.77c-3.41.68-6.73,1.74-10.08,2.66A47.74,47.74,0,0,1,394.94,711c-4,.09-7.93-.1-11.88.24-8,.68-15.44,4.31-23.48,5a2.56,2.56,0,0,0-2.5,2.5,2.51,2.51,0,0,0,2.5,2.5Z"/><path class="cls-1" d="M391.39,646.24c18.87,17.55,43.51,27.06,68.45,32.13,7,1.42,14,2.5,21.11,3.37a2.52,2.52,0,0,0,2.5-2.5,2.56,2.56,0,0,0-2.5-2.5c-24.1-3-48.58-8.8-69.51-21.57a103.15,103.15,0,0,1-16.51-12.46c-2.36-2.19-5.9,1.34-3.54,3.53Z"/><path class="cls-1" d="M508,662c6.52,3.55,13.68,5.22,21,6.22s14.43,1.56,21.44,3.46c3.11.84,4.44-4,1.33-4.82-13.6-3.69-28.55-2.29-41.23-9.18-2.83-1.53-5.36,2.78-2.52,4.32Z"/><path class="cls-1" d="M554,680.49c4.68,14.49,22.39,17.56,35,12.14a22.61,22.61,0,0,0,8.65-6.32,2.57,2.57,0,0,0,0-3.54,2.51,2.51,0,0,0-3.53,0c-6.82,8.41-21.45,10-30.18,3.66-.34-.25.23.19-.1-.08l-.49-.4c-.32-.28-.63-.57-.94-.87s-.59-.61-.87-.93a4.7,4.7,0,0,1-.49-.62,15.46,15.46,0,0,1-2.23-4.37c-1-3-5.81-1.74-4.82,1.33Z"/><path class="cls-1" d="M586.33,649.13c-5.9,2.08-4.16,8.89-2.3,13.29,2.18,5.18,5.4,9.73,8.25,14.55A36.37,36.37,0,0,1,597,688.74a2.5,2.5,0,0,0,4.82-1.33c-1.38-7.22-5.33-13.16-9.12-19.31-2.18-3.54-4.26-7.1-5.21-11-.07-.28-.13-.57-.18-.85,0,0-.07-.42,0-.14s0-.36,0-.36c0-.25,0-.5,0-.76a1.67,1.67,0,0,1,0-.31c0,.2-.09.37,0,.08,0-.12.2-.73.08-.42s.14-.23.21-.34c-.41.63.39-.31-.13.14a.66.66,0,0,1,.24-.14c.32,0-.53.17.06,0a2.57,2.57,0,0,0,1.75-3.08,2.53,2.53,0,0,0-3.08-1.75Z"/><path class="cls-1" d="M601.06,675.06c-2.7.48-3.73,4-4.26,6.29a57,57,0,0,0-1.3,10.49,35.5,35.5,0,0,0,.32,8.37c.87,4.53,3.66,8.49,6.6,11.92,3.3,3.85,7.21,7.21,10.11,11.38a2.57,2.57,0,0,0,3.42.89,2.52,2.52,0,0,0,.9-3.42,87.11,87.11,0,0,0-8.44-9.67c-2.69-2.87-5.48-5.95-6.95-9.66a18,18,0,0,1-.82-2.77c0-.2-.1-.88,0-.09,0-.28-.06-.56-.08-.84-.1-1.25-.11-2.5-.1-3.75,0-1.62.1-3.23.23-4.84s.27-2.94.48-4.24a28.78,28.78,0,0,1,1.08-4.49,2.09,2.09,0,0,1,.13-.35c-.24.6,0,.07,0,0s.26-.44.38-.66c0,.09-.42.37-.15.2s0-.09,0,0-.5.2-.22.15a2.5,2.5,0,1,0-1.33-4.82Z"/><path class="cls-1" d="M614.69,722.25c1.77,2.07,4.66,2.69,7.26,2.84a34.14,34.14,0,0,0,8.83-.88c5.14-1,11.38-2.36,13.47-7.82,1.15-3,.58-6.48,0-9.54a2.51,2.51,0,0,0-3.07-1.74,2.54,2.54,0,0,0-1.75,3.07,20,20,0,0,1,.52,4.3,4.78,4.78,0,0,1-.18,1.66,5.79,5.79,0,0,1-.29.92c.19-.43-.12.18-.16.26a3.68,3.68,0,0,1-1,1.18c.2-.17-.5.34-.6.4-.26.15-.52.3-.79.43a21.71,21.71,0,0,1-3.66,1.18,44.38,44.38,0,0,1-8.53,1.56,17.38,17.38,0,0,1-4-.12l-.88-.22-.47-.16-.06,0c-.09,0-.85-.54-.44-.21a4,4,0,0,1-.61-.62,2.53,2.53,0,0,0-3.54,0,2.55,2.55,0,0,0,0,3.54Z"/><path class="cls-2" d="M443.16,74.14c-3.63-2.69-5.75-7-8.92-10.13-3.69-3.69-8.66-5.71-13.52-7.39-10.22-3.53-21-6.06-31.83-4.16-9.4,1.65-18.07,7-25,13.36a85.93,85.93,0,0,0-16.82,22.25,68.59,68.59,0,0,0-6.13,14.16,45.55,45.55,0,0,0-1.58,14.83,86.74,86.74,0,0,0,2.54,15.35,81.51,81.51,0,0,0,4.84,14.53A61.63,61.63,0,0,0,354,159.06a71.54,71.54,0,0,0,4.94,5.79,25.34,25.34,0,0,0,5.61,4.77c8.78,5,18.54-.22,25.49-5.93a80.72,80.72,0,0,0,18.27-22.3c5-8.73,8.71-18.34,9.9-28.36a47.55,47.55,0,0,0,.32-6.86c-.09-3.21-5.09-3.22-5,0,.24,9.08-2.37,18.1-6.19,26.27A84,84,0,0,1,392.06,155,51.22,51.22,0,0,1,382,163.39c-3.24,2-7.05,3.64-10.94,3.21-4.26-.46-7.19-3.75-9.91-6.76a60.49,60.49,0,0,1-7.81-10.92c-4.54-8.17-7-17.5-8.41-26.7a46,46,0,0,1-.27-13.41,45.88,45.88,0,0,1,4.44-13.74c7.37-15.14,18.69-30.3,35.11-36.16,9.49-3.39,19.72-2.28,29.19.58,4.55,1.37,9.26,2.78,13.41,5.14,4,2.25,6.36,5.82,9.16,9.29a25.47,25.47,0,0,0,4.69,4.53,2.52,2.52,0,0,0,3.42-.89,2.56,2.56,0,0,0-.9-3.42Z"/><path class="cls-2" d="M381.35,166.59c.51,3.46,4.19,6.09,6.8,8a97.38,97.38,0,0,0,11.57,6.84c3.3,1.74,6.69,3.33,9.92,5.19,5.31,3.06,10.87,5.92,16.95,7,9.87,1.84,21.09-.53,27.59-8.66,5.43-6.8,7.37-15.58,7.91-24.1A101.18,101.18,0,0,0,459.65,133c-.68-3.14-5.51-1.81-4.82,1.33.38,1.73.71,3.47,1,5.22.14.86.28,1.71.4,2.57.08.56.09.63.13.93.08.58.15,1.17.22,1.75a97.65,97.65,0,0,1,.65,12.21c-.1,7.69-1.17,15.74-5.11,22.26a19.88,19.88,0,0,1-7.09,7.08,18.09,18.09,0,0,1-5,2,28.84,28.84,0,0,1-8.87.9c-5.65-.31-11-2.5-15.91-5.16-3.32-1.79-6.6-3.63-10-5.36a140.5,140.5,0,0,1-12.57-7,28.4,28.4,0,0,1-4.68-3.53c-.31-.29-.61-.59-.89-.91-.14-.15-.26-.3-.39-.46.39.49,0,0-.1-.16s-.53-1-.39-.64-.12-.49-.15-.68a2.52,2.52,0,0,0-3.08-1.75,2.55,2.55,0,0,0-1.74,3.07Z"/><path class="cls-2" d="M427.72,163.24c2.63,1.71,5.35,3.28,8.07,4.85a2.5,2.5,0,1,0,2.52-4.32c-2.72-1.56-5.44-3.14-8.07-4.84a2.52,2.52,0,0,0-3.42.89,2.55,2.55,0,0,0,.9,3.42Z"/><path class="cls-2" d="M449.83,126.37a6.49,6.49,0,0,1-.76-.19,2.88,2.88,0,0,0-.4-.15s.49.24.27.11l-.27-.13A11.34,11.34,0,0,1,447,125c-.38-.27.32.28,0,0l-.4-.34c-.29-.26-.57-.53-.85-.8s-.55-.57-.81-.87l-.35-.42-.18-.22c-.22-.26.25.35.06.07-.43-.64-.87-1.25-1.24-1.92-.17-.31-.33-.63-.48-1s.14.4,0,0c-.06-.18-.13-.37-.19-.56a7.7,7.7,0,0,1-.26-.94c0-.11-.07-.62-.05-.21s0-.17,0-.28,0-.88,0-.89-.14.63,0,.1c0-.16.09-.32.13-.48.13-.45-.11.17,0,.07a3.47,3.47,0,0,0,.21-.37,1.57,1.57,0,0,1,.12-.19s-.37.4-.17.22.24-.27.36-.39.3-.21,0,0c.15-.09.28-.19.42-.28l.43-.23c.34-.2-.48.14,0,0l.49-.14c.5-.13,0,.1-.11,0a4.5,4.5,0,0,0,.9,0c.24,0-.31,0-.32,0a1.3,1.3,0,0,0,.21,0l.4.1a3.84,3.84,0,0,0,.41.13c.27.06-.3-.09-.26-.11s.24.11.27.12c.27.14.54.29.8.45l.39.27.2.14c.27.16-.36-.31-.12-.09.54.47,1.08.94,1.57,1.46s1,1.16,1.5,1.75c.18.21-.09-.12-.1-.14l.17.23c.11.15.23.3.34.46.24.33.48.67.71,1,1.73,2.53,3.14,5.24,4.8,7.81a2.56,2.56,0,0,0,3.42.9,2.53,2.53,0,0,0,.9-3.42c-1.63-2.52-3-5.18-4.69-7.66-1.95-2.86-4.33-6.09-7.57-7.58a7.78,7.78,0,0,0-5.36-.6,7.61,7.61,0,0,0-4.51,3.4c-1.89,3.3-.61,7.36,1.28,10.34a19.56,19.56,0,0,0,4.05,4.65,11.8,11.8,0,0,0,5.09,2.73,2.5,2.5,0,1,0,1.33-4.82Z"/><path class="cls-2" d="M448.2,127c-3.65,3.74-8.23,6.79-13.61,6.93-5.63.15-10.87-2.69-15.15-6.13a2.59,2.59,0,0,0-3.54,0,2.53,2.53,0,0,0,0,3.54c5.32,4.26,11.67,7.77,18.69,7.59,6.72-.18,12.56-3.7,17.15-8.4,2.25-2.3-1.28-5.84-3.54-3.53Z"/><path class="cls-2" d="M439.74,80.79c3.34,6.32,6.76,12.62,9.74,19.13a115,115,0,0,1,7,19.84c.79,3.12,5.61,1.8,4.83-1.33-3.59-14.31-10.37-27.2-17.21-40.17-1.51-2.84-5.82-.32-4.32,2.53Z"/><path class="cls-2" d="M439.63,70a38.89,38.89,0,0,1,13.59-8.64,43.84,43.84,0,0,1,14.57-2.5c10.56-.1,20.92,2.71,30.93,5.79,2.51.78,5,1.6,7.52,2.39a37.77,37.77,0,0,0,9.68,1.54c3.24.15,6.48.07,9.71.31A34.37,34.37,0,0,1,534,70.59c5,1.66,9.54,4.24,14.31,6.38a60.7,60.7,0,0,0,7.83,3,57.29,57.29,0,0,0,9.11,1.58c3.69.45,7.34,1.1,11,1.79s7.47,1.64,11.24,2.08c2.88.34,5.79.09,8.69.18,2.52.08,5.17.43,7.13,2.16a2.54,2.54,0,0,0,3.53,0,2.51,2.51,0,0,0,0-3.53c-4.49-4-10.19-3.6-15.8-3.62a46,46,0,0,1-8.72-1.18c-3.38-.65-6.77-1.32-10.17-1.88s-6.68-.87-10-1.36a39.32,39.32,0,0,1-8.32-2.29c-5.23-2-10.11-4.81-15.29-6.93a47.46,47.46,0,0,0-17.6-3.27,61.14,61.14,0,0,1-9.66-.59,68.53,68.53,0,0,1-8.63-2.49c-10.45-3.3-21.2-6.35-32.23-6.73a50,50,0,0,0-17.76,2.4,45.12,45.12,0,0,0-16.49,10.17c-2.33,2.23,1.21,5.76,3.54,3.54Z"/><path class="cls-2" d="M357,165.93c-.1,14.26,6.65,27.85,14.19,39.57a212.23,212.23,0,0,0,13,17.83c4.23,5.26,8.73,10.3,12.8,15.68,4.41,5.83,8.62,11.83,13.47,17.31a63.75,63.75,0,0,0,7.54,7.34,50.25,50.25,0,0,0,4.43,3.24,29.39,29.39,0,0,1,3.68,2.55,12.27,12.27,0,0,1,3.68,5.53,47.82,47.82,0,0,1,1.49,7.79,54.6,54.6,0,0,0,2.34,10.5,64.74,64.74,0,0,0,5.16,11c2,3.49,4.36,6.77,6.17,10.38s3.26,7.39,4.92,11.07c3.49,7.73,8.68,14.47,13.63,21.3,1.22,1.69,2.44,3.39,3.64,5.1a2.57,2.57,0,0,0,3.42.9,2.51,2.51,0,0,0,.9-3.42c-4.85-6.92-10.26-13.55-14.49-20.88-4-7-6.21-14.84-10.59-21.65-4.24-6.58-8.15-13.47-9.59-21.26-1-5.31-1-11.18-3.84-15.93a19.93,19.93,0,0,0-6.24-6.19,58.9,58.9,0,0,1-7.88-5.91c-5.19-4.82-9.48-10.5-13.69-16.16s-8.56-11.14-13.09-16.55-8.73-10.71-12.71-16.37a129.33,129.33,0,0,1-11.26-18.87,59.62,59.62,0,0,1-5.87-19.09,42.73,42.73,0,0,1-.23-4.8c0-3.22-5-3.22-5,0Z"/><path class="cls-2" d="M449.43,94.52c2.89,5.47,8.5,8.82,11.38,14.27a31,31,0,0,1,2.77,9.24c.7,3.88,1.27,7.76,1.62,11.69,1.39,15.63,1.49,31.21-1.46,46.67q-1.22,6.38-2.95,12.64c-.29,1.05-.59,2.09-.9,3.13-.36,1.24-.76,2.34,0,3.55,1.38,2.23,3.89,1.84,5.58.25,2.35-2.21-1.19-5.74-3.54-3.53-.11.13-.11.13,0,0h1.33l.78.46.25,1.93A154.24,154.24,0,0,0,471.23,151a216.48,216.48,0,0,0-1.17-22.77c-.38-3.88-1-7.72-1.65-11.56a38.29,38.29,0,0,0-2.73-9.31,29.66,29.66,0,0,0-5.95-8.07c-2.21-2.29-4.48-4.48-6-7.33s-5.82-.32-4.32,2.53Z"/><path class="cls-2" d="M436.51,297.91A167.87,167.87,0,0,1,426,316.21c-3.77,5.81-7.81,11.49-11.27,17.5-6.34,11-6.79,24.59-6.61,37,.21,14.45,3.48,28.57,5.21,42.86a196.34,196.34,0,0,1,1.1,22.22q.11,11.31.6,22.62t1.43,22.42C417,488.24,418,495.63,419,503A160.23,160.23,0,0,1,421,524.46a71.67,71.67,0,0,1-.69,10.66c-.5,3.32-1.43,6.48-2.23,9.72-1.63,6.51-.62,13.34,4.3,18.18,4.76,4.67,11.61,6.81,18,7.92a95,95,0,0,0,23.16.87,104.42,104.42,0,0,0,20.56-3.37c1.24-.35,2.47-.74,3.68-1.18a2.57,2.57,0,0,0,1.75-3.08,2.53,2.53,0,0,0-3.08-1.75,58.89,58.89,0,0,1-7.94,2.25c-3.26.71-6.76,1.27-9.6,1.61a106.07,106.07,0,0,1-22.6.44c-2-.19-2.9-.31-4.85-.65-1.73-.31-3.45-.69-5.14-1.17-.73-.21-1.46-.43-2.18-.68l-1.05-.38-.62-.24c-.05,0-.72-.3-.2-.08a26.28,26.28,0,0,1-4-2.15c-.28-.18-.55-.37-.82-.56-.57-.41.12.13-.41-.32a18.64,18.64,0,0,1-1.53-1.42l-.68-.76c-.1-.11-.36-.47,0,0l-.33-.45a13.79,13.79,0,0,1-1-1.74c-.06-.12-.45-1-.2-.41-.12-.29-.23-.58-.33-.88a15.86,15.86,0,0,1-.5-2.06c0-.11-.1-.77,0-.12l-.06-.61c0-.34,0-.69,0-1a19.35,19.35,0,0,1,.12-2.41c.07-.74-.05.3,0-.15l.09-.58c.07-.41.16-.81.25-1.21.31-1.34.74-2.66,1.09-4a68.61,68.61,0,0,0,1.82-10.83,102.77,102.77,0,0,0-.62-21.11c-.82-7.12-2-14.18-2.81-21.3s-1.33-14.58-1.76-21.88-.75-14.64-.92-22,.05-14.76-.36-22.12c-.78-14.24-4.1-28.16-5.5-42.33a141.24,141.24,0,0,1-.52-19.73A69.42,69.42,0,0,1,416,343.28c1.92-6.1,5.64-11.32,9.11-16.62,3.74-5.69,7.55-11.35,11-17.24q2.56-4.41,4.79-9a2.57,2.57,0,0,0-.9-3.42,2.53,2.53,0,0,0-3.42.9Z"/><path class="cls-2" d="M423.17,561.46c-2.25,1.83-3.7,4.57-2.94,7.51.68,2.59,2.77,4.56,4.89,6a21.13,21.13,0,0,0,17.24,2.86,23.72,23.72,0,0,0,10.19-5.6c2.37-2.18-1.17-5.71-3.54-3.54-4.6,4.22-11.46,6.11-17.47,4a14.09,14.09,0,0,1-5.68-3.67,3,3,0,0,1-.85-1.84q0-.27,0,.06a4.21,4.21,0,0,1,.12-.48c.17-.42-.1.06.19-.38a7.15,7.15,0,0,1,1.42-1.44,2.53,2.53,0,0,0,0-3.54,2.56,2.56,0,0,0-3.54,0Z"/><path class="cls-1" d="M579.19,26.37C577.8,32.68,576.27,39,576,45.5A41.88,41.88,0,0,0,579.31,64c4.14,9.51,12.84,14.84,20.69,21a59.43,59.43,0,0,1,18.68,24.86,74.61,74.61,0,0,1,4.2,15.32c.84,5.07.9,10.22,1.67,15.3.79,5.26,2.68,10.17,7,13.48a21.91,21.91,0,0,0,13,4c9.32.13,19.11-3.67,25.45-10.58,12.94-14.1,8.08-35.46,3.6-52-2.5-9.21-4.83-18.52-7.83-27.59-3.29-10-7.61-19.88-14.71-27.74A42.62,42.62,0,0,0,645.55,35,2.58,2.58,0,0,0,642,35a2.51,2.51,0,0,0,0,3.53C657.78,50.71,662,72.12,667,90.27c2.24,8.11,4.65,16.39,5.72,24.66a57.62,57.62,0,0,1,.37,12.86,30.66,30.66,0,0,1-3.11,11c-4,7.5-11.49,12.07-19.71,13.65a23.22,23.22,0,0,1-12.35-.66,12.33,12.33,0,0,1-7.71-8.68c-1.29-4.63-1.26-9.49-1.8-14.24a82.78,82.78,0,0,0-3.15-15.44,66.11,66.11,0,0,0-15.61-26.52A102.6,102.6,0,0,0,597.35,76.8a53.36,53.36,0,0,1-10-9c-7.06-8.76-7.3-20.67-5.29-31.22.57-3,1.26-6,1.91-8.93.69-3.13-4.13-4.47-4.82-1.33Z"/><path class="cls-1" d="M583.29,26.23c-.09-2.08-.22-4.16-.24-6.24,0-1.06,0-2.12.07-3.18a21.18,21.18,0,0,1,.3-2.85,19.5,19.5,0,0,1,.7-2.83,9.34,9.34,0,0,1,1.21-2.47s.47-.66.17-.27c.15-.19.31-.37.47-.55a9.1,9.1,0,0,1,1.06-1c-.36.29.29-.2.3-.21.21-.14.43-.27.66-.4a6.62,6.62,0,0,1,1.4-.62A15.12,15.12,0,0,1,592.12,5,12.38,12.38,0,0,1,593.61,5l.68,0c.3,0,.29,0,0,0l.41.08a11,11,0,0,1,1.12.33c-.61-.23.37.23.55.33s.57.44.06,0l.4.34.36.38c.48.49-.07-.15.16.19s.33.5.48.76.55,1.19.31.59a15.9,15.9,0,0,1,.75,2.46c.09.41.17.83.25,1.24,0,.21.07.42.1.63s.11.8,0,.2c.12.95.21,1.91.28,2.87.29,3.77.16,7.86,1.46,11.46a2.57,2.57,0,0,0,3.08,1.75,2.53,2.53,0,0,0,1.74-3.08,14.43,14.43,0,0,1-.59-2.26c0-.19-.07-.37-.1-.56s-.11-.84,0-.21c-.06-.47-.11-.94-.16-1.42-.17-1.93-.26-3.86-.41-5.79-.29-3.79-.67-8.13-3-11.31-2.89-4-7.64-4.6-12.2-3.57a13.81,13.81,0,0,0-10.23,10c-1.51,5.11-1.06,10.58-.82,15.83.15,3.2,5.15,3.22,5,0Z"/><path class="cls-1" d="M604.07,21.37c2.64-.82,5.71-1.66,8.17-1.38l.51.09c.23.05.46.1.69.17s.52.16.78.25l.14.05.25.11a25.84,25.84,0,0,1,2.94,1.7c2.8,1.85,5.47,4.07,8.59,5.34s6.54,1,9.53,2.43,4.14,4.37,6,7.05,6.12.15,4.32-2.52-3.22-5.74-5.93-7.74c-3.14-2.32-6.81-2.43-10.43-3.34-5.89-1.48-9.76-7.3-15.86-8.39-3.71-.66-7.45.27-11,1.36-3.07.95-1.76,5.78,1.33,4.82Z"/><path class="cls-1" d="M676.09,123c3.71,9.25,7.51,18.51,9.69,28.26.7,3.14,5.52,1.81,4.82-1.33-2.18-9.75-6-19-9.69-28.26a2.58,2.58,0,0,0-3.07-1.75,2.52,2.52,0,0,0-1.75,3.08Z"/><path class="cls-2" d="M425.08,223.83c6.89,1.51,13.16,4.41,19.44,7.54a2.5,2.5,0,1,0,2.52-4.31c-6.64-3.32-13.34-6.46-20.64-8.05a2.56,2.56,0,0,0-3.07,1.75,2.52,2.52,0,0,0,1.75,3.07Z"/><path class="cls-2" d="M443.28,227c.67,9.44,5.45,18.14,10.32,26,5.37,8.71,11.48,17,16.55,25.85a55.73,55.73,0,0,1,5.94,13.65c.8,3.11,5.62,1.79,4.82-1.33C478.55,282,473.16,273.8,468,266c-5.54-8.44-11.53-16.73-15.85-25.89A38.82,38.82,0,0,1,448.28,227a2.56,2.56,0,0,0-2.5-2.5,2.51,2.51,0,0,0-2.5,2.5Z"/><path class="cls-2" d="M460.07,192.93c-1.82,5.79-1.48,12.2-.84,18.15a206.15,206.15,0,0,0,3.64,21.07c.67,3.14,1.37,6.27,2,9.42a63,63,0,0,0,2.08,8.89,17.66,17.66,0,0,0,4.36,7,17,17,0,0,0,6.32,3.57,56.64,56.64,0,0,0,8,1.7,65.53,65.53,0,0,1,9.59,2.27c3.06,1,4.37-3.8,1.33-4.82-5-1.68-10.27-2.15-15.4-3.37a28.06,28.06,0,0,1-3.12-.95c-.44-.17.2.11-.23-.09l-.7-.34a13.54,13.54,0,0,1-1.32-.79c-.12-.07-.65-.48-.3-.2-.21-.17-.41-.34-.6-.52a12.49,12.49,0,0,1-1.12-1.18c-.25-.32.19.26-.05-.07-.07-.1-.15-.2-.22-.31s-.33-.5-.48-.75a15.39,15.39,0,0,1-.89-1.71,41.29,41.29,0,0,1-2.1-8.26c-.58-2.89-1.22-5.76-1.85-8.64-1.39-6.44-2.77-12.91-3.64-19.45-.84-6.37-1.52-13.31.37-19.31,1-3.08-3.86-4.4-4.82-1.33Z"/><path class="cls-2" d="M498.55,149.25c4,1.3,8,.11,11.84-1.15s7.24-2.15,10.94-.22c2.85,1.49,5.38-2.83,2.53-4.32-4.33-2.26-8.81-2.15-13.39-.74-1.86.57-3.68,1.27-5.58,1.72a9,9,0,0,1-5-.12c-3.07-1-4.38,3.83-1.33,4.83Z"/><path class="cls-1" d="M251.05,277.47a13.82,13.82,0,0,1-4,1.66,41.4,41.4,0,0,1-5.41,1.07c-3.76.52-7.55.72-11.34.95-8.15.51-16.64,1.79-24.61-.65a84.51,84.51,0,0,1-10-4.11A93.31,93.31,0,0,0,184.71,272a24.46,24.46,0,0,0-10.79-1.2,13.55,13.55,0,0,0-8,4.15,39.71,39.71,0,0,0-5.54,8.15c-1.77,3.24-3.33,6.6-4.77,10-1.25,2.95-2.42,5.94-3.48,9a30.6,30.6,0,0,0-2,12.23A31.76,31.76,0,0,0,154,326.75a70.47,70.47,0,0,0,7.55,11.41c5.53,6.91,12.76,13,21.6,14.93a69.25,69.25,0,0,0,14.45,1.12c2.44,0,4.87,0,7.3.08s5.07.32,7.61.4c10.7.37,21.42-.55,32.13,0,2.55.13,5.11.34,7.64.69a1.28,1.28,0,0,0,1.52-.86,1.25,1.25,0,0,0-.86-1.52c-10.58-1.45-21.24-.83-31.87-.7-2.62,0-5.23,0-7.85-.05s-5.06-.29-7.6-.4c-4.77-.2-9.55,0-14.32-.24a35.07,35.07,0,0,1-13-2.7,37.2,37.2,0,0,1-10.48-7.45,62.82,62.82,0,0,1-8.24-10.16,45.62,45.62,0,0,1-5.92-11.69,24.17,24.17,0,0,1-.45-12.52,64.44,64.44,0,0,1,3-9c1.27-3.25,2.64-6.45,4.16-9.59a66.59,66.59,0,0,1,5.17-9.17,21.84,21.84,0,0,1,2.6-3.15c.21-.2.42-.4.64-.59l.32-.27s.19-.14,0,0l.2-.15a12.79,12.79,0,0,1,2-1.13,15.6,15.6,0,0,1,9.4-.55c7.41,1.53,14,5.52,21,8.27a36.77,36.77,0,0,0,4.76,1.56,39,39,0,0,0,6.36.93,86.25,86.25,0,0,0,13.54-.33c3.55-.31,7.12-.44,10.67-.74a56.24,56.24,0,0,0,11.09-1.78,17.16,17.16,0,0,0,4.13-1.77c1.34-.85.1-3-1.25-2.13Z"/><path class="cls-1" d="M167,321.63a31.1,31.1,0,0,0,10.34,4.75c3.88,1.14,7.85,1.94,11.77,2.91,4.37,1.07,8.6,2.61,12.9,3.89q7.31,2.18,14.72,3.92c5.58,1.31,11.22,2.41,16.88,3.34a1.28,1.28,0,0,0,1.52-.87,1.24,1.24,0,0,0-.86-1.51,251.56,251.56,0,0,1-29.59-6.67c-2.48-.71-4.95-1.47-7.4-2.25-2-.63-3.92-1.3-5.92-1.82-3.85-1-7.75-1.78-11.59-2.82-4-1.09-8.18-2.41-11.53-5a1.24,1.24,0,0,0-1.69.44,1.27,1.27,0,0,0,.45,1.69Z"/><path class="cls-2" d="M105,248.5a91.09,91.09,0,0,1,5.08,17.33,69.33,69.33,0,0,1,.77,17.91c-.85,10.14-1.33,20.36-3.45,30.34A52.65,52.65,0,0,1,102,329.53a1.24,1.24,0,0,0,2.13,1.25,52,52,0,0,0,5.25-14,125.11,125.11,0,0,0,2.57-16c.54-5.09.89-10.2,1.3-15.31.23-2.89.43-5.78.4-8.69a71.87,71.87,0,0,0-.73-9.15,88.33,88.33,0,0,0-5.47-19.79,1.26,1.26,0,0,0-1.51-.86,1.24,1.24,0,0,0-.87,1.51Z"/><path class="cls-2" d="M100.8,330.15c-3.76,2.57-8.55,3.1-13,3.15a99.84,99.84,0,0,1-14.34-1.14,220.41,220.41,0,0,1-33.74-7,130.57,130.57,0,0,1-18.06-6.72,1.26,1.26,0,0,0-1.68.44,1.23,1.23,0,0,0,.44,1.69,157.2,157.2,0,0,0,34.15,10.87q8.68,1.83,17.48,3a120.09,120.09,0,0,0,14.3,1.34c5.29.07,11.2-.41,15.69-3.49a1.23,1.23,0,1,0-1.24-2.13Z"/><path class="cls-2" d="M106,247.84c-4.17-3.33-10-1-14.3.86-2.43,1-4.51,2-7,2.85a84.2,84.2,0,0,1-10.39,2.55c-3.87.75-7.75,1.44-11.56,2.47a1.23,1.23,0,0,0,.65,2.38c6.58-1.78,13.38-2.52,19.93-4.4a60.58,60.58,0,0,0,7.84-2.94,41.88,41.88,0,0,1,6.67-2.51,12.08,12.08,0,0,1,3.64-.45,5,5,0,0,1,2.78.93,1.27,1.27,0,0,0,1.74,0,1.24,1.24,0,0,0,0-1.74Z"/><path class="cls-2" d="M107.28,254.2c5.18,0,11,.72,15.52-2.3,1.32-.87.09-3-1.24-2.13-4.16,2.75-9.57,2-14.28,2a1.24,1.24,0,0,0,0,2.47Z"/><path class="cls-2" d="M111.63,297.15c6.81-3.12,13.63-6.39,19.79-10.7a55.69,55.69,0,0,0,4.94-3.87c1.19-1.05-.56-2.79-1.74-1.74-5.5,4.87-12.13,8.4-18.71,11.59-1.83.88-3.68,1.74-5.53,2.59a1.23,1.23,0,1,0,1.25,2.13Z"/><path class="cls-2" d="M127.51,267.43c1.76,2.67,4,5.32,5.2,8.22a1.26,1.26,0,0,0,1.51.86,1.24,1.24,0,0,0,.86-1.51c-1.34-3.23-3.54-5.92-5.45-8.82a1.23,1.23,0,1,0-2.12,1.25Z"/><path class="cls-2" d="M165.71,258.62a34,34,0,0,1,1,6.65,12.45,12.45,0,0,1-1.92,6.24,1.23,1.23,0,0,0,2.13,1.24,15.11,15.11,0,0,0,2.26-7.32,37.07,37.07,0,0,0-1.07-7.47,1.25,1.25,0,0,0-1.52-.86,1.26,1.26,0,0,0-.86,1.52Z"/><path class="cls-2" d="M165.67,269.47a12,12,0,0,1-.42,3.75c-.07.26-.16.53-.25.79,0,.05-.16.39-.07.18-.06.14-.12.28-.19.41a9.44,9.44,0,0,1-.82,1.36c-.17.23,0,0-.1.13l-.24.28a7.4,7.4,0,0,1-.55.57c-.18.17-.37.33-.56.48s0,0,0,0l-.17.12c-.11.09-.23.17-.35.25a11.4,11.4,0,0,1-1.36.78l-.35.17-.26.12c.08,0-.2.08-.27.1l-.43.16A21.17,21.17,0,0,1,156,280a29.15,29.15,0,0,1-3.5.42c-2.54.19-5.08.17-7.62.12s-5.16-.16-7.74-.06c-1.58.06-1.59,2.53,0,2.46,5-.19,10,.3,15,0,4.68-.31,10.22-1.2,13.4-5a12.53,12.53,0,0,0,2.6-8.4,1.23,1.23,0,0,0-2.46,0Z"/><path class="cls-2" d="M135.68,217c-3.67,3.53-7.7,6.73-11,10.63a17.89,17.89,0,0,0-3.71,6.25,22.9,22.9,0,0,0-.64,8c.19,3,.66,6,.62,9a1.23,1.23,0,0,0,2.46,0c.08-5.08-1.44-10.28-.33-15.32a13.87,13.87,0,0,1,3-5.83,57.47,57.47,0,0,1,5.32-5.49c2-1.85,4-3.62,6-5.5,1.14-1.1-.6-2.84-1.75-1.74Z"/><path class="cls-1" d="M141.88,282.87a130.21,130.21,0,0,0,11.37,13,1.23,1.23,0,0,0,1.74-1.74,124.48,124.48,0,0,1-11-12.53,1.28,1.28,0,0,0-1.69-.44,1.25,1.25,0,0,0-.44,1.69Z"/><path class="cls-1" d="M138.32,223.16c0-3.3-.27-6.67.27-9.94a18.61,18.61,0,0,1,2.53-6.65A36,36,0,0,1,145.2,201a18.53,18.53,0,0,1,2.15-2.06,9.73,9.73,0,0,1,1.1-.7l.2-.09c-.26.12,0,0,.08,0,.19-.06.37-.1.55-.14s.36,0,0,0l.22,0h.35c.38,0-.1-.07.08,0s.38.21.09,0a1.19,1.19,0,0,0,.22.12c.19.06-.25-.19-.09-.07a.34.34,0,0,1,.08.09c.14.16-.18-.3,0,0s0-.23,0,0a2.45,2.45,0,0,0,.08.29c.1.34,0-.25,0,.06a6.94,6.94,0,0,1,0,.79c0,.09-.08.56,0,.16l-.06.4c-.07.35-.15.7-.24,1a35.18,35.18,0,0,1-1.62,4.55l-.09.22c-.15.36.09-.22-.06.14l-.24.55c-.19.45-.39.89-.58,1.33l-1.09,2.43c-.77,1.71-1.55,3.42-2.21,5.18a8.28,8.28,0,0,0-.82,3.65,1.26,1.26,0,0,0,1.23,1.23,1.24,1.24,0,0,0,1.23-1.23,5.81,5.81,0,0,1,0-.59c0-.22-.07.33,0,.1,0,0,0-.08,0-.12s.06-.3.1-.45a14.65,14.65,0,0,1,.58-1.81c.12-.35.26-.69.4-1,.06-.16.13-.32.19-.47s.15-.36,0-.1l.17-.39c.36-.84.73-1.68,1.11-2.51a64,64,0,0,0,4-10.12,7.43,7.43,0,0,0,.23-3.91,2.93,2.93,0,0,0-2.93-2c-2,0-3.63,1.2-5,2.49A33,33,0,0,0,140,203.8a23.31,23.31,0,0,0-3.49,7.47c-.9,3.9-.62,7.92-.61,11.89a1.23,1.23,0,0,0,2.46,0Z"/><path class="cls-1" d="M149.13,210.5c4.76-.8,8.55-3.88,12.89-5.76a17.69,17.69,0,0,1,6.66-1.32,29.66,29.66,0,0,1,7.86.79c1.8.45,4.21,1.12,5.15,2.78a1.12,1.12,0,0,1,.19.77c0,.21.08-.25,0,.11,0,.08-.05.17-.08.25s-.18.27-.23.33a4.06,4.06,0,0,1-1.19.94l-.51.26-.21.1c.21-.09-.14.05-.15.05a14.34,14.34,0,0,1-2.34.6c-.71.12-1.51.19-2.37.26-1.85.13-3.7.16-5.55.29-3.86.27-8.33,1-10.36,4.74-.76,1.4,1.37,2.64,2.13,1.25a5.7,5.7,0,0,1,3.34-2.67,18.82,18.82,0,0,1,5.19-.88c3.71-.24,7.76,0,11.24-1.47,2-.85,3.91-2.58,3.51-4.92s-2.71-3.68-4.67-4.42a27.16,27.16,0,0,0-8.18-1.58,25.28,25.28,0,0,0-7.9.6c-5.33,1.46-9.53,5.59-15.06,6.53a1.24,1.24,0,0,0-.86,1.51,1.25,1.25,0,0,0,1.52.86Z"/><path class="cls-1" d="M163,214.81c2.53,3,7.16,3.45,10.81,3.71,1.33.1,2.65.13,4,.16.69,0,1.38,0,2.07.12a5.34,5.34,0,0,1,.7.1,9.41,9.41,0,0,1,1,.24l.39.13c.26.09-.1-.07.2.1l.33.18.15.11c-.25-.18,0,0,0,0s.28.33.1.08a2.82,2.82,0,0,1,.18.29c.11.19,0,0,0-.05a1.21,1.21,0,0,1,.05.18l.06.23c0,.13,0-.23,0,0s0,.32,0,.49,0-.18,0,0l-.06.25a4.85,4.85,0,0,1-.38,1.11,4.49,4.49,0,0,1-1.49,1.85,6.87,6.87,0,0,1-4.68.81,33.85,33.85,0,0,1-4.36-1c-3.25-.79-8.62-1.83-10.59,1.81-.76,1.39,1.37,2.64,2.12,1.24a1.66,1.66,0,0,1,.55-.68c-.15.13.17-.1.24-.14l.21-.12c.23-.12-.08,0,.15-.06a5.64,5.64,0,0,1,2.19-.33,19.92,19.92,0,0,1,4.92.77c3.35.86,7.19,1.93,10.37-.08,2.75-1.72,4.86-6.52,1.66-8.82a8.31,8.31,0,0,0-4-1.18c-1.36-.15-2.72-.13-4.08-.17a36.21,36.21,0,0,1-5.69-.57c-2-.38-4.09-1-5.41-2.55a1.24,1.24,0,0,0-1.74,0,1.27,1.27,0,0,0,0,1.75Z"/><path class="cls-1" d="M165.43,227.29c2,.54,4.14.91,6.18,1.51a12.17,12.17,0,0,1,5.38,2.76l.24.26.16.19.14.2c.08.11.15.23.22.34a3.76,3.76,0,0,1,.51,1.26,6.24,6.24,0,0,1-.1,3.31,4.06,4.06,0,0,1-2.42,2.58,1.71,1.71,0,0,1-1.45-.19s-.35-.24-.2-.12,0,0,0,0a1.7,1.7,0,0,1-.22-.24l-.09-.12-.21-.37a3.88,3.88,0,0,1-.3-.76c-.11-.32-.19-.65-.27-1-.17-.73-.29-1.46-.4-2.2a37.28,37.28,0,0,0-.59-3.88,1.24,1.24,0,0,0-2.38.66c.67,2.61.49,5.49,1.68,8.11a4.38,4.38,0,0,0,3.57,2.66,5.23,5.23,0,0,0,4.43-2.16,8,8,0,0,0,.66-8.66c-1.25-2.24-3.6-3.54-5.93-4.41a73.74,73.74,0,0,0-7.92-2.08,1.23,1.23,0,0,0-.65,2.37Z"/><path class="cls-1" d="M171.4,234.3a11.51,11.51,0,0,0-2.92-1.33,26.85,26.85,0,0,0-2.93-.64,1.23,1.23,0,1,0-.65,2.37c.95.18,1.91.35,2.84.62.22.06.43.13.65.21l.32.12,0,0,.05,0a9.82,9.82,0,0,1,1.35.74,1.25,1.25,0,0,0,1.69-.44,1.27,1.27,0,0,0-.45-1.69Z"/><path class="cls-1" d="M165.89,246.54a4.26,4.26,0,0,0,2.44,2.92,2.9,2.9,0,0,0,2.86-.83c2-1.93,1.84-5,1.11-7.48a46.41,46.41,0,0,0-2-5.08,1.24,1.24,0,0,0-1.69-.45,1.28,1.28,0,0,0-.44,1.69,44.09,44.09,0,0,1,1.77,4.41,9.56,9.56,0,0,1,.45,2.3,7.22,7.22,0,0,1,0,.93c0-.26,0,.2-.05.25s-.06.26-.1.39-.08.24-.13.37h0a1.11,1.11,0,0,1-.09.19,3.73,3.73,0,0,1-.37.6c.19-.25-.06.06-.11.11l-.19.18c.25-.24,0,0-.1,0s.25-.08,0,0-.3,0,0,0c-.11,0-.4-.07,0,0-.18,0-.14-.06,0,0-.07,0-.35-.24-.11,0a1.72,1.72,0,0,1-.27-.27c.14.16,0-.05-.08-.11a3.76,3.76,0,0,1-.4-.84,1.28,1.28,0,0,0-1.52-.87,1.25,1.25,0,0,0-.86,1.52Z"/><path class="cls-2" d="M164.77,245.42a4.94,4.94,0,0,0-.33,4c.4,1,1.13,1.93,1.41,2.93a8.91,8.91,0,0,1,.3,3.63c0-.16,0,.08,0,.13s-.05.27-.08.41-.13.53-.2.8c-.22.76-.45,1.52-.66,2.28a1.23,1.23,0,0,0,2.37.65,32.21,32.21,0,0,0,1-3.74,12.45,12.45,0,0,0-.13-3.9,9.92,9.92,0,0,0-1.31-3.3,3.17,3.17,0,0,1-.49-1.17,2.66,2.66,0,0,1,0-.5,3.35,3.35,0,0,1,.29-.93,1.28,1.28,0,0,0-.44-1.69,1.25,1.25,0,0,0-1.69.44Z"/><path class="cls-2" d="M137.42,227c3-.6,5.63-2.38,8.13-4s5.06-3.51,7.92-4.29a5.94,5.94,0,0,1,3.29,0l.39.13.16.06,0,0a5.64,5.64,0,0,1,.67.4c-.17-.12,0,0,.06.06l.24.25s.21.25.12.13.11.18.14.24l.17.3c0,.09.11.26,0,.06a4.71,4.71,0,0,1,.22.73,2.82,2.82,0,0,1,.07.31c0,.08,0,.39,0,.14q0,.39.06.78a12.32,12.32,0,0,1-.32,3.09,62,62,0,0,1-2.09,7c-.49,1.51,1.89,2.16,2.38.66a67.84,67.84,0,0,0,2-6.56c.51-2.27.89-4.87,0-7.09-1-2.47-3.61-3.51-6.17-3.38-3.13.15-6,2-8.56,3.61-3,1.88-6,4.28-9.49,5a1.24,1.24,0,0,0-.86,1.51,1.26,1.26,0,0,0,1.52.87Z"/><path class="cls-2" d="M159.11,228.82c1,1.2,2,2.33,3,3.56a10.12,10.12,0,0,1,2,3.74,18.27,18.27,0,0,1,.07,4.9,14.83,14.83,0,0,0,.46,5.35c.47,1.51,2.85.87,2.37-.65-1.1-3.46.38-7.14-.62-10.62-.91-3.15-3.54-5.55-5.55-8a1.23,1.23,0,0,0-1.74,0,1.25,1.25,0,0,0,0,1.74Z"/><circle class="cls-3" cx="145.25" cy="288.61" r="138.75"/></g></g></svg>