<svg xmlns="http://www.w3.org/2000/svg" viewBox="0 0 512.17 775.29"><defs><style>.cls-1{fill:#1b1464;}.cls-2{fill:#8cc63f;}</style></defs><title>aikido2</title><g id="Capa_2" data-name="Capa 2"><g id="Capa_1-2" data-name="Capa 1"><path class="cls-1" d="M294.37,163.14c1.48,4.32,4.25,8,6,12.15a2.51,2.51,0,0,0,1.5,1.15,2.55,2.55,0,0,0,1.93-.25,2.58,2.58,0,0,0,.89-3.42,55.11,55.11,0,0,0-2.95-5.65c-.51-.91-1-1.82-1.49-2.76a14.92,14.92,0,0,1-.68-1.46c.21.6-.09-.22-.13-.33l-.27-.76a2.55,2.55,0,0,0-3.08-1.74,2.52,2.52,0,0,0-1.74,3.07Z"/><path class="cls-1" d="M339.29,138.71c-2.38,7.21-.55,15.09.24,22.42a48.28,48.28,0,0,1,0,11.46,96.12,96.12,0,0,1-2.61,12.07c-1.22,4.55-2.51,9.09-3.36,13.74a2.56,2.56,0,0,0,1.74,3.07,2.52,2.52,0,0,0,3.08-1.74c1.51-8.18,4.4-16,5.73-24.25a50.55,50.55,0,0,0,.68-12c-.3-3.87-.94-7.71-1.31-11.58s-.59-8.06.67-11.89c1-3.07-3.81-4.38-4.82-1.33Z"/><path class="cls-1" d="M452.58,145.81c1.36-3.46,3.62-6.5,5.62-9.62a40.09,40.09,0,0,0,4.91-10.9,64.07,64.07,0,0,0,2.49-13.73,49.18,49.18,0,0,0-1.2-12.38A70.5,70.5,0,0,0,455.85,77c-3.77-6.24-8.72-12-15.2-15.52-12-6.53-26.47-4.67-38.6.58a64.89,64.89,0,0,0-16.7,10.53,73.71,73.71,0,0,0-10.93,12.27A70.09,70.09,0,0,0,365.25,101c-2,5.15-3.06,11.15-.6,16.33a13.06,13.06,0,0,0,2.24,3.23c2.19,2.37,5.72-1.17,3.54-3.53a4.22,4.22,0,0,1-.76-1c-.16-.24-.3-.48-.44-.73s-.42-.88-.25-.49a9.59,9.59,0,0,1-.48-1.49c-.07-.27-.12-.55-.18-.83,0,0-.06-.42,0-.16s0-.24,0-.28a18,18,0,0,1,.89-7.08c1.58-5.34,4.49-10.3,7.65-14.93a74.81,74.81,0,0,1,9.26-11.38A59.29,59.29,0,0,1,400.71,68.2c10.45-5.39,23.22-8.14,34.46-3.79C441,66.66,445.67,71,449.25,76a62.67,62.67,0,0,1,9.26,20,63.68,63.68,0,0,1,2,10.42,41.51,41.51,0,0,1-1,12.76,43.26,43.26,0,0,1-3.63,11.12c-1.67,3.12-3.82,5.95-5.61,9a36.46,36.46,0,0,0-2.49,5.15,2.52,2.52,0,0,0,1.75,3.08,2.56,2.56,0,0,0,3.07-1.75Z"/><path class="cls-1" d="M430.12,133.62a8.33,8.33,0,0,1,.41-1.56c0-.1.19-.43,0,0a3.39,3.39,0,0,1,.18-.39c.17-.34.34-.67.53-1a15.72,15.72,0,0,1,2.48-3.36,13.65,13.65,0,0,1,3.23-2.74c.3-.19.62-.35.94-.52.11,0,.58-.24.14-.07l.42-.15.83-.22c.45-.12.07,0,0,0l.61,0s.66.09.27,0,.07,0,.15.06.56.2.07,0a2.58,2.58,0,0,1,.37.19,3.17,3.17,0,0,1,.36.23c-.35-.26-.05,0,0,0s.78.9.54.55a5.61,5.61,0,0,1,.49.86c.18.37-.14-.53,0,.12,0,.13.08.28.12.42a3.15,3.15,0,0,1,.09.42c-.09-.48,0-.12,0,0a8.52,8.52,0,0,1,0,1.13c0,.16,0,.31,0,.47-.07.75.06-.29,0,.16s-.14.73-.23,1.09a18,18,0,0,1-.73,2.22c-.23.59-.48,1.13-.86,1.9s-.76,1.48-1.17,2.2c-1.55,2.74-3.5,5.33-4.78,8.22a2.58,2.58,0,0,0,.9,3.42,2.52,2.52,0,0,0,3.42-.9c1.28-2.88,3.23-5.47,4.77-8.21,1.87-3.31,3.71-7,3.75-10.91.05-3.69-2.2-7.58-6-8.47s-7.37,1.35-10,3.78-5.54,6-6.08,9.69a2.57,2.57,0,0,0,1.74,3.07,2.52,2.52,0,0,0,3.08-1.74Z"/><path class="cls-1" d="M424,131.83c-.22.23-.82.81-.88.85a6.1,6.1,0,0,1-.54.34c-.1.06-.57.31-.12.07a1.24,1.24,0,0,1-.4.11c.8,0-.09,0-.08,0,.32.22.24-.17.13,0-.26-.08-.23-.06.1.07l-.17-.08c-.1,0-.61-.42-.11,0a2.55,2.55,0,0,1-.3-.26c-.09-.09-.74-.84-.45-.45a15.44,15.44,0,0,1-1.23-2c-.75-1.45-1.35-3-2-4.46a23.79,23.79,0,0,0-3.21-5c-7-8.73-19.48-12.32-30.11-9.21a63.46,63.46,0,0,0-8.12,3.53c-2.43,1.09-4.82,1.61-7.21.18-2.77-1.65-5.29,2.67-2.52,4.32a11.05,11.05,0,0,0,8.48,1.22c2.69-.65,5.13-2.1,7.61-3.27a23.82,23.82,0,0,1,28.83,7.43c2,2.89,2.89,6.35,4.81,9.29A7.72,7.72,0,0,0,421,138c2.56.6,4.87-.9,6.58-2.67,2.24-2.31-1.29-5.85-3.54-3.53Z"/><path class="cls-1" d="M369.46,119.45c-2.6,9.83-2.16,20.19-.77,30.17a146.06,146.06,0,0,0,2.88,14.78c1,4.22,1.95,8.76,3.91,12.67a11.92,11.92,0,0,0,6.2,5.93,12.6,12.6,0,0,0,7.73.18c6.21-1.62,11.67-6,16.36-10.16A102.26,102.26,0,0,0,419.6,158a2.52,2.52,0,0,0-.9-3.42,2.56,2.56,0,0,0-3.42.9l-.42.56c-.36.48.23-.3,0,0l-.23.3-1.1,1.36c-.85,1-1.73,2.07-2.63,3.09q-3,3.39-6.28,6.53a75.94,75.94,0,0,1-7,6c-1.2.88-2.44,1.72-3.72,2.48-.57.34-1.15.67-1.73,1-.29.15-.58.3-.87.43-.14.08-1.11.5-.68.32a19,19,0,0,1-3.51,1.08c-.7.15.08,0-.33.06s-.58.05-.87.06-.51,0-.76,0-1-.13-.35,0a13.28,13.28,0,0,1-1.5-.4c-.33-.11.41.2.1,0a3.36,3.36,0,0,1-.33-.16c-.28-.15-.54-.31-.8-.48-.49-.29.16.21-.26-.2l-.58-.55c-.08-.08-.68-.8-.36-.38a9.64,9.64,0,0,1-.58-.84c-1.8-2.87-2.55-6.78-3.47-10.31-1.18-4.54-2.19-9.12-3-13.75-1.68-10.11-2.39-20.87.25-30.87.82-3.11-4-4.44-4.82-1.33Z"/><path class="cls-1" d="M382.21,129.74c-.45,5.15.62,10.27.64,15.41a2.52,2.52,0,0,0,2.5,2.5,2.55,2.55,0,0,0,2.5-2.5c0-5.14-1.09-10.26-.64-15.41a2.52,2.52,0,0,0-2.5-2.5,2.56,2.56,0,0,0-2.5,2.5Z"/><path class="cls-1" d="M440,149.64c.09,8.38,1.59,16.88,5.48,24.37,1.48,2.85,5.79.33,4.31-2.53-3.47-6.69-4.71-14.37-4.79-21.84,0-3.21-5-3.22-5,0Z"/><path class="cls-1" d="M445.19,156.54a16,16,0,0,1,4,11.14c-.13,4-1.74,8.18-3.81,11.87-4.74,8.43-11.8,15.45-18.89,21.91-3.41,3.12-6.93,6.1-10.4,9.16a182.76,182.76,0,0,1-16.14,13.26,48.44,48.44,0,0,1-8.31,4.74,43.7,43.7,0,0,0-8.2,4.19c-5.16,3.72-8,9.62-11,15-3.47,6.22-6.8,12.44-9.76,18.92-3.06,6.69-5.9,13.49-8.72,20.29a2.52,2.52,0,0,0,1.75,3.07,2.56,2.56,0,0,0,3.08-1.74c5-12,9.95-24.18,16.49-35.45,3-5.13,5.43-11.21,10-15.21,2.34-2.06,5.39-3.24,8.21-4.47a50.92,50.92,0,0,0,8.32-4.56A175.61,175.61,0,0,0,418.62,215c3.58-3.15,7.21-6.24,10.75-9.44,7.42-6.72,14.75-14,19.86-22.72a32.78,32.78,0,0,0,4.94-14.93A21.56,21.56,0,0,0,448.73,153a2.52,2.52,0,0,0-3.54,0,2.55,2.55,0,0,0,0,3.53Z"/><path class="cls-1" d="M388.62,181.09c-.25,7.34-1.47,14.61-1.56,22a42.53,42.53,0,0,0,5.11,21.66c1.58,2.81,5.9.29,4.32-2.52-3.47-6.17-4.59-12.95-4.42-20s1.31-14.08,1.55-21.14c.12-3.22-4.88-3.21-5,0Z"/><path class="cls-1" d="M450.33,161c5.11,5.12,7.6,11.7,9.81,18.45,2.27,6.94,4.67,13.75,9.44,19.41a2.52,2.52,0,0,0,3.54,0,2.55,2.55,0,0,0,0-3.53c-4.5-5.35-6.46-12.09-8.62-18.6-2.35-7.1-5.28-13.9-10.64-19.27-2.27-2.28-5.81,1.25-3.53,3.54Z"/><path class="cls-1" d="M470.73,198.65A81,81,0,0,1,498,227.85a55.16,55.16,0,0,1,6.38,18.74,45.7,45.7,0,0,1-2.21,20.28c-2.35,7.31-5.76,14.22-8.63,21.34-3,7.5-5.16,15.34-7.74,23-2.38,7.05-4.79,14.56-9.06,20.73-3.39,4.89-8.11,8.64-13.05,11.86-5.94,3.87-12.12,7.34-18.08,11.18-6.57,4.24-13.15,8.55-20.29,11.78l-1.11.48c-.11.05.31-.12-.14.06l-.78.32c-.92.37-1.84.71-2.78,1a56.47,56.47,0,0,1-6.12,1.8,20.75,20.75,0,0,1-5.51.72c-.41,0-.81,0-1.22-.06-.6,0,.24.07-.19,0l-.63-.13-.52-.14c-.09,0-.61-.21-.26-.07s-.21-.1-.3-.15l-.47-.3c-.09-.05.31.36,0,0-.11-.14-.26-.26-.37-.39.29.33.1.25,0,0a1,1,0,0,0-.11-.21c-.17-.27.15.45,0,.14s-.11-.32-.16-.49-.11-.65-.06-.15a12.16,12.16,0,0,1,0-1.35l0-.34c0,.05-.05.37,0,.07s.11-.6.17-.89c.16-.69.37-1.37.59-2,.59-1.86,1.22-3.72,1.87-5.57,2.57-7.38,5.39-14.7,7.2-22.33a62.14,62.14,0,0,0,1.39-23.67,47.28,47.28,0,0,0-3.24-11.3,15.78,15.78,0,0,0-3.43-5.28c-3-3-7.05-4.75-11.05-5.94a72,72,0,0,0-14.66-2.43c-9.68-.77-19.4-.33-29.09,0-1.69.05-3.39.1-5.08.1-3.22,0-3.23,5,0,5,9,0,18-.68,27-.45a99.57,99.57,0,0,1,15.16,1.37,50.54,50.54,0,0,1,6.75,1.71,20.93,20.93,0,0,1,5.2,2.45c.4.25.78.51,1.15.79-.34-.26,0,0,.15.13l.54.48c.32.29.63.61.92.93.14.15.26.31.39.46.3.35,0,0,0,0l.23.32a27.84,27.84,0,0,1,3.29,8.47c2,7.6,1.65,15.52.08,23.16s-4.35,15.19-7,22.63c-1.19,3.37-2.7,6.84-3.33,10.37a9.4,9.4,0,0,0,.74,6.43c2.07,3.52,6.62,4,10.29,3.63a49.75,49.75,0,0,0,12.74-3.27,102,102,0,0,0,17.1-8.82c6.61-4.1,13.1-8.37,19.77-12.36,5.53-3.32,11.08-6.79,15.67-11.37a40.83,40.83,0,0,0,6-7.64A70.17,70.17,0,0,0,487.16,322c3.06-7.72,5.44-15.67,8-23.56,2.43-7.54,5.72-14.67,8.73-22,2.91-7,5.4-14.35,5.79-22A51.21,51.21,0,0,0,506.25,234c-5-13.23-14.08-24.89-25-33.8a88.61,88.61,0,0,0-8-5.86c-2.71-1.74-5.22,2.59-2.52,4.32Z"/><path class="cls-1" d="M399.49,290.68c4.06-.83,7.91-2.33,11.91-3.38,4.42-1.15,8.84-1,13.36-1.22a114.3,114.3,0,0,1,12.55-.38,54.22,54.22,0,0,1,9.39,1.35,34.9,34.9,0,0,1,5.22,1.58,19.32,19.32,0,0,1,2,.95,9.07,9.07,0,0,1,1.58,1.1c2.38,2.16,5.93-1.36,3.54-3.53a21.85,21.85,0,0,0-9-4.42,61.41,61.41,0,0,0-10.68-1.88,78.28,78.28,0,0,0-12,.08c-4.95.3-10,0-14.91,1s-9.45,2.94-14.3,3.93a2.5,2.5,0,0,0,1.33,4.82Z"/><path class="cls-1" d="M439.74,284.26a96.46,96.46,0,0,0,13.73-16.45c3.92-6.13,4.2-13.51,7.2-20a2.57,2.57,0,0,0-.89-3.42,2.51,2.51,0,0,0-3.42.89c-2.93,6.31-3.3,13.64-7,19.61a86.93,86.93,0,0,1-13.19,15.83c-2.3,2.26,1.24,5.8,3.53,3.53Z"/><path class="cls-1" d="M404,368.66a12.71,12.71,0,0,1-1.23-.42c.5.2-.44-.21-.58-.28a13.6,13.6,0,0,1-2-1.27c.41.31-.38-.33-.5-.44-.31-.27-.6-.56-.88-.85s-.57-.61-.84-.93l-.29-.36c-.18-.22-.19-.24,0,0l-.28-.38a32.19,32.19,0,0,1-4.51-9.63,80.36,80.36,0,0,1-3.13-23.92q0-2.94.18-5.87c.06-.86.13-1.72.22-2.57,0-.4.08-.79.13-1.18,0-.13.1-.77,0-.07,0-.24.07-.47.11-.71a2.58,2.58,0,0,0-1.75-3.07,2.52,2.52,0,0,0-3.08,1.75,88.94,88.94,0,0,0-.19,23.11c.92,8.29,2.62,17.29,7.43,24.29a18.46,18.46,0,0,0,9.91,7.66c3.1.89,4.42-3.93,1.33-4.82Z"/><path class="cls-1" d="M413,315.3c-6.24-.74-12.46-1.77-18.75-1.95-3.54-.1-7.06.15-10.59.33-8,.43-16,.85-24.06.66-1.91,0-3.83-.13-5.73-.32l-.57-.06c-.12,0-.92-.11-.3,0-.33,0-.66-.09-1-.15a16,16,0,0,1-2-.47c-3.07-1-4.39,3.85-1.33,4.82a34.45,34.45,0,0,0,9.05,1.15c4.09.16,8.19.1,12.29,0,7.09-.2,14.19-.83,21.29-.94,7.26-.11,14.44,1.11,21.64,2a2.52,2.52,0,0,0,2.5-2.5,2.56,2.56,0,0,0-2.5-2.5Z"/><path class="cls-1" d="M370.43,133.75c-5-6-10.87-11.66-18.83-13.23-3.63-.71-7.2-1.09-10.56-2.76a45.56,45.56,0,0,1-9.12-6.47,2.56,2.56,0,0,0-3.54,0,2.52,2.52,0,0,0,0,3.53,53.77,53.77,0,0,0,9.55,7,33.11,33.11,0,0,0,10.81,3.32,22.1,22.1,0,0,1,10,4,45.18,45.18,0,0,1,8.11,8.18,2.53,2.53,0,0,0,3.54,0,2.56,2.56,0,0,0,0-3.54Z"/><path class="cls-1" d="M314.77,331.68c-6.27,3-5.47,10.63-3.46,16.06a62,62,0,0,0,11.63,18.88,26.34,26.34,0,0,0,6.59,6c2.81,1.58,5.33-2.74,2.53-4.31-.36-.2-.68-.43-1-.66-.56-.38.32.29-.23-.18-.22-.19-.45-.37-.66-.57a35.42,35.42,0,0,1-2.75-2.73,57.11,57.11,0,0,1-5.69-7.31,60.62,60.62,0,0,1-4.93-8.79,6.27,6.27,0,0,1-.29-.69c-.14-.35-.28-.69-.4-1-.26-.71-.5-1.43-.7-2.15s-.35-1.37-.47-2.06c0-.18-.06-.35-.08-.52,0,.09.05.52,0,0s-.06-.66-.07-1,0-.7,0-1.05c0-.15,0-.31,0-.46,0,.4,0,.28,0,0s.14-.56.22-.84c.17-.65-.19.21.13-.34a7.31,7.31,0,0,1,.52-.84c-.37.51.11-.08.27-.25.44-.47-.23.07.31-.26.33-.19.64-.38,1-.54a2.52,2.52,0,0,0,.9-3.42,2.55,2.55,0,0,0-3.42-.9Z"/><path class="cls-1" d="M393,359c-3.59.91-8.14.83-12.37.66a98,98,0,0,1-15.2-1.75,43.88,43.88,0,0,1-6.15-1.63l-.61-.24c-.66-.25.45.22-.16-.06s-1.2-.56-1.79-.86c-1.05-.54-2.07-1.12-3.1-1.69a12.64,12.64,0,0,0-5.24-2,7.42,7.42,0,0,0-5.24,2.08c-2.71,2.24-4.85,5.24-7,8-2.58,3.37-5,6.83-7.58,10.21a2.52,2.52,0,0,0,.9,3.42,2.56,2.56,0,0,0,3.42-.9c4.13-5.45,7.84-11.5,12.75-16.3a7.09,7.09,0,0,1,1.74-1.38c.16-.09.67-.22.06,0,.09,0,.39-.17.48-.14l.16,0c-.41.05-.47.07-.2.05,0,0,.82.08.29,0s.49.15.64.2.66.28.09,0l.54.26c.87.44,1.71.93,2.56,1.41a41,41,0,0,0,12.22,4.49,106.31,106.31,0,0,0,15.4,1.85c4.82.25,10,.41,14.68-.79,3.11-.79,1.79-5.61-1.33-4.82Z"/><path class="cls-1" d="M459.82,363.6c13.87,9.57,20.81,28,19.63,44.44a40,40,0,0,1-3.13,13.07l2.82-1.15c.4.15-.28-.14-.39-.2a6.06,6.06,0,0,1-.76-.48,10.49,10.49,0,0,1-1.17-1.06,22.7,22.7,0,0,1-2.55-3.22c-1.79-2.64-3.3-5.44-4.94-8.18a32.76,32.76,0,0,0-5.3-6.93c-2.38-2.28-5-4.3-7.44-6.5s-5-4.64-5.93-7.58-5.78-1.76-4.83,1.33c2.06,6.63,8.52,10.73,13.42,15.14a27.49,27.49,0,0,1,5.6,6.79c1.73,2.87,3.31,5.83,5.19,8.6,2,2.94,4.34,5.82,7.77,7.11a2.49,2.49,0,0,0,2.82-1.14c7.56-17.06,3.86-38.46-7-53.29a47.34,47.34,0,0,0-11.26-11.07,2.52,2.52,0,0,0-3.42.9,2.56,2.56,0,0,0,.9,3.42Z"/><path class="cls-1" d="M456.66,354.38a43.39,43.39,0,0,0,.7,6.72,14,14,0,0,1,.18,5,7.93,7.93,0,0,1-2.24,4l-.46.39c-.43.37.33-.22-.26.2l-1.5,1c-2.46,1.63-4.95,3.19-7.26,5-2,1.57-4.1,3.61-4.67,6.17-.86,3.85,2.06,6.63,5.19,8.27,2.85,1.49,5.38-2.83,2.53-4.32-.38-.2-.74-.39-1.1-.62-.07,0-.87-.58-.61-.38a8.17,8.17,0,0,1-.69-.63,2.7,2.7,0,0,1-.28-.31c.35.43,0,0-.06-.13s-.12-.21-.17-.32c0,.05.22.52.07.12,0-.1,0-.22-.08-.32.07.26.16.31,0,.18s.24-.91,0-.13c0-.12.24-.82.12-.5s.18-.33.23-.42.27-.42.41-.63-.26.31,0,0c.09-.1.17-.21.27-.31s.43-.47.66-.7a20.25,20.25,0,0,1,2.79-2.3c2.08-1.49,4.29-2.79,6.38-4.27a13.26,13.26,0,0,0,5.49-7.51c1.14-4.44-.62-8.89-.62-13.35,0-3.22-5-3.22-5,0Z"/><path class="cls-1" d="M331,366.55c-2.69,7.16-6.78,13.68-10.13,20.52-3.48,7.09-6,14.58-8.65,22-1.3,3.58-2.65,7.14-4.27,10.59s-3.3,6.67-4.77,10.08a81.21,81.21,0,0,0-3.68,11c-.48,1.79-.89,3.6-1.38,5.39a9.81,9.81,0,0,1-1.08,2.62c-1.38,2.65-3.06,5.14-4.53,7.74-1.23,2.16-2.69,4.7-2.61,7.27.09,3.21,5.09,3.22,5,0a4.69,4.69,0,0,1,0-.53c0,.65,0,0,.05-.13.14-.45.27-.9.44-1.34-.17.42.19-.4.18-.38.12-.26.25-.51.38-.76.32-.64.67-1.26,1-1.88,1.34-2.33,2.82-4.58,4.1-6.95a33.18,33.18,0,0,0,2.77-7.95A89,89,0,0,1,307,433.3c1.34-3.38,3.05-6.62,4.62-9.9,1.69-3.53,3.18-7.15,4.55-10.81,2.65-7.13,4.92-14.43,8.14-21.33,3.68-7.87,8.37-15.22,11.44-23.38a2.51,2.51,0,0,0-1.74-3.07,2.55,2.55,0,0,0-3.08,1.74Z"/><path class="cls-1" d="M363,405.5c-2.41,19.32-6,38.47-7.9,57.85a139.25,139.25,0,0,0-.25,28.72,223.79,223.79,0,0,0,5.27,28.37c3.92,16.26,8.05,32.48,12,48.74q6,24.77,11.84,49.59c3.7,15.77,7.35,31.56,10.85,47.38q.59,2.61,1.15,5.24c.69,3.14,5.51,1.81,4.83-1.33q-5.08-23.19-10.53-46.29-5.79-24.81-11.78-49.58c-3.85-15.93-7.71-31.85-11.71-47.74-2.31-9.2-4.56-18.44-6-27.82a123.49,123.49,0,0,1-1.21-28.42c1.43-19.32,4.93-38.38,7.55-57.55.32-2.39.64-4.77.94-7.16a2.52,2.52,0,0,0-2.5-2.5,2.55,2.55,0,0,0-2.5,2.5Z"/><path class="cls-1" d="M470.25,418.28c-3.15,7.41.32,15.28-.62,23-.51,4.19-1.55,8.3-1.82,12.52a43.12,43.12,0,0,0,1.39,12.79c1,4.06,2.2,8.07,2.89,12.19a29.73,29.73,0,0,1-.69,12.34c-1.63,6.58-4.43,12.8-6.15,19.36a44.59,44.59,0,0,0-1.52,10.65,57.3,57.3,0,0,0,1.49,12.3q2.77,13.73,5.67,27.42c1.94,9.17,4.06,18.31,5.65,27.55s2.75,18.45,3.86,27.71c2.26,18.92,4.29,37.93,8.69,56.51,2.11,8.9,4.78,17.65,7.71,26.3s6.33,17.34,9.26,26.09c1.63,4.87,2,10.78-1.92,14.71s-10,4.15-15,3c-8.15-1.82-15.27-6.53-23.17-9.08a23.88,23.88,0,0,0-5.78-1.26,29.34,29.34,0,0,0-4.85.43c-3.17.31-5.25-1.68-6.64-4.34-1.54-2.93-2.41-6.17-3.91-9.12a37.14,37.14,0,0,0-4.74-6.8,127.65,127.65,0,0,0-13.25-13.06c-4.81-4.3-9.7-8.53-14.23-13.13-4.06-4.13-8-8.61-10.4-13.91a19.24,19.24,0,0,1-1.77-6.65c-.24-3.19-5.24-3.21-5,0,.89,12.35,11,22,19.61,29.82,4.9,4.49,10,8.79,14.77,13.38,4,3.84,8.3,8,10.78,13,2.91,5.91,4.37,14.47,12.22,15.68a16.12,16.12,0,0,0,4.75-.2,12.29,12.29,0,0,1,5,.33,74.7,74.7,0,0,1,12,4.72c6.86,3.11,14.22,6.42,21.95,5.61,5.68-.6,11.17-3.38,13.85-8.63,3.23-6.32,1.58-13-.69-19.28-3.16-8.81-6.39-17.6-9.31-26.49A307,307,0,0,1,488,637.39c-2.47-19-4.16-38.08-7.83-56.87-1.85-9.47-4-18.88-6-28.33q-1.46-7-2.89-14c-.92-4.47-2.1-9-2.45-13.55-.53-7,1.2-13.5,3.49-20,2.53-7.22,5.58-14.86,5.12-22.64-.51-8.7-4.58-16.82-4.72-25.54-.06-4.35.95-8.56,1.58-12.84a44.54,44.54,0,0,0,0-12.15c-.39-3.35-1.12-7.41.25-10.64a2.58,2.58,0,0,0-.89-3.42,2.52,2.52,0,0,0-3.42.9Z"/><path class="cls-1" d="M407.42,686.3c-7.77,3.49-13.92,10-22.08,12.71a2.56,2.56,0,0,0-1.75,3.08,2.53,2.53,0,0,0,3.08,1.74c8.64-2.84,15.08-9.53,23.28-13.21a2.52,2.52,0,0,0,.89-3.42,2.56,2.56,0,0,0-3.42-.9Z"/><path class="cls-1" d="M269,45.69c-1.27,2.11-1.63,4.74-2,7.13-.38,2.74-.6,5.5-.95,8.25a2.5,2.5,0,0,0,2.5,2.5,2.58,2.58,0,0,0,2.5-2.5c.15-1.16.26-2.33.38-3.5l.21-1.88c0-.33.07-.67.12-1l.06-.51c.06-.49,0,.28,0,0,.18-1.22.37-2.45.65-3.65.13-.52.27-1,.45-1.56l.1-.27c.16-.47-.2.39-.07.15s.21-.41.32-.61A2.5,2.5,0,1,0,269,45.69Z"/><path class="cls-1" d="M294.92,45.67a50.09,50.09,0,0,0,4.83,16,2.52,2.52,0,0,0,3.42.9,2.57,2.57,0,0,0,.9-3.42c-.26-.55-.52-1.1-.76-1.65-.07-.15-.13-.29-.19-.44.1.23.09.21,0-.07l-.37-.9q-.68-1.77-1.23-3.57t-1-3.63c-.14-.63-.27-1.26-.38-1.89-.06-.3-.11-.61-.16-.91s0-.3,0,0c0-.14,0-.29-.05-.43a2.55,2.55,0,0,0-2.5-2.5c-1.23,0-2.66,1.11-2.5,2.5Z"/><path class="cls-2" d="M257.85,117.72c0-2.85.37-5.69-.19-8.51a12.09,12.09,0,0,0-4.52-7.37c-4.38-3.06-10.61-1.14-14.3,2.1-2.36,2.07-3.66,5.39-4.65,8.28a25.09,25.09,0,0,0-1.62,10.8,9.27,9.27,0,0,0,2.21,5.46,7.4,7.4,0,0,0,5.46,2.16c3.22,0,3.23-5,0-5-.22,0-1.17-.16-.54,0-.29-.07-.58-.14-.87-.23.55.16,0,0-.22-.17s-.33-.36,0,0a2.65,2.65,0,0,0-.34-.33c-.3-.23,0,0,.08.13l-.27-.41c-.13-.23-.32-.67-.12-.16a8.45,8.45,0,0,1-.28-.85c0-.15-.07-.3-.11-.45s-.12-.71-.07-.33,0-.49-.05-.66c0-.34,0-.69,0-1a17.94,17.94,0,0,1,.16-2.2c-.07.51,0,0,0-.13l.09-.57q.1-.57.24-1.14c.17-.77.37-1.52.59-2.27s.42-1.32.66-2c.12-.35.26-.69.4-1s0-.09,0,0c.09-.23.19-.45.3-.67a26,26,0,0,1,1.72-3c-.4.64,0,0,.13-.12a8.07,8.07,0,0,1,.8-.75A10.71,10.71,0,0,1,244.9,106a6.74,6.74,0,0,1,4.65-.39,3.73,3.73,0,0,1,1.8,1.45,9.23,9.23,0,0,1,1.45,3.36c.51,2.37.06,4.94,0,7.34,0,3.22,5,3.22,5,0Z"/><path class="cls-2" d="M252.91,117.43a10.27,10.27,0,0,0,1.72,7.19c.94,1.59,1.3,3.38,2.35,5a6.19,6.19,0,0,0,6.19,2.77,9.17,9.17,0,0,0,4.69-2.76,36.37,36.37,0,0,0,3.95-5c.48-.69.95-1.38,1.45-2,0-.06.3-.39,0,0l.42-.51c.5-.63,1-1.27,1.45-1.93,1.35-1.9,2.31-4.11,4.07-5.69a43.72,43.72,0,0,1,5-3.76,13.78,13.78,0,0,1,11.32-2.34c3.55.85,6.76,2.47,10.08,3.85,6.73,2.79,15.55,6,21.75.35,3.38-3.05,4.6-7.79,4.73-12.18a27,27,0,0,0-.71-6.88,51.47,51.47,0,0,0-2.15-6.15c-1.74-4.58-3.64-9.33-7.11-12.9A58.77,58.77,0,0,0,310,65c-8.84-5.25-19.12-8.51-29.43-7.08s-19.92,6.26-28,12.49A55.76,55.76,0,0,0,241.2,82c-1.51,2.08-3.07,4.11-4.62,6.16a22.64,22.64,0,0,0-3.26,6.54,71.85,71.85,0,0,0-3,11.93c-.64,4-1,8.37.2,12.29a10.3,10.3,0,0,0,2.93,4.73,2.57,2.57,0,0,0,3.54,0,2.53,2.53,0,0,0,0-3.54,5.62,5.62,0,0,1-1.88-3.36,18.23,18.23,0,0,1-.34-5.15,51,51,0,0,1,1.79-10c1-4,2.07-8,4.72-11.34,3.14-3.91,5.71-8.16,9.38-11.63a61.33,61.33,0,0,1,23.78-14.17,38.08,38.08,0,0,1,13.48-1.88A41,41,0,0,1,301.06,66a55.07,55.07,0,0,1,12,7.07c3.46,2.67,6.63,5.58,8.68,9.48a55.25,55.25,0,0,1,2.57,5.91,60.63,60.63,0,0,1,2.1,5.84,18.79,18.79,0,0,1-.39,11.49,9,9,0,0,1-2.47,3.42,7.35,7.35,0,0,1-.91.58c-.13.07-.87.4-.6.3a8.29,8.29,0,0,1-1,.31l-.52.12-.39.06c-3.27.35-6.32-.62-9.48-1.76-6.86-2.49-13.57-6.81-21.19-5.7-4.18.61-7.64,3-10.92,5.5a22.74,22.74,0,0,0-4.37,3.87c-1.54,2-2.63,4.23-4.18,6.19-2.09,2.64-3.77,5.78-6.35,8a5.38,5.38,0,0,1-1.06.69c.09,0,.39-.16-.08,0-.15.06-.32,0-.46.11.36-.14.15,0,0,0,.4.09-.5-.16-.7-.31.06,0-.13-.2-.2-.31a2.77,2.77,0,0,1-.32-.67c-.38-.93-.69-1.88-1.14-2.78-.72-1.43-2.19-3-2-4.67a2.58,2.58,0,0,0-1.74-3.07c-1.17-.32-2.9.4-3.08,1.75Z"/><path class="cls-2" d="M322.08,110.56c-2.74,2-3.1,5.62-3.81,8.68a12.13,12.13,0,0,1-.53,1.9c.25-.61-.36.57-.42.68-.34.55-.69,1.09-1,1.64a58.59,58.59,0,0,0-3.53,6.1,98,98,0,0,1-7.65,12.71c-2.76,3.88-6.19,7.19-9.29,10.8-2.94,3.42-5.2,7.3-8,10.85a30.68,30.68,0,0,1-4.19,4.41,21,21,0,0,0-2.46,2.25c-.66.78-1.23,1.65-1.9,2.42-1.37,1.57-3.12,2-5,2.73a12.87,12.87,0,0,1-6,1.14,17.6,17.6,0,0,1-5.35-1.84,37.29,37.29,0,0,1-5.39-2.91c-7.05-4.94-10.72-13.4-16.74-19.36-2.29-2.27-5.83,1.26-3.54,3.53,5.65,5.61,9.23,13,15.3,18.24a37.77,37.77,0,0,0,11.32,6.33,15.07,15.07,0,0,0,6.26,1,26.56,26.56,0,0,0,7-1.86,12.83,12.83,0,0,0,5.74-3.5c.68-.78,1.25-1.64,1.91-2.42a23,23,0,0,1,2.78-2.53c3.33-2.94,5.77-6.66,8.27-10.29a115.86,115.86,0,0,1,9.21-11A79.2,79.2,0,0,0,313.84,138c1.49-2.53,2.8-5.14,4.14-7.75,1.2-2.34,2.94-4.38,4.13-6.72a20.27,20.27,0,0,0,1.42-5c.2-.87.4-1.75.68-2.6a2.58,2.58,0,0,1,.35-.85,4.11,4.11,0,0,0,.24-.39c-.13.36.19-.11-.19.17a2.57,2.57,0,0,0,.89-3.42,2.52,2.52,0,0,0-3.42-.9Z"/><path class="cls-2" d="M291.86,132.5c-.06.27-.13.54-.21.8l-.12.36-.09.22c-.07.17,0,.09.11-.24-.13.06-.28.58-.35.72s-.3.52-.45.78l-.51.77c-.09.11-.17.23-.25.34-.2.28-.17.17,0,0-.44.45-.82,1-1.24,1.47-1.59,1.77-3.37,3.35-5.07,5a2.5,2.5,0,0,0,3.54,3.54c1.78-1.74,3.65-3.4,5.3-5.27,1.81-2,3.57-4.41,4.14-7.14a2.55,2.55,0,0,0-1.75-3.07,2.52,2.52,0,0,0-3.07,1.74Z"/><path class="cls-2" d="M216,133.13c2.9-1.15,5.9-2,8.8-3.18s6.12-2.65,8.41-5.07a2.5,2.5,0,0,0-3.54-3.53,9.81,9.81,0,0,1-.73.71l-.31.27c-.49.44.23-.15-.08.07-.57.4-1.15.79-1.75,1.13s-1.36.73-2.06,1l-.43.2-.36.15-.37.15-.56.22c-2.75,1.08-5.6,1.92-8.35,3a2.57,2.57,0,0,0-1.75,3.08,2.53,2.53,0,0,0,3.08,1.74Z"/><path class="cls-2" d="M241,48.48c-2.64,2.23-4.39,5.22-6.6,7.83a32.61,32.61,0,0,1-8.52,6.74c-3.13,1.88-6.48,3.38-9.55,5.34A36.77,36.77,0,0,0,209,74.53a53.88,53.88,0,0,0-9.58,15.93c-2.82,6.75-5.26,13.76-7.47,20.74a86.13,86.13,0,0,0-4.47,25.73c0,3.22,5,3.23,5,0a77.85,77.85,0,0,1,3.57-22c2.09-7,4.62-14,7.29-20.87a52.25,52.25,0,0,1,8.25-14.88,32.07,32.07,0,0,1,6.46-5.91c2.9-2,6.14-3.43,9.18-5.18a41.38,41.38,0,0,0,10-7.44c2.54-2.77,4.37-6.14,7.27-8.59a2.54,2.54,0,0,0,0-3.54,2.56,2.56,0,0,0-3.54,0Z"/><path class="cls-2" d="M224.61,123.56c-2.66-1.84-5.87-2.58-8.88-1.15-2.44,1.17-4,3.64-4.91,6.1-1,2.87-.88,6-.5,9a43.67,43.67,0,0,0,3,11.29,63.73,63.73,0,0,0,5.34,9.59,17.58,17.58,0,0,1,2.1,4.68,52.84,52.84,0,0,0,1.59,5.1,20.22,20.22,0,0,0,1.21,2.53c.11.2.24.4.35.61s.08.18.13.27c.22.42-.07-.2,0,.08a18.86,18.86,0,0,1,.85,2.93,46.65,46.65,0,0,1,.86,7.48c.3,5.56.08,11.12.08,16.68,0,3.22,5,3.22,5,0,0-4.57.16-9.15,0-13.72-.13-4.73-.24-9.9-1.89-14.38a26.07,26.07,0,0,0-1.47-3.06,21.82,21.82,0,0,1-1.57-4.43,31.48,31.48,0,0,0-1.71-5,33.62,33.62,0,0,0-2.52-4.14,38.8,38.8,0,0,1-6.65-19.13c-.15-2.5.09-4.91,1.46-6.71a3.22,3.22,0,0,1,2.35-1.54c-.46.06.42,0,.41,0a2.67,2.67,0,0,1,.8.17,8,8,0,0,1,2,1.09,2.5,2.5,0,0,0,2.53-4.32Z"/><path class="cls-2" d="M217,124.47c-5.54-1.71-10.37,1.27-15.35,3.3-.91.37-1.82.76-2.75,1.07-.37.12-.74.22-1.12.32-.15,0-.61.05,0,0h-.48c-.22,0-.47-.15,0,0a2.42,2.42,0,0,1-.46-.13c-.24-.15.37.22,0-.05,0,0-.52-.34-.3-.18a12.83,12.83,0,0,1-1.85-2,2.58,2.58,0,0,0-3.42-.9,2.52,2.52,0,0,0-.89,3.42c1.4,1.83,3,3.83,5.26,4.53a8.38,8.38,0,0,0,5.4-.54c2.51-.94,5-2,7.4-3.12s4.74-1.77,7.3-1c3.08.95,4.4-3.88,1.33-4.83Z"/><path class="cls-2" d="M240.23,51.51c.29-3.45-3-5.3-5.93-5.86s-5.7-.18-8.57-.47c-4.21-.44-7.88-3.11-11.87-4.32-2.2-.66-4.47-1.07-6.64-1.85a20.6,20.6,0,0,1-5.45-3.45,52.16,52.16,0,0,0-5.62-4.07,46.07,46.07,0,0,0-4.29-2.11,39.91,39.91,0,0,1-7.56-4.3,9.86,9.86,0,0,1-2.62-2.83,3.73,3.73,0,0,1-.51-2.57,12.57,12.57,0,0,1,6.18-7.49,6.14,6.14,0,0,1,1.39-.4c-.4.07.29,0,.4,0,.64,0,1.27,0,1.91,0a48,48,0,0,1,5.22.36,35.24,35.24,0,0,1,5,1c.44.12.88.25,1.31.4l.49.18c.4.16,0,0,.19.08s.6.31.89.47l.35.23c-.33-.23-.11-.08.07.09,2.33,2.22,5.87-1.31,3.53-3.54S202.28,8,199.24,7.49a46.92,46.92,0,0,0-9.82-.75C185,7,181.75,9.56,179.18,13c-2.19,2.89-3.88,6.37-2.62,10,2.13,6.15,9.29,9.1,14.73,11.6a30.42,30.42,0,0,1,5.79,3.6,52,52,0,0,0,5.76,4.27,26.76,26.76,0,0,0,6.84,2.46,40.67,40.67,0,0,1,6.78,2.29,32.12,32.12,0,0,0,7.21,2.69,32.86,32.86,0,0,0,5.78.31,16,16,0,0,1,4.26.43,7.87,7.87,0,0,1,1.14.35c-.43-.18.4.24.54.36-.12-.1-.28-.31-.06,0s-.28-.37,0,.09c-.14-.21,0-.35-.07-.07.08-.41,0-.15-.06.15a2.5,2.5,0,1,0,5,0Z"/><path class="cls-2" d="M195.68,6.38c-11.37-3.2-21.25,5-28.42,12.88-3.56,3.89-6.76,8.08-10.33,12C152.81,35.7,148.46,40,144.3,44.4a91.2,91.2,0,0,0-11.4,14.23,43.09,43.09,0,0,0-5.42,14.86c-2.07,11.47-1.27,23.3,0,34.81,1.41,12.49,3.84,24.89,4.71,37.43a2.57,2.57,0,0,0,2.5,2.5,2.52,2.52,0,0,0,2.5-2.5c-1.53-22-7.73-43.9-5.56-66.14a48.91,48.91,0,0,1,3.27-14c2.1-5,5.61-9.41,9.15-13.47,4-4.6,8.35-8.91,12.59-13.31,3.61-3.74,7-7.65,10.32-11.62,6.51-7.71,16.11-19.12,27.37-16,3.11.87,4.43-3.95,1.33-4.82Z"/><path class="cls-2" d="M124.77,99.84c-5,13.77-11.85,26.87-15.85,41a70.69,70.69,0,0,0-2.15,10.31,38.42,38.42,0,0,0,.34,10.49c1.09,7.33,3.54,14.44,4.19,21.83.66,7.57-.93,14.71-2.88,22s-4,14.25-6.34,21.27C97.21,241,91.67,255.23,88.8,270.14,86,284.86,86.13,300,92.26,313.93c.79,1.77,1.66,3.49,2.61,5.18,1.57,2.8,5.89.28,4.31-2.53A55.6,55.6,0,0,1,92.41,296,76.41,76.41,0,0,1,93,274.89c2.37-14.77,7.66-28.88,12.54-43,2.38-6.86,4.67-13.75,6.51-20.77,1.9-7.25,4.13-14.49,4.38-22s-1.72-15-3.33-22.45a62.17,62.17,0,0,1-1.57-10.41,36.15,36.15,0,0,1,1-9.44c3.13-14.25,9.89-27.46,15.23-40.95.62-1.56,1.21-3.13,1.79-4.7a2.5,2.5,0,1,0-4.82-1.33Z"/><path class="cls-2" d="M93.36,321c3.27,8.46,10.36,14,18.49,17.54,8.88,3.84,18.4,5.77,27.83,7.73,4.6,1,9.21,1.9,13.76,3.08,2.06.54,4.1,1.12,6.11,1.8q1.42.48,2.82,1c.92.36,1.35.54,2.46,1.08,2.15,1,4.15,2.36,6.33,3.35a42.29,42.29,0,0,0,9.25,3,62.71,62.71,0,0,0,19.29.48c14.89-1.7,29.08-6.7,43.72-9.66a2.53,2.53,0,0,0,1.75-3.08,2.56,2.56,0,0,0-3.08-1.75c-12.7,2.58-25,6.72-37.84,8.84a72.06,72.06,0,0,1-18.66.92A40.41,40.41,0,0,1,169.36,350c-7.39-4.21-16.08-6-24.3-7.7-9.11-1.92-18.35-3.57-27.15-6.7a45.1,45.1,0,0,1-12.38-6.38c.37.27-.28-.23-.28-.23l-.76-.64c-.37-.32-.74-.65-1.09-1a24.06,24.06,0,0,1-2.31-2.53c.29.37-.19-.26-.2-.27l-.43-.6c-.32-.48-.63-1-.91-1.46s-.57-1-.82-1.54a12.19,12.19,0,0,1-.55-1.27A2.57,2.57,0,0,0,95.1,318,2.51,2.51,0,0,0,93.36,321Z"/><path class="cls-2" d="M303.41,221.1C298.51,230,293,238.66,289,248c-3.75,8.53-5.94,17.52-5.5,26.88a77.3,77.3,0,0,0,3.38,18.52c.92,3.08,5.75,1.77,4.82-1.33-2.8-9.33-4.29-19.18-2.42-28.84,1.67-8.65,5.61-16.54,9.83-24.19,2.85-5.15,5.83-10.24,8.67-15.39,1.56-2.82-2.76-5.35-4.32-2.53Z"/><path class="cls-2" d="M280.8,267.59c-6.28,10.35-15.28,18.53-22.5,28.17a56.06,56.06,0,0,0-8.39,15.42c-1,3-1.86,6.07-2.89,9.07-1.13,3.34-2.33,6.66-3.4,10-2.33,7.3-4.21,15-3.36,22.75a2.57,2.57,0,0,0,2.5,2.5,2.52,2.52,0,0,0,2.5-2.5c-.74-6.72.7-13.32,2.65-19.72s4.34-12.56,6.23-18.94c3.28-11.06,11.13-19.51,18.57-28a117.22,117.22,0,0,0,12.41-16.26c1.67-2.76-2.65-5.28-4.32-2.52Z"/><path class="cls-2" d="M92.74,319.84c-5.28,4.13-10.82,8.85-13.72,15-2.64,5.61-2.64,11.6-1.55,17.6A103.8,103.8,0,0,0,80.79,365c1,3.06,5.8,1.75,4.83-1.33-2-6.29-4.07-12.72-3.88-19.17,0-.57.06-1.15.11-1.72,0-.16,0-.32.05-.48-.05.44,0,0,0-.05,0-.35.12-.7.19-1.05a18.45,18.45,0,0,1,1.09-3.5c-.17.39.2-.41.24-.5.12-.26.25-.51.39-.77.33-.62.7-1.24,1.09-1.83a22.45,22.45,0,0,1,2.37-3.07,66.76,66.76,0,0,1,9-8.14,2.52,2.52,0,0,0,0-3.54,2.57,2.57,0,0,0-3.54,0Z"/><path class="cls-2" d="M88.33,349.84c-5.61,14.66-14.53,27.94-24.62,39.87-4.36,5.15-8.88,10.12-12.33,16A56.74,56.74,0,0,0,44.93,422c-3.32,14.61-2.46,29.55-.19,44.24,1.25,8,2.72,16.08,3.28,24.22a183.08,183.08,0,0,1-.39,25.44c-.61,8.65-1.5,17.28-1.94,25.94A172.47,172.47,0,0,1,43,565.15c-3,15.73-8,31-13.34,46.06s-11.2,30.11-16.06,45.41a342,342,0,0,0-11,45.52c-2.42,14.09-3.48,28.09-2,42.34.53,5.25,1.18,10.67,3.11,15.61,1.59,4.07,4.27,8.25,8.93,9,4.3.66,8.73-1.23,12.56-3a150.87,150.87,0,0,0,14.52-7.9c4.28-2.53,8.53-5.21,13-7.34,6.21-2.94,13.49-3.78,20.29-4,7.88-.24,15.76.48,23.64.5,3.11,0,6.23-.31,9.33-.15a63.73,63.73,0,0,1,7.15.88c10.87,1.85,22.09,5.32,33.2,4.63,4.45-.28,8.73-1.47,11.86-4.82,3.35-3.58,5.06-8.46,6.16-13.16,2.4-10.2,1.83-20.84,4.19-31,7.52-32.5,13.17-65.55,24.6-97,2.3-6.35,4.44-12.8,5.25-19.54A51.28,51.28,0,0,0,197,568.86c-1.93-7.93-4.89-15.6-7.35-23.37-2.54-8-4.92-16.1-7-24.25s-3.88-16.2-5.33-24.41c-.56-3.16-5.38-1.82-4.82,1.33a380.43,380.43,0,0,0,12.22,48.28c4.13,13.07,10.54,26.71,8.75,40.75-.85,6.64-3.18,13.07-5.48,19.31q-4.14,11.24-7.29,22.77c-4.29,15.57-7.81,31.4-11.32,47.16-2.9,13-6.17,26.1-7.39,39.42A140.29,140.29,0,0,1,160,732c-.91,4.35-2.17,9.26-5.34,12.57-2.85,3-7,3.32-10.92,3.27a95,95,0,0,1-16.27-2.06c-5.39-1-10.76-2.21-16.19-3-5.86-.82-11.63-.32-17.52-.44-14.21-.3-29.39-2.14-42.77,3.9-9.35,4.22-17.64,10.52-26.9,14.94-3,1.44-7.55,3.61-10.69,2.94-4-.85-5.37-6.63-6.17-10-2.79-11.7-2.81-24.36-1.65-36.25,3-30.94,12.71-60.71,23.32-89.75,5.41-14.8,10.9-29.62,15.06-44.83a206.74,206.74,0,0,0,4.89-22.25c1.22-7.72,1.61-15.43,2.12-23.21,1.09-16.68,3.4-33.4,1.88-50.13-1.44-15.92-5.81-31.55-5.07-47.64.55-12.18,2.68-23.94,9.45-34.29C61,400,65.88,395,70.23,389.62a168.74,168.74,0,0,0,13-18.38,124.16,124.16,0,0,0,9.88-20.07c1.16-3-3.68-4.31-4.82-1.33Z"/><path class="cls-2" d="M112.11,754.14c-6.14-3.77-14.08-4.51-20,.15-4.69,3.71-6.08,10.29-2.24,15.12,2.34,2.94,6,4.56,9.59,5.45a25.53,25.53,0,0,0,8.59.13A59,59,0,0,0,119,773.05a15.28,15.28,0,0,0,4-1.68,7.34,7.34,0,0,0,2.94-4.32c2.9-9.79-10-17-18.25-14.42-3.07,1-1.76,5.78,1.33,4.82a11,11,0,0,1,1.13-.28c.49-.1.15,0,0,0,.24,0,.48,0,.72,0a8,8,0,0,1,1,0l.74,0c.54.06-.24-.06.34.05a12.25,12.25,0,0,1,4.2,1.51q.55.33,1.08.69c.4.28.19.13.1.06q.28.22.57.48c.24.22.48.44.71.68l.48.54c-.27-.32.13.19.18.26.2.29.36.59.54.9,0,.1.25.56.08.13a3.66,3.66,0,0,1,.15.43,6.19,6.19,0,0,1,.27,1.11c0-.13,0-.44,0,0,0,.23,0,.47,0,.7,0,.73.07-.27,0,.16a5.31,5.31,0,0,1-.12.6,6.76,6.76,0,0,1-.24.75,8,8,0,0,0-.51.95c.1-.38.39-.46.12-.19s-.46.27.14-.08c-.39.23-.75.47-1.15.67-.62.3.32-.1-.38.15-.3.12-.61.23-.92.33a37.07,37.07,0,0,1-4.42,1.1c-.73.14-1.47.27-2.21.39-.41.06-.82.13-1.24.18-.07,0-.49.07-.08,0l-.74.09a46.31,46.31,0,0,1-7.89.38c-.11,0-.21,0-.32,0-.3,0,.67.18.28,0a9,9,0,0,0-.93-.22,21.23,21.23,0,0,1-2.8-.9s-.44-.19-.11,0l-.45-.21c-.35-.17-.7-.35-1-.54s-.63-.39-.93-.59l-.35-.24c.45.32,0,0-.13-.12a12.69,12.69,0,0,1-1.26-1.28c-.23-.27.31.51,0,0l-.19-.29c-.18-.28-.32-.58-.49-.87s.13.44,0-.15c-.07-.25-.15-.5-.21-.76l-.06-.3c-.15-.52,0,.59,0,0,0-.25,0-.51,0-.76s.05-.51.05-.76c0,.75,0,.07.06-.17s.12-.45.19-.67.09-.24.13-.37c.19-.59-.22.37,0,0s.45-.85.72-1.25l.19-.27c.3-.47-.38.39,0,0,.19-.2.37-.42.56-.62s.5-.47.75-.7l.27-.22c-.51.42,0,0,0,0a16.16,16.16,0,0,1,1.71-1l.33-.16c-.59.28,0,0,.18-.06.33-.12.66-.23,1-.32s.63-.16,1-.22l.58-.11c-.43.08-.12,0,.14,0a14.85,14.85,0,0,1,2.31,0l.43,0c.59,0-.33-.08.21,0s.9.17,1.35.28a14.9,14.9,0,0,1,4.79,2.1c2.75,1.69,5.27-2.64,2.53-4.32Z"/><path class="cls-2" d="M88.33,764.43a12.22,12.22,0,0,1-.38,1.31c-.19.54.15-.27,0,.12-.1.19-.19.39-.3.58s-.22.37-.34.55a1.32,1.32,0,0,1-.18.26s.35-.4.16-.2-.53.6-.83.87l-.17.14c-.32.33.16-.15.16-.11s-.43.29-.47.32c-.31.2-.64.34-1,.51s.51-.17.21-.08a1.18,1.18,0,0,0-.2.07l-.54.17-.48.12-.28.05c-.39.09,0,.11.17,0-.15.13-.79.06-1,.06a5,5,0,0,0-1.14-.07c.05,0,.65.12.25,0l-.21,0-.49-.11c-.25-.06-.91-.15-1.08-.35.11.13.5.23.21.09l-.26-.12c-.15-.08-.3-.15-.44-.24l-.43-.25c-.1-.07-.65-.48-.32-.22s-.11-.09-.19-.17a3.89,3.89,0,0,1-.36-.34l-.35-.37c-.45-.49.2.33-.1-.12a11.84,11.84,0,0,1-.63-1.09,1.11,1.11,0,0,1-.13-.27c0,.06.19.52.08.17s-.15-.44-.21-.66-.1-.47-.16-.71,0-.24,0,0,0,0,0-.16a9.38,9.38,0,0,1,0-1.59,2.51,2.51,0,0,0-2.5-2.5,2.55,2.55,0,0,0-2.5,2.5,10.6,10.6,0,0,0,5.79,10.35,10.59,10.59,0,0,0,15.45-7.17,2.5,2.5,0,1,0-4.82-1.33Z"/><path class="cls-2" d="M33.7,763.09a8.53,8.53,0,0,0,8.12,2.75,17.52,17.52,0,0,0,8-4,2.51,2.51,0,0,0,0-3.53,2.58,2.58,0,0,0-3.54,0c-.37.29.17-.12-.07.05l-.33.25-.76.52c-.5.33-1,.63-1.55.91l-.79.38c-.32.15.4-.15.07,0l-.43.17a10.69,10.69,0,0,1-1.57.42c-.11,0-.23,0-.34.06a1.21,1.21,0,1,0,.16,0c-.25,0-.5,0-.75,0l-.41,0c-.4,0,.15,0,.18,0a5.39,5.39,0,0,0-.71-.16l-.38-.13s.51.25.15.06-.43-.23-.64-.37l-.14-.09.17.13c0-.07-.21-.19-.26-.24a5.73,5.73,0,0,1-.63-.67,2.5,2.5,0,0,0-3.53,0,2.56,2.56,0,0,0,0,3.54Z"/><path class="cls-2" d="M41.85,764.5a12.28,12.28,0,0,0,4.4,6.22,8.39,8.39,0,0,0,5.66,1.34c4.5-.51,8.23-3.59,10.78-7.18a16.16,16.16,0,0,0,2.83-6.66,2.59,2.59,0,0,0-1.75-3.08,2.54,2.54,0,0,0-3.08,1.75,13.19,13.19,0,0,1-.64,2.47c-.08.19-.23.55,0,.15-.09.18-.17.37-.26.55q-.32.65-.69,1.26c-.21.35-.44.7-.68,1-.1.14-.37.5-.1.15-.17.22-.35.43-.53.64A15.81,15.81,0,0,1,55.86,765c-.15.13-.47.37-.12.11l-.48.35c-.34.24-.69.46-1.06.67a11,11,0,0,1-1.09.54c.39-.17.17-.06-.08,0s-.39.14-.59.19-.4.1-.6.15-.42.06,0,0a9.93,9.93,0,0,1-1.09,0c-.1,0-.65,0-.25,0s-.19,0-.31-.07l-.48-.13-.24-.09c-.26-.06.36.22.14,0s-.36-.18-.53-.28-.67-.54-.22-.13c-.33-.3-.64-.61-.94-.94,0,0-.23-.31-.06-.07s-.08-.14-.11-.18c-.14-.22-.28-.44-.4-.66s-.3-.56-.44-.85l-.07-.16a3.9,3.9,0,0,0-.16-.44,2.57,2.57,0,0,0-3.07-1.75,2.52,2.52,0,0,0-1.75,3.08Z"/><path class="cls-2" d="M55.56,771c3.76,2.38,8.18,4,12.68,3.36s7.81-4,9.59-8a2.58,2.58,0,0,0-.9-3.42,2.52,2.52,0,0,0-3.42.9,10.63,10.63,0,0,1-3.06,4.34c.26-.22,0,0-.13.09a4.53,4.53,0,0,1-.46.3,6.65,6.65,0,0,1-.58.33s-.59.27-.29.14-.24.09-.3.11a6.32,6.32,0,0,1-.62.18l-.52.13c-.08,0-.74.11-.42.07s-.25,0-.32,0l-.66,0c-.37,0-.75,0-1.12-.06-.72,0,.47.11-.25,0l-.58-.11c-.43-.09-.86-.2-1.28-.33s-.79-.25-1.18-.4a10.35,10.35,0,0,1-1.06-.46,28.9,28.9,0,0,1-2.6-1.47A2.5,2.5,0,1,0,55.56,771Z"/><path class="cls-2" d="M125.91,766.35c-.18-3.49.84-6.93.61-10.42a12.37,12.37,0,0,0-1.6-5.53,15.59,15.59,0,0,0-5.28-5.06,2.5,2.5,0,1,0-2.52,4.32,12.42,12.42,0,0,1,2.36,1.83,5.56,5.56,0,0,1,1.29,1.73l.25.49c-.24-.48,0,.14.07.21.11.33.21.67.29,1,0,.2.08.41.11.62-.06-.35,0-.2,0,.06s.05.77.06,1.16c0,3.2-.8,6.35-.64,9.57a2.5,2.5,0,0,0,5,0Z"/><path class="cls-2" d="M124.77,396.4c8.28,25.89,16.18,51.93,26.25,77.2q4.3,10.81,9.17,21.39a2.5,2.5,0,1,0,4.32-2.52c-11.3-24.45-19.82-50-28-75.65-2.32-7.25-4.61-14.5-6.92-21.75-1-3.05-5.81-1.75-4.82,1.33Z"/><path class="cls-2" d="M150.14,550.26c-3.45,8.15-5.48,16.75-7.48,25.36a225.25,225.25,0,0,1-7.4,25.75C128.9,619,121,636.09,113.13,653.1c-4.49,9.65-9,19.31-13.24,29.07a2.58,2.58,0,0,0,.9,3.42,2.51,2.51,0,0,0,3.42-.9c7.53-17.27,15.81-34.19,23.44-51.41,7.51-16.94,14.59-34.16,18.87-52.22,2.25-9.5,4.12-19.26,7.94-28.28a2.58,2.58,0,0,0-.9-3.42,2.52,2.52,0,0,0-3.42.9Z"/><path class="cls-2" d="M252.19,171.46C245,184,232.74,192.37,221.77,201.28c-6,4.9-11.68,10.25-17.36,15.54-6.24,5.8-12.41,11.68-18.4,17.74a284.81,284.81,0,0,0-19.14,21.21,2.57,2.57,0,0,0,0,3.54,2.51,2.51,0,0,0,3.53,0C181.11,246,193.32,234,205.75,222.4c5.87-5.5,11.7-11.09,17.89-16.22,5.61-4.64,11.46-9,17-13.78,6.14-5.34,11.85-11.31,15.91-18.42,1.6-2.79-2.71-5.32-4.31-2.52Z"/><path class="cls-2" d="M165.22,260.05a77.53,77.53,0,0,0-4.92,13.55,156.83,156.83,0,0,0-3.88,18c-2,12.72-3.11,26.12-.55,38.84,1.13,5.6,3.19,11.33,7.23,15.52,2.23,2.33,5.77-1.21,3.53-3.53-.35-.37-.68-.75-1-1.14s.08.13-.17-.22l-.55-.78a23.65,23.65,0,0,1-1.65-2.95c-.13-.27-.26-.55-.38-.83,0,0-.16-.37-.05-.12s-.08-.18-.1-.24c-.23-.59-.45-1.19-.65-1.79-.41-1.22-.75-2.47-1-3.73a71.57,71.57,0,0,1-1.57-17.1A148.73,148.73,0,0,1,164.56,277c.74-2.83,1.57-5.64,2.53-8.41.4-1.15.82-2.29,1.27-3.42,0-.12.11-.24.16-.37.18-.44-.11.25,0,0l.33-.77c.22-.48.44-1,.68-1.43a2.57,2.57,0,0,0-.9-3.42,2.53,2.53,0,0,0-3.42.9Z"/><path class="cls-2" d="M286.06,170.75a104.64,104.64,0,0,1,35.42,21c3,2.71,5.92,5.57,8.71,8.53,2.21,2.35,5.74-1.19,3.53-3.53-9.92-10.54-21.35-19.67-34.46-25.93a115.51,115.51,0,0,0-11.87-4.87,2.5,2.5,0,0,0-1.33,4.82Z"/><path class="cls-2" d="M329.32,324.11a11.41,11.41,0,0,1-3.65,4.52,8.48,8.48,0,0,1-4.54,1.3,17.88,17.88,0,0,1-5.45-.78,55.79,55.79,0,0,1-6.37-2.21,2.52,2.52,0,0,0-3.07,1.75,2.55,2.55,0,0,0,1.74,3.07c4.36,1.76,9.18,3.51,14,3.13,5.31-.42,9.34-3.55,11.7-8.26a2.56,2.56,0,0,0-.9-3.42,2.52,2.52,0,0,0-3.42.9Z"/><path class="cls-2" d="M333.23,330c2.09-.67,4.28-.08,6.42-.25a14.09,14.09,0,0,0,6.39-2.21,10.76,10.76,0,0,0,5.36-8.05,31.12,31.12,0,0,0-.62-8.55c-.53-3.17-1.27-6.3-2-9.42-.69-2.79-1.49-5.58-2-8.41a2.52,2.52,0,0,0-3.08-1.75,2.57,2.57,0,0,0-1.75,3.08c.87,5.08,2.49,10,3.52,15.09a40.17,40.17,0,0,1,1,7.89c0,.55,0,1.09-.05,1.64s.05-.12,0,.29a6.85,6.85,0,0,1-.16.76c-.05.2-.12.4-.19.6,0,0,.24-.36-.07.07a9.2,9.2,0,0,1-1.45,1.67,9,9,0,0,1-5.33,2.33c-2.48.1-4.88-.38-7.31.4-3,1-1.74,5.81,1.33,4.82Z"/><path class="cls-2" d="M290.23,289c-.87,2.14-.51,4.93-.05,7.12.52,2.42,1.56,5.12,3.51,6.74a5.78,5.78,0,0,0,4.05,1.48,6.66,6.66,0,0,0,4.32-1.92c2.21-2.25,2-5.56,1.31-8.39-.34-1.42-.8-2.81-1.21-4.21-.18-.63-.35-1.26-.48-1.9,0-.13-.05-.27-.07-.4-.1-.44,0,.69,0,0a5.08,5.08,0,0,1,0-.78,2.51,2.51,0,0,0-2.5-2.5,2.56,2.56,0,0,0-2.5,2.5c-.2,2.15.73,4.42,1.33,6.44a34.34,34.34,0,0,1,.85,3.43c.1.57-.05-.6,0,0l0,.31q0,.38,0,.75c0,.14,0,.29,0,.43,0,.41,0-.33,0-.24s-.16.68-.18.79c-.11.45.24-.42.08-.17a2.54,2.54,0,0,0-.16.28c-.3.57.35-.35-.09.13-.08.08-.4.27-.06.08s0,0-.1.05a3.54,3.54,0,0,1-.33.19c-.52.31.4-.08-.09,0l-.32.09c-.28.1-.32-.09.23,0a3.94,3.94,0,0,0-.6,0c.27-.19.63.16.26,0a1.34,1.34,0,0,0-.27-.07c-.41-.06.43.27.22.1s-.25-.13-.36-.19c-.53-.28.38.4-.07,0l-.44-.45c-.44-.46.26.44-.09-.12-.15-.23-.31-.47-.44-.71s-.22-.43-.33-.65c-.3-.62.16.43-.09-.23a15.8,15.8,0,0,1-.51-1.61c-.13-.54-.16-1.14-.32-1.66.2.64,0,.3,0,.07s0-.29,0-.44,0-.57-.05-.85,0-.54,0-.81c0-.1,0-.21,0-.31,0-.32.21-.51,0,.12.15-.38.16-.81.32-1.19a2.52,2.52,0,0,0-1.75-3.08,2.59,2.59,0,0,0-3.08,1.75Z"/><path class="cls-2" d="M293.69,293.63a30.32,30.32,0,0,1,2.08-2.31c.34-.33.69-.66,1.05-1,.05,0,.52-.42.26-.22s.2-.14.25-.18c.32-.21.64-.42,1-.6l.4-.19c.27-.15-.47.15,0,0s.63-.16.95-.26-.4,0-.12,0,.32,0,.48,0h.4l.24,0-.26,0a2.46,2.46,0,0,1,.9.21c.31.09.61.2.92.32-.4-.15-.15-.07.1.05l.44.22a35.61,35.61,0,0,1,4.49,2.87,2.51,2.51,0,0,0,3.42-.9,2.55,2.55,0,0,0-.89-3.42c-2.87-2.05-6.22-4.46-9.92-4.34-4.1.13-7.21,3.2-9.67,6.17a2.57,2.57,0,0,0,0,3.54,2.51,2.51,0,0,0,3.53,0Z"/><path class="cls-2" d="M304.55,283.22c-.21,5,1.5,11.35,7,12.92a7.18,7.18,0,0,0,5.87-.85,8,8,0,0,0,3.4-5.44c.53-3.53-.58-7-2.23-10.05a2.52,2.52,0,0,0-3.42-.9,2.56,2.56,0,0,0-.89,3.42q.27.51.51,1c.08.16.15.33.23.49s.15.37,0,0,0,0,0,.08a17.28,17.28,0,0,1,.63,1.88c.07.28.14.57.19.85,0,.12.05.25.07.37l0,.18c.07.4-.08-.69,0-.31a11.27,11.27,0,0,1,.06,1.54c0,.21,0,.43-.05.64s.13-.82,0-.23c0,.12-.05.24-.07.35s-.11.4-.17.59l-.09.25s0,.08,0,.12c-.12.33.29-.66.15-.36a8.05,8.05,0,0,1-.57,1c-.22.32.48-.58.19-.26l-.15.18c-.13.14-.27.26-.41.39-.31.29.21-.18.3-.22a1.59,1.59,0,0,0-.21.15,4,4,0,0,1-.44.27l-.22.1c-.34.18.72-.27.33-.13l-.49.15-.45.1c-.3.05.86-.09.34-.06l-.27,0h-.46l-.25,0c1,.07.6.09.34,0a4.05,4.05,0,0,1-.5-.12c-.16-.05-.78-.29-.24-.07s-.05,0-.19-.11a5.58,5.58,0,0,1-.52-.32l-.2-.15c.76.54.41.32.23.17s-.32-.28-.46-.43-.28-.31-.41-.46.44.6.17.22l-.23-.33a7.1,7.1,0,0,1-.41-.7c-.14-.25-.49-1.17-.13-.21a14.7,14.7,0,0,1-.56-1.74c-.08-.34-.15-.67-.2-1l0-.21c-.07-.43.08.7,0,.26,0-.18,0-.36-.05-.54a18.19,18.19,0,0,1,0-2.45,2.52,2.52,0,0,0-2.5-2.5,2.55,2.55,0,0,0-2.5,2.5Z"/><path class="cls-2" d="M308.48,283.76c.17-.27.34-.54.53-.81-.29.41.24-.26.31-.33a7.55,7.55,0,0,1,.59-.54c-.5.4.16-.06.26-.13l.32-.17c-.33.14-.37.15-.11.06s.46-.11.66-.18c.45-.15-.49,0,0,0,.23,0,.47,0,.69,0,.7,0-.18-.1.22,0,.23.07.48.1.71.17l.72.24q.39.17-.06,0l.37.17a20.7,20.7,0,0,1,2.69,1.66c.23.17.24.17,0,0l.35.28.69.58c.4.34.8.7,1.18,1.07.87.82,1.69,1.68,2.49,2.57s1.32,1.54,2,2.33c.44.55-.08-.12.16.2l.4.53.68.94a2.56,2.56,0,0,0,3.42.9,2.52,2.52,0,0,0,.89-3.42,47.09,47.09,0,0,0-7.39-8.43c-3.09-2.73-7-5.41-11.37-4.64a8.76,8.76,0,0,0-5.71,4.43c-1.67,2.76,2.65,5.28,4.31,2.52Z"/><path class="cls-2" d="M326.23,288.32a13.52,13.52,0,0,0-.29,4.91,20.85,20.85,0,0,0,1.14,5.06c1.06,2.85,3,6.51,6.48,6.62a5.31,5.31,0,0,0,4.4-2.76,13.14,13.14,0,0,0,1.3-2.76,14.88,14.88,0,0,0,.78-3,15.89,15.89,0,0,0-.39-6.58,11.59,11.59,0,0,0-2.85-5.09,6.19,6.19,0,0,0-6.05-1.72c-2.63.77-4.45,3.13-5.7,5.44a2.5,2.5,0,1,0,4.31,2.52,16,16,0,0,1,.87-1.43l.23-.33c.24-.35-.08.11-.12.14a5.7,5.7,0,0,0,.56-.64l.37-.37c.2-.19.72-.47,0-.07.3-.17.63-.34.92-.53-.53.35-.52.2-.28.13l.22-.07.36-.07c-.8.24-.46,0-.14,0h.17c.51,0-.48-.09-.29,0l.38.09.2.08c.27.08-.65-.33-.31-.14.11.07.23.12.35.19l.19.13c.2.12.29.36-.21-.18.2.21.43.38.63.6s.23.34.33.39-.4-.55-.21-.26l.19.26c.19.3.36.6.52.91.08.16.14.32.22.47-.41-.78,0,0,.05.17a13,13,0,0,1,.57,2.29c.07.4,0-.28,0-.28a2.45,2.45,0,0,1,0,.38c0,.17,0,.35,0,.52q0,.69,0,1.38c0,.2,0,.4-.05.6-.07.69.1-.56,0,.13a9.78,9.78,0,0,1-.3,1.3c-.12.44-.27.87-.42,1.3-.07.19-.44.92-.06.16-.09.19-.16.38-.26.56a7.08,7.08,0,0,1-.51.89l-.13.2c-.18.27.22-.29.22-.29s-.29.32-.33.36l-.23.2c.58-.57.41-.3.17-.15s.21-.09.28-.11c-.1,0-.22.05-.32.09.52-.2.72-.08.32-.06s.28,0,.38.06a1.23,1.23,0,0,0-.29-.07c-.43-.1.68.36.23.1-.08-.05-.17-.09-.25-.15-.47-.3.4.35.18.15a6.51,6.51,0,0,1-.54-.51l-.23-.27c-.3-.36.41.57.11.14q-.26-.37-.48-.75a8.83,8.83,0,0,1-.43-.8c-.07-.13-.13-.27-.19-.4s-.07-.16-.11-.23c-.11-.25.28.68.1.22a18.38,18.38,0,0,1-.72-2.17c-.1-.38-.19-.77-.27-1.16l-.12-.65,0-.21c-.07-.45.08.68,0,.24a14.77,14.77,0,0,1-.11-2.3c0-.17,0-.33,0-.5s.18-1,0,0c.07-.33.12-.66.21-1a2.5,2.5,0,0,0-4.83-1.33Z"/><path class="cls-2" d="M336.57,294.92c-1.41,2.43-1.8,5.74.29,7.92a4.83,4.83,0,0,0,3.49,1.47,5.93,5.93,0,0,0,3.88-1.68,10,10,0,0,0,3-7.41,11.93,11.93,0,0,0-2.07-7c-1-1.38-2.87-3.18-4.77-2.66a4.34,4.34,0,0,0-2.46,2.13,5.85,5.85,0,0,0-.43,1.19c0,.11-.08.21-.11.32.19-.41.22-.49.09-.26a2.13,2.13,0,0,1-.16.25,2.51,2.51,0,0,0,.89,3.42,2.57,2.57,0,0,0,3.42-.9,5.27,5.27,0,0,0,.74-1.7,2.33,2.33,0,0,0,.07-.25c0-.26-.3.59-.1.26s-.44.44-.08.12l-.26.19.32-.2-1.93.25c.35.13-.29-.13-.29-.13a1.19,1.19,0,0,0,.25.13c.13.07.24.16.37.24s-.44-.39-.24-.18a1.9,1.9,0,0,0,.21.19c.13.12.24.25.36.38.36.4-.34-.5,0,0,.09.13.18.28.26.42a4.92,4.92,0,0,1,.24.45c0,.08.07.16.11.23.22.44-.21-.58-.05-.11s.25.72.35,1.09c.05.18.09.36.12.53s.15.9.08.42,0,.19,0,.29l0,.62c0,.41,0,.82,0,1.22a2.48,2.48,0,0,0,0,.27s.11-.67,0-.27c0,.17-.06.34-.1.51-.09.37-.23.72-.34,1.08.23-.76.08-.2,0,0s-.23.4-.35.59-.2.35-.24.35.41-.47.1-.13c-.17.18-.33.35-.51.52a1.63,1.63,0,0,0-.2.17s.52-.34.2-.16l-.41.24c-.31.18.26-.13.29-.12s-.15,0-.2.06l-.2,0c-.4.13.65,0,.27,0a2.41,2.41,0,0,0-.38,0c.72,0,.59.11.35,0l-.17-.05c-.27,0,.58.29.34.15l-.16-.09-.18-.12s.53.5.26.19c-.41-.47.27.48,0,.07-.07-.13-.13-.27-.21-.39.38.58.19.51.14.32l-.09-.31a1.3,1.3,0,0,0,0-.21c.2.55.06.52.05.21s0-.41,0-.6c0,0-.13.66,0,.28l.09-.4.09-.27c0-.09.2-.49,0-.11s0-.07.07-.13l.23-.43a2.5,2.5,0,1,0-4.31-2.52Z"/><path class="cls-2" d="M297.69,303.92a31.69,31.69,0,0,1,1.83,2.87c.27.47.5,1,.73,1.45-.26-.58.07.22.11.33s.17.5.25.75a9,9,0,0,1,.33,1.54c-.06-.69,0,.19,0,.32s0,.54,0,.81,0,.55-.05.82c.05-.64,0,.27-.08.39a12.18,12.18,0,0,1-.51,1.76,2.51,2.51,0,0,0,1.75,3.07,2.57,2.57,0,0,0,3.08-1.74,13.61,13.61,0,0,0,.34-8.11A21.6,21.6,0,0,0,302,301.4a2.56,2.56,0,0,0-3.42-.9,2.53,2.53,0,0,0-.89,3.42Z"/><path class="cls-2" d="M299.13,314.36c-.31.52-.67,1-1,1.51-.2.3.27-.31,0-.05l-.24.29c-.17.21-.35.42-.53.62-.67.76-1.37,1.51-2,2.31a9.2,9.2,0,0,0-1.89,6.52c.34,3.88,1.68,9.78,6.67,9.58a19.13,19.13,0,0,0,5.45-1.41,21.41,21.41,0,0,0,7.11-3.68,7.58,7.58,0,0,0,1.33-10.4c-3.1-4.13-8.51-5.82-13.5-5.81a2.5,2.5,0,0,0,0,5c.51,0,1,0,1.53.05l.7.07c.12,0,.48.08-.08,0l.38.07a16.9,16.9,0,0,1,2.8.71l.58.22c.42.16-.4-.19.12.06a13.25,13.25,0,0,1,1.18.62c.34.2.67.42,1,.65s-.41-.37,0,0l.49.44c.24.23.45.48.67.73s-.3-.47,0,0c.1.16.21.32.31.5s.13.27.21.39-.2-.56,0-.08c.05.16.1.31.14.47s0,.12,0,.18c.12.41-.06-.14,0-.26a3.4,3.4,0,0,0,0,.9c0,.2,0-.34.05-.37a1.5,1.5,0,0,0,0,.24c0,.16-.09.32-.13.48a1.34,1.34,0,0,0-.09.24c0-.05.3-.58.1-.24l-.22.41c-.08.14-.17.27-.26.41-.24.37.12-.18.13-.16s-.22.24-.25.28a10.07,10.07,0,0,1-.82.78c-.46.4.25-.15-.12.1s-.48.32-.72.46a15.39,15.39,0,0,1-1.38.75l-.31.14-.24.1c.24-.09-.13.05-.14.06l-.59.22a38.4,38.4,0,0,1-5,1.63l-.44.08c-.13,0,.66,0,.15,0h-.43c-.53,0,.4.13.16,0l-.36-.1s.74.25.21.08.1-.1.15.14c0-.06-.23-.23-.29-.28s.33.53,0,.06l-.22-.37c0-.09-.21-.32-.2-.43,0,.22.18.48.08.18l-.13-.37a20.43,20.43,0,0,1-.73-3c0-.06-.08-.6,0-.29l0-.37c0-.28,0-.57,0-.85s0-.26,0-.39,0-.63,0-.22.06-.27.1-.42.25-.59.21-.67-.23.45-.1.25.11-.23.17-.34.22-.38.35-.57l.12-.18c.28-.43-.27.31-.07.09a36.45,36.45,0,0,0,4.17-5.27,2.5,2.5,0,1,0-4.31-2.52Z"/><path class="cls-2" d="M319.54,301.28a21,21,0,0,0-4-6.87,23.6,23.6,0,0,0-5.81-4.71,2.5,2.5,0,0,0-2.53,4.32c.49.29,1,.59,1.45.91.23.16.46.32.68.49l.3.23c-.56-.34-.18-.14,0,0a18.57,18.57,0,0,1,2.31,2.21c.18.2.35.41.52.62s-.25-.35-.07-.1l.22.29c.32.44.62.9.9,1.37s.53,1,.77,1.46a3.73,3.73,0,0,0,.16.35c.13.28-.21-.52-.05-.1s.23.58.33.88a2.5,2.5,0,0,0,4.83-1.33Z"/><path class="cls-2" d="M329.11,198.93c1.65,8.77,6.74,16.47,8.3,25.27,1.36,7.64-.59,15-4.73,21.39-2.4,3.73-5.23,7.17-8,10.66a2.58,2.58,0,0,0,0,3.54,2.51,2.51,0,0,0,3.53,0c5.05-6.46,10.65-12.88,13.15-20.84a32.86,32.86,0,0,0,1.28-12.7A48.41,48.41,0,0,0,339,212.51c-1.95-4.88-4.12-9.71-5.09-14.91a2.53,2.53,0,0,0-3.08-1.75,2.56,2.56,0,0,0-1.75,3.08Z"/><path class="cls-2" d="M335.59,243c-4.18,12.93,5.5,24.21,9.69,35.68a24.85,24.85,0,0,1,1.75,9.62c-.14,3.22,4.86,3.21,5,0,.53-12.8-9.4-22.64-12-34.64a17.71,17.71,0,0,1,.4-9.33c1-3.07-3.84-4.39-4.83-1.33Z"/><path class="cls-2" d="M295.6,16.43c6.73,1.05,13.44,2.26,20.14,3.52a2.57,2.57,0,0,0,3.08-1.74,2.54,2.54,0,0,0-1.75-3.08c-6.7-1.27-13.41-2.47-20.14-3.52a2.58,2.58,0,0,0-3.08,1.74,2.52,2.52,0,0,0,1.75,3.08Z"/><path class="cls-2" d="M180.33,22.2c8.24-1,16.17-3.35,24.18-5.47A116.07,116.07,0,0,1,216.77,14,106.36,106.36,0,0,1,229,13c4.81-.17,9.62-.13,14.44-.12,3.21,0,3.22-5,0-5-8.41,0-16.84-.12-25.19.95S202,12.3,193.89,14.4a106.61,106.61,0,0,1-13.56,2.8,2.58,2.58,0,0,0-2.5,2.5,2.51,2.51,0,0,0,2.5,2.5Z"/><path class="cls-2" d="M316.08,20.88c6.41,3.77,13.14,7,19.38,11a53,53,0,0,1,8.69,6.82,56.78,56.78,0,0,1,7.47,9.38c2.51,3.85,4.78,7.86,7.27,11.72,1.73,2.7,6.06.19,4.31-2.52-4.52-7-8.39-14.49-14.1-20.66-5.42-5.84-12.32-10-19.24-13.87-3.75-2.07-7.55-4.05-11.25-6.23-2.78-1.63-5.3,2.69-2.53,4.32Z"/><path class="cls-2" d="M238.42,52.91c7.76,2.19,15.88-2.41,23.14-4.54A42.93,42.93,0,0,1,272.85,47c4.51-.11,9-.12,13.54,0a126.36,126.36,0,0,1,14.29,1.09,2.59,2.59,0,0,0,3.08-1.74A2.53,2.53,0,0,0,302,43.31,167.85,167.85,0,0,0,275.21,42c-4,.07-8.22,0-12.19.86a111.59,111.59,0,0,0-11.72,3.73c-3.65,1.21-7.89,2.56-11.55,1.53-3.1-.88-4.43,3.95-1.33,4.82Z"/><path class="cls-2" d="M327.21,59.12a46.3,46.3,0,0,0,5.42,6.45,55,55,0,0,0,7.61,7.18c1.06.79,2.47,1.56,3.84,1.16a5.47,5.47,0,0,0,3.62-3.75c.9-3.4-1.07-7.12-2.65-10-.94-1.7-2-3.34-3-5-.4-.66-.8-1.32-1.17-2-.16-.29-.3-.57-.45-.86s.12.23.08.19a1.1,1.1,0,0,1-.11-.35,2.5,2.5,0,0,0-4.83,1.33c.7,2.49,2.54,4.78,3.86,7,.84,1.4,1.65,2.82,2.35,4.3l.24.52c0,.08.07.17.11.25s-.17-.43-.07-.17.28.71.4,1.07.2.63.28.95c0,.16.07.31.1.46s0,.16,0,.23c.08.28,0-.51,0-.23s0,.57,0,.83c0,.46.08-.23,0-.15a3,3,0,0,0-.1.43c-.11.51,0-.18.08-.15s-.16.28-.18.31c-.25.33.34-.47.08-.14a.53.53,0,0,1-.13.13c-.18.14.44-.2.2-.15a2.44,2.44,0,0,0-.41.24c-.12.09-.28,0,.08,0a3.38,3.38,0,0,1,.78-.16c-.3,0,.8.18.21,0-.1,0,.62.34.29.12-.08-.06-.17-.09-.25-.14a6.57,6.57,0,0,1-.62-.4l-.32-.23c-.35-.25.41.33.06,0l-.77-.65c-.56-.48-1.11-1-1.64-1.49-1.21-1.15-2.37-2.35-3.51-3.56s-2.42-2.62-3.58-4c-.43-.5-.85-1-1.27-1.53-.26-.33-.05-.15.09.12a2.69,2.69,0,0,0-.2-.27l-.31-.44a2.5,2.5,0,1,0-4.31,2.52Z"/><path class="cls-2" d="M344.16,68.27c3,3.73,3.89,8.66,7.18,12.25a2.57,2.57,0,0,0,3,.39c5.54-2.35,4.3-9.62,2.82-14.12a85.14,85.14,0,0,0-8.63-17.52q-2-3.23-4.08-6.35c-1.79-2.65-6.12-.15-4.31,2.52,2.7,4,5.25,8.12,7.55,12.37.73,1.36,1.44,2.74,2.11,4.13s1.23,2.65,1.73,3.93a35.93,35.93,0,0,1,1.35,4.07c.16.57.29,1.15.4,1.73,0,.17.14.94.07.36q.06.5.09,1c0,.31,0,.62,0,.93,0,.14-.07.91,0,.53s-.1.43-.13.56-.3.73,0,.2c-.11.23-.24.44-.36.66s.09-.11.13-.16c-.1.11-.21.22-.3.33-.35.42.31-.09-.21.16-.24.12-.47.26-.72.36l3,.39a21.86,21.86,0,0,1-3.39-5.82,30.79,30.79,0,0,0-3.79-6.43,2.51,2.51,0,0,0-3.53,0,2.56,2.56,0,0,0,0,3.54Z"/><path class="cls-2" d="M354.31,70.77c.3,2.07,1.27,4.32,3.25,5.3a5,5,0,0,0,5.81-1.14,9.33,9.33,0,0,0,2.38-6.36,17.84,17.84,0,0,0-1.93-7.35c-.56-1.29-1.19-2.56-1.82-3.83-.28-.57-.56-1.14-.83-1.71l-.39-.87c-.2-.43,0,0,0,0l-.21-.54a2.57,2.57,0,0,0-3.08-1.75,2.54,2.54,0,0,0-1.75,3.08c.77,2,1.73,3.84,2.66,5.74l.66,1.39c.1.21.2.43.29.64l.15.33c.18.41,0-.1.06.15a20.44,20.44,0,0,1,1,2.86c.05.2.09.4.13.61s.07.59,0,.14a10.45,10.45,0,0,1,0,1.37c0,.14,0,.28,0,.42,0,0,.08-.44,0-.16s-.07.39-.11.58-.11.41-.17.62a2.5,2.5,0,0,0-.09.25c-.07.31.21-.39.06-.13s-.53.75-.51.89c0-.16.37-.4,0-.06-.05.06-.37.3-.38.37,0-.11.48-.37.09-.1,0,0-.21.11-.21.12s.53-.16.33-.14a1.17,1.17,0,0,0-.32.09c-.26.13.63-.06.34,0h-.22c-.05,0,.64.17.18,0s.25.06.29.13-.17-.06-.2-.1c-.25-.26.42.44.07.06-.06-.06-.12-.14-.18-.19s.23.4.13.18-.19-.3-.28-.45l-.14-.3c.08.16.15.42.06.11a12.32,12.32,0,0,1-.35-1.6,2.52,2.52,0,0,0-3.08-1.75,2.59,2.59,0,0,0-1.75,3.08Z"/><path class="cls-2" d="M340.34,33.38c1.92,1.22,3.91,2.3,5.89,3.42a56.93,56.93,0,0,1,5.92,3.77c.16.13.86.71,1.21,1s.8.75,1.18,1.15c.21.22.41.45.61.68.07.08.48.6.19.21a13.55,13.55,0,0,1,.94,1.43,6.8,6.8,0,0,1,.38.7c.07.14.14.28.2.42-.1-.25-.09-.24,0,0a12.87,12.87,0,0,1,.48,1.57c.08.32.14.63.19.95-.07-.44,0,.23,0,.33a13.51,13.51,0,0,1,0,2.11L358.81,49c-.06,0,.05,0,0,0-3.12-.78-4.46,4-1.33,4.82,2.19.55,4.87-.18,5.08-2.76a15.7,15.7,0,0,0-.25-3.87,14.25,14.25,0,0,0-2.68-6c-2.75-3.68-6.64-6.19-10.58-8.44-2.08-1.19-4.19-2.32-6.2-3.61a2.5,2.5,0,0,0-2.53,4.32Z"/><path class="cls-2" d="M300.08,47.88a41.52,41.52,0,0,1,12.45,9.94c.76.88,1.5,1.77,2.22,2.68s.85,1.08,1.57,2a47,47,0,0,0,3.19,4,5.54,5.54,0,0,0,3.67,2,4.23,4.23,0,0,0,3.68-2.3,15.48,15.48,0,0,0,.35-14.3c-2.66-5.59-7.85-9.35-11.82-13.92a2.5,2.5,0,0,0-3.53,3.53c3.13,3.62,7.05,6.61,9.72,10.62a11.93,11.93,0,0,1,2.24,5.9,9.83,9.83,0,0,1-.37,3.15c-.12.43-.24.86-.39,1.28-.07.23-.53,1.23-.19.57-.13.25-.28.5-.4.75-.25.54.38-.36,0,0-.19.19-.36.19.23-.15-.23.13-.37.1.31-.11-.12,0-.39.07.11,0s-.39-.17.62,0c-.65-.12.56.23,0,0-.25-.1-.54-.55,0,0-.37-.4-.79-.75-1.16-1.16s-.82-1-1.21-1.5.32.42-.1-.12l-.38-.5L320,59.19c-1.31-1.7-2.63-3.39-4-5a45.26,45.26,0,0,0-13.36-10.62c-2.87-1.45-5.4,2.86-2.53,4.32Z"/><path class="cls-2" d="M240.08,361.16c-.71-1.07-2.32-2.2-2.42-3.53L233,358.9c15.25,25.84,30.13,51.94,42.88,79.12,6.23,13.27,11.31,27.07,18.53,39.85,6.88,12.19,14.84,23.79,20.89,36.44,6.45,13.52,10.49,28.34,14.48,42.74,4.1,14.78,7.69,29.7,11.52,44.56,3.88,15,8,30.06,13.09,44.77s11.07,29,17.25,43.16q4.62,10.62,9.51,21.12c2.35,5.05,5.09,10.19,7.11,15.26,3.16,7.89,5.85,16.65,5.79,25.22,0,3.12-.4,7.07-2.94,9.25s-6.94,1.7-10.12,1.24c-9.94-1.45-19.29-5.6-29.23-7-14.91-2.09-30.29-.54-45.27-.19-12.06.28-24,1.08-36,2.13-12.42,1.09-24.87,2.32-37.34,2.63-3.67.09-8.5.68-11.74-.8a8.89,8.89,0,0,1-4.67-5.59c-2.48-7.2-1.33-15.66-.32-23,1.2-8.86,3.11-17.6,4.38-26.45,1.65-11.53.89-23.27-.7-34.78a97.11,97.11,0,0,0-5.14-21.73,127,127,0,0,0-8.77-17.44,152.06,152.06,0,0,1-9-17.08,2.59,2.59,0,0,0-3.08-1.75,2.52,2.52,0,0,0-1.75,3.08c5.2,12.37,13.66,23.15,18.26,35.79a100.47,100.47,0,0,1,4.92,22.5,150.86,150.86,0,0,1,1.2,22.18c-.23,8.24-2.17,16.45-3.58,24.54-1.53,8.85-3.17,18-2.68,27,.36,6.61,2.17,14.27,8.81,17.26,4,1.77,8.55,1.4,12.78,1.32,6.1-.11,12.2-.5,18.28-1,12.82-1,25.61-2.31,38.44-3.16,6-.4,12.07-.54,18.13-.68,7.8-.19,15.6-.58,23.4-.68,7.07-.09,14.49-.31,21.47.9,4.9.85,9.68,2.37,14.47,3.69a103.17,103.17,0,0,0,16,3.44c4,.43,8.36.3,11.68-2.26,6.93-5.33,5.48-16.39,4-23.85-1.78-9-5.22-17.27-9.14-25.53-13.62-28.7-26.41-58-35.43-88.53-8.9-30.08-15.05-60.91-24.64-90.79a203,203,0,0,0-7.9-21.52,191.93,191.93,0,0,0-10-18.67c-7.34-12.36-15.12-24.4-20.69-37.71C278.32,429.66,264,402.55,248.77,376q-5.66-9.86-11.45-19.63c-1.2-2-4.84-1.29-4.66,1.26a7.08,7.08,0,0,0,1,3.56c.6.91,1.47,1.59,2.08,2.49,1.77,2.67,6.11.17,4.31-2.52Z"/><path class="cls-1" d="M438,149.23a10.84,10.84,0,0,0,9.91-.39,12,12,0,0,0,6-7.52A2.5,2.5,0,0,0,449,140a9.46,9.46,0,0,1-.26.91l-.06.15c-.1.25-.07.19.07-.16-.05,0-.14.3-.17.35-.13.26-.27.51-.42.76l-.27.39a2.43,2.43,0,0,1-.14.2c-.11.15-.06.08.15-.19,0,0-1.17,1.2-1.28,1.3-.4.37,0-.06.07,0l-.39.28a8.48,8.48,0,0,1-.81.51c-.26.14-.52.26-.78.39s.55-.2,0,0l-.37.13c-.3.09-.6.17-.91.24a2.21,2.21,0,0,0-.46.08c.19-.13.54-.05.05,0a8.23,8.23,0,0,1-.86,0l-.38,0c-.53-.05-.09-.12.05,0-.15-.14-.71-.15-.92-.21l-.45-.15c-.46-.16.49.22,0,0a2.57,2.57,0,0,0-3.42.9,2.54,2.54,0,0,0,.9,3.42Z"/><path class="cls-1" d="M259.57.51a31.24,31.24,0,0,1-6.41,3.59l.07,0-.43.18-.87.35-1.74.68c-1.17.45-2.34.91-3.5,1.39A2.56,2.56,0,0,0,245,9.75c.37,1.15,1.78,2.28,3.07,1.74,4.79-2,9.88-3.5,14.08-6.67A2.55,2.55,0,0,0,263,1.4c-.66-1-2.3-1.74-3.42-.89Z"/><path class="cls-1" d="M245,7.78a77.28,77.28,0,0,0-3.41,8.76,15.3,15.3,0,0,0,.2,9.89,2.58,2.58,0,0,0,3.07,1.75,2.51,2.51,0,0,0,1.75-3.07,8.36,8.36,0,0,1-.75-4,14.9,14.9,0,0,1,.7-3.8,82.27,82.27,0,0,1,3.26-8.2A2.53,2.53,0,0,0,248,6,2.56,2.56,0,0,0,245,7.78Z"/><path class="cls-1" d="M243.48,28.82c3.48.49,6.4-1.26,8.9-3.51a39.5,39.5,0,0,0,6.5-8,39.8,39.8,0,0,0,2.19-3.8A2.5,2.5,0,0,0,256.75,11a39.88,39.88,0,0,1-2.33,4c-.54.83-1.1,1.64-1.69,2.43l-.34.45c.39-.52-.13.16-.21.25-.32.4-.64.8-1,1.19-.62.71-1.26,1.39-1.95,2-.35.33-.71.65-1.08,1l-.27.22c.28-.21.31-.24.1-.08l-.55.39c-.31.21-.63.4-.95.58a2,2,0,0,0-.55.27c.37-.16.43-.18.19-.09l-.27.1a5.52,5.52,0,0,1-.54.16l-.27.06c-.27.05-.18,0,.26,0,0,.1-1.7-.09-.51.07a2.56,2.56,0,0,0-3.07,1.75c-.27,1.18.36,2.88,1.74,3.07Z"/><path class="cls-1" d="M260.35,5.39c-2.69,3.31-5.51,7.06-6.41,11.33a10.36,10.36,0,0,0,.34,6,11.07,11.07,0,0,0,4.65,5.22,2.5,2.5,0,0,0,2.53-4.32c-.21-.13-.41-.25-.61-.39s-.49-.38-.26-.19a12.46,12.46,0,0,1-.91-.87c-.47-.46.16.31-.19-.22l-.3-.48c-.09-.15-.17-.32-.25-.48.16.31,0,.11,0-.1a8.92,8.92,0,0,1-.25-1c-.06-.29,0,.41,0-.08,0-.17,0-.35,0-.53a4.87,4.87,0,0,1,0-.54c0-.08.11-.77,0-.21.07-.38.15-.75.25-1.12s.22-.75.36-1.13c0-.05.24-.62.14-.38s.15-.33.17-.38a24.87,24.87,0,0,1,1.23-2.27,35,35,0,0,1,3.06-4.29,2.58,2.58,0,0,0,0-3.54,2.53,2.53,0,0,0-3.54,0Z"/><path class="cls-1" d="M258.89,27.54c3.4.78,7.12.67,9.71-2,2-2.13,2.95-5.08,4-7.78l.45-1.15c0-.1.08-.19.11-.28.13-.31,0,.1-.08.19.1-.2.18-.41.27-.62a23,23,0,0,1,1.23-2.36A2.5,2.5,0,0,0,270.23,11a55.8,55.8,0,0,0-3.5,8.09l-.08.19,0,.12c-.13.29-.27.58-.41.87a16,16,0,0,1-.87,1.43c-.21.32.41-.47.08-.1l-.26.3c-.19.21-.41.38-.61.57s.31-.23.28-.22a1,1,0,0,0-.18.13c-.11.06-.22.14-.34.2l-.3.16c-.46.24.55-.18.06,0l-1,.25c-.31.07.58-.06.27,0l-.28,0-.57,0c-.42,0-.84-.05-1.26-.07-.27,0,.24,0,.24,0a2.87,2.87,0,0,0-.44-.08l-.83-.17a2.5,2.5,0,1,0-1.33,4.82Z"/><path class="cls-1" d="M275.19,13.55a9.2,9.2,0,0,0,1.6-6.72A7.92,7.92,0,0,0,273.53,2a10.68,10.68,0,0,0-11.13-.73,9.92,9.92,0,0,0-4.62,5.91,2.5,2.5,0,1,0,4.82,1.33l.22-.64c.16-.45-.22.46-.07.17.05-.09.09-.19.14-.29a10.29,10.29,0,0,1,.67-1.09c.16-.26-.45.5-.14.18l.15-.17c.12-.14.26-.28.39-.41a2.47,2.47,0,0,0,.42-.37c-.25.37-.45.33-.2.16l.32-.21a9.93,9.93,0,0,1,.91-.49c.27-.13-.66.24-.25.11l.2-.07.61-.19.52-.11.21,0c.44-.08-.69.06-.24,0s.7,0,1.06,0a4.71,4.71,0,0,1,.53,0l.26,0c.31,0-.72-.12-.3,0s.72.14,1.07.25l.45.14c.29.1.63.39,0,0,.31.19.67.32,1,.52l.37.25c.4.26-.51-.47-.05,0,.25.24.48.48.71.73s-.22-.29-.22-.28a2,2,0,0,0,.17.23c.08.14.17.27.24.41s.28.61.08.13,0,.11.06.25.07.39.13.57c-.22-.66-.06-.59-.06-.37l0,.35c0,.19,0,.38,0,.58s-.19.28,0-.24a3.2,3.2,0,0,0-.07.33c0,.21-.1.41-.16.62s-.44.82,0,.15c-.29.48-.51,1-.82,1.45a2.51,2.51,0,0,0,.9,3.42,2.55,2.55,0,0,0,3.42-.9Z"/><path class="cls-1" d="M275,8.93a19.9,19.9,0,0,0,5.73-2.18,2.6,2.6,0,0,0,1.15-1.49,2.6,2.6,0,0,0-.25-1.93,2.55,2.55,0,0,0-3.42-.9,17.17,17.17,0,0,1-1.83.89l.6-.25a17.42,17.42,0,0,1-3.31,1,2.53,2.53,0,0,0-1.5,1.14,2.6,2.6,0,0,0-.25,1.93,2.5,2.5,0,0,0,1.15,1.49,2.8,2.8,0,0,0,1.93.26Z"/><path class="cls-1" d="M279.6,5.26c1.2,3.05,2.64,6,3.6,9.17A23.56,23.56,0,0,1,284,18.3a29.29,29.29,0,0,1,0,5.54,2.51,2.51,0,0,0,2.5,2.5,2.55,2.55,0,0,0,2.5-2.5,27.92,27.92,0,0,0-.91-10.49c-1-3.23-2.45-6.29-3.67-9.42a2.59,2.59,0,0,0-3.08-1.75,2.53,2.53,0,0,0-1.75,3.08Z"/><path class="cls-1" d="M270.87,14.88a9.93,9.93,0,0,0-.9,7.81,11.73,11.73,0,0,0,4.51,5.83c3.66,2.59,9.45,3.37,12.82-.13,2.29-2.39,2.73-5.88,2.35-9a2.57,2.57,0,0,0-2.5-2.5c-1.22.06-2.67,1.11-2.5,2.5a16.13,16.13,0,0,1,.13,2.08,8.7,8.7,0,0,1,0,.89,2.58,2.58,0,0,0,0,.39s.12-.68,0-.29a2,2,0,0,0,0,.24,14.37,14.37,0,0,1-.42,1.46c0,.15.29-.6.09-.21l-.17.31c-.11.2-.24.38-.36.57s.42-.46.17-.21c-.08.07-.14.16-.22.24s-.31.28-.45.43.56-.39.22-.18l-.25.17c-.18.11-.36.2-.54.29-.42.22.65-.21,0,0l-.59.17c-.14,0-.83.14-.28.06s-.18,0-.35,0c-.42,0-.83,0-1.25-.06.2,0,.7.11.24,0l-.28-.05a6.36,6.36,0,0,1-.66-.17,6.17,6.17,0,0,1-.61-.19l-.28-.1c-.52-.19.43.2.14.06s-.81-.39-1.2-.62a6.49,6.49,0,0,1-.55-.36,2.2,2.2,0,0,1-.25-.17c-.45-.31.34.29.11.08a12.25,12.25,0,0,1-1-.91c-.15-.16-.29-.33-.43-.49s.07,0,.15.19a3.71,3.71,0,0,0-.23-.32,9.45,9.45,0,0,1-.63-1.12c-.25-.49.15.45.06.15,0-.13-.1-.25-.14-.37s-.14-.48-.19-.72l-.06-.34c-.07-.31.05.72,0,.16a6.37,6.37,0,0,1,0-.76c0-.12,0-.24,0-.37,0-.56-.1.46,0,.14s.1-.54.18-.8a7.86,7.86,0,0,1,.27-.82c.11-.32-.28.58,0,0l.23-.45a2.5,2.5,0,0,0-4.32-2.52Z"/><path class="cls-1" d="M287.13,10.6c.31-.19.63-.36,1-.53l.46-.23c.12-.05.68-.3.27-.13s.1,0,.19-.06l.42-.14a5.75,5.75,0,0,1,.84-.22c.12,0,.59-.1.09,0s-.05,0,.07,0a5.77,5.77,0,0,1,.72,0c.48,0-.6-.12-.26,0l.3.06.28.08s.14.07.16.06-.62-.29-.36-.15.34.18.5.28c.39.24-.27-.23-.2-.16l.25.23.21.21c.07.09.34.42,0,0s-.05,0,0,.05a3.45,3.45,0,0,1,.2.32c.12.2.21.4.32.61a.84.84,0,0,1,.08.19c0,.07-.24-.61-.15-.36l.16.45a12.75,12.75,0,0,1,.43,1.58c.06.29.11.58.16.87s.06.83,0,0c0,.18,0,.36.06.54a18.24,18.24,0,0,1,.13,2c0,.25,0,.49,0,.74-.06.59.08-.45,0-.11,0,.14-.05.29-.08.43s-.12.5-.2.74l-.1.31c0,.11-.27.67-.07.2s0,0-.05.08a3.24,3.24,0,0,1-.17.32,7.16,7.16,0,0,1-.39.66c-.06.09-.14.18-.2.28s.27-.38.24-.31a.61.61,0,0,1-.12.15c-.16.18-.31.36-.48.53s-.32.28-.47.42l.33-.26a.85.85,0,0,0-.14.1l-.29.19-.25.14c-.43.23.21-.15.26-.1a4.69,4.69,0,0,0-.55.17l-.11,0c-.32.1.59,0,.4-.05l-.29,0c-.13,0-.54-.06,0,0s.14,0,0,0c-.29-.07-.45-.27.21.12l-.27-.14a1.58,1.58,0,0,1-.27-.18s.46.4.35.27-.11-.1-.16-.15a3,3,0,0,1-.24-.26c-.25-.24.38.57.1.13a7.94,7.94,0,0,1-.42-.75c-.18-.33.11.28.11.28a1.72,1.72,0,0,1-.11-.29c-.06-.16-.12-.33-.17-.5a12.33,12.33,0,0,1-.29-1.2,2.51,2.51,0,0,0-3.07-1.75,2.55,2.55,0,0,0-1.75,3.07c.59,3,2.4,6.18,5.82,6.34,2.7.13,5.05-1.93,6.35-4.11a10.6,10.6,0,0,0,1.39-3.81,18,18,0,0,0-.15-5.23c-.4-2.77-1.4-5.62-3.79-7.28-3-2.09-6.93-.65-9.76,1a2.5,2.5,0,0,0,2.53,4.32Z"/><path class="cls-1" d="M294.78,44.38a40.85,40.85,0,0,0-.28-7.82,10.6,10.6,0,0,0-4.21-6.8,12.37,12.37,0,0,0-6.75-2,18.68,18.68,0,0,0-7.22,1c-3.58,1.31-7.61,4.82-5.35,9,1.57,2.88,5.24,4.38,8.1,5.59,2,.88,4.12,1.67,6.18,2.52l.24.1-.05,0,.6.27c.4.17.8.36,1.19.55a12.07,12.07,0,0,1,1.87,1.1,2.52,2.52,0,0,0,3.42-.9,2.56,2.56,0,0,0-.9-3.42c-2.34-1.72-5.34-2.63-8-3.69l-1.14-.46-.52-.22-.49-.2-.3-.13-.51-.22-1.15-.53c-.7-.33-1.38-.68-2-1.07-.27-.15-.54-.32-.8-.49l-.42-.29c-.45-.31.28.26,0,0a8.37,8.37,0,0,1-.62-.57,3.07,3.07,0,0,0-.25-.26s.29.47.06,0l-.17-.28c-.23-.37.15.34.09.22a1.69,1.69,0,0,0-.09-.34c.26.12-.09.7.05.22s-.19.56,0,.21a1.14,1.14,0,0,0,.09-.3c0-.32-.27.45-.07.18a3.72,3.72,0,0,1,.26-.43s-.42.47,0,.07l.32-.33c.08-.08.51-.46.27-.26s.27-.18.37-.24l.61-.34c.09,0,.61-.28.37-.18s.31-.11.41-.14c.28-.1.57-.19.86-.27s.9-.22,1.35-.3c.14,0,.84-.13.39-.07l.84-.08a19.62,19.62,0,0,1,3.16,0c.5,0-.26-.06.22,0l.63.12c.47.11.91.27,1.36.41-.49-.15,0,0,.25.14a6.73,6.73,0,0,1,.63.4c.24.17.07,0,0,0,.13.1.26.22.38.33a7.4,7.4,0,0,1,.66.71c-.24-.31.14.25.21.36s.12.2.17.3.28.59.17.33,0,.1,0,.12.1.29.14.44.17.6.24.9c0,.12.05.23.07.35s.09.52,0,.25,0,.12,0,.14c0,.17,0,.33,0,.49.05.61.07,1.23.08,1.84,0,1.3-.05,2.6-.07,3.89a2.5,2.5,0,0,0,5,0Z"/><path class="cls-1" d="M446.88,377.81c-11.08,9.58-26.69,11.74-41,11-16.2-.83-32.27-5.2-47.22-11.37a132.3,132.3,0,0,1-21-10.84c-2.72-1.74-5.23,2.58-2.53,4.32,13.11,8.42,28,14.39,43.05,18.37,16,4.24,33.28,6.46,49.61,3a50.75,50.75,0,0,0,22.69-10.92,2.52,2.52,0,0,0,0-3.54,2.55,2.55,0,0,0-3.53,0Z"/><path class="cls-2" d="M84,347.87c5,6.17,12.33,10.31,19.48,13.5a152,152,0,0,0,27,8.79,250.1,250.1,0,0,0,26.07,4.67c11.34,1.44,22.75,1.61,34.15,2.22,7.31.4,14.51,1.33,21.85.75,7.08-.55,14.08-1.81,21.19-2.2,3.2-.17,3.22-5.18,0-5-6.24.34-12.4,1.34-18.61,2a86,86,0,0,1-9.22.49c-3.16,0-6.28-.39-9.43-.63-12.17-.94-24.41-.84-36.55-2.2a238.92,238.92,0,0,1-24.37-4,165.3,165.3,0,0,1-26.61-7.9c-8-3.2-16-7.31-21.41-14a2.51,2.51,0,0,0-3.53,0,2.55,2.55,0,0,0,0,3.54Z"/></g></g></svg>