<svg xmlns="http://www.w3.org/2000/svg" viewBox="0 0 619.29 724.58"><defs><style>.cls-1{fill:#1b1464;}.cls-2{fill:#8cc63f;}</style></defs><title>aikido3</title><g id="Capa_2" data-name="Capa 2"><g id="Capa_1-2" data-name="Capa 1"><path class="cls-1" d="M499.3,83.78c0-.26,0-.53.06-.79s-.14.62,0,0c0-.13,0-.26.07-.39a16.64,16.64,0,0,1,.52-2,17.62,17.62,0,0,1,1.63-3.7c.34-.63.7-1.24,1.09-1.83.21-.31.42-.62.64-.92.09-.14.19-.27.29-.4-.26.34.21-.25.22-.26A17.61,17.61,0,0,1,505.27,72c.22-.21.44-.41.67-.6.54-.46-.24.17.1-.08l.52-.36c.26-.17.52-.31.79-.46l.36-.17c-.5.23-.17.07-.06,0,.27-.06.54-.15.81-.22s-.61,0,0,0a3.25,3.25,0,0,0,.54,0c.13,0,.49.08-.13,0l.36.07a2.47,2.47,0,0,0,.36.11c.56.09-.29-.17,0,0a6.86,6.86,0,0,1,.79.47c-.08-.06-.35-.31,0,0a5.79,5.79,0,0,1,.51.48c2.11,2.19,2.55,5.73,2.15,9a24.84,24.84,0,0,1-4.51,11.22,2.52,2.52,0,0,0,.9,3.42,2.55,2.55,0,0,0,3.42-.9c4.94-6.85,8-18.24,2.25-25.47A7.9,7.9,0,0,0,506,65.67C502.54,67,500,70,498.09,73a22.64,22.64,0,0,0-3.79,10.77c-.11,3.22,4.89,3.22,5,0Z"/><path class="cls-1" d="M496.7,80.26a4.84,4.84,0,0,1-.54.17c.85-.21,0,0,0-.05s.43.14,0,0c0,0-.59-.24-.25-.08.17.08-.61-.38-.8-.52.31.23-.54-.51-.68-.65a34.46,34.46,0,0,1-3.67-4.53,38.1,38.1,0,0,0-3.72-4.67,17.57,17.57,0,0,0-6.61-3.8c-5.57-2-11.58-1.18-17.31-.6-3.44.35-6.88.7-10.33,1a60.25,60.25,0,0,1-8.91.33,12,12,0,0,1-8.11-3.88c-.1-.11-.77-.91-.51-.57a12.75,12.75,0,0,1-.74-1.07A17.17,17.17,0,0,1,433.34,59c-.19-.42.21.54-.08-.19-.09-.23-.18-.45-.26-.68-.14-.39-.27-.78-.39-1.18a24.76,24.76,0,0,1-.62-2.68,14.17,14.17,0,0,1-.24-2.13,27.11,27.11,0,0,1-.05-2.85,22.19,22.19,0,0,1,.66-5,21.65,21.65,0,0,1,4.28-9.08,95,95,0,0,1,23.54-21.45c8.84-5.59,19.13-9.68,29.76-8.54a49.77,49.77,0,0,1,25.52,10.38,50.56,50.56,0,0,1,16.09,22.88c6,17.31,3.14,39-12.41,50.45a41.16,41.16,0,0,1-6.38,3.83,2.5,2.5,0,1,0,2.53,4.32,42.71,42.71,0,0,0,20.77-22.58c3.85-9.51,4.34-20.22,2.29-30.2a56.91,56.91,0,0,0-14.22-27.51A54.14,54.14,0,0,0,498,1.6,45.18,45.18,0,0,0,482,.23a53.16,53.16,0,0,0-16.74,5c-10.49,5-19.83,12.61-27.64,21.15-3.07,3.37-6.31,6.92-8.18,11.12a31.6,31.6,0,0,0-2.7,11.76c-.26,7.69,2.46,16.29,9.49,20.3,4.43,2.53,9.34,2.38,14.27,2.08,6.9-.42,13.78-1.58,20.68-1.78a21.62,21.62,0,0,1,8,1.07,19,19,0,0,1,3.85,2c.5.32-.27-.25,0,0l.38.35a13,13,0,0,1,.95,1c2.57,3,4.78,7.26,8.29,9.77a5.83,5.83,0,0,0,5.36,1A2.57,2.57,0,0,0,499.77,82a2.51,2.51,0,0,0-3.07-1.75Z"/><path class="cls-1" d="M523.83,88.67c-1.05,5.86-.87,11.69,2.23,16.93,2.88,4.87,7.17,8.84,10.64,13.28a2.51,2.51,0,0,0,3.53,0,2.56,2.56,0,0,0,0-3.54c-3.11-4-6.94-7.58-9.56-11.78s-2.9-8.62-2-13.56a2.57,2.57,0,0,0-1.74-3.07,2.53,2.53,0,0,0-3.08,1.74Z"/><path class="cls-1" d="M438.85,75c2.27,14.46,6.77,29.1,15.16,41.27,3.71,5.39,8.59,10.09,14.89,12.25a18.53,18.53,0,0,0,9.39.82,20.84,20.84,0,0,0,8.07-3.74A43.07,43.07,0,0,0,499.52,110c1.42-2.87-2.89-5.41-4.32-2.52a40,40,0,0,1-9.9,12.62,20.23,20.23,0,0,1-6.51,3.91,12.26,12.26,0,0,1-7.32,0c-5.44-1.48-9.77-5.52-12.94-10a79,79,0,0,1-9.15-17.82,116.13,116.13,0,0,1-5.71-22.55,2.52,2.52,0,0,0-3.08-1.75A2.56,2.56,0,0,0,438.85,75Z"/><path class="cls-1" d="M453.2,83.78A21.8,21.8,0,0,0,456.87,95a2.5,2.5,0,1,0,4.32-2.52,23.47,23.47,0,0,1-1.27-2.24c-.1-.2-.19-.41-.29-.61s-.09-.2-.14-.31-.09-.2.06.14a5.53,5.53,0,0,1-.46-1.19,19.69,19.69,0,0,1-.69-2.5l-.12-.65c0-.27,0-.21,0,.19,0-.11,0-.21,0-.32,0-.41-.07-.83-.07-1.25a2.5,2.5,0,0,0-5,0Z"/><path class="cls-1" d="M531.13,85.08a21.13,21.13,0,0,1,2.23.5l.89.28.49.18.21.1a13.73,13.73,0,0,1,1.6.87c.12.08.71.49.6.4s.47.4.61.53a10.25,10.25,0,0,1,3,5.22c.15.56.27,1.12.37,1.68,0,.16.05.31.07.47,0-.11,0-.47,0,0,0,.32.07.63.09,1a25.64,25.64,0,0,1,0,3.92c0,.34-.06.67-.1,1a4.26,4.26,0,0,1-.06.5c0-.11.07-.42,0,.09-.11.68-.23,1.36-.37,2a40.12,40.12,0,0,1-1.06,4,35.69,35.69,0,0,1-3,6.93c-.57,1-1.19,2.06-1.86,3-.16.24-.33.47-.5.71l-.25.34c0-.07.3-.38,0,0-.43.53-.89,1-1.35,1.57a239.21,239.21,0,0,1-19.29,19.71,121,121,0,0,1-22.08,15.69c-7.7,4.26-15.74,7.92-23.18,12.65-7.14,4.54-13.63,10-17.92,17.35-4,6.83-6.22,14.54-7.79,22.23A215.37,215.37,0,0,0,439,232.29c-.75,8.56-.11,17.13,3.45,25a40.65,40.65,0,0,0,3.36,6c1.79,2.66,6.12.16,4.32-2.52-4.86-7.27-6.68-15.42-6.4-24.08a164.93,164.93,0,0,1,3.06-24.24c1.39-7.68,3.28-15.46,6.92-22.41A37.31,37.31,0,0,1,460.2,181a60.08,60.08,0,0,1,10.2-8c7.48-4.8,15.58-8.49,23.35-12.77a127.32,127.32,0,0,0,22.63-16,232.09,232.09,0,0,0,19.5-19.8,41.41,41.41,0,0,0,8.27-14.17c3.38-9.67,4.05-23.82-7.13-28.66a19.48,19.48,0,0,0-4.56-1.36A2.57,2.57,0,0,0,529.39,82a2.51,2.51,0,0,0,1.74,3.07Z"/><path class="cls-1" d="M482.08,126.55c0,10-1.17,20.35,3.68,29.59,1.49,2.86,5.81.33,4.32-2.52-4.37-8.32-3-18-3-27.07,0-3.21-5-3.22-5,0Z"/><path class="cls-1" d="M533.31,80.39c2.34,1.74,5.11,2.57,7.68,3.88a10,10,0,0,1,5.25,6.51c1,3.39,1.28,7,2.39,10.3a70.07,70.07,0,0,0,4.74,10.84,83.73,83.73,0,0,0,6.3,10c2.21,3,4.64,5.86,6.84,8.89a76.18,76.18,0,0,1,10.43,18.63,38.82,38.82,0,0,1,1.33,23.65c-.85,3.11,4,4.44,4.82,1.33a42.6,42.6,0,0,0-.21-22.79,70.53,70.53,0,0,0-10-20.44c-4.4-6.46-9.66-12.25-13.62-19a71.6,71.6,0,0,1-5.22-10.8c-1.33-3.57-1.76-7.29-2.7-11-1-4-2.92-7.43-6.41-9.67-2.88-1.86-6.31-2.62-9.08-4.69a2.51,2.51,0,0,0-3.42.9,2.56,2.56,0,0,0,.89,3.42Z"/><path class="cls-1" d="M382.27,310.05a25.6,25.6,0,0,1,12.61,5.34A38.9,38.9,0,0,1,403.69,326a81.73,81.73,0,0,1,5.88,12.62,80.88,80.88,0,0,1,3.89,15.5c1,6.22,2.14,12.69,5.64,18.08,1.75,2.69,6.08.19,4.32-2.52-3.11-4.79-4.07-10.57-5-16.11a85,85,0,0,0-3.9-16c-3.44-9.2-7.88-18.73-15.48-25.25a30.21,30.21,0,0,0-15.43-7.15,2.59,2.59,0,0,0-3.08,1.75,2.53,2.53,0,0,0,1.75,3.08Z"/><path class="cls-1" d="M578.77,172c-7.89,15-15.54,30.22-22.65,45.65-3.46,7.51-6.87,15.08-9.76,22.83-3.57,9.59-6.1,19.52-9.23,29.25a123.11,123.11,0,0,1-26.25,46.58,155,155,0,0,1-40.44,32.36c-8.72,4.87-17.9,8.84-26.46,14-4.06,2.44-7.66,5.6-11.88,7.77a23.47,23.47,0,0,1-5,2c-.47.12,0,0,.08,0a1.35,1.35,0,0,1-.35,0c-.38-.08.54.1-.09,0,.6.13.18.07-.09-.09-.57-.33.21.21-.36-.26a35.86,35.86,0,0,0-4.08-3c-2.75-1.68-5.27,2.64-2.52,4.32a34.81,34.81,0,0,1,3.52,2.56,5.79,5.79,0,0,0,3.79,1.5,14,14,0,0,0,5-1.53,39.33,39.33,0,0,0,6.29-3.4c2-1.36,4-2.83,6-4.2s4.45-2.74,6.73-4c4.68-2.59,9.47-5,14.26-7.36a164.38,164.38,0,0,0,43.24-30.93,132.5,132.5,0,0,0,29.82-44.9c3.79-9.68,6.39-19.77,9.5-29.68a230.91,230.91,0,0,1,9.49-24.58c7.15-16.09,15-31.86,23.15-47.49.84-1.64,1.69-3.26,2.55-4.89,1.49-2.85-2.82-5.38-4.32-2.52Z"/><path class="cls-1" d="M437.77,70.59c-4.75,3.32-10.44,4.8-16,6.07a143.73,143.73,0,0,0-18.23,4.89c-3.34,1.24-6.64,2.6-10,3.87a70.12,70.12,0,0,0-9.08,4,114.75,114.75,0,0,0-15.85,11.15c-5.35,4.32-10.7,9.11-14.31,15-1.68,2.75,2.64,5.27,4.32,2.52,3.07-5,7.61-9.12,12.11-12.86a113.77,113.77,0,0,1,15.12-10.88c5.65-3.31,12-5.43,18.12-7.73a129.76,129.76,0,0,1,17.93-5c6.36-1.41,13-3,18.38-6.83a2.58,2.58,0,0,0,.9-3.42,2.51,2.51,0,0,0-3.42-.9Z"/><path class="cls-1" d="M440.17,138.27c-6.1,3.28-12.89,5.34-18.53,9.44-5.07,3.69-7.21,9.37-9,15.17a67.68,67.68,0,0,1-3.1,8.93,2.57,2.57,0,0,0,.9,3.42,2.53,2.53,0,0,0,3.42-.9A77.67,77.67,0,0,0,417.49,164c1-3.32,2.14-6.79,4.24-9.62s6-4.75,9.25-6.33c3.88-1.88,7.91-3.46,11.71-5.5,2.83-1.53.31-5.85-2.52-4.32Z"/><path class="cls-1" d="M577.74,178.64c-1.67,5.13-1.7,10.7-1.16,16a120.68,120.68,0,0,0,3,16.44c.61,2.5,1.13,5.07,1.95,7.52,1,2.85,2.36,5.53,3.22,8.42,1.55,5.16-1.44,9.79-3.47,14.38a114.81,114.81,0,0,0-6.39,17.68,41.37,41.37,0,0,0-1.19,16.11c.12.88.26,1.75.4,2.63l.18,1.14s.12.84.05.31l.09.72a16.42,16.42,0,0,1,.09,2.22c0,.2,0,.41,0,.61,0-.09.1-.53,0-.08,0,.23-.41,1.2-.14.65-.08.16-.6.9-.2.43-.11.13-.8.7-.35.39a4.1,4.1,0,0,1-2.07.82,22.62,22.62,0,0,1-6.68,0c-5.46-.53-10.83-1.95-16.34-2-5.9,0-11.43,1.85-15.46,6.28-2.16,2.37,1.36,5.92,3.54,3.54,3.27-3.6,7.5-4.9,12.27-4.82,5,.09,9.85,1.27,14.78,1.86,4.25.51,9.84,1,13.31-2.06,2.82-2.49,2.53-6.4,2.05-9.77-.61-4.27-1.18-7.9-.53-12.46.87-6.23,3.15-12.17,5.44-18,1-2.61,2.16-5.14,3.32-7.68a29.1,29.1,0,0,0,2.75-8.39c.74-5.88-3.05-11.06-4.44-16.56a177.22,177.22,0,0,1-3.83-17.65c-.85-5.73-1.17-11.85.64-17.44,1-3.07-3.83-4.38-4.82-1.33Z"/><path class="cls-1" d="M445.81,262.59a5.57,5.57,0,0,1-.67-.39c-.29-.18.33.29.07.06l-.37-.33c-.19-.19-.38-.4-.56-.61s-.19-.22-.28-.33c.31.4-.14-.21-.16-.24a30.94,30.94,0,0,1-2.31-4.23,93.76,93.76,0,0,1-3.63-9.95c-1-3-1.89-6-3.1-8.89-2-4.85-4.4-9.59-6-14.63a20.85,20.85,0,0,1-1.16-6.27,20,20,0,0,1,1-5.83,75.92,75.92,0,0,1,5.7-12.52A86.39,86.39,0,0,0,440.09,186c1.79-5.29,3-10.74,4.28-16.17,2.53-11,4.83-22.34,11-32,1.73-2.72-2.6-5.23-4.32-2.52-5.72,9-8.24,19.3-10.64,29.55-1.3,5.52-2.47,11.07-4.08,16.5a72.76,72.76,0,0,1-5.48,13.12c-4.27,8.2-9.69,17.18-7.62,26.79,1.14,5.33,3.53,10.34,5.72,15.31a99.75,99.75,0,0,1,3.66,9.77A124.58,124.58,0,0,0,437,258.51c1.34,3,3.16,6.87,6.32,8.4a2.57,2.57,0,0,0,3.42-.9,2.52,2.52,0,0,0-.9-3.42Z"/><path class="cls-1" d="M408.55,333.49c3.21,0,3.22-5,0-5s-3.23,5,0,5Z"/><path class="cls-1" d="M571,290.61c.31,1.58.69,3.16.93,4.75-.05-.35,0,.41,0,.57s0,.52,0,.79-.11.77,0,.29a5.44,5.44,0,0,1-.25.9c-.1.27,0-.07,0-.1a3.84,3.84,0,0,1-.21.4c-.06.09-.5.72-.32.49a12.81,12.81,0,0,1-1.6,1.61,29.27,29.27,0,0,1-4.87,3.32c-3.63,2.06-7.37,3.95-11,5.94a48.65,48.65,0,0,1-11.33,4.66,28.47,28.47,0,0,1-13.7-.05c-3.12-.77-4.46,4.05-1.33,4.82a34.22,34.22,0,0,0,14.42.47,47.07,47.07,0,0,0,12.95-4.78c4.14-2.14,8.31-4.35,12.37-6.64,3.25-1.83,7.26-4.24,9-7.72s.43-7.42-.28-11.05a2.5,2.5,0,0,0-4.82,1.33Z"/><path class="cls-1" d="M575.59,298.05a8.32,8.32,0,0,0-1,6.18,9.68,9.68,0,0,0,3.06,4.49c1.4,1.23,3,2.24,4.46,3.38.36.27-.21-.17.14.11l.52.42c.28.25.56.52.83.78a26.35,26.35,0,0,1,2.31,2.53c2.45,3.16,3.12,7,3.18,10.92a60.31,60.31,0,0,1-1.71,14.28,96.38,96.38,0,0,1-5.13,16l3.07-1.74a1.84,1.84,0,0,1-.39-.1s-.77-.39-.06,0c-.45-.24-.91-.45-1.35-.7-1.12-.65-2.19-1.38-3.25-2.13-2.62-1.86-5-3.75-7.47-5.92a62.81,62.81,0,0,1-6.08-5.91c-.33-.38-.21-.27-.12-.14-.12-.17-.25-.34-.36-.52a9.24,9.24,0,0,1-1.13-2.93c-.53-2.28-.59-4.64-1.11-6.93-1.31-5.77-5.85-9.07-9.72-13.12-2.23-2.33-5.77,1.21-3.54,3.54,3.3,3.44,7.42,6.19,8.48,11.12.51,2.35.56,4.78,1.16,7.11a13.31,13.31,0,0,0,2.48,5,48.46,48.46,0,0,0,6,5.93c2.63,2.3,5.35,4.49,8.17,6.54,2,1.46,4.48,3.52,7,4a2.61,2.61,0,0,0,3.08-1.75,85.46,85.46,0,0,0,7-28.76c.22-4.56-.12-9.31-2.11-13.48a24.53,24.53,0,0,0-7.86-8.86,20.6,20.6,0,0,1-4-3.31,3.91,3.91,0,0,1-.48-.73c-.36-.64,0,.22-.09-.18a4.25,4.25,0,0,1-.15-.59c.07.43,0-.1,0-.21a1.08,1.08,0,0,1,0-.42,5,5,0,0,1,.51-1.35c1.49-2.85-2.83-5.38-4.32-2.52Z"/><path class="cls-1" d="M582.18,360.2c-4.55,15.48-11,30.51-12.73,46.69a63.93,63.93,0,0,0-.2,12.06c.34,4.24,1.09,8.44,1.43,12.68a199.86,199.86,0,0,1,.24,26.47c-.43,8.64-1.37,17.22-2.09,25.84a235.08,235.08,0,0,0-.71,24.9c.18,8.37.78,16.72,1.74,25a191.5,191.5,0,0,0,4,24.26c4,15.81,11.57,30.38,17.94,45.29.76,1.8,1.51,3.61,2.23,5.42a2.58,2.58,0,0,0,3.07,1.75,2.52,2.52,0,0,0,1.75-3.08c-6-15-13.64-29.26-18.46-44.68a145.78,145.78,0,0,1-4.85-23.42c-1.13-8.11-1.87-16.29-2.24-24.47a243,243,0,0,1,.09-25c.47-8.43,1.51-16.81,2.1-25.22a239,239,0,0,0,.59-25.95c-.17-4.43-.51-8.85-1.06-13.25a90,90,0,0,1-1-12.16c.19-16,6.42-31.19,11.22-46.23q.9-2.78,1.72-5.58c.91-3.09-3.92-4.41-4.82-1.33Z"/><path class="cls-1" d="M547.62,498.69c5,16.54,10.06,33.11,16.27,49.26,3.14,8.16,6.56,16.21,10.41,24,3.93,8,8.07,15.9,12.14,23.82s8.26,15.87,12.67,23.65c3.21,5.64,6.92,11,10,16.69,2.9,5.36,5.61,11.4,5.18,17.62a15.58,15.58,0,0,1-3,7.88c-.41.59.1-.08-.31.4-.18.21-.35.42-.54.62-.38.42-.77.83-1.18,1.22s-.88.82-1.34,1.21-.91.75-1.2,1A57.48,57.48,0,0,1,591.52,674a55.58,55.58,0,0,1-17.3,3.55c-5.17.13-10.2-.58-13.8-4.59a22,22,0,0,1-3.91-7.39c-1.13-3.15-2.12-6.33-3.46-9.4-3.47-7.9-7.94-15.29-12.1-22.84-4.06-7.37-8.48-14.59-12.16-22.16a58.51,58.51,0,0,1-4.3-11.35,106.6,106.6,0,0,1-2.13-12.54,101.79,101.79,0,0,0-2.23-12.77,74.25,74.25,0,0,0-4.31-11.64c-3.36-7.4-7.56-14.38-10.92-21.78a146.75,146.75,0,0,1-8.14-23.41c-4.06-15.46-5.57-31.36-5.81-47.3q-.09-6.17,0-12.32c0-3.22-5-3.22-5,0-.26,16.66.35,33.38,3.45,49.78A162.34,162.34,0,0,0,495.94,532a178,178,0,0,0,10.47,23.23c3.85,7.33,7.65,14.74,9.44,22.88,1.88,8.51,1.93,17.37,4.57,25.71s7.11,15.82,11.38,23.32,8.57,15.14,12.64,22.81a90.8,90.8,0,0,1,5.17,11c1.16,3.13,2.09,6.33,3.42,9.4a20.33,20.33,0,0,0,5.4,7.67,18.88,18.88,0,0,0,8,3.87c5.82,1.3,12,.69,17.74-.54a71.51,71.51,0,0,0,17.93-6.48c4.69-2.43,9.5-5.49,12.81-9.68,4.32-5.48,5.25-12.23,3.69-18.92s-5.13-12.91-8.71-18.74c-3.9-6.33-7.69-12.67-11.23-19.21-4.38-8.09-8.55-16.28-12.73-24.47s-8.3-16.08-11.94-24.37c-7.06-16.07-12.52-32.8-17.7-49.56q-1.93-6.25-3.83-12.53c-.94-3.07-5.76-1.76-4.82,1.33Z"/><path class="cls-1" d="M367.33,401.91a50.3,50.3,0,0,0-15.39,11.3,52.17,52.17,0,0,0-9.52,15.38c-4.79,11.68-5.79,24.71-5.56,37.21.25,13.38,2,26.68,3.76,39.93.8,6.1,1.62,12.2,2.24,18.32.54,5.36.68,10.73,1.19,16.08.62,6.55,1.41,13.11,1.42,19.7a46.11,46.11,0,0,1-.73,9.18,24.6,24.6,0,0,1-1.13,3.94c-.19.46-.07.17,0,.07-.06.14-.13.29-.2.43a9.33,9.33,0,0,1-.43.83c-.14.27-.3.53-.46.79s-.69.93-.4.57a10.5,10.5,0,0,1-1.13,1.18l-.33.28c-.29.24.3-.21,0,0s-.55.36-.83.53a2.53,2.53,0,0,0-.51,3.92c16.14,18.25,34.86,34.38,56.09,46.42q7.9,4.49,16.23,8.17c6,2.66,12,5,18.54,6.06a114.75,114.75,0,0,0,20.21,1.14c6.73-.11,13.55-.6,20.28-.08,7.34.57,14.7,2.73,22.1,2.26s14.11-3.31,21.24-4.68a2.53,2.53,0,0,0,1.75-3.08,2.56,2.56,0,0,0-3.08-1.74c-6.11,1.18-12,3.61-18.19,4.35-6.43.77-12.92-.79-19.27-1.62-13.16-1.72-26.47.42-39.66-.85-12.3-1.2-23.64-6.64-34.38-12.45a194.93,194.93,0,0,1-29.32-19.54,239.59,239.59,0,0,1-29-27.89l-.51,3.93c5.32-3.06,7.08-9.31,7.78-15,.82-6.59.26-13.33-.36-19.91-.54-5.6-.93-11.19-1.33-16.8-.42-5.88-1.13-11.73-1.88-17.58-1.69-13.16-3.63-26.31-4.38-39.57-.72-12.66-.52-25.34,3.08-37.42,3.36-11.29,10.11-21,20.36-27.15,1.39-.83,2.81-1.58,4.27-2.28a2.5,2.5,0,0,0-2.52-4.32Z"/><path class="cls-1" d="M449.25,421.35c0,26.36-7.28,53.22-.87,79.33,1.67,6.77,4.53,13.16,7.13,19.61q4.07,10.1,8.16,20.16,8.4,20.67,16.79,41.34Q489.87,605,499,628.29a2.57,2.57,0,0,0,3.07,1.75,2.53,2.53,0,0,0,1.75-3.08c-10.77-27.55-22-54.93-33.11-82.33q-4.2-10.3-8.36-20.63c-2.63-6.51-5.57-13-7.74-19.66-4-12.4-4.25-25.58-3.49-38.48.87-14.85,3.08-29.62,3.11-44.51,0-3.22-5-3.22-5,0Z"/><path class="cls-1" d="M350.89,587.42c-5.64-2.12-11.75-.07-16.95,2.32s-10.11,5.84-15.3,7.85c-3.41,1.31-7.13,1.8-10.69,2.53s-7.42,1.37-10.41,3.36a6,6,0,0,0-2.81,3.7,6.26,6.26,0,0,0,1.79,5.25c3.62,4.25,9.1,6.39,14.53,6.91,6.18.6,12.43-.5,18.53-1.34a60.56,60.56,0,0,1,14.36-.42c5.38.52,10.73,1.29,16.12,1.75,4.78.4,9.91.81,14.62-.38a13.47,13.47,0,0,0,2.73-1c2.86-1.47.34-5.79-2.52-4.32l-.5.24c.59-.26,0,0-.14,0-.41.12-.81.25-1.22.34s-.76.16-1.14.22c-.78.13.5,0-.31.05l-1,.1a53.11,53.11,0,0,1-6.91,0c-5.23-.28-10.44-1-15.64-1.56a66.56,66.56,0,0,0-13.08-.64c-5.65.47-11.22,1.61-16.88,2-5.13.35-10.44.21-14.8-2.75a18,18,0,0,1-2.26-1.76c-.32-.31-.63-.63-.92-1-.43-.49.25.41-.07-.1l-.27-.43c-.14-.22-.13-.56,0,0,0-.13-.1-.25-.12-.39-.05-.5,0,.65,0,.17,0-.27.13-.49-.06.19.19-.69-.13.18,0-.06a1.61,1.61,0,0,1,.19-.31c-.52.68-.11.12,0,0s.22-.19.32-.28c-.54.47-.19.13,0,0s.46-.29.69-.41.64-.32,1-.46c-.59.25.47-.17.67-.24a42.89,42.89,0,0,1,5.23-1.4c3.51-.77,7.09-1.29,10.55-2.29,5.46-1.56,10.32-4.9,15.32-7.48s10.75-5.28,16.07-3.28a2.5,2.5,0,1,0,1.33-4.82Z"/><path class="cls-1" d="M567,680.55a9.8,9.8,0,0,0,2.6,7.08,10.07,10.07,0,0,0,6.46,2.61c4.78.35,10-1.58,13.92-4.16a16.28,16.28,0,0,0,5.44-5.35c1.57-2.81-2.74-5.33-4.32-2.52-.18.31-.38.61-.58.9s.29-.35.06-.09l-.17.21c-.17.18-.33.37-.51.54s-.61.59-.93.87l-.47.39c-.29.23.31-.23,0,0l-.34.25a23.78,23.78,0,0,1-2.54,1.57c-.48.25-1,.48-1.44.71-.12.06-.63.27-.25.12-.29.11-.57.23-.86.33a23.29,23.29,0,0,1-2.95.89c-.47.11-.94.2-1.42.27s.3,0-.29,0l-.84.06a11.8,11.8,0,0,1-1.33,0l-.58,0c.64,0-.11,0-.28-.06a11.53,11.53,0,0,1-1.15-.32c-.33-.1.41.2.1,0l-.23-.11-.61-.35-.21-.15c-.27-.18.34.3.1.07l-.49-.48c-.39-.37.1.28-.15-.2-.1-.19-.21-.38-.32-.56s-.17-.43,0,.07c0-.12-.1-.25-.13-.37s-.15-.53-.21-.81a1.65,1.65,0,0,1-.06-.32c-.07-.38,0,.39,0,0s0-.73,0-1.1c0-3.22-5-3.23-5,0Z"/><path class="cls-2" d="M374.33,153.51c.26-10.41-3.3-20.88-8.5-29.78-5-8.49-12.15-16.77-21.35-20.76-6.12-2.66-13.25-3.18-19.85-3.12-7.79.07-15.79,1.17-23,4.25s-13.22,8.76-13.31,17c0,3.22,5,3.22,5,0,0-.37,0-.74,0-1.11,0-.21,0-.43.07-.64-.07.52,0,.14,0,0a18.59,18.59,0,0,1,.58-2.19s.24-.63.1-.27.11-.25.11-.26c.15-.3.3-.6.47-.89s.34-.58.52-.86l.29-.42c.36-.52-.15.16.17-.22a16.68,16.68,0,0,1,1.4-1.51c.26-.25.52-.48.79-.71l.32-.27c.23-.18.23-.18,0,0l.35-.26a27.63,27.63,0,0,1,3.88-2.32l1.07-.5a7.6,7.6,0,0,1,.73-.31c.85-.33,1.7-.64,2.56-.91a49.41,49.41,0,0,1,5.22-1.36,59.75,59.75,0,0,1,10.39-1.22,70.8,70.8,0,0,1,10.6.36l1.16.14.69.11c.79.12,1.57.26,2.35.43a32.14,32.14,0,0,1,3.85,1l.81.29.39.15c.52.2-.4-.18-.07,0,.93.43,1.85.88,2.74,1.4a34.77,34.77,0,0,1,5.38,3.79,51.44,51.44,0,0,1,9.38,10.75c5.83,8.82,9.91,19.5,9.65,30.19-.08,3.22,4.92,3.21,5,0Z"/><path class="cls-2" d="M98.84,270.81c4.1-10.93,6.34-22.46,10.4-33.41,1.83-5,4-10.77,7.89-14.51,2.53-2.45,5.72-2.59,8.94-3.06,10-1.46,17-10.41,23.12-17.68,3.6-4.25,7.08-8.6,10.89-12.67q6.48-6.91,13.33-13.47c9-8.59,18.42-16.7,28.18-24.39,4.71-3.71,9.6-7.19,14.3-10.9,4.17-3.31,8.17-6.85,12.65-9.76a33.59,33.59,0,0,1,6.69-3.51c1.93-.7,4.39-1.46,6.46-1s4,2.29,6.11,3.1a7.9,7.9,0,0,0,6.64-.53c4-2,6.44-6.19,10.4-8.24s9.55.1,13.29,1.9c4.84,2.34,9.28,5.42,14.1,7.81,5.51,2.73,11.55,4.51,17.42,6.34,12.43,3.88,24.75,8,37.21,11.85,12.21,3.73,24.43,7.57,35.93,13.18,7.75,3.79,15.67,7.27,23.27,11.36,7,3.74,15.3,8.23,19.53,15.22,3.94,6.52,1.93,15.1-1,21.66-7.19,15.92-20.32,28.27-32.75,40.13a145.34,145.34,0,0,1-11,9.76c-3.63,2.83-7.69,5.59-12.16,6.86-3.14.9-6.79,1-8.9-1.69s-2.84-6.82-3.7-10.19a55,55,0,0,0-13.47-24.82,57,57,0,0,0-12.08-9.2c-3.64-2.19-7.43-4.55-10.08-7.95s-3.5-7.65-3.34-11.94c.11-3.22-4.89-3.22-5,0a22.57,22.57,0,0,0,3.71,14c2.68,3.78,6.39,6.57,10.28,9,4.36,2.74,8.67,5.27,12.34,8.94a51.54,51.54,0,0,1,8.92,12.49,54,54,0,0,1,4.34,12.5c1,3.81,2.06,7.89,4.74,10.89,6.69,7.49,18.22,1.63,24.71-3,7.56-5.36,14.19-12,20.83-18.47a166.7,166.7,0,0,0,18.32-20.61c5.47-7.42,10.65-16,12.07-25.24a25.2,25.2,0,0,0-.87-12.4,24.74,24.74,0,0,0-7-9.64c-7-6.33-15.61-10.72-24-14.78-9.21-4.45-18.41-9.1-27.94-12.8-12.37-4.81-25.2-8.27-37.82-12.32-6.44-2.07-12.82-4.3-19.28-6.3s-12.89-3.78-19-6.43c-9.62-4.15-18.77-13.2-30-11.77-5.05.64-8.28,4.56-11.91,7.7-1.22,1-2.9,2.54-4.63,2.11-2.15-.54-3.94-2.35-6-3.12-4.9-1.76-11,.83-15.2,3.21-4.88,2.73-9.21,6.37-13.52,9.9-4.56,3.72-9.34,7.13-14,10.73-5.16,4-10.25,8.1-15.22,12.34a358.28,358.28,0,0,0-28.1,26.59c-8,8.47-14.67,18.41-23.58,26a17.55,17.55,0,0,1-5.67,3.51,25.22,25.22,0,0,1-4.87,1c-4.13.54-7.76,1.65-10.68,4.82-3.92,4.24-6.27,10-8.29,15.34-2.16,5.68-3.8,11.54-5.45,17.38-1.59,5.65-3.18,11.3-5.24,16.8-1.13,3,3.7,4.32,4.82,1.33Z"/><path class="cls-2" d="M315.25,201.86c-8-2.65-15.88-.72-23.65,1.59-3.1.93-6.32,2-9.45,2.07-.55,0-1.1,0-1.65-.05l-.36,0h.06q-.42-.06-.84-.15c-1.16-.23-2.3-.56-3.44-.88-6.46-1.84-12.77-2.89-19.49-2a59.57,59.57,0,0,0-20,6.61,74.06,74.06,0,0,0-18.64,14c-2.23,2.32,1.3,5.86,3.54,3.54,9-9.36,21-16.68,33.88-19a38,38,0,0,1,9.34-.49,44.83,44.83,0,0,1,9,1.83,37.23,37.23,0,0,0,7.06,1.54,25.48,25.48,0,0,0,8.32-1.06c4.18-1.09,8.25-2.56,12.49-3.38a24.39,24.39,0,0,1,12.49.64c3.06,1,4.38-3.81,1.33-4.82Z"/><path class="cls-2" d="M276.79,208.41c-9.87,21.25-22,41.46-35.19,60.81q-5.49,8-11.25,15.87a2.52,2.52,0,0,0,.9,3.42,2.56,2.56,0,0,0,3.42-.9,490.13,490.13,0,0,0,37.73-59.28q4.59-8.58,8.71-17.4a2.58,2.58,0,0,0-.9-3.42,2.52,2.52,0,0,0-3.42.9Z"/><path class="cls-2" d="M287.34,210.08a7.59,7.59,0,0,0,1.72,6.76,2.53,2.53,0,0,0,1.77.73,2.49,2.49,0,0,0,2.5-2.5l-.09-.67a2.5,2.5,0,0,0-.64-1.1l-.1-.11.4.5a5.2,5.2,0,0,1-.71-1.2l.25.6a5.52,5.52,0,0,1-.34-1.25l.09.66a5.49,5.49,0,0,1,0-1.46l-.09.66a2.93,2.93,0,0,1,.05-.29,1.85,1.85,0,0,0,0-1,1.79,1.79,0,0,0-.29-.93,2.54,2.54,0,0,0-1.5-1.15,2.47,2.47,0,0,0-1.92.25,2.42,2.42,0,0,0-1.15,1.49Z"/><path class="cls-2" d="M291.91,219.73c8.79-.21,16.19-5.27,24.42-7.65,3.09-.9,1.77-5.72-1.33-4.82-7.7,2.23-14.89,7.28-23.09,7.47-3.21.07-3.23,5.07,0,5Z"/><path class="cls-2" d="M295.89,219.39c1.35,15.52-2.06,30.93-2.16,46.44,0,3.22,5,3.22,5,0,.1-15.51,3.51-30.92,2.16-46.44a2.57,2.57,0,0,0-2.5-2.5,2.51,2.51,0,0,0-2.5,2.5Z"/><path class="cls-2" d="M297,246.39c1.55,12.09,6.78,23.51,11.78,34.51,1.09,2.4,2.07,4.9,3.36,7.19a28.82,28.82,0,0,0,3.94,5.25c2.85,3.07,6.21,5.61,9.07,8.66a18.29,18.29,0,0,1,5.33,12.43c.08,3.21,5.08,3.22,5,0a22.6,22.6,0,0,0-4.6-13.36c-2.6-3.4-5.9-6.08-9-9a36.64,36.64,0,0,1-4-4.35,34.66,34.66,0,0,1-3.24-6c-2.51-5.48-5-11-7.2-16.57-2.35-6-4.59-12.3-5.41-18.73a2.58,2.58,0,0,0-2.5-2.5,2.51,2.51,0,0,0-2.5,2.5Z"/><path class="cls-2" d="M255.19,312.45c4.71,8.11,10.9,15.22,17,22.26,3,3.45,6.14,6.85,8.86,10.54a85.28,85.28,0,0,1,7.05,11.57c2.4,4.61,4.59,9.34,7,13.95,1.5,2.85,5.81.32,4.32-2.52-4.21-8-7.72-16.44-12.9-23.9-5.35-7.71-12.11-14.4-18.05-21.66a98.55,98.55,0,0,1-9-12.76c-1.62-2.79-5.94-.27-4.32,2.52Z"/><path class="cls-2" d="M329.26,346.88a75.81,75.81,0,0,1-9.51,2.81,69.29,69.29,0,0,0-12,4.21c-3.27,1.58-6.68,3.85-8.34,7.19a10.53,10.53,0,0,0-1.13,5.8c.31,2.8,1.8,5.14,3.22,7.49a18,18,0,0,1,1.64,3.14,8.28,8.28,0,0,1,.45,1.71,3.5,3.5,0,0,1-.07,1.22c-.52,2.39-1.72,4.57-2.55,6.85s-1.32,4.84-.41,7.2a11.29,11.29,0,0,0,4.23,5.38c3.76,2.56,8.66,2.65,13,1.95a24.73,24.73,0,0,0,11.77-5.16c4.16-3.48,6.28-8.8,8.37-13.64,2-4.61,4.11-9.93,8.32-12.58,2.72-1.71.21-6-2.52-4.32-8.17,5.14-9.56,15.46-14.37,23.1a15.84,15.84,0,0,1-8.48,6.65,23.88,23.88,0,0,1-5.45,1.25,14.41,14.41,0,0,1-5.53-.37,6.86,6.86,0,0,1-3.69-2.27,4.45,4.45,0,0,1-.93-4.17c1.2-4.73,4.44-8.7,2.81-13.8a34.77,34.77,0,0,0-3.49-6.71,10,10,0,0,1-1.28-3,5.43,5.43,0,0,1-.08-1l0-.54c0-.19,0-.15,0,.13,0-.14.05-.28.08-.42.08-.34.17-.67.27-1,.21-.64-.23.44.06-.17l.19-.37a10,10,0,0,1,.54-.89c0-.06.48-.6.12-.17l.5-.57a11.77,11.77,0,0,1,.88-.85l.35-.29c.57-.49-.39.27.22-.18a23.17,23.17,0,0,1,2.25-1.44,31.94,31.94,0,0,1,5.44-2.4c2.06-.72,4.14-1.34,6.24-1.92,3.41-1,7-1.64,10.27-3a2.59,2.59,0,0,0,1.75-3.08,2.52,2.52,0,0,0-3.08-1.74Z"/><path class="cls-2" d="M279.78,227.36c-2.52,15.16-7,29.91-11.85,44.46-3.65,10.91-6.12,22.31-11.08,32.74a45.83,45.83,0,0,1-8.16,12c-3.15,3.34-6.48,6.52-9.91,9.58a167,167,0,0,1-26.16,19.42A83.82,83.82,0,0,1,197,353c-4.8,1.62-9.19,2.57-14.18,2.14a2.51,2.51,0,0,0-2.5,2.5,2.55,2.55,0,0,0,2.5,2.5c9.8.85,19.7-3.37,28.15-7.89a159.37,159.37,0,0,0,27.91-19.55c3.79-3.23,7.46-6.6,11-10.13a57,57,0,0,0,9-11.11c6.06-10.39,8.87-22.36,12.4-33.74,2.41-7.81,5.11-15.51,7.37-23.37a229.78,229.78,0,0,0,6-25.65,2.57,2.57,0,0,0-1.75-3.07,2.51,2.51,0,0,0-3.07,1.74Z"/><path class="cls-2" d="M98.59,243.89c-3.4-.43-7,.29-9.06,3.19C87.7,249.6,87.62,253,88,256a51.37,51.37,0,0,0,3.3,12.11,148.53,148.53,0,0,0,6.25,13.79,227.36,227.36,0,0,0,13.46,23,41.64,41.64,0,0,0,4.13,5.64,84.72,84.72,0,0,0,9.69,8.36c3.8,3,7.71,5.78,11.6,8.6S144,333,147.65,336c3,2.44,5.81,5,8.69,7.59,6,5.33,12.3,10.95,19.6,14.49a31.8,31.8,0,0,0,5.14,2c3.11.86,4.43-4,1.33-4.82-7-2-13.15-7.13-18.61-11.79-6.12-5.22-12-10.68-18.39-15.54-7.23-5.46-14.81-10.47-21.72-16.35a46.25,46.25,0,0,1-5.51-5.14c-.24-.29-.4-.61,0,0-.13-.21-.3-.4-.44-.59-.35-.47-.68-.94-1-1.42a211.22,211.22,0,0,1-12.38-20.31c-2.32-4.27-4.51-8.61-6.47-13.06-.22-.48-.43-1-.63-1.46s0-.11,0,0c0-.14-.11-.28-.17-.41l-.33-.83c-.42-1-.82-2.07-1.21-3.12-.69-1.93-1.33-3.88-1.83-5.87-.22-.88-.42-1.77-.58-2.67l-.09-.58c-.06-.35-.07-.52,0-.06,0-.41-.09-.82-.12-1.23a16.33,16.33,0,0,1,0-2.21c0-.18,0-.35,0-.53,0-.53-.12.5,0,.1s.12-.64.2-1,.34-1,.17-.56.2-.36.29-.53a3.28,3.28,0,0,0,.2-.31c.1-.23-.45.45-.07.1a8.21,8.21,0,0,0,.6-.58c-.45.5-.15.13.2-.08.12-.07.27-.12.39-.2-.34.23-.45.16-.06.05s.58-.16.87-.23c.56-.14,0,0,0,0,.21,0,.41,0,.62,0a13.11,13.11,0,0,1,2.34.12,2.51,2.51,0,0,0,2.5-2.5,2.56,2.56,0,0,0-2.5-2.5Z"/><path class="cls-2" d="M84.55,257C81,263.87,80.91,272,77.27,278.72c-3.8,7-12.08,10.2-18.7,14A50.38,50.38,0,0,0,48.4,300,81.38,81.38,0,0,0,40,310a127.44,127.44,0,0,0-13.53,22.8,193.61,193.61,0,0,0-15.33,52.38A202.69,202.69,0,0,0,10,440.74c2.4,19.19,7.6,37.93,9.36,57.21.88,9.61,1.1,19.51-.39,29.08a136.9,136.9,0,0,1-6.39,23.76c-5.31,15.3-11.83,30.59-12.5,47-.66,16.07,5.45,31.32,15.3,43.82,18.45,23.41,48,35,75.38,44.25,19,6.38,38.66,10.55,57.36,17.67,8.84,3.36,17.06,8.1,25.44,12.42,6.71,3.45,13.75,7.29,21.32,8.36,23.41,3.33,28.58-24.45,29.55-41.9.71-12.9-.43-25.78-1.44-38.63-1.51-19.29-3-38.8-.2-58,1.46-10,4.23-19.66,5.63-29.64a231.79,231.79,0,0,0,2.2-29.89c.11-10.1-.37-20.21-1.25-30.27a160.84,160.84,0,0,0-4.87-29.09c-2.56-9.25-6.1-18.17-9.1-27.27-2.35-7.12-4.45-14.33-7.14-21.32-1.42-3.68-3-7.3-4.71-10.83s-3.89-6.77-5.4-10.32c-2.66-6.26-3.23-13.53-3.21-20.25,0-6.41.58-13.35,3.18-19.29,1.27-2.92-3-5.47-4.32-2.52-2.68,6.12-3.6,12.89-3.82,19.53a66.17,66.17,0,0,0,2.32,20.92,47,47,0,0,0,4.12,9c2,3.64,3.8,7.37,5.43,11.18,2.85,6.69,5,13.65,7.21,20.56,2.73,8.53,6,16.89,8.67,25.42a141.53,141.53,0,0,1,6.09,28.62c2,19.62,2.62,39.48.45,59.11-1.1,10-3.54,19.61-5.37,29.46a166.17,166.17,0,0,0-2.68,28.5c-.2,18.53,2.13,36.93,3.13,55.4.55,10.14.58,20.48-1,30.53-1.3,8.23-3.66,18.69-11,23.75-10.11,7-23.63-1.4-32.73-6.13-8.26-4.31-16.43-8.84-25.16-12.16-9.29-3.54-18.91-6.25-28.47-9-16.43-4.69-32.79-9.56-48.67-15.9C58.8,668.45,45.48,661.91,34,653S12.74,632.17,8,618.18c-5.38-15.72-2.34-31.77,2.74-47.12s11.73-30.33,13.58-46.54c2.2-19.22-1.09-38.5-4.68-57.33-1.78-9.3-3.73-18.61-4.82-28a190.22,190.22,0,0,1-1.14-26.89,208.54,208.54,0,0,1,8.69-54.45c5-16.81,12.34-33.09,23.21-47a54.49,54.49,0,0,1,8.89-9.56A73.41,73.41,0,0,1,64.81,295c6.78-3.67,13.92-7.57,17.35-14.85,3.1-6.58,3.37-14.09,6.71-20.57,1.47-2.86-2.84-5.39-4.32-2.52Z"/><path class="cls-2" d="M227.85,497a46.22,46.22,0,0,0,3.09,16.72c1.86,5.08,4.28,9.91,6.3,14.92a45.59,45.59,0,0,1,3.75,15.6,50.28,50.28,0,0,1-.87,9.32c-.59,3.7-1.14,7.41-1.6,11.14a126.1,126.1,0,0,0-1,22.4,86,86,0,0,0,4.33,21.51c1.13,3.49,2.36,7,3.7,10.38,1.19,3,2.75,5.91,4,8.92,1.11,2.67,2.09,5.71,1.52,8.63a9.3,9.3,0,0,1-1.29,3.31,8.14,8.14,0,0,1-1.71,1.82c.37-.3-.27.19-.28.19-.28.19-.56.37-.84.53a14.68,14.68,0,0,1-1.48.75c-.45.2.54-.2-.25.1-.34.13-.67.25-1,.36-.61.2-1.23.37-1.85.52a36.29,36.29,0,0,1-7.4.93c-4.7.19-9.38-.19-14.08-.21-3.22,0-3.22,5,0,5,9,0,18.72,1.43,27.23-2.43a13.63,13.63,0,0,0,8.1-12.15c.25-6.8-4-12.73-6.31-18.85A127.45,127.45,0,0,1,243.53,595a88.53,88.53,0,0,1-.78-22.59c.55-7.39,1.87-14.64,2.87-22a41.3,41.3,0,0,0-1.62-17.8c-3.71-12-11.37-22.71-11.15-35.7.05-3.22-4.95-3.22-5,0Z"/><path class="cls-2" d="M109.57,632c5.93-3.4,10-9.22,13.23-15.12,3.44-6.33,6-13.09,8.88-19.69,3-6.94,7-13.32,10.9-19.78,4.74-7.79,9.63-15.5,15.06-22.84a131.4,131.4,0,0,1,20.48-22.32,2.53,2.53,0,0,0,0-3.54,2.55,2.55,0,0,0-3.54,0c-13.85,11.77-24.39,26.86-33.89,42.21-4.15,6.72-8.58,13.44-11.92,20.61-3,6.41-5.43,13-8.53,19.41s-7,13.2-13.19,16.74c-2.8,1.6-.28,5.92,2.52,4.32Z"/><path class="cls-2" d="M97.51,302.37c-3.26,4.45-3.28,10.85-3,16.12A203.52,203.52,0,0,0,97,339.07c.45,3,.84,5.67,1.11,8.74a70.65,70.65,0,0,1,.1,7.7,78.28,78.28,0,0,1-.54,9.93c-.47,3.19-1.21,5.37-3.7,7.48-4.25,3.6-10.87,3.27-15.78,1.08-5.39-2.4-8.7-7-10.78-12.32-4.77-12.21-3.3-26.24.07-38.72,3.3-12.21,8.91-24.88,17.21-34.21.87-1,1.77-1.9,2.72-2.79,2.34-2.22-1.2-5.75-3.54-3.54a63.88,63.88,0,0,0-11.12,14.66,104.38,104.38,0,0,0-8.69,19.82c-4.32,13.4-6.6,28.68-2.69,42.47,1.76,6.22,4.91,12.53,10.16,16.49A23.26,23.26,0,0,0,90.72,380a16.33,16.33,0,0,0,8.58-5.43c2.36-2.9,3.06-6.33,3.47-10,.38-3.48.36-7,.46-10.48a56.92,56.92,0,0,0-.29-7.94c-.74-6.87-2-13.68-2.85-20.52a84.66,84.66,0,0,1-.69-10.19,39,39,0,0,1,.25-4.45s0-.22.09-.61.12-.65.19-1a18.31,18.31,0,0,1,.52-1.93c.1-.29.2-.57.31-.84-.19.48.14-.27.2-.38a9.62,9.62,0,0,1,.87-1.4,2.5,2.5,0,0,0-4.32-2.52Z"/><path class="cls-2" d="M156.08,320.49c5.88-15.47,13.65-30.11,20.4-45.2,1.94-4.33,3.8-8.7,5.52-13.12a2.51,2.51,0,0,0-1.75-3.07,2.55,2.55,0,0,0-3.07,1.74c-6,15.42-13.81,30.05-20.49,45.17-1.92,4.34-3.75,8.72-5.43,13.15a2.52,2.52,0,0,0,1.74,3.08,2.56,2.56,0,0,0,3.08-1.75Z"/><path class="cls-2" d="M410.46,231.68c-3.82,12.07-3.34,24.89-3.33,37.39,0,3.21,5,3.22,5,0,0-12.07-.54-24.41,3.15-36.06,1-3.07-3.85-4.39-4.82-1.33Z"/><path class="cls-2" d="M409,273.64l.38.15-.1,0,.65.34.6.36.31.22c.19.13.38.39-.1-.09.32.32.67.59,1,.92l.24.28c.27.32-.35-.51-.1-.13.12.18.24.36.35.55s.21.38.31.58c.21.41-.22-.6-.07-.16,0,.09.07.19.1.28a4.71,4.71,0,0,1,.19.64c.06.25.11,1.07.07.19a13.47,13.47,0,0,1,0,1.42l0,.4c0,.51.11-.63,0-.11-.05.28-.11.56-.17.84a2.5,2.5,0,1,0,4.82,1.33,10.67,10.67,0,0,0-1-7.93,11.76,11.76,0,0,0-6.19-4.86,2.5,2.5,0,0,0-3.07,1.74,2.57,2.57,0,0,0,1.74,3.08Z"/><path class="cls-2" d="M329.61,357.06c4.47,2.17,7.86,5.94,11.94,8.71s9.28,3.36,13.5,6c2.74,1.7,5.25-2.62,2.52-4.32-4.22-2.63-9.37-3.18-13.5-6s-7.46-6.54-11.94-8.71a2.57,2.57,0,0,0-3.42.9,2.53,2.53,0,0,0,.9,3.42Z"/><path class="cls-2" d="M379.05,265.83c-.05,7.11-.51,14-3.12,20.73a72.06,72.06,0,0,1-4.73,9.26c-1.65,2.92-3.3,6-3.78,9.4-.66,4.57.88,8.51,3.72,12.06a2.53,2.53,0,0,0,3.54,0,2.57,2.57,0,0,0,0-3.54,9.79,9.79,0,0,1-2.26-8.23c.66-3.07,2.31-5.81,3.86-8.51,3.41-5.94,6.07-12.15,7-19a91.91,91.91,0,0,0,.73-12.19c0-3.22-5-3.22-5,0Z"/><path class="cls-1" d="M382.75,307.51c-4.09,2-8.41,3.52-12.61,5.3a13.85,13.85,0,0,1-4.43,1.29,20.88,20.88,0,0,1-4.19-.4c-3.86-.52-7.78-.82-11.66-1.07a58.4,58.4,0,0,0-11.6.13,10.14,10.14,0,0,0-7.49,4.37c-1.54,2.38-2,5.35-2.09,8.12s.09,5.54.15,8.32a20.87,20.87,0,0,1-.16,3.95c-.31,1.87-.81,3.71-1.14,5.58-.69,3.81-1,9,3.36,10.57a16.46,16.46,0,0,0,4.2.61l.35,0c.3,0-.33-.09.14,0l.84.23c-.44-.12-.12-.06,0,0-.26-.27,0-.09.06.07s0,0-.06-.06c.31.5-.06-.31.13.33.87,3.09,5.7,1.78,4.82-1.33s-3.69-4.14-6.73-4.38l-.72-.05c-.1,0-.83-.08-.6-.05s-.44-.1-.56-.12l-.41-.13c.21.08.24.12,0,0s-.33-.29,0,0c-.17-.15-.12-.06-.07-.07s0,.11-.05-.12c.1.39,0-.05,0-.11a8.31,8.31,0,0,1-.12-2.34c.23-3.55,1.6-6.92,1.72-10.49.09-2.61-.14-5.21-.18-7.82a34.52,34.52,0,0,1,.13-4.07,9.18,9.18,0,0,1,.23-1.43,11.57,11.57,0,0,1,.53-1.8l0,.05.21-.43.36-.6c.24-.4.09-.16,0-.06l.23-.27a6.89,6.89,0,0,1,.67-.65c.31-.25-.28.18.07,0a3.28,3.28,0,0,1,.31-.2l.61-.32a11,11,0,0,1,1.93-.45,52.61,52.61,0,0,1,10.72-.06c3.63.23,7.3.47,10.91,1a28.73,28.73,0,0,0,5.15.52,16.56,16.56,0,0,0,5.9-1.53c4.55-1.93,9.24-3.54,13.67-5.74,2.88-1.44.35-5.75-2.53-4.32Z"/><path class="cls-1" d="M400,322.54a9,9,0,0,1-4.78,3.43c-2.35.9-4.78,1.57-7.08,2.6-5.71,2.58-10.64,6.58-16.61,8.65a2.57,2.57,0,0,0-1.75,3.08,2.52,2.52,0,0,0,3.08,1.74,56.18,56.18,0,0,0,9.54-4.51,78.59,78.59,0,0,1,8.55-4.77c4.74-2,10.49-2.82,13.37-7.7,1.64-2.77-2.68-5.29-4.32-2.52Z"/><path class="cls-1" d="M370.35,337.79a87.5,87.5,0,0,0-8.53,2.48,40,40,0,0,1-4.21,1.08,18.24,18.24,0,0,1-4.12.31,2.5,2.5,0,0,0,0,5c6.39.16,12.05-2.79,18.19-4.05a2.5,2.5,0,0,0-1.33-4.82Z"/><path class="cls-1" d="M352.82,330.44c-2.7.87-5.51,2.08-7.36,4.32a11.2,11.2,0,0,0-2.33,7.66c0,.65.09,1.31.17,1.95,0,.18.2,1.41.14,1s0,.3.05.42c.14,1.08.26,2.16.4,3.24a49.11,49.11,0,0,0,1.48,7.9c.74,2.43,2,5.27,4.65,6a2.52,2.52,0,0,0,2.44-.65,13.32,13.32,0,0,0,3.68-8.5c.24-2.65,0-5.29.89-7.85a2.5,2.5,0,0,0-4.82-1.33c-1.63,4.59.38,10.4-3.29,14.15l2.43-.64c-.25-.08-.19-.05.17.09a1.91,1.91,0,0,1-.27-.16c.29.23.33.26.12.07l-.24-.26c.4.45,0,0-.05-.13s-.28-.5-.41-.76-.12-.28,0-.05l-.18-.46-.24-.73c-.22-.7-.4-1.41-.55-2.13a68.06,68.06,0,0,1-1.13-7.4c-.31-2.51-.79-5,0-7.13-.16.41.22-.41.27-.49s.57-.8.3-.48a6.51,6.51,0,0,1,.51-.54c.08-.07.71-.59.5-.43a13.64,13.64,0,0,1,4-1.88c3.05-1,1.74-5.82-1.33-4.82Z"/><path class="cls-1" d="M341.05,324.7c-3.39.41-6.21,2-7.57,5.21-1.15,2.77-1,5.92-.67,8.85s1,5.86,1.3,8.57c.39,4.05,1.06,8.26,5.08,10.29,4.31,2.18,8.88-.29,9.92-4.88.71-3.14-4.11-4.47-4.82-1.33a3.66,3.66,0,0,1-.58,1.49c.13-.17-.48.44-.3.31s-.64.28-.3.16c-.12.05-.69.12-.35.1-.1,0-.71,0-.41,0a2.83,2.83,0,0,1-1.32-.56c-2-1.44-1.79-4.81-2.07-7s-.81-4.64-1.13-7c0-.26-.09-.72-.15-1.26s-.1-1.27-.12-1.9,0-1.06,0-1.58c0-.26,0-.51.06-.76,0,.41.06-.3.09-.43.07-.31.16-.61.24-.91,0-.11.08-.22.12-.33-.09.23-.08.16,0,0s.25-.45.39-.67,0,0-.07.06c.09-.12.19-.23.29-.34s.55-.48.43-.39.47-.27.65-.35a4.93,4.93,0,0,1,.49-.16l.76-.17a2.59,2.59,0,0,0,2.5-2.5,2.51,2.51,0,0,0-2.5-2.5Z"/><path class="cls-2" d="M354.38,355.46c.41,4.46,1.74,8.74,2.38,13.16.58,4,.85,8.05,2.81,11.71,1.45,2.7,4.49,5.33,7.64,3.43,3.35-2,4.36-7.05,4.65-10.6.41-5-1.06-9.88-3-14.4a2.58,2.58,0,0,0-3.08-1.75,2.51,2.51,0,0,0-1.74,3.08,31.06,31.06,0,0,1,2.81,10.33,17.05,17.05,0,0,1-.47,5.23,14.26,14.26,0,0,1-.72,2.21c-.13.27-.27.55-.42.81l-.21.34c-.23.36.2-.2-.05.09s-.42.62-.17.24c0,.06-.18.1-.24.14-.28.19.44-.15.13-.06a.87.87,0,0,1,.28,0l.17,0c-.21-.06-.21-.05,0,0l.06,0-.16-.09c-.19-.27.29.28,0,0a2.5,2.5,0,0,1-.24-.22l-.23-.25c-.27-.29.18.27-.07-.08a10.73,10.73,0,0,1-1-1.8c-1.36-3-1.47-6.43-1.93-9.63-.57-4-1.84-7.94-2.22-12a2.57,2.57,0,0,0-2.5-2.5,2.51,2.51,0,0,0-2.5,2.5Z"/><path class="cls-2" d="M362.46,348.75c4.68,3.92,9.75,7.53,13.8,12.13a28.81,28.81,0,0,1,4.6,7.18c1.36,3,2,6.29,3,9.45a36.78,36.78,0,0,1,1.74,14.5c0,.12-.1.86,0,.42,0,.24-.07.47-.11.71-.09.51-.2,1-.33,1.53l-.18.6c0,.13-.28.72-.15.43s-.11.18-.15.26c-.2.41-.14.32-.05.14-.13.27-.37.14-.1.14,0,0,.29-.16.34-.17-.56.13.53-.07.1,0,0,0,.59.09.32,0s-.25-.18-.07,0-.23-.17-.32-.24c.36.26-.06-.07-.18-.19a11.16,11.16,0,0,1-1.14-1.35c-4.83-6.89-3.76-15.27-5.57-23.09-.73-3.14-5.55-1.81-4.83,1.32.89,3.82,1,7.72,1.54,11.59a28.6,28.6,0,0,0,3.91,11.74c1.4,2.21,3.51,5.23,6.47,5.2,2.59,0,4-2.34,4.73-4.54,1.61-5,1.15-10.94.07-16-.73-3.38-1.81-6.75-2.8-10.06a34,34,0,0,0-4.49-9.59c-4.37-6.33-10.73-10.78-16.55-15.65a2.56,2.56,0,0,0-3.54,0,2.51,2.51,0,0,0,0,3.53Z"/><path class="cls-2" d="M374.52,392.62a8.2,8.2,0,0,1-.18.86c0,.1-.07.2-.1.31-.08.29.32-.64.17-.39a.67.67,0,0,0-.06.12c-.07.12-.28.39,0,0l.12-.15a.73.73,0,0,0-.09.08c0-.06.67-.47.32-.27.76-.43.66-.23.37-.19l.67-.09h-.21l.66.09c-.16,0-.55-.19,0,0s.08,0-.06-.07c-.33-.21.54.44.3.23l-.18-.16c-.13-.11-.25-.24-.37-.36l-.37-.43c-.31-.38.27.35.17.22l-.2-.27q-.39-.56-.75-1.14a28.94,28.94,0,0,1-1.42-2.63c-.11-.23-.21-.46-.32-.68s-.09-.22-.14-.32l-.06-.14c.2.49,0,0,0-.06a2.88,2.88,0,0,1-.13-.31c-.09-.22-.17-.45-.25-.67a11.51,11.51,0,0,1-.66-2.38l.09.67a1.1,1.1,0,0,1,0-.18,2.72,2.72,0,0,0-.74-1.77,2.5,2.5,0,0,0-4.26,1.77,13.51,13.51,0,0,0,.9,3.59,38.84,38.84,0,0,0,2,4.36,21.84,21.84,0,0,0,2.45,3.66,4.89,4.89,0,0,0,3.57,2c2.16,0,3.34-2,3.62-3.92a2.77,2.77,0,0,0-.25-1.92,2.54,2.54,0,0,0-1.5-1.15,2.47,2.47,0,0,0-1.92.25,2.41,2.41,0,0,0-1.15,1.49Z"/><path class="cls-1" d="M510.59,180.89c-17.52,19-26.95,43.72-43.76,63.21a124.06,124.06,0,0,1-28.08,23.59c-9.85,6.2-20.27,11.27-30.6,16.57a111.74,111.74,0,0,0-15.58,9.28c-4.68,3.44-9.23,7.53-11.79,12.83a2.56,2.56,0,0,0,.89,3.42,2.52,2.52,0,0,0,3.42-.89c2.09-4.32,5.64-7.74,9.43-10.62a100.3,100.3,0,0,1,13.71-8.44c10.19-5.38,20.61-10.25,30.47-16.24a135.68,135.68,0,0,0,28.78-22.75c8.78-9.38,15.63-20.34,22.28-31.27,7.41-12.17,14.65-24.63,24.36-35.16,2.18-2.36-1.34-5.9-3.53-3.53Z"/></g></g></svg>