<svg xmlns="http://www.w3.org/2000/svg" viewBox="0 0 646.12 736.71"><defs><style>.cls-1{fill:#1b1464;}.cls-2{fill:#8cc63f;}</style></defs><title>aikido4</title><g id="Capa_2" data-name="Capa 2"><g id="Capa_1-2" data-name="Capa 1"><path class="cls-1" d="M286.67,558.24c-2.49-2.86-6.47-6.7-10.69-5.48-3.57,1-4.77,5-5.05,8.25a24,24,0,0,0,2.14,11.48,16,16,0,0,0,8.33,8.67c4.58,1.89,9.73.34,13.74-2.17q1-.6,1.89-1.29a2.56,2.56,0,0,0,.9-3.42,2.52,2.52,0,0,0-3.42-.89,26.54,26.54,0,0,1-3.46,2.19l-.82.4-.35.15c-.3.14.57-.22,0,0s-1,.37-1.55.52-1,.22-1.52.33c-.16,0,.71-.08.26,0l-.35,0c-.25,0-.49,0-.74,0a11.66,11.66,0,0,1-1.32-.06c-.47,0,.6.11.25,0l-.26,0c-.23,0-.44-.09-.66-.15-.4-.1-.78-.26-1.17-.39-.09,0,.65.3.23.1l-.23-.11-.58-.31c-.35-.2-.69-.43-1-.66s.51.44,0,0c-.16-.13-.31-.27-.46-.41a10.31,10.31,0,0,1-.87-.88l-.41-.48-.2-.25c.19.21.38.51.12.15a18.9,18.9,0,0,1-1.36-2.18c-.2-.39-.39-.78-.57-1.18-.28-.62.2.52,0,0-.09-.22-.17-.43-.25-.65a22,22,0,0,1-.77-2.51q-.15-.63-.27-1.26c0-.21-.07-.42-.1-.63a2.51,2.51,0,0,1,0-.27c-.09-.53.06.53,0,.22-.09-.81-.16-1.61-.17-2.43,0-.4,0-.79,0-1.19,0-.17,0-.34,0-.51,0-.38.13-.81,0,0a13.12,13.12,0,0,1,.45-2c0-.13.1-.27.14-.4.14-.39-.19.43-.14.33s.07-.15.11-.23c.12-.24.26-.48.41-.72,0,0,.08-.1.11-.16.12-.23-.44.49-.25.33s.18-.21.27-.3.2-.16.28-.25c-.16.17-.61.39-.17.15.1-.06.22-.11.31-.17s-.73.23-.21.1l.35-.09c.43-.13-.81,0-.21,0h.37c.64,0-.48-.12-.16,0s.59.15.89.25c.56.19-.59-.29-.09,0l.52.28a8.88,8.88,0,0,1,1,.67l.27.2c.13.08-.52-.43-.19-.15s.42.34.62.52c.41.36.81.75,1.2,1.14s.86.91,1.27,1.39a2.52,2.52,0,0,0,3.54,0,2.58,2.58,0,0,0,0-3.54Z"/><path class="cls-1" d="M265.59,489.25c-6.71,2-13.3,5.28-17.69,10.9a26.21,26.21,0,0,0-5.32,16.6,48.12,48.12,0,0,0,4.31,18.1,81.07,81.07,0,0,0,9.86,16.85,79.87,79.87,0,0,0,13.95,14.74,2.58,2.58,0,0,0,3.54,0,2.53,2.53,0,0,0,0-3.54,78.3,78.3,0,0,1-21.55-27.32,53.11,53.11,0,0,1-3.21-8c-.44-1.39-.82-2.81-1.13-4.24-.14-.68-.27-1.36-.39-2.05-.05-.32-.1-.63-.14-.95.06.43-.06-.59-.08-.77a32.83,32.83,0,0,1-.15-4.09c0-.65.06-1.29.13-1.94,0-.16.11-1,0-.46.05-.37.12-.74.19-1.11a23.17,23.17,0,0,1,1-3.65c.1-.28.21-.56.32-.83-.19.48.2-.43.25-.53.29-.61.61-1.2,1-1.78a21.53,21.53,0,0,1,5.93-6.25,35.43,35.43,0,0,1,10.52-4.85c3.08-.92,1.77-5.74-1.33-4.82Z"/><path class="cls-1" d="M275.36,511.64a29.35,29.35,0,0,0-8.48,18.94c-.37,6.85,1.74,13.67,5,19.63,6.68,12.29,18.87,22.59,32.48,26.2,7.42,2,15.28,1.66,22.2-1.81,2.88-1.45.35-5.76-2.52-4.32-.36.18-.73.36-1.1.52-.06,0-.44.19-.07,0l-.44.18c-.75.28-1.5.54-2.27.75s-1.39.36-2.09.5l-.93.16c-.75.12.29,0-.16,0l-.71.08a28.61,28.61,0,0,1-8.63-.48,42.83,42.83,0,0,1-17-7.91A52.34,52.34,0,0,1,277.5,550c-.82-1.33-1.58-2.71-2.27-4.12a29.62,29.62,0,0,1-1.69-4.12,34.21,34.21,0,0,1-1.19-4.44c-.08-.36-.14-.73-.2-1.09,0-.16,0-.32-.08-.48-.11-.78,0,.28,0-.18-.09-.77-.16-1.53-.19-2.3a23.94,23.94,0,0,1,7-18.06c2.24-2.31-1.29-5.85-3.54-3.53Z"/><path class="cls-1" d="M286.45,540.76c.08,0,.63,0,.25,0s.23.05.25.05c.3.06.6.14.9.22.65.18,1.29.39,1.93.6a17.18,17.18,0,0,0,4.43.9l-2.16-3.76c-.89,1.81-1.73,3.64-2.69,5.41-.49.92-1,1.82-1.57,2.7-.29.44-.59.86-.9,1.29s.29-.35.07-.09l-.22.27c-.16.19-.33.38-.5.56a2.5,2.5,0,1,0,3.53,3.54c3-3.17,4.71-7.3,6.59-11.15a2.54,2.54,0,0,0-2.15-3.77c-.18,0-.35,0-.53,0-.37,0,.58.12-.07,0-.31-.06-.63-.13-.94-.21-.67-.17-1.32-.39-2-.6a17.16,17.16,0,0,0-4.25-.92,2.51,2.51,0,0,0-2.5,2.5,2.56,2.56,0,0,0,2.5,2.5Z"/><path class="cls-1" d="M343.74,139.09c-4.25-3.87-9.59-7.42-15.58-7.28-5,.12-9.3,2.79-12.66,6.27a55.65,55.65,0,0,0-9.16,13.72c-2.67,5.28-4.93,10.76-7.19,16.23-.29.71-.59,1.41-.88,2.12-.14.35-.29.69-.43,1-.07.17-.45,1.07-.26.61-.54,1.27-1.08,2.54-1.65,3.8a46.75,46.75,0,0,1-3.12,6c-1.73,2.72,2.59,5.23,4.32,2.52a76.4,76.4,0,0,0,5.66-11.91c.5-1.2,1-2.41,1.49-3.61s1.12-2.68,1.49-3.57c.94-2.22,2.18-5.07,3.32-7.49s2.46-5,3.86-7.47q1-1.71,2.07-3.36l1-1.49.53-.71c.08-.12.17-.24.26-.35L317,144a32.94,32.94,0,0,1,2.35-2.65c.38-.38.76-.75,1.16-1.1l.59-.51.3-.24c.5-.4-.43.3.09-.07a17.75,17.75,0,0,1,2.67-1.62c.2-.1.74-.32.21-.11.22-.09.44-.18.67-.25a11.44,11.44,0,0,1,1.52-.43c.19,0,1.11-.18.38-.09l.8-.08a12.34,12.34,0,0,1,1.72,0l.37,0c.64.06-.55-.1.09,0l.95.19a15.32,15.32,0,0,1,1.75.53l.4.15c.54.2-.29-.14.21.08l1,.49a21.79,21.79,0,0,1,2,1.16,27.61,27.61,0,0,1,4,3.14c2.38,2.16,5.93-1.36,3.54-3.54Z"/><path class="cls-1" d="M417.84,279.68a15.57,15.57,0,0,0,9-.22,11.71,11.71,0,0,0,6-5.16c2.85-4.95,2.9-11.25,2.26-16.76a58.26,58.26,0,0,0-5.17-18.33c-3.28-6.83-9.27-11.6-15.3-16-7.77-5.64-16.35-10.2-23.6-16.55a52.18,52.18,0,0,1-9.81-11.31A60.27,60.27,0,0,1,375,181.19c-3.09-9.93-4.95-20.42-10.12-29.57-3.36-5.93-9.43-13.93-17.21-13.25-5.72.5-9.59,5.58-10.6,10.93a17.77,17.77,0,0,0,5.76,17,19.47,19.47,0,0,0,4.49,2.84,2.57,2.57,0,0,0,3.42-.9,2.51,2.51,0,0,0-.9-3.42,18.25,18.25,0,0,1-2.14-1.13,9.72,9.72,0,0,1-1.71-1.24,15.17,15.17,0,0,1-1.48-1.52,8.28,8.28,0,0,1-.94-1.32,16.19,16.19,0,0,1-.92-1.75c.23.5-.14-.4-.18-.51-.13-.37-.24-.74-.34-1.12s-.14-.54-.19-.82c0-.13-.19-1.2-.12-.57q-.1-.93-.12-1.86c0-.61,0-1.22.1-1.82s-.07.37,0,0l.06-.4c.07-.35.14-.7.23-1.06a15.9,15.9,0,0,1,.54-1.65c.13-.34-.16.28.12-.27.14-.28.27-.55.42-.82s.31-.53.48-.78.48-.65.14-.22a10.18,10.18,0,0,1,1.19-1.27c.19-.17.6-.45.15-.14.23-.16.46-.32.7-.46s.4-.21.59-.32c.49-.27-.4.14-.06,0l.39-.14c.27-.09.54-.15.82-.22.61-.15-.2,0,.18,0l.87,0c.19,0,1.11.14.43,0a13.06,13.06,0,0,1,1.71.45c.13,0,.26.1.39.15-.45-.19-.1,0,0,0,.34.17.68.34,1,.54,3,1.75,5.55,5,7.52,8.14,5.13,8.25,7,18,9.7,27.2a84.76,84.76,0,0,0,5.24,14,51.74,51.74,0,0,0,8.6,12.25c6.36,6.8,14.31,11.71,22,16.77a118.24,118.24,0,0,1,11.13,8,66.25,66.25,0,0,1,5.36,5c.38.39.73.78,1.08,1.2s-.07-.08-.1-.13l.25.33.48.71a31.11,31.11,0,0,1,1.74,3c.28.55.54,1.11.8,1.67l.3.69.33.82a57.58,57.58,0,0,1,2.54,8.36,42.35,42.35,0,0,1,1.15,8.24,38.51,38.51,0,0,1,0,4c0,.32-.05.64-.08,1,0,.15-.14,1.09,0,.48-.1.66-.22,1.33-.37,2s-.27,1.06-.44,1.58c-.09.26-.19.53-.29.79-.16.42,0,0,.05-.09-.08.16-.15.32-.23.49a11.33,11.33,0,0,1-.77,1.36c-.07.11-.54.73-.3.44s-.37.4-.47.5-.32.3-.48.46c-.48.47.27-.13-.2.17a12.6,12.6,0,0,1-1.38.79c.64-.31-.21.07-.37.13l-.69.19-.59.12-.24,0-.6,0a15.63,15.63,0,0,1-1.81-.05l-.57-.06c.11,0,.47.07,0,0s-.81-.15-1.22-.24c-3.13-.7-4.47,4.12-1.32,4.82Z"/><path class="cls-1" d="M342.38,171c3.22,0,3.22-5,0-5s-3.22,5,0,5Z"/><path class="cls-1" d="M341.52,166.31a62.26,62.26,0,0,0-3.88,16.85,68.77,68.77,0,0,0,.93,15.56c.78,5.06,1.72,10,2.08,15.13a97.83,97.83,0,0,0,1.41,13.33c2.19,10.46,9.43,18.93,17.37,25.71s17.23,11.76,26.89,15.81c10.88,4.54,22.17,8,33.07,12.54a2.51,2.51,0,0,0,3.07-1.75,2.56,2.56,0,0,0-1.74-3.08c-18.41-7.6-38.41-12.35-54.58-24.49a73.16,73.16,0,0,1-11.34-10.7,34.62,34.62,0,0,1-7.2-12.53,53.36,53.36,0,0,1-1.77-12.14,132.77,132.77,0,0,0-1.67-14.61,79.69,79.69,0,0,1-1.63-16.73,56.41,56.41,0,0,1,3.81-17.57,2.52,2.52,0,0,0-1.74-3.08,2.56,2.56,0,0,0-3.08,1.75Z"/><path class="cls-1" d="M424.11,279.12a19.52,19.52,0,0,1-12.82,10.08c-5.47,1.31-11.41.48-16.89-1.25A42.21,42.21,0,0,1,378,278.6c-5.57-5.28-10.48-11.21-18.14-13.41-6.55-1.88-14.14-1.56-19.48-6.34-4.48-4-6.81-9.64-8.4-15.35-1.73-6.21-2.65-12.6-4.23-18.85a53.92,53.92,0,0,0-3-8.91,30.61,30.61,0,0,0-4.63-7c-3.87-4.6-8.55-8.43-12.78-12.69-3.84-3.87-7.49-8.13-8.62-13.42a14.85,14.85,0,0,1-.27-3.75c.13-3.22-4.87-3.21-5,0-.52,13,11.49,21.43,19.68,29.67a42.18,42.18,0,0,1,5.54,6.52,28.7,28.7,0,0,1,3.36,7.69c1.92,6.34,2.85,12.93,4.41,19.36s3.8,12.8,8.11,17.92a21.82,21.82,0,0,0,8.14,6.16c3.52,1.49,7.3,2,11,2.74s7.26,1.58,10.44,3.72,5.79,5,8.48,7.72a46,46,0,0,0,9.07,7.33,56.34,56.34,0,0,0,8.8,4.2c11.6,4.38,26.39,4.66,34.9-5.79a29.8,29.8,0,0,0,3-4.46c1.54-2.83-2.78-5.35-4.32-2.52Z"/><path class="cls-1" d="M294.92,175.63c-10.66,27.38-10.61,57-14.56,85.68A191.56,191.56,0,0,1,269.92,303c-4.95,13.17-11,25.88-16.58,38.78-5.45,12.53-10.58,25.29-13.79,38.6a186.49,186.49,0,0,0-4.7,36.91c-.43,12.15.18,24.86,4.2,36.44C243,465,250.31,475,257.87,484.14c16.2,19.61,36.21,36,51.12,56.67,13.17,18.29,22.42,39,31.43,59.52,8.93,20.35,17.74,41,30.32,59.4a144,144,0,0,0,22,25.6c8.78,8,18.83,14.48,28.58,21.2,20.5,14.16,44,29.71,69.84,30.17,10.95.19,22.41-1.73,33.07-4.05,11-2.41,22.13-6,31.77-12a54.73,54.73,0,0,0,11.88-9.77c2.15-2.39-1.37-5.94-3.53-3.54-14.79,16.39-39.61,21.25-60.58,23.5a86.12,86.12,0,0,1-16.83.59,74.23,74.23,0,0,1-17.89-4.1c-12.2-4.25-23.5-10.82-34.3-17.83-19.52-12.65-39.14-25.65-53.67-44.12-13.46-17.12-22.82-37-31.58-56.86-8.88-20-17.26-40.43-28.77-59.16-12.77-20.75-30.28-37.22-46.86-54.83-8.69-9.23-17.19-18.82-23.79-29.69-6.3-10.35-9.28-21.38-10.05-33.44-1.6-25.36,3.1-50.79,12.33-74.36,9.93-25.34,23.49-49.43,29.59-76.15,6.29-27.52,5.47-56.09,11.66-83.63A141.42,141.42,0,0,1,299.74,177c1.16-3-3.67-4.3-4.82-1.33Z"/><path class="cls-1" d="M399.25,212c0-7.88-.27-15.78.31-23.64a60.06,60.06,0,0,1,1.62-10.69,37.56,37.56,0,0,1,1.62-5.05c.12-.28.08-.2.31-.69.16-.34.32-.68.49-1,.38-.73.79-1.45,1.24-2.14a16.42,16.42,0,0,1,6.55-5.92,18.63,18.63,0,0,1,4.44-1.5,22.6,22.6,0,0,1,6.3-.43c5.84.4,11.41,1.89,17.29.87,2.92-.5,5.72-1.51,8.57-2.29a28.78,28.78,0,0,1,7.82-1c10.32,0,20.69-.56,31,.25a25.78,25.78,0,0,1,6.4,1.16,13.22,13.22,0,0,1,2.28,1,23.23,23.23,0,0,1,2,1.3c2.79,2.19,4.89,5.11,7.35,7.63a27.72,27.72,0,0,0,10.73,7c4.49,1.57,9.43,1.87,14.15,2,5,.18,10.06.06,15.08.43A44.25,44.25,0,0,1,557,182.07c14,5.19,30.67,18.35,27.53,35a27.23,27.23,0,0,1-1.93,6.12,2.58,2.58,0,0,0,.89,3.42,2.51,2.51,0,0,0,3.42-.9,29.68,29.68,0,0,0,2.92-14.05,29.35,29.35,0,0,0-3.72-12.51c-4.34-7.85-11.68-13.91-19.47-18.14a60.81,60.81,0,0,0-12.09-5,57,57,0,0,0-14.25-1.86c-5.29-.15-10.59,0-15.86-.54a25.4,25.4,0,0,1-12.2-4c-3-2-5.41-5.1-7.92-7.84a23.68,23.68,0,0,0-9.92-6.78c-4.63-1.55-9.86-1.52-14.69-1.63-5.6-.13-11.2,0-16.8,0-2.53,0-5.07.06-7.6.06a32.18,32.18,0,0,0-8.83,1.28,68.71,68.71,0,0,1-8.78,2.3,31.4,31.4,0,0,1-8.55-.25,66.5,66.5,0,0,0-8.79-.93,28.66,28.66,0,0,0-6.65.86,21.93,21.93,0,0,0-9.62,5.21c-5.38,5.05-7.67,12.56-8.73,19.64-1.23,8.15-1.18,16.4-1.11,24.62,0,1.94,0,3.88,0,5.81,0,3.22,5,3.23,5,0Z"/><path class="cls-1" d="M456,123.36c21.29.08,38.43,14.81,49,32.22a95.13,95.13,0,0,1,7.45,15.16,2.57,2.57,0,0,0,3.07,1.75,2.53,2.53,0,0,0,1.75-3.08c-7.7-20.11-22-39.48-42.63-47.55a51.8,51.8,0,0,0-18.63-3.5c-3.22,0-3.22,5,0,5Z"/><path class="cls-1" d="M585.33,222.9c1.33,13.44-.16,27.13-2.16,40.43-2.1,13.95-5.11,27.73-7.6,41.61-2.6,14.57-5.2,29.09-8.61,43.49-3.1,13.08-6.27,26.16-8.1,39.48-2,14.49-2.68,29.69,1.71,43.82.95,3.07,5.78,1.76,4.82-1.33-3.82-12.3-3.56-25.47-2.09-38.13,1.56-13.34,4.67-26.45,7.76-39.5,1.47-6.16,2.94-12.32,4.21-18.52,1.6-7.85,3-15.74,4.35-23.62,2.48-14.08,5.51-28.05,7.78-42.16,2.4-15,4.43-30.41,2.93-45.57a2.56,2.56,0,0,0-2.5-2.5,2.52,2.52,0,0,0-2.5,2.5Z"/><path class="cls-1" d="M560.48,428c-.27,9.52,2.13,19.06,5,28.07,3.23,10.25,7.33,20.21,11.51,30.11,1.89,4.47,3.81,8.93,5.67,13.42,2,4.83,3.84,9.74,5.93,14.53a261.05,261.05,0,0,0,17.51,32.69c6.51,10.54,13.49,20.78,20.35,31.09,6.4,9.62,12.39,19.41,14.22,31a44.41,44.41,0,0,1-5.13,27.94c-5.75,10.66-14.83,19.06-23.22,27.61q-6.9,7-14,13.93c-4,3.9-8.23,7.62-11.92,11.84-6.14,7-11.65,15.49-19.81,20.35a20.2,20.2,0,0,1-5.81,2.39c-3.13.74-1.81,5.57,1.33,4.82,9.56-2.27,16.4-10.35,22.41-17.57a128.12,128.12,0,0,1,9.5-10.79c4.72-4.54,9.46-9,14.1-13.66q7.2-7.14,14.22-14.47a147.59,147.59,0,0,0,12.38-13.95C641,638.89,645.32,629,646,618.46c.73-10.94-2.66-21.7-7.83-31.23-3-5.54-6.68-10.72-10.19-16s-7-10.44-10.42-15.7a356.37,356.37,0,0,1-19.17-32.33c-5-9.85-8.9-20.16-13.2-30.32-4.13-9.75-8.34-19.46-12-29.41-3.41-9.38-6.62-19.17-7.56-29.16a52.26,52.26,0,0,1-.22-6.38c.09-3.22-4.91-3.21-5,0Z"/><path class="cls-1" d="M522,575.25c5.94,10.54,12.85,20.52,18.43,31.26,5.83,11.22,9.29,23.26,12.52,35.43,1.89,7.13,3.75,14.27,6.08,21.27,1,3,5.85,1.73,4.82-1.33-4.17-12.53-6.82-25.49-10.87-38a127.91,127.91,0,0,0-7-17.5c-2.7-5.44-5.78-10.67-8.94-15.84-3.6-5.9-7.29-11.74-10.68-17.76-1.58-2.8-5.9-.29-4.32,2.52Z"/><path class="cls-1" d="M437.84,273.5c-4.71,16.78-1.52,34.53-3.25,51.65-2,19.47-3.79,39-3.76,58.59,0,8.95.16,18.05,1.68,26.89a99.05,99.05,0,0,0,6.4,21.37c6,14.37,14.5,27.5,23.2,40.37,8.6,12.72,17.57,25.29,24.75,38.9.86,1.63,1.69,3.29,2.5,5a2.52,2.52,0,0,0,3.42.9,2.55,2.55,0,0,0,.89-3.42C487.09,500,478.45,487.52,469.94,475c-8.62-12.67-17.32-25.41-23.92-39.28a107.12,107.12,0,0,1-7.47-20.61c-1.95-8-2.41-16.12-2.62-24.32-.5-19.36,1-38.71,2.89-58,.44-4.53,1-9.06,1.23-13.61.21-4.31.19-8.63.16-13,0-8.44-.3-17,1.1-25.39a57,57,0,0,1,1.35-6.06c.87-3.1-4-4.43-4.82-1.33Z"/><path class="cls-1" d="M304.24,577.76c1.32,8.65-3,18.27-12.16,20a2.5,2.5,0,0,0-1.83,2.41c.59,8.1,2.35,16.13,6.47,23.2,1.62,2.78,5.95.27,4.32-2.52-3.67-6.29-5.27-13.47-5.79-20.68l-1.84,2.41a19.09,19.09,0,0,0,13-9.63,26,26,0,0,0,2.64-16.56,2.52,2.52,0,0,0-3.08-1.74,2.55,2.55,0,0,0-1.74,3.07Z"/><path class="cls-1" d="M291.33,612.62c-4.79-4.11-10.57-7.45-17.09-6.87-5.51.5-10.42,3.13-15.37,5.38A102.06,102.06,0,0,1,241.05,617a148.65,148.65,0,0,1-20.73,3.75c-5.87.61-11.95.94-17.7-.18a57.32,57.32,0,0,1-14.71-5.22c-9.73-4.9-18.43-11.55-27.63-17.33-9.7-6.11-20.52-11.49-32.29-11-3.2.14-3.22,5.14,0,5,9.87-.44,18.91,3.7,27.32,8.77,9.22,5.55,17.77,12.15,27.21,17.33a71.92,71.92,0,0,0,14.74,6.26,52,52,0,0,0,16.56,1.81,146.68,146.68,0,0,0,40.36-7.82c5.81-2,11.1-5.32,17-7a14.57,14.57,0,0,1,7.55-.36,22,22,0,0,1,9.1,5.12,2.56,2.56,0,0,0,3.54,0,2.51,2.51,0,0,0,0-3.53Z"/><path class="cls-1" d="M125.83,586.71c-3.61,5.16-3.68,11.65-2.32,17.58,1.54,6.67,4.68,13,7.91,18.94s6.66,11.49,9.58,17.44c.28.57.55,1.15.81,1.72l.31.7.1.24.21.53c.6,1.55,1.14,3.14,1.66,4.72,1.25,3.77,2.36,7.6,3.32,11.46a107.76,107.76,0,0,1,3.49,24.74c.09,7.85-1.09,15.6-4.89,22.55a23.76,23.76,0,0,1-3,4.45,10.2,10.2,0,0,1-2.95,2.45c-.13.07-.86.42-.43.24a7.19,7.19,0,0,1-.82.28c-.24.07-.48.12-.72.18-.08,0-.53.08-.19,0s-.21,0-.28,0h-.83c-.17,0-.94-.12-.36,0a12.56,12.56,0,0,1-1.63-.42l-.41-.15c.43.17.08,0,0,0l-.8-.41a15.49,15.49,0,0,1-1.68-1.08c-.34-.24.24.2-.08-.06l-.29-.24c-.26-.21-.52-.44-.77-.66-.56-.51-1.09-1.05-1.59-1.6a37.7,37.7,0,0,1-5.26-7.65c-4.06-7.52-6.28-16-7.81-24.36a187,187,0,0,1-2.58-30c0-2.52-.07-5-.09-7.56,0-3.21-5-3.22-5,0,.1,20,.88,41.14,8.94,59.81,4.13,9.58,15.18,26,27.15,16.61a25.81,25.81,0,0,0,6.78-9.19,43.35,43.35,0,0,0,3.79-11.81c1.43-8.61.87-17.38-.48-26a144.29,144.29,0,0,0-6.1-24.3,101.72,101.72,0,0,0-8.24-17.16c-3.48-6.15-7.13-12.36-9.71-18.92a43.06,43.06,0,0,1-2.67-9.42c0,.21-.06-.52-.08-.7,0-.36-.07-.72-.08-1.08a20.82,20.82,0,0,1,0-2.37c0-.35,0-.69.09-1,0-.07.07-.49,0-.1,0-.17,0-.33.08-.5a16.53,16.53,0,0,1,.53-2.07,6.78,6.78,0,0,1,.62-1.5,14.63,14.63,0,0,1,1.13-1.86,2.52,2.52,0,0,0-.89-3.42,2.56,2.56,0,0,0-3.43.89Z"/><path class="cls-1" d="M65.81,598.52c-6.29,5.69-15,6.92-22.74,9.43-3,1-6.42,2.17-8.4,4.74-2.41,3.13-.74,6.74,1.95,9a21.78,21.78,0,0,0,13.46,5.2c4.7.17,9.38-1,13.89-2.19,4.2-1.11,8.4-2.34,12.77-2.54,3.12-.15,6.26-.08,9.35-.51a9.77,9.77,0,0,0,7-3.93c2.14-3.09,2.27-7.37,2.3-11,0-3.22-5-3.22-5,0a34.15,34.15,0,0,1-.31,4.84,16.07,16.07,0,0,1-.46,1.91c-.08.27-.18.54-.29.81.21-.49-.08.14-.17.29s-.25.42-.39.62c.35-.52,0,0-.16.16s-.32.31-.49.46c.44-.39,0,0-.24.13s-.34.18-.51.27c-.39.2.06,0,.12,0l-.33.12a11.29,11.29,0,0,1-1.52.39c-.1,0-.87.14-.56.1s-.38,0-.51,0c-.65.06-1.3.1-2,.13-1.42.06-2.84.09-4.26.13a55.93,55.93,0,0,0-11.92,1.78C59,620.82,50.33,624.05,43,620.07a13,13,0,0,1-4.19-3.29c-.07-.11-.47-.92-.26-.43a1.48,1.48,0,0,1-.1-.39c0,.13,0,.5,0,.1,0-.14,0-.48,0,.13a1.2,1.2,0,0,1,.1-.35c-.07.06-.18.53,0,.1a1.55,1.55,0,0,1,.2-.32c-.31.47.14-.12.27-.25s.21-.19.32-.28c-.33.27,0,0,0,0A13.83,13.83,0,0,1,41.14,614a27.46,27.46,0,0,1,3.79-1.41c8.55-2.64,17.56-4.34,24.42-10.55,2.39-2.16-1.16-5.69-3.54-3.53Z"/><path class="cls-1" d="M6.89,606.77A27.88,27.88,0,0,0,3,612.22,19.65,19.65,0,0,0,0,619.62a4.67,4.67,0,0,0,.65,3.16,4.2,4.2,0,0,0,3.92,1.76,9.8,9.8,0,0,0,4.74-1.64A15.5,15.5,0,0,0,13.06,619c1-1.46,1.9-3,2.94-4.43a.85.85,0,0,0,.14-.19l-.16.21.15-.18.39-.47a12.6,12.6,0,0,1,.89-.9l.17-.15c.27-.23.34-.1,0,0a3.3,3.3,0,0,0,.49-.34l.51-.29.27-.14c.42-.22-.53.21-.05,0a2.5,2.5,0,1,0-1.33-4.82c-3.31,1.26-5.33,3.94-7.18,6.84L9.05,616c-.2.3-.41.59-.62.88-.06.09-.39.56-.17.23s-.14.17-.22.27-.42.47-.64.7L7,618.4c-.06.06-.57.49-.23.21s-.12.07-.21.13a4.23,4.23,0,0,1-.42.25,3.61,3.61,0,0,0-.44.22s.52-.19.27-.11l-.35.12c-.29.1-.59.19-.89.27l-.34.07-.22,0s.68-.05.36-.06a3.21,3.21,0,0,0-.62,0c.12,0,.76.14.34,0s.32.16.28.13c-.49-.26.37.39.14.13s.44.6.22.3c-.07-.1-.21-.45,0,.05.28.66-.06-.61,0,.12.08.57,0-.09,0-.27s0-.16,0-.25c0-.32-.13.72,0,.28,0-.23.09-.46.15-.69a15,15,0,0,1,.5-1.47c0-.1.21-.5,0-.07l.06-.14.39-.82c.27-.54.55-1.07.85-1.6.62-1.09,1.29-2.16,2-3.19l.49-.69c.07-.09.39-.5.08-.1s0,0,.06-.07a11.72,11.72,0,0,1,.81-.93,2.5,2.5,0,0,0-3.54-3.53Z"/><path class="cls-1" d="M9.92,610.69a96.16,96.16,0,0,1,21.8-10.94,2.55,2.55,0,0,0,1.74-3.07,2.52,2.52,0,0,0-3.07-1.75,101,101,0,0,0-23,11.45,2.56,2.56,0,0,0-.9,3.42,2.52,2.52,0,0,0,3.42.89Z"/><path class="cls-1" d="M22.72,599.31c-2.73,1.51-4.68,4.7-6.21,7.3-1.87,3.16-3.59,6.71-4,10.4-.36,3.37,1.63,6.41,5.29,6.2,4.63-.28,6.86-5.44,8.58-9.09a30.82,30.82,0,0,1,3.34-5.92c2.16-2.8,4.65-5.33,6.42-8.42,1.59-2.8-2.73-5.32-4.32-2.52-2.44,4.28-6.46,7.47-8.63,11.92-.81,1.68-1.56,3.39-2.43,5-.41.78-.84,1.54-1.32,2.27l-.42.61c.25-.34-.05.06-.12.14l-.36.41c-.1.09-.77.64-.25.27-.22.16-1,.4-.33.24-.65.16.36.07-.33.06a3.38,3.38,0,0,0-.45,0c-.51,0,.6.11.13,0s.5.28-.15-.08c.53.3.39.32.22.14s.39.56.16.2.17.55,0,0c0-.12,0-.25-.08-.37.22.61,0,.43,0,.13s0-.59,0-.89c0-.7-.1.42.05-.31.06-.32.13-.65.21-1,.2-.73.44-1.46.71-2.17.06-.14.44-1.07.23-.59.16-.36.33-.73.5-1.09.37-.78.77-1.54,1.19-2.28s.89-1.52,1.37-2.26c.26-.4.54-.81.82-1.2l.24-.33.23-.31c-.19.25-.21.27,0,.05.44-.52.87-1.05,1.36-1.53.2-.2.43-.37.63-.57s-.5.18-.12.09a1.76,1.76,0,0,0,.37-.23c2.82-1.56.3-5.88-2.52-4.31Z"/><path class="cls-1" d="M45.7,585.17a60.42,60.42,0,0,0-14.92,13.56c-4.17,5.28-8,11.67-7.94,18.62a2.52,2.52,0,0,0,1.83,2.41c4.31.82,8.17-2,11.31-4.57s5.78-5.58,8.62-8.42c2.28-2.28-1.26-5.82-3.53-3.54-2.53,2.54-4.94,5.2-7.63,7.57a25.24,25.24,0,0,1-4.27,3.14,6.62,6.62,0,0,1-2,.85c-.18.06-1.08.17-.59.14l-.44,0c-.69,0,.48.12-.19,0l1.84,2.41c-.08-5.66,3.38-11.28,6.94-15.66a56.4,56.4,0,0,1,13.44-12.21c2.71-1.71.21-6-2.52-4.31Z"/><path class="cls-1" d="M48.14,589.24c11.11,1,22.39.65,33.42,2.57,10.42,1.82,20,6.2,29.24,11.28a99,99,0,0,1,13.93,9,2.58,2.58,0,0,0,3.54,0,2.53,2.53,0,0,0,0-3.54c-8.14-6.47-17.48-11.52-27-15.73a77.74,77.74,0,0,0-16.19-5.39,122.28,122.28,0,0,0-17.29-2c-6.56-.38-13.14-.54-19.69-1.14a2.51,2.51,0,0,0-2.5,2.5,2.56,2.56,0,0,0,2.5,2.5Z"/><path class="cls-1" d="M42.64,609.21c.21-.37.43-.73.68-1.09.12-.17.24-.35.37-.52h0l.16-.2a21.35,21.35,0,0,1,1.8-1.88c.33-.3.66-.59,1-.87.65-.53-.34.24.34-.26l.43-.31a25.94,25.94,0,0,1,2.39-1.51,30.58,30.58,0,0,1,9.6-3.41,2.5,2.5,0,0,0-1.33-4.82c-7.62,1.43-15.74,5.43-19.76,12.34a2.5,2.5,0,0,0,4.32,2.53Z"/><path class="cls-1" d="M85.18,623.32c8.66,2.51,16.56,6.73,24.53,10.86,4.33,2.24,8.7,4.41,13.08,6.58a88.47,88.47,0,0,1,11.94,6.52c3.9,2.74,7.53,5.86,11.72,8.19,2.81,1.57,5.34-2.75,2.52-4.32a104.26,104.26,0,0,1-10.53-7.33,77.47,77.47,0,0,0-11.82-6.73c-8.51-4.21-16.86-8.75-25.42-12.85a95.77,95.77,0,0,0-14.69-5.74c-3.1-.9-4.42,3.92-1.33,4.82Z"/><path class="cls-1" d="M140.05,721.21a59.69,59.69,0,0,0,10.84-2,99.39,99.39,0,0,1,10.58-2.7c7-1.06,14.06.09,21-1.14s13.31-4.18,20.29-4.57c7.26-.41,14.5,1.16,21.75.35,12.78-1.42,23.71-8.54,35.64-12.7,13.12-4.56,27.33-3,40.87-5.42,4-.7,7.85-1.83,11.75-2.82a36,36,0,0,1,10.75-1.52c6.25.36,13.14,3.11,19.26.65a2.6,2.6,0,0,0,1.75-3.08,2.53,2.53,0,0,0-3.08-1.75c-2.46,1-5.08.84-7.67.55-2.95-.33-5.85-.95-8.81-1.25-6.75-.7-13.36,1.61-19.82,3.23-6.92,1.73-14,2.29-21.09,2.74-6.86.45-13.9.66-20.58,2.42-12.09,3.18-22.71,10.45-34.93,13.23-6.83,1.56-13.65.64-20.56.36a46.06,46.06,0,0,0-11.06.77c-3.42.68-6.73,1.74-10.09,2.66A47.74,47.74,0,0,1,175.41,711c-4,.09-7.92-.1-11.87.24-8,.68-15.45,4.31-23.49,5a2.56,2.56,0,0,0-2.5,2.5,2.52,2.52,0,0,0,2.5,2.5Z"/><path class="cls-1" d="M171.86,646.24c18.87,17.55,43.52,27.06,68.45,32.13,7,1.42,14,2.5,21.11,3.37a2.52,2.52,0,0,0,2.5-2.5,2.55,2.55,0,0,0-2.5-2.5c-24.1-3-48.58-8.8-69.5-21.57a102.79,102.79,0,0,1-16.52-12.46c-2.35-2.19-5.9,1.34-3.54,3.53Z"/><path class="cls-1" d="M288.44,662c6.52,3.55,13.68,5.22,21,6.22s14.43,1.56,21.45,3.46c3.11.84,4.43-4,1.33-4.82-13.61-3.69-28.56-2.29-41.24-9.18-2.83-1.53-5.35,2.78-2.52,4.32Z"/><path class="cls-1" d="M334.42,680.49c4.68,14.49,22.39,17.56,35,12.14a22.57,22.57,0,0,0,8.66-6.32,2.58,2.58,0,0,0,0-3.54,2.53,2.53,0,0,0-3.54,0c-6.82,8.41-21.45,10-30.17,3.66-.35-.25.23.19-.11-.08l-.49-.4q-.48-.42-.93-.87c-.31-.3-.6-.61-.88-.93a5.72,5.72,0,0,1-.49-.62,15.46,15.46,0,0,1-2.23-4.37c-1-3-5.81-1.74-4.82,1.33Z"/><path class="cls-1" d="M366.81,649.13c-5.91,2.08-4.17,8.89-2.31,13.29,2.18,5.18,5.4,9.73,8.25,14.55a36.14,36.14,0,0,1,4.68,11.77,2.5,2.5,0,0,0,4.82-1.33c-1.37-7.22-5.33-13.16-9.12-19.31-2.18-3.54-4.25-7.1-5.21-11-.07-.28-.12-.57-.18-.85,0,0-.07-.42,0-.14s0-.36,0-.36c0-.25,0-.5,0-.76,0-.1,0-.2,0-.31,0,.2-.08.37,0,.08,0-.12.2-.73.09-.42s.14-.23.2-.34c-.4.63.39-.31-.13.14a.69.69,0,0,1,.25-.14c.31,0-.54.17.06,0a2.56,2.56,0,0,0,1.74-3.08,2.52,2.52,0,0,0-3.07-1.75Z"/><path class="cls-1" d="M381.54,675.06c-2.71.48-3.73,4-4.27,6.29a57,57,0,0,0-1.3,10.49,36,36,0,0,0,.32,8.37c.87,4.53,3.66,8.49,6.61,11.92,3.29,3.85,7.2,7.21,10.1,11.38a2.57,2.57,0,0,0,3.42.89,2.51,2.51,0,0,0,.9-3.42,87.11,87.11,0,0,0-8.44-9.67c-2.69-2.87-5.48-5.95-6.95-9.66a19.13,19.13,0,0,1-.82-2.77c-.05-.2-.1-.88,0-.09,0-.28-.06-.56-.08-.84-.1-1.25-.11-2.5-.1-3.75,0-1.62.1-3.23.23-4.84s.27-2.94.48-4.24a30,30,0,0,1,1.08-4.49c0-.12.09-.24.13-.35-.24.6,0,.07,0,0s.26-.44.38-.66c-.05.09-.42.37-.15.2s0-.09,0,0-.5.2-.21.15a2.5,2.5,0,0,0-1.33-4.82Z"/><path class="cls-1" d="M395.16,722.25c1.77,2.07,4.66,2.69,7.26,2.84a34.09,34.09,0,0,0,8.83-.88c5.14-1,11.38-2.36,13.47-7.82,1.16-3,.58-6.48,0-9.54a2.5,2.5,0,0,0-4.83,1.33,19.38,19.38,0,0,1,.52,4.3,4.78,4.78,0,0,1-.18,1.66,4.92,4.92,0,0,1-.29.92c.19-.43-.11.18-.16.26a3.68,3.68,0,0,1-1,1.18c.2-.17-.5.34-.6.4-.25.15-.52.3-.78.43a22.31,22.31,0,0,1-3.66,1.18,44.62,44.62,0,0,1-8.54,1.56,17.38,17.38,0,0,1-4-.12l-.88-.22-.46-.16-.06,0c-.09,0-.86-.54-.45-.21a4.47,4.47,0,0,1-.61-.62,2.53,2.53,0,0,0-3.54,0,2.55,2.55,0,0,0,0,3.54Z"/><path class="cls-2" d="M223.63,74.14c-3.63-2.69-5.75-7-8.91-10.13-3.7-3.69-8.67-5.71-13.53-7.39-10.22-3.53-21-6.06-31.83-4.16-9.4,1.65-18.06,7-25,13.36a85.74,85.74,0,0,0-16.83,22.25,69.13,69.13,0,0,0-6.13,14.16,45.54,45.54,0,0,0-1.57,14.83,85.82,85.82,0,0,0,2.53,15.35,81.51,81.51,0,0,0,4.84,14.53,61.63,61.63,0,0,0,7.29,12.12,73.61,73.61,0,0,0,4.94,5.79,25.57,25.57,0,0,0,5.61,4.77c8.78,5,18.54-.22,25.49-5.93a80.94,80.94,0,0,0,18.28-22.3c5-8.73,8.7-18.34,9.89-28.36a47.55,47.55,0,0,0,.32-6.86c-.09-3.21-5.09-3.22-5,0,.25,9.08-2.37,18.1-6.19,26.27A84,84,0,0,1,172.53,155a51.16,51.16,0,0,1-10.07,8.38c-3.25,2-7.06,3.64-11,3.21-4.25-.46-7.19-3.75-9.9-6.76a59.53,59.53,0,0,1-7.81-10.92c-4.55-8.17-7-17.5-8.42-26.7a46.37,46.37,0,0,1-.27-13.41,45.88,45.88,0,0,1,4.44-13.74c7.38-15.14,18.69-30.3,35.12-36.16,9.48-3.39,19.71-2.28,29.18.58,4.55,1.37,9.26,2.78,13.41,5.14,4,2.25,6.36,5.82,9.16,9.29a25.47,25.47,0,0,0,4.69,4.53,2.52,2.52,0,0,0,3.42-.89,2.56,2.56,0,0,0-.9-3.42Z"/><path class="cls-2" d="M161.82,166.59c.52,3.46,4.2,6.09,6.81,8a97.26,97.26,0,0,0,11.56,6.84c3.3,1.74,6.69,3.33,9.92,5.19,5.31,3.06,10.88,5.92,17,7,9.87,1.84,21.09-.53,27.58-8.66,5.43-6.8,7.37-15.58,7.91-24.1A101.18,101.18,0,0,0,240.12,133c-.68-3.14-5.5-1.81-4.82,1.33q.57,2.6,1,5.22c.15.86.28,1.71.4,2.57.09.56.1.63.13.93.08.58.15,1.17.22,1.75a95.78,95.78,0,0,1,.65,12.21c-.1,7.69-1.17,15.74-5.11,22.26a19.8,19.8,0,0,1-7.09,7.08,18.09,18.09,0,0,1-5,2,28.84,28.84,0,0,1-8.87.9c-5.65-.31-11-2.5-15.9-5.16-3.33-1.79-6.61-3.63-10-5.36a141.9,141.9,0,0,1-12.57-7,27.9,27.9,0,0,1-4.67-3.53c-.31-.29-.62-.59-.9-.91l-.39-.46c.4.49,0,0-.1-.16s-.53-1-.39-.64-.12-.49-.15-.68a2.52,2.52,0,0,0-3.08-1.75,2.55,2.55,0,0,0-1.74,3.07Z"/><path class="cls-2" d="M208.19,163.24c2.63,1.71,5.35,3.28,8.07,4.85a2.5,2.5,0,0,0,2.53-4.32c-2.72-1.56-5.44-3.14-8.08-4.84a2.52,2.52,0,0,0-3.42.89,2.55,2.55,0,0,0,.9,3.42Z"/><path class="cls-2" d="M230.3,126.37a6.49,6.49,0,0,1-.76-.19,3.36,3.36,0,0,0-.39-.15s.48.24.26.11-.18-.08-.27-.13a11.34,11.34,0,0,1-1.69-1.05c-.38-.27.32.28,0,0l-.41-.34c-.29-.26-.57-.53-.84-.8s-.55-.57-.81-.87l-.36-.42-.17-.22c-.23-.26.24.35,0,.07-.43-.64-.87-1.25-1.24-1.92-.17-.31-.32-.63-.48-1s.15.4,0,0c-.07-.18-.14-.37-.2-.56s-.19-.62-.26-.94c0-.11-.07-.62-.05-.21s0-.17,0-.28,0-.88,0-.89-.14.63,0,.1c0-.16.09-.32.13-.48.13-.45-.11.17,0,.07s.14-.26.2-.37l.12-.19s-.36.4-.17.22.24-.27.36-.39.3-.21,0,0c.14-.09.27-.19.42-.28l.42-.23c.34-.2-.48.14,0,0l.49-.14c.5-.13,0,.1-.11,0a4.51,4.51,0,0,0,.9,0c.24,0-.31,0-.32,0a1.3,1.3,0,0,0,.21,0l.41.1a3.1,3.1,0,0,0,.4.13c.27.06-.29-.09-.26-.11s.24.11.27.12c.27.14.54.29.8.45l.39.27.2.14c.27.16-.36-.31-.12-.09.54.47,1.08.94,1.58,1.46s1,1.16,1.49,1.75c.18.21-.09-.12-.1-.14s.12.15.17.23.23.3.34.46l.72,1c1.73,2.53,3.13,5.24,4.79,7.81a2.56,2.56,0,0,0,3.42.9,2.52,2.52,0,0,0,.9-3.42c-1.63-2.52-3-5.18-4.69-7.66-1.94-2.86-4.32-6.09-7.57-7.58a7.77,7.77,0,0,0-5.36-.6,7.61,7.61,0,0,0-4.51,3.4c-1.89,3.3-.61,7.36,1.28,10.34a19.56,19.56,0,0,0,4,4.65,11.86,11.86,0,0,0,5.09,2.73,2.5,2.5,0,1,0,1.33-4.82Z"/><path class="cls-2" d="M228.68,127c-3.65,3.74-8.23,6.79-13.62,6.93-5.63.15-10.86-2.69-15.15-6.13a2.58,2.58,0,0,0-3.53,0,2.52,2.52,0,0,0,0,3.54c5.31,4.26,11.67,7.77,18.68,7.59,6.72-.18,12.56-3.7,17.15-8.4,2.25-2.3-1.28-5.84-3.53-3.53Z"/><path class="cls-2" d="M220.21,80.79c3.34,6.32,6.76,12.62,9.74,19.13a115,115,0,0,1,7,19.84c.78,3.12,5.6,1.8,4.82-1.33-3.59-14.31-10.36-27.2-17.21-40.17-1.5-2.84-5.82-.32-4.32,2.53Z"/><path class="cls-2" d="M220.1,70a39,39,0,0,1,13.59-8.64,43.85,43.85,0,0,1,14.58-2.5c10.55-.1,20.91,2.71,30.92,5.79,2.51.78,5,1.6,7.52,2.39a37.77,37.77,0,0,0,9.68,1.54c3.24.15,6.48.07,9.71.31a34.37,34.37,0,0,1,8.33,1.71c5,1.66,9.55,4.24,14.31,6.38a61.26,61.26,0,0,0,7.83,3,57.42,57.42,0,0,0,9.12,1.58c3.68.45,7.33,1.1,11,1.79s7.46,1.64,11.23,2.08c2.89.34,5.79.09,8.69.18,2.52.08,5.17.43,7.13,2.16a2.55,2.55,0,0,0,3.54,0,2.52,2.52,0,0,0,0-3.53c-4.5-4-10.2-3.6-15.8-3.62a46.05,46.05,0,0,1-8.73-1.18c-3.38-.65-6.76-1.32-10.17-1.88s-6.68-.87-10-1.36a39.48,39.48,0,0,1-8.32-2.29c-5.23-2-10.11-4.81-15.29-6.93a47.42,47.42,0,0,0-17.6-3.27,61.14,61.14,0,0,1-9.66-.59,67.91,67.91,0,0,1-8.62-2.49c-10.46-3.3-21.21-6.35-32.23-6.73a50,50,0,0,0-17.77,2.4,45.12,45.12,0,0,0-16.49,10.17c-2.33,2.23,1.21,5.76,3.54,3.54Z"/><path class="cls-2" d="M137.5,165.93c-.1,14.26,6.65,27.85,14.19,39.57a212.34,212.34,0,0,0,13,17.83c4.22,5.26,8.73,10.3,12.8,15.68,4.4,5.83,8.62,11.83,13.47,17.31a62.91,62.91,0,0,0,7.53,7.34A49,49,0,0,0,203,266.9a30,30,0,0,1,3.67,2.55,12.29,12.29,0,0,1,3.69,5.53,47.8,47.8,0,0,1,1.48,7.79,54.6,54.6,0,0,0,2.34,10.5,64.74,64.74,0,0,0,5.16,11c2,3.49,4.37,6.77,6.17,10.38s3.26,7.39,4.93,11.07c3.49,7.73,8.68,14.47,13.62,21.3q1.84,2.53,3.65,5.1a2.56,2.56,0,0,0,3.42.9,2.52,2.52,0,0,0,.89-3.42c-4.84-6.92-10.26-13.55-14.48-20.88-4-7-6.22-14.84-10.6-21.65-4.24-6.58-8.14-13.47-9.59-21.26-1-5.31-1-11.18-3.84-15.93a19.93,19.93,0,0,0-6.24-6.19,58.9,58.9,0,0,1-7.88-5.91c-5.18-4.82-9.47-10.5-13.69-16.16s-8.56-11.14-13.08-16.55-8.74-10.71-12.72-16.37a130.22,130.22,0,0,1-11.26-18.87,59.6,59.6,0,0,1-5.86-19.09,42.74,42.74,0,0,1-.24-4.8c0-3.22-5-3.22-5,0Z"/><path class="cls-2" d="M229.9,94.52c2.89,5.47,8.5,8.82,11.39,14.27a31.62,31.62,0,0,1,2.77,9.24c.7,3.88,1.26,7.76,1.61,11.69,1.4,15.63,1.49,31.21-1.46,46.67q-1.22,6.38-3,12.64c-.29,1.05-.59,2.09-.89,3.13-.37,1.24-.76,2.34,0,3.55,1.38,2.23,3.89,1.84,5.58.25,2.35-2.21-1.19-5.74-3.53-3.53-.12.13-.12.13,0,0h1.33l.79.46.25,1.93A154.6,154.6,0,0,0,251.71,151a222,222,0,0,0-1.17-22.77c-.38-3.88-1-7.72-1.66-11.56a38.29,38.29,0,0,0-2.73-9.31,29.45,29.45,0,0,0-6-8.07c-2.21-2.29-4.48-4.48-6-7.33s-5.82-.32-4.32,2.53Z"/><path class="cls-2" d="M217,297.91a166.25,166.25,0,0,1-10.55,18.3c-3.76,5.81-7.81,11.49-11.27,17.5-6.34,11-6.79,24.59-6.61,37,.21,14.45,3.48,28.57,5.22,42.86a196.33,196.33,0,0,1,1.09,22.22q.1,11.31.6,22.62t1.43,22.42c.62,7.44,1.59,14.83,2.63,22.23a160.22,160.22,0,0,1,1.92,21.43,70.35,70.35,0,0,1-.69,10.66c-.5,3.32-1.42,6.48-2.23,9.72-1.63,6.51-.62,13.34,4.3,18.18,4.76,4.67,11.61,6.81,18,7.92a95,95,0,0,0,23.16.87,104.52,104.52,0,0,0,20.57-3.37c1.24-.35,2.47-.74,3.68-1.18a2.58,2.58,0,0,0,1.74-3.08,2.52,2.52,0,0,0-3.07-1.75,59.45,59.45,0,0,1-7.95,2.25c-3.26.71-6.76,1.27-9.59,1.61a106.18,106.18,0,0,1-22.61.44c-2-.19-2.9-.31-4.84-.65a52.6,52.6,0,0,1-5.15-1.17c-.73-.21-1.46-.43-2.18-.68l-1.05-.38-.62-.24c-.05,0-.72-.3-.2-.08a26.28,26.28,0,0,1-4-2.15c-.28-.18-.55-.37-.81-.56-.58-.41.11.13-.42-.32a18.64,18.64,0,0,1-1.53-1.42l-.68-.76c-.09-.11-.36-.47,0,0l-.32-.45a12.7,12.7,0,0,1-1-1.74c-.07-.12-.46-1-.21-.41a9.25,9.25,0,0,1-.32-.88,14.42,14.42,0,0,1-.51-2.06c0-.11-.1-.77,0-.12,0-.2,0-.41-.06-.61s0-.69,0-1a21.49,21.49,0,0,1,.12-2.41c.08-.74-.05.3,0-.15,0-.19.06-.39.1-.58.07-.41.15-.81.24-1.21.31-1.34.75-2.66,1.09-4a68.61,68.61,0,0,0,1.82-10.83,103.47,103.47,0,0,0-.61-21.11c-.82-7.12-2-14.18-2.81-21.3s-1.33-14.58-1.77-21.88-.74-14.64-.92-22,0-14.76-.35-22.12c-.78-14.24-4.11-28.16-5.51-42.33a141.24,141.24,0,0,1-.52-19.73,69.44,69.44,0,0,1,2.8-18.12c1.92-6.1,5.63-11.32,9.1-16.62,3.74-5.69,7.55-11.35,11-17.24,1.7-2.94,3.31-5.93,4.78-9a2.57,2.57,0,0,0-.9-3.42,2.53,2.53,0,0,0-3.42.9Z"/><path class="cls-2" d="M203.64,561.46c-2.25,1.83-3.7,4.57-2.94,7.51.68,2.59,2.77,4.56,4.89,6a21.15,21.15,0,0,0,17.25,2.86,23.69,23.69,0,0,0,10.18-5.6c2.38-2.18-1.17-5.71-3.54-3.54-4.6,4.22-11.46,6.11-17.47,4a14.09,14.09,0,0,1-5.68-3.67,2.88,2.88,0,0,1-.84-1.84c0-.18,0-.16,0,.06a4.21,4.21,0,0,1,.12-.48c.17-.42-.1.06.19-.38a7.15,7.15,0,0,1,1.42-1.44,2.53,2.53,0,0,0,0-3.54,2.56,2.56,0,0,0-3.54,0Z"/><path class="cls-1" d="M359.66,26.37c-1.39,6.31-2.92,12.65-3.2,19.13A41.87,41.87,0,0,0,359.78,64c4.14,9.51,12.84,14.84,20.69,21a59.34,59.34,0,0,1,18.68,24.86,74.61,74.61,0,0,1,4.2,15.32c.84,5.07.9,10.22,1.67,15.3.79,5.26,2.68,10.17,7,13.48a21.92,21.92,0,0,0,13,4c9.31.13,19.1-3.67,25.44-10.58,12.94-14.1,8.08-35.46,3.6-52-2.5-9.21-4.83-18.52-7.83-27.59-3.29-10-7.61-19.88-14.71-27.74A42,42,0,0,0,426,35a2.58,2.58,0,0,0-3.54,0,2.51,2.51,0,0,0,0,3.53c15.78,12.22,19.94,33.63,25,51.78,2.25,8.11,4.65,16.39,5.73,24.66a58.22,58.22,0,0,1,.36,12.86,30.46,30.46,0,0,1-3.11,11c-4,7.5-11.48,12.07-19.71,13.65a23.23,23.23,0,0,1-12.35-.66,12.33,12.33,0,0,1-7.71-8.68c-1.29-4.63-1.26-9.49-1.79-14.24a83.61,83.61,0,0,0-3.16-15.44A66.11,66.11,0,0,0,390.1,86.91,102.6,102.6,0,0,0,377.82,76.8a53.36,53.36,0,0,1-10-9c-7.05-8.76-7.3-20.67-5.28-31.22.57-3,1.25-6,1.9-8.93.69-3.13-4.13-4.47-4.82-1.33Z"/><path class="cls-1" d="M363.76,26.23c-.09-2.08-.22-4.16-.24-6.24,0-1.06,0-2.12.07-3.18a23,23,0,0,1,.3-2.85,19.53,19.53,0,0,1,.71-2.83,8.76,8.76,0,0,1,1.21-2.47s.46-.66.16-.27c.15-.19.31-.37.47-.55a9.1,9.1,0,0,1,1.06-1c-.36.29.3-.2.3-.21.21-.14.43-.27.66-.4a6.85,6.85,0,0,1,1.4-.62A15,15,0,0,1,372.6,5,12.21,12.21,0,0,1,374.08,5l.68,0c.3,0,.3,0,0,0l.41.08a11.22,11.22,0,0,1,1.13.33c-.61-.23.37.23.54.33s.57.44.06,0l.4.34c.13.12.24.26.36.38.49.49-.06-.15.16.19s.33.5.48.76.55,1.19.31.59a15.9,15.9,0,0,1,.75,2.46c.1.41.18.83.25,1.24,0,.21.07.42.1.63s.11.8,0,.2c.12.95.21,1.91.28,2.87.29,3.77.16,7.86,1.46,11.46a2.57,2.57,0,0,0,3.08,1.75,2.52,2.52,0,0,0,1.74-3.08,14.43,14.43,0,0,1-.59-2.26c0-.19-.07-.37-.1-.56s-.1-.84,0-.21c-.06-.47-.11-.94-.15-1.42-.18-1.93-.27-3.86-.42-5.79-.29-3.79-.67-8.13-3-11.31-2.9-4-7.65-4.6-12.2-3.57a13.77,13.77,0,0,0-10.23,10c-1.51,5.11-1.07,10.58-.83,15.83.15,3.2,5.15,3.22,5,0Z"/><path class="cls-1" d="M384.54,21.37c2.65-.82,5.71-1.66,8.17-1.38l.51.09c.23.05.46.1.69.17s.52.16.79.25l.14.05.25.11a27.7,27.7,0,0,1,2.94,1.7c2.8,1.85,5.46,4.07,8.58,5.34s6.54,1,9.53,2.43,4.14,4.37,5.95,7.05,6.13.15,4.32-2.52-3.22-5.74-5.93-7.74c-3.14-2.32-6.81-2.43-10.43-3.34-5.88-1.48-9.75-7.3-15.85-8.39-3.71-.66-7.46.27-11,1.36-3.07.95-1.76,5.78,1.33,4.82Z"/><path class="cls-1" d="M456.56,123c3.71,9.25,7.51,18.51,9.69,28.26.7,3.14,5.53,1.81,4.82-1.33-2.17-9.75-6-19-9.69-28.26a2.58,2.58,0,0,0-3.07-1.75,2.53,2.53,0,0,0-1.75,3.08Z"/><path class="cls-2" d="M205.55,223.83c6.89,1.51,13.16,4.41,19.44,7.54a2.55,2.55,0,0,0,3.42-.89,2.51,2.51,0,0,0-.9-3.42c-6.64-3.32-13.34-6.46-20.63-8.05a2.56,2.56,0,0,0-3.08,1.75,2.52,2.52,0,0,0,1.75,3.07Z"/><path class="cls-2" d="M223.75,227c.68,9.44,5.45,18.14,10.33,26,5.36,8.71,11.47,17,16.54,25.85a55.36,55.36,0,0,1,5.94,13.65c.8,3.11,5.63,1.79,4.82-1.33C259,282,253.63,273.8,248.5,266,243,257.55,237,249.26,232.64,240.1A38.82,38.82,0,0,1,228.75,227a2.56,2.56,0,0,0-2.5-2.5,2.51,2.51,0,0,0-2.5,2.5Z"/><path class="cls-2" d="M240.54,192.93c-1.82,5.79-1.48,12.2-.84,18.15a206.15,206.15,0,0,0,3.64,21.07c.67,3.14,1.37,6.27,2,9.42a63,63,0,0,0,2.08,8.89,17.66,17.66,0,0,0,4.36,7,17.09,17.09,0,0,0,6.32,3.57,56.64,56.64,0,0,0,8,1.7,65.23,65.23,0,0,1,9.59,2.27c3.06,1,4.37-3.8,1.33-4.82-5-1.68-10.27-2.15-15.4-3.37a27.9,27.9,0,0,1-3.11-.95c-.45-.17.19.11-.23-.09l-.7-.34a12.59,12.59,0,0,1-1.33-.79c-.11-.07-.64-.48-.3-.2l-.6-.52a11.24,11.24,0,0,1-1.11-1.18c-.26-.32.19.26-.06-.07-.07-.1-.15-.2-.22-.31s-.33-.5-.48-.75a15.39,15.39,0,0,1-.89-1.71,42,42,0,0,1-2.1-8.26c-.58-2.89-1.22-5.76-1.84-8.64-1.4-6.44-2.78-12.91-3.64-19.45-.84-6.37-1.52-13.31.36-19.31,1-3.08-3.86-4.4-4.82-1.33Z"/><path class="cls-2" d="M279,149.25c4,1.3,8,.11,11.85-1.15s7.23-2.15,10.93-.22c2.85,1.49,5.38-2.83,2.53-4.32-4.33-2.26-8.81-2.15-13.38-.74-1.86.57-3.69,1.27-5.59,1.72a9,9,0,0,1-5-.12c-3.07-1-4.38,3.83-1.33,4.83Z"/></g></g></svg>