<svg xmlns="http://www.w3.org/2000/svg" viewBox="0 0 679.78 812.84"><defs><style>.cls-1{fill:#8cc63f;}.cls-2{fill:#1b1464;}</style></defs><title>aikido5</title><g id="Capa_2" data-name="Capa 2"><g id="Capa_1-2" data-name="Capa 1"><path class="cls-1" d="M277.84,336.51c5.87,3.21,10.87,7.79,16.12,11.88s11.21,8.54,18,10.11a19.93,19.93,0,0,0,11.09-.45,2.56,2.56,0,0,0,1.74-3.08,2.51,2.51,0,0,0-3.07-1.74c-5.61,1.94-11.07.17-16.16-2.81-5.82-3.4-10.87-7.91-16.16-12a68.56,68.56,0,0,0-9-6.2c-2.83-1.54-5.35,2.78-2.52,4.32Z"/><path class="cls-1" d="M182.29,560c9.33-1.11,18.74-1.93,28.11-.82a77.92,77.92,0,0,1,14.14,3.25c4.35,1.37,9,2.85,13.61,2.45s8.53-2.73,12.69-4.54a2.52,2.52,0,0,0,.89-3.42,2.56,2.56,0,0,0-3.42-.9c-3.17,1.39-6.31,3.36-9.8,3.83-4.35.58-8.79-1-12.87-2.32A83.51,83.51,0,0,0,198,553.67c-5.26.16-10.49.7-15.71,1.33a2.57,2.57,0,0,0-2.5,2.5,2.52,2.52,0,0,0,2.5,2.5Z"/><path class="cls-1" d="M345.35,411.23c1.09,4.67,4.14,8.77,6.94,12.55,3.23,4.38,6.27,8.79,9.18,13.39,3.13,4.92,6.25,9.85,9.28,14.84,2.72,4.49,5.42,9,8.37,13.34,3.14,4.62,6.55,9.24,10.81,12.9a2.57,2.57,0,0,0,3.54,0,2.53,2.53,0,0,0,0-3.54C386,468.29,381,459.26,376,450.94c-2.85-4.7-5.77-9.36-8.71-14s-5.83-9.25-9.12-13.64c-3-4-6.77-8.38-7.95-13.39-.74-3.13-5.56-1.8-4.82,1.33Z"/><path class="cls-2" d="M422,480.69a68.37,68.37,0,0,1,14.55-6.46c4.92-1.55,9.95-2.71,15.14-2.37,4.63.31,9.13,1.63,13.71,2.34a72.86,72.86,0,0,0,15.48.54c10.31-.59,20.61-2.23,31-1.5a44.47,44.47,0,0,1,14.29,3.24A30.75,30.75,0,0,1,537,484.75c3.06,3.39,5.89,7.06,9.48,9.92a39.92,39.92,0,0,0,13.77,6.74c4.76,1.42,9.71,2.39,14.29,4.34a42.76,42.76,0,0,1,11.88,8.18c3.62,3.33,7,6.9,10.87,10a47.89,47.89,0,0,0,13.8,7.79,108,108,0,0,0,15.26,3.88c4.81,1,9.64,2,14.38,3.33a45,45,0,0,1,12.4,5.21,27.45,27.45,0,0,1,5.16,4.33,39.12,39.12,0,0,1,3.15,3.91c2.33,3.13,4.53,6.35,6.55,9.68a47.56,47.56,0,0,1,5,10.18,20,20,0,0,1,.57,2.28c0,.09.06.5,0,0,0,.15,0,.3,0,.45a9.73,9.73,0,0,1,0,1.08c-.14,3.21,4.86,3.21,5,0,.16-3.57-1.38-7.14-2.87-10.29a85.65,85.65,0,0,0-6.4-10.9,99,99,0,0,0-6.7-9.06,33.7,33.7,0,0,0-11.66-8.56c-9.16-4.15-19.32-5.56-29.05-7.72a57.47,57.47,0,0,1-15-5.13,55.25,55.25,0,0,1-11.78-9.09,113,113,0,0,0-11.52-10.13,44.75,44.75,0,0,0-14.07-6.41c-4.83-1.38-9.85-2.39-14.41-4.56s-7.84-5.31-11.07-9-6.25-7.32-10.16-10.18a36.66,36.66,0,0,0-14.08-5.77c-10.41-2.16-21.06-1-31.54-.14a138.86,138.86,0,0,1-15.39.74c-5.1-.13-10-1.31-15-2.23a40.42,40.42,0,0,0-15.5-.14,75.48,75.48,0,0,0-15.83,5.14,70.46,70.46,0,0,0-7.12,3.68c-2.76,1.64-.25,6,2.53,4.32Z"/><path class="cls-2" d="M549.52,523.09c1.22,14.17,3,28.86-.9,42.77a49.83,49.83,0,0,1-4.78,11.37c-1.6,2.8,2.72,5.32,4.32,2.53,7.69-13.43,8.45-28.83,7.42-43.92-.29-4.26-.69-8.5-1.06-12.75a2.56,2.56,0,0,0-2.5-2.5,2.53,2.53,0,0,0-2.5,2.5Z"/><path class="cls-2" d="M549.05,579.06a32.1,32.1,0,0,0,11.69,6.31,42.81,42.81,0,0,0,12.65,1.42c8.56-.2,17-2.1,25.48-2.6a44.82,44.82,0,0,1,12.13.66c4.57,1,8.75,3.14,13.38,4,8.52,1.57,16.88.18,25-2.45,9.2-3,18.15-6.79,27.86-7.8a2.57,2.57,0,0,0,2.5-2.5,2.51,2.51,0,0,0-2.5-2.5c-8.77.91-16.94,3.76-25.21,6.64-7.53,2.62-15.2,4.88-23.26,4.2a35.74,35.74,0,0,1-6.42-1.17c-2.33-.63-4.52-1.58-6.81-2.34a40,40,0,0,0-12.2-1.85c-8.44-.1-16.75,1.71-25.13,2.44-9.09.79-18.38.09-25.66-6a2.58,2.58,0,0,0-3.54,0,2.53,2.53,0,0,0,0,3.54Z"/><path class="cls-2" d="M544.23,555.05c-5.09,5.17-6.67,12.12-7.52,19.08-.4,3.3-.64,6.52-1.15,9.46a22.87,22.87,0,0,1-2.73,8.21c-.22.35-.44.7-.68,1a6.63,6.63,0,0,1-.54.66,14.89,14.89,0,0,1-1.86,1.78c.26-.21-.19.13-.25.17l-.57.39c-.44.28-.89.55-1.35.79a16.28,16.28,0,0,1-2.72,1.14c-3,1-1.73,5.85,1.33,4.83a20.18,20.18,0,0,0,9.28-5.94,22.52,22.52,0,0,0,4.33-8.93c1.67-6.67,1.39-13.37,3-19.8a19.55,19.55,0,0,1,4.94-9.34c2.26-2.29-1.27-5.83-3.54-3.53Z"/><path class="cls-2" d="M334.48,495.2a49.34,49.34,0,0,1,17.34-11.7,61.25,61.25,0,0,1,20-3.92c14.62-.53,28.74,2.93,42.85,6.28,6.68,1.58,13.52,3.06,19.83,5.85a35.81,35.81,0,0,1,8.39,5,32.23,32.23,0,0,1,6.72,7.95c3.81,6.12,6.22,13,9.42,19.38a50,50,0,0,0,13.76,17.36c5.65,4.47,11.9,8.1,17.58,12.53a47.11,47.11,0,0,1,7.76,7.44,18.93,18.93,0,0,1,4.06,9.31c.56,3.74,1,7.26,2.6,10.75A29.08,29.08,0,0,0,511,590c2.55,2.52,5.35,4.78,7.87,7.33,2.69,2.71,5.24,5.58,7.77,8.42,9.6,10.76,18.53,22.32,24.42,35.57A85.78,85.78,0,0,1,557.21,662c.64,3.84.83,7.75,1.62,11.57a79.27,79.27,0,0,0,3.46,11.37c2.77,7.42,6,14.71,7.45,22.55q.19,1.14.36,2.28c.08.6,0-.21,0,.26,0,.25.07.49.1.74.12,1,.23,2,.33,3.08.21,2.31.33,4.62.34,6.94,0,4.79-.24,8.88-1.85,13.38-.08.23-.17.45-.26.67s-.18.45,0,.06l-.15.32c-.23.49-.46,1-.73,1.44s-.5.83-.77,1.24l-.19.27c-.23.32.23-.28,0,0s-.33.39-.5.58a9.09,9.09,0,0,1-4.38,2.83,14.55,14.55,0,0,1-6.49.25,2.57,2.57,0,0,0-3.07,1.75,2.51,2.51,0,0,0,1.74,3.07c5.3.87,10.69.28,14.81-3.44,3.46-3.11,5.2-7.82,6-12.29a60,60,0,0,0,.66-14.91,74.64,74.64,0,0,0-3.12-17.6c-2.43-7.71-6-15-8.14-22.82a92.6,92.6,0,0,1-2-12,89.24,89.24,0,0,0-2.27-11.34c-3.92-14.51-11.65-27.45-20.88-39.19-4.85-6.16-10.09-12-15.44-17.73-4.86-5.2-11.34-9.27-14.48-15.86-1.58-3.31-1.84-6.91-2.42-10.47a22.63,22.63,0,0,0-4.73-10.46c-4.63-6-11-10.29-17.17-14.49s-12.39-8.27-16.8-14.29-7-13-10.13-19.7-7-13.37-13.06-18c-5.71-4.36-12.71-6.8-19.58-8.67s-14.12-3.59-21.21-5.15a154.19,154.19,0,0,0-22.81-3.48c-14.5-1-29.56,1.2-41.79,9.53a56.61,56.61,0,0,0-8.76,7.38c-2.24,2.3,1.29,5.84,3.54,3.53Z"/><path class="cls-2" d="M556.9,742.54c-6-4.12-12.13-8.31-19.52-9.23A38.46,38.46,0,0,0,526,734c-4.83.87-9.63,1.88-14.52,2.41a70,70,0,0,1-14.69.19c-4.54-.45-9-1.4-13.55-1.6-9.09-.41-18.18.53-27.26.87-8.84.33-17.85.17-26.34-2.58s-16.69-6.41-25.09-9.42a140.46,140.46,0,0,0-25-6.76c-4.69-.76-9.38-1.09-14.11-1.44a56,56,0,0,1-11.33-2.15c-15.6-4.49-29.78-13.35-46.27-14.57a52.62,52.62,0,0,0-6.28-.07c-3.2.16-3.22,5.16,0,5,16.44-.81,30.9,7.47,45.93,12.76a78,78,0,0,0,11.4,3.17c4.34.81,8.72.9,13.1,1.32a119.18,119.18,0,0,1,25.39,5.55c8.33,2.72,16.45,6,24.64,9.13a73.88,73.88,0,0,0,12.92,4,81.93,81.93,0,0,0,13.36,1.21c9.1.13,18.16-.83,27.26-1a92.63,92.63,0,0,1,12.9.47c4.81.55,9.46,1.48,14.33,1.5a94,94,0,0,0,14.79-1.32c4.53-.71,9-1.89,13.59-2.3a24,24,0,0,1,9.39.78,35.72,35.72,0,0,1,8.56,4.28c1.79,1.14,3.55,2.34,5.3,3.55a2.52,2.52,0,0,0,3.42-.9,2.55,2.55,0,0,0-.89-3.42Z"/><path class="cls-2" d="M339.51,712.18c-5.93-1.4-12.14.29-17.66,2.46a160.71,160.71,0,0,0-19.34,9.66c-5.42,3-11.13,6.46-16.73,8.45-8.88,3.16-17.92,6-27,8.57a200.56,200.56,0,0,1-28.36,6.2c-4.82.64-9.68.91-14.52,1.36-5,.47-10.06,1-15.07,1.65-20,2.45-40,5.71-60.19,6.88a218.29,218.29,0,0,1-28.71,0c-8.81-.64-17.73-2.19-25.88-5.73A58.14,58.14,0,0,1,80,748.56c-2.79-1.62-5.31,2.7-2.53,4.32,16.2,9.44,35.63,10.34,53.93,9.92,20.2-.47,40.21-3.46,60.21-6.09,10.1-1.33,20.22-2.56,30.38-3.35a176.12,176.12,0,0,0,28.94-4.76c9.45-2.34,18.75-5.25,28-8.29,3.74-1.23,7.53-2.36,11.15-3.91,2.89-1.23,5.68-2.68,8.44-4.17,6.32-3.41,12.5-7.09,19-10.22,5.39-2.61,11.55-5.27,17.33-5.35a12,12,0,0,1,3.4.34c3.13.74,4.47-4.08,1.33-4.82Z"/><path class="cls-2" d="M334.09,490.83c-6.48-4.45-14.59-.17-20.09,3.84-8.12,5.94-15,13.51-21.61,21-5.72,6.5-11.09,13.46-17.3,19.52-4.47,4.35-9.72,7.92-14.41,12-5.49,4.79-10.91,10.2-14.24,16.76-3,5.89-4.61,12.37-7.62,18.25a22.4,22.4,0,0,1-5.09,6.88,35.86,35.86,0,0,1-7.47,4.79c-11.69,5.85-25.12,7.32-37.58,10.84a67.06,67.06,0,0,0-18.05,7.55A45.64,45.64,0,0,0,157,626.23c-3.49,5.34-6.38,11.42-11.34,15.58s-11.79,6-18,7.74c-6.49,1.79-12.81,3.67-18.71,7a96.18,96.18,0,0,0-15.15,10.93C84.89,675,76.34,683.62,65.29,688a48.64,48.64,0,0,1-8.93,2.54,2.53,2.53,0,0,0-1.75,3.08,2.56,2.56,0,0,0,3.08,1.74c12.46-2.31,22.56-9.56,32-17.67,9-7.77,17.89-16.1,29.25-20.27,6.4-2.35,13.16-3.52,19.53-6a33.64,33.64,0,0,0,16.31-12.36c3.5-5,6.27-10.67,10.28-15.34a40.76,40.76,0,0,1,15.38-10.86c12.1-5.07,25.36-6.49,37.82-10.42,5.92-1.86,11.84-4.27,16.85-8,5.48-4.09,8.4-9.71,10.85-16,2.35-6,4.29-12.18,8.28-17.37,4.67-6.07,10.69-11,16.61-15.8a97.93,97.93,0,0,0,10.2-9c2.87-3.08,5.61-6.29,8.36-9.49,6.64-7.73,13.29-15.55,20.78-22.48a56.68,56.68,0,0,1,10.14-7.84c.78-.46,1.59-.89,2.41-1.27l.4-.18c.65-.29-.47.18.19-.08.44-.17.89-.34,1.35-.48a14.28,14.28,0,0,1,2.24-.52c-.73.11.39,0,.59,0,.41,0,.81,0,1.22,0,.59,0-.57-.12,0,0l.5.1c.33.08.65.19,1,.29.14,0,.64.3,0,0a4.93,4.93,0,0,1,.46.23c.31.18.61.35.9.55,2.66,1.83,5.17-2.5,2.53-4.31Z"/><path class="cls-2" d="M84.09,751.36c-5.34-6.44-10.2-13.24-15-20.05-4.11-5.79-8.31-11.52-12.44-17.29-7.14-10-15.56-22.35-28.78-23.83S1.75,698.78.16,712c-.92,7.56,2.36,14.76,5.55,21.4.85,1.76,1.7,3.51,2.52,5.28.13.3.27.59.4.89a2.88,2.88,0,0,1,.13.31c-.17-.43,0-.06,0,0,.2.51.39,1,.58,1.53A67.27,67.27,0,0,1,11.26,748c2.57,10.45,3.86,21.21,7.08,31.51A45.74,45.74,0,0,0,24.62,793a22.27,22.27,0,0,0,12.3,8.53c6.79,1.91,14,1.72,21,2.27a48.27,48.27,0,0,1,9.85,1.64,58.87,58.87,0,0,1,8.7,3.7c5.29,2.56,11.08,5.13,16.89,2.65a20.26,20.26,0,0,0,7.76-6.47,29,29,0,0,0,4.44-7.76c3.69-10-1-20.13-6.92-28.12C92.33,761,84.41,754,78,745.71l-.22-.28-.51-.69c-.27-.38-.55-.77-.81-1.16-.56-.83-1.09-1.68-1.57-2.55-1.54-2.83-5.86-.31-4.32,2.52a57.51,57.51,0,0,0,7.85,10.39c3.36,3.77,6.88,7.4,10.23,11.18a78.5,78.5,0,0,1,9,11.85,33.71,33.71,0,0,1,2.91,6,25,25,0,0,1,.93,3.31c.09.39.23,1.18.25,1.33s.1,1,.12,1.47a15.93,15.93,0,0,1-.82,6.26,22,22,0,0,1-3.55,6.58c-1.66,2.16-3.79,4.47-6.34,5.44a9.56,9.56,0,0,1-6.58-.13c-5.72-1.8-10.71-5.37-16.57-6.88-6.6-1.71-13.52-1.65-20.28-2.15a48.2,48.2,0,0,1-9.26-1.41,19.17,19.17,0,0,1-6.28-2.94,20.83,20.83,0,0,1-3.71-4.05,36.19,36.19,0,0,1-3.2-5.9,83.29,83.29,0,0,1-4.31-14.13c-1.19-5.14-2.14-10.33-3.18-15.49a107.8,107.8,0,0,0-3.38-13.61c-2-5.93-5.44-11.27-7.57-17.17A25.82,25.82,0,0,1,5,713.65a18.74,18.74,0,0,1,3.08-9.26A20.89,20.89,0,0,1,21,695.54a19,19,0,0,1,14.84,2.71c4.93,3.28,8.87,8.14,12.43,12.8,8.57,11.25,16.39,23.06,24.86,34.38,2.41,3.21,4.87,6.38,7.43,9.47a2.53,2.53,0,0,0,3.54,0,2.57,2.57,0,0,0,0-3.54Z"/><path class="cls-2" d="M37.76,700.23a28.68,28.68,0,0,0,13-2c4-1.56,7.77-3.64,11.74-5.29a2.58,2.58,0,0,0,1.74-3.07,2.51,2.51,0,0,0-3.07-1.75c-7.65,3.17-14.8,7.93-23.42,7.14a2.51,2.51,0,0,0-2.5,2.5,2.56,2.56,0,0,0,2.5,2.5Z"/><path class="cls-2" d="M82.88,746.47a77.06,77.06,0,0,1,16.7-12.4c5.74-3.18,11.78-5.74,17.74-8.45,3.65-1.66,7.27-3.39,10.82-5.26,2.85-1.5.32-5.82-2.52-4.32-12,6.35-25.19,10.66-36.35,18.59a82,82,0,0,0-9.92,8.3c-2.31,2.25,1.23,5.79,3.53,3.54Z"/><path class="cls-2" d="M119.71,732.41a63.17,63.17,0,0,1,12.8-7.19,44.53,44.53,0,0,1,7.06-2.23,7.89,7.89,0,0,1,1.82-.23l.91,0,.44,0c-.58-.05.06,0,.19,0,8,1.52,16.36,2.74,24.43.89a35.37,35.37,0,0,0,14.28-7.39,2.52,2.52,0,0,0,0-3.54,2.57,2.57,0,0,0-3.54,0,29.86,29.86,0,0,1-11.72,6,39.2,39.2,0,0,1-12,.65c-2.07-.16-4.16-.33-6.21-.68-1.44-.25-2.86-.63-4.3-.86-4.06-.62-8.08.71-11.84,2.13a67.2,67.2,0,0,0-14.8,8,2.56,2.56,0,0,0-.9,3.42,2.53,2.53,0,0,0,3.42.9Z"/><path class="cls-2" d="M418.25,619.76a79,79,0,0,0-16.27-.67c-7.13.26-14.25.84-21.37,1.43C365.8,621.75,350.9,623.37,336,623c-9.77-.23-19.5-1.39-29.24-2.1a99.23,99.23,0,0,0-14.63-.1,73.09,73.09,0,0,1-12.64.07h-.08l-.44-.07c-.24,0-.47-.08-.7-.14s-.46-.12-.69-.19l-.24-.08c-.52-.17.49.26,0,0a10.28,10.28,0,0,1-.91-.53c-.17-.12-.34-.24-.5-.37.5.37-.07-.06-.25-.2a51.13,51.13,0,0,0-8.49-5.61c-8.28-4.27-17.47-6.24-26.6-7.72-2.38-.38-4.69-.86-7-1.43a29.44,29.44,0,0,0-6.52-1,9.74,9.74,0,0,0-6.49,2.14,11.32,11.32,0,0,0-3.47,6.87,31.58,31.58,0,0,0-.4,5.83c.05,3.21,5.05,3.22,5,0a23.64,23.64,0,0,1,.33-5.08,15.39,15.39,0,0,1,.49-1.8c.16-.53-.05,0,.19-.48.14-.26.26-.51.42-.75s.44-.59.13-.22c.16-.19.33-.36.51-.54a3.08,3.08,0,0,1,.27-.24s-.39.27-.16.12l.67-.41.23-.11c.3-.16-.45.16-.12,0l.57-.18c.23-.06.46-.1.69-.15.06,0,.37-.05,0,0s.12,0,.21,0c.46,0,.92,0,1.39,0l.67,0,.38,0c.49,0-.3,0,0,0,1,.15,2,.36,3,.59,2,.46,3.95,1,6,1.32,8.75,1.37,17.74,3,25.79,6.81a47.53,47.53,0,0,1,5.49,3.07q1,.63,1.92,1.32c.57.42.49.35,1.14.88a12.71,12.71,0,0,0,5.15,2.91,40.35,40.35,0,0,0,10.75.59c4.71-.22,9.37-.76,14.09-.5,9.91.55,19.76,1.73,29.67,2.24,14.63.76,29.31-.67,43.88-1.9,7.2-.6,14.4-1.23,21.62-1.63a121.62,121.62,0,0,1,17.18-.07l1.53.15.36.05.79.13a2.56,2.56,0,0,0,3.07-1.75,2.52,2.52,0,0,0-1.74-3.07Z"/><path class="cls-2" d="M217.85,616.47c-7.26,7-16.14,12-24.3,18.1-7.83,5.85-15.79,12.91-18.41,22.72a31.24,31.24,0,0,0,1.12,18.22,2.5,2.5,0,1,0,4.82-1.33,33.35,33.35,0,0,1-1.76-7.65,26,26,0,0,1,0-3.64,15.29,15.29,0,0,1,.42-3.14,26.08,26.08,0,0,1,5.64-11.08c6.35-7.58,14.74-12.64,22.8-18.25A107.63,107.63,0,0,0,221.38,620c2.33-2.23-1.21-5.77-3.53-3.54Z"/><path class="cls-2" d="M258.1,659.44c-8.57,6-17.29,11.87-24.82,19.17a62.88,62.88,0,0,0-8.56,10.21c-2.48,3.69-4.73,7.52-7.26,11.18-2.09,3-4.49,6.27-7.51,8.34a18.17,18.17,0,0,1-8.91,2.84c-6.22.46-14.21-1.13-16.45-7.33-1.58-4.39-1-9.35-1-13.91,0-5.2-.33-10.46-2.76-15.15-1.48-2.86-5.8-.33-4.32,2.52,2.06,4,2.11,8.63,2.08,13s-.33,8.95.72,13.29c2,8.35,10,12.1,18,12.59a27,27,0,0,0,11.24-1.57,23.28,23.28,0,0,0,9.29-6.9c5.67-6.64,9.2-14.86,15-21.4,7.93-9,18.05-15.76,27.83-22.57a2.56,2.56,0,0,0,.9-3.42,2.51,2.51,0,0,0-3.42-.9Z"/><path class="cls-2" d="M257.62,666.42a134.37,134.37,0,0,1,45.12-7.76,182.75,182.75,0,0,1,45.17,6c8.52,2.17,16.92,4.8,25.2,7.74a2.5,2.5,0,1,0,1.33-4.82c-29.49-10.47-61-17-92.3-12.45a132.3,132.3,0,0,0-25.85,6.43,2.5,2.5,0,1,0,1.33,4.82Z"/><path class="cls-2" d="M295.43,661.35c12.89,7.11,26.95,11.95,40.78,16.87,6.54,2.33,13.06,4.69,19.52,7.22s12.88,5,19.52,7c7.25,2.14,15,3.81,22.61,3a2.57,2.57,0,0,0,2.5-2.5,2.51,2.51,0,0,0-2.5-2.5c-6.45.71-12.91-.49-19.12-2.18a193.69,193.69,0,0,1-19.42-6.72c-13.14-5.13-26.53-9.58-39.69-14.67A175.1,175.1,0,0,1,298,657c-2.82-1.56-5.35,2.76-2.53,4.32Z"/><path class="cls-2" d="M418.28,619.69a21.17,21.17,0,0,0-5,4,2.46,2.46,0,0,0-.64,2.44,104.37,104.37,0,0,0,5.79,11.53c2.71,4.91,5.49,9.78,8.14,14.72a171.76,171.76,0,0,1,7.61,15.72,77.2,77.2,0,0,1,2.67,7.52c.34,1.17.64,2.35.89,3.55.12.56.22,1.13.32,1.7,0,.16.11.79.09.61s.06.57.07.72a22.6,22.6,0,0,1,.1,3.08c0,.25,0,.49,0,.73s-.09.81-.05.48-.06.38-.08.46-.09.45-.14.67a12.41,12.41,0,0,1-.38,1.28c-.07.21-.27.64-.06.18-.12.27-.25.55-.39.82s-.42.81-.66,1.19l-.38.58a3.55,3.55,0,0,1-.23.31l.05-.06a10.05,10.05,0,0,1-.83.9l-.37.34c-.48.44.17-.08-.13.1s-.61.39-.93.56c-.09.05-.65.29-.25.13s-.25.08-.34.1c-.32.1-.63.17-.95.24-.52.12,0,0,0,0l-.61.05c-.34,0-.68,0-1,0l-.56,0c-.6,0,.44.09-.15,0a25.73,25.73,0,0,1-5-1.47c-.2-.08-.54-.22-.13,0l-.65-.28-1.4-.65c-.89-.43-1.78-.88-2.66-1.34-3.74-2-7.4-4.09-11.24-5.87s-7.66-3.23-11.82-3.41a14.93,14.93,0,0,0-11,4.12,21.75,21.75,0,0,0-2.34,2.73,2.52,2.52,0,0,0,.9,3.42,2.57,2.57,0,0,0,3.42-.9c.24-.32-.07.05.27-.33.17-.2.34-.41.52-.6a15.6,15.6,0,0,1,1.16-1.14l.55-.46c-.34.27,0,0,.14-.09.4-.26.81-.52,1.24-.75l.59-.29c.39-.19-.38.11.17-.06s.86-.29,1.3-.4c.26-.06,1.44-.24.76-.17.43,0,.85-.08,1.28-.09s.86,0,1.29,0l.66.06.28,0c.62.06-.37-.06,0,0a26,26,0,0,1,2.78.61c.93.27,1.84.58,2.74.92l.69.27.29.12c.5.21,1,.43,1.49.66,3.84,1.77,7.5,3.91,11.24,5.87,3.41,1.78,7,3.63,10.84,4.3s7.32.08,10.21-2.48c3.13-2.77,4.7-7.1,4.9-11.19.22-4.83-1.1-9.74-2.66-14.26a132.25,132.25,0,0,0-7.2-16.36c-4.83-9.47-10.61-18.48-15.16-28.09-.18-.38-.35-.75-.52-1.13l-.25-.57c.22.51,0,0-.07-.18l-.64,2.43a16.61,16.61,0,0,1,3.94-3.2c2.83-1.54.31-5.86-2.52-4.32Z"/><path class="cls-2" d="M420.43,626.25a8.18,8.18,0,0,1,.69-.45l.32-.16c.53-.29-.35.12,0,0a15.54,15.54,0,0,1,2-.6,24,24,0,0,1,4.77-.64,68.12,68.12,0,0,1,11.86.38,31.08,31.08,0,0,1,8.72,2A54.58,54.58,0,0,1,461,634.66c3.95,3.21,7.7,6.66,11.65,9.88a162.38,162.38,0,0,0,13.69,9.6C496.68,661,507,667.86,517.44,674.5c11.51,7.29,23.24,14.21,35.72,19.73a2.58,2.58,0,0,0,3.42-.9,2.51,2.51,0,0,0-.9-3.42c-22.83-10.09-43.44-24.64-64.2-38.35-4.72-3.12-9.64-6-14.08-9.57-4.09-3.24-7.93-6.77-11.94-10.1a67.58,67.58,0,0,0-12.78-8.78,32.62,32.62,0,0,0-10.21-3,71.92,71.92,0,0,0-13.83-.71c-3.45.18-7.85.42-10.74,2.58a2.58,2.58,0,0,0-.9,3.42,2.53,2.53,0,0,0,3.43.89Z"/><path class="cls-2" d="M438.37,700c10.3-2.78,19.33-8.67,28.85-13.28,3.83-1.86,7.83-3.32,11.73-5,3.6-1.58,7.2-3.17,10.95-4.39,6.83-2.24,15.2-3.66,20,2.89,2,2.77,2.45,5.78,4.23,8.79,2.25,3.82,6.39,6,10.63,6.92a44.56,44.56,0,0,0,9.72.61,48.31,48.31,0,0,1,9.3.75c6.32,1.17,12.49,3,18.93,3.52a2.52,2.52,0,0,0,2.5-2.5,2.55,2.55,0,0,0-2.5-2.5c-5.67-.43-11.14-2.07-16.69-3.16a54,54,0,0,0-8.49-1.09c-2.8-.09-5.6.1-8.4-.07a17.78,17.78,0,0,1-7.23-1.84,8.52,8.52,0,0,1-3.39-3.05,22.12,22.12,0,0,1-1.77-4,23.16,23.16,0,0,0-2.52-4.93,16.45,16.45,0,0,0-10-6.83,27.24,27.24,0,0,0-12.27.67,81.83,81.83,0,0,0-12.05,4.38c-3.75,1.62-7,2.95-10.77,4.53-10.81,4.6-20.58,11.67-32,14.76-3.11.84-1.79,5.66,1.33,4.82Z"/><path class="cls-2" d="M324,508.75c-.74,9.79.13,20.56,4.55,29.47a24.39,24.39,0,0,0,4.28,6.13,51.52,51.52,0,0,0,6.38,5.2,58.32,58.32,0,0,1,10.92,11.38c3.82,5,7.51,10.1,12.37,14.13a2.57,2.57,0,0,0,3.53,0,2.52,2.52,0,0,0,0-3.54c-8.22-6.81-12.94-16.83-21.05-23.74-3.84-3.26-8.37-5.72-11.05-10.14a36.77,36.77,0,0,1-4.38-13.27,66.94,66.94,0,0,1-.55-15.62,2.51,2.51,0,0,0-2.5-2.5,2.56,2.56,0,0,0-2.5,2.5Z"/><path class="cls-2" d="M80,689c5.1,1.4,10.36-.89,15.45-1.26,3.37-.25,6.74-.41,10.1-.72s6.56-.8,9.85-1.07c6.47-.54,12.84,0,19.29.49,5.74.47,11.51.27,17.25.62,6.36.38,12.68,1.57,18.09,5.12,2.7,1.77,5.21-2.56,2.52-4.32-10.2-6.69-22.68-5.72-34.31-6.21-6.34-.26-12.59-1.14-19-.93-6.78.23-13.52,1.37-20.29,1.81a81,81,0,0,0-9.57,1.11c-2.59.48-5.66,1.21-8.1.54-3.11-.86-4.44,4-1.33,4.82Z"/><path class="cls-2" d="M151.73,691.36a30.59,30.59,0,0,0,1.76,5l1,2.2c.07.15.13.29.19.44s.09.19.13.29c-.15-.36-.17-.41-.07-.16s.31.77.46,1.16a2.71,2.71,0,0,0,1.15,1.49,2.55,2.55,0,0,0,1.93.25A2.51,2.51,0,0,0,160,699c-.62-1.64-1.35-3.22-2-4.83l-.13-.3c.15.35.17.4.07.16l-.19-.45q-.24-.6-.45-1.2a21.09,21.09,0,0,1-.69-2.31,2.5,2.5,0,1,0-4.82,1.33Z"/><path class="cls-2" d="M121.28,729.94l-.15-.31s.19.47.09.21l-.19-.54c-.13-.4-.2-.8-.29-1.21.09.44,0,.34,0,0,0-.17,0-.34,0-.51s0-.39,0-.58-.14.54,0,0c.09-.32.17-.65.27-1s.36-.76,0-.09c.09-.18.17-.36.27-.54s.36-.63.56-.93.24-.35.37-.52c-.32.44-.05.07.12-.14a20.42,20.42,0,0,1,1.85-1.87c.33-.29.67-.57,1-.85s-.28.2.18-.14l.72-.53A54.81,54.81,0,0,1,131.6,717c4-2.15,8.07-4,12.16-5.86A70.39,70.39,0,0,0,153.83,706c2.79-1.87,5.63-4.75,3.84-8.33-1.44-2.88-5.75-.35-4.32,2.53.17.33-.23-.66-.1-.25a1.28,1.28,0,0,1,.07.28c-.12-1,0-.49,0-.27,0,.49.09-.63,0-.27a.84.84,0,0,1-.08.27c-.14.4.32-.46.11-.24a3.22,3.22,0,0,0-.39.64c.32-.61.11-.16-.17.13s-.48.43-.72.65.1-.07,0,0l-.39.29c-.32.23-.65.44-1,.66a88.62,88.62,0,0,1-10.4,5.22c-4.09,1.87-8.2,3.72-12.12,5.92-3.47,1.95-7.06,4.22-9.6,7.34-2.87,3.55-3.67,7.74-1.65,11.93a2.5,2.5,0,0,0,4.32-2.53Z"/><path class="cls-2" d="M487,468.14c-10-4.32-19.47-9.88-30.56-10.61a39.21,39.21,0,0,0-15.07,1.69,26.33,26.33,0,0,0-9.62,6c-3.37,3.22-6.29,6.87-9.57,10.17-2.27,2.28,1.26,5.82,3.54,3.53,2.87-2.89,5.49-6,8.33-8.93a22.46,22.46,0,0,1,7.5-5.52c3.86-1.65,8.66-2.12,13-2A42.77,42.77,0,0,1,469,465.51c5.29,2,10.31,4.7,15.5,6.95a2.59,2.59,0,0,0,3.42-.9,2.51,2.51,0,0,0-.9-3.42Z"/><path class="cls-2" d="M237.55,339.14c2.08,11.57,4.14,23.17,7.29,34.5a143.52,143.52,0,0,0,5.57,16.42c2.32,5.63,4.79,11.2,6.91,16.91a65.37,65.37,0,0,1,2.8,8.88,58.6,58.6,0,0,1,1.05,8.36c.42,5.67.93,11.24,2.79,16.66a151.61,151.61,0,0,0,6.9,15.74c2.45,5.16,4.43,10.48,6.59,15.76,5.21,12.69,11.14,25.06,16.4,37.73a2.59,2.59,0,0,0,3.08,1.75c1.17-.33,2.27-1.83,1.74-3.08-4.73-11.39-10-22.55-14.8-33.91-2.28-5.38-4.23-10.9-6.6-16.24-2.27-5.11-4.91-10.05-7-15.23a52.17,52.17,0,0,1-3.83-16c-.47-5.94-.88-11.75-2.77-17.45-3.78-11.41-9.33-22.12-12.83-33.63-3.82-12.58-6.12-25.55-8.44-38.47a2.53,2.53,0,0,0-3.07-1.75,2.56,2.56,0,0,0-1.75,3.08Z"/><path class="cls-2" d="M272.57,329.53c1.47,8.84,6.52,16.39,12.09,23.2,2.73,3.35,5.72,6.49,8.26,10a94.86,94.86,0,0,1,7.24,12c2.47,4.75,4.69,9.62,7,14.45a2.52,2.52,0,0,0,3.42.9,2.56,2.56,0,0,0,.9-3.42c-4-8.38-7.75-16.95-13-24.65-4.88-7.2-11.34-13.16-15.93-20.58a36.62,36.62,0,0,1-5.17-13.22,2.52,2.52,0,0,0-3.08-1.75,2.56,2.56,0,0,0-1.74,3.08Z"/><path class="cls-2" d="M329.56,433.2c4.57,12.79,9.38,25.92,17.05,37.24a55.38,55.38,0,0,0,6.93,8.49c2.3,2.26,5.84-1.27,3.54-3.53a61.66,61.66,0,0,1-10.75-15.15,163.51,163.51,0,0,1-8.3-18.47q-1.89-4.92-3.65-9.91a2.57,2.57,0,0,0-3.08-1.74,2.5,2.5,0,0,0-1.74,3.07Z"/><path class="cls-1" d="M311.47,46.1c.16.36-.17-.58-.21-.77a2.48,2.48,0,0,1-.1-.87,11.63,11.63,0,0,1,.21-2.65,33.53,33.53,0,0,1,2.05-6.49,65.45,65.45,0,0,1,5.67-10.89c5.37-8.13,15.14-12.63,23.84-16.22,16.2-6.7,36.82-2.65,49.18,9.85a41.56,41.56,0,0,1,11.32,24.67c.91,9.09-1.08,18.23-4.7,26.57-7.85,18.1-21.61,33.17-35.42,47-3.4,3.39-6.83,6.74-10.25,10.11-3,2.93-6.55,6.64-10.91,7.18s-8.62-3.23-11.47-6.47a45.57,45.57,0,0,1-7.88-12.95,40.88,40.88,0,0,1-2.16-7,2.52,2.52,0,0,0-3.07-1.74,2.55,2.55,0,0,0-1.75,3.07,48.79,48.79,0,0,0,6.33,15.37c2.91,4.74,6.62,9.41,11.39,12.39a14.18,14.18,0,0,0,15,.25c4.67-2.67,8.3-6.9,12.11-10.61,14.79-14.4,29.73-29.59,39.47-48,4.78-9,8.22-19,8.49-29.29a48.1,48.1,0,0,0-9-29.33C388,3.41,365.69-3.34,346.94,1.58A76.27,76.27,0,0,0,332.6,7.43a52.85,52.85,0,0,0-13.46,9.2c-3.48,3.4-5.84,7.54-8,11.83s-4.33,9.09-4.88,14a11.49,11.49,0,0,0,.9,6.13,2.52,2.52,0,0,0,3.42.9,2.57,2.57,0,0,0,.9-3.42Z"/><path class="cls-1" d="M349,77c-2,3.09-3.37,6.58-5.49,9.61a2.52,2.52,0,0,0,.9,3.43,2.57,2.57,0,0,0,3.42-.9c2.12-3,3.45-6.53,5.49-9.61a2.52,2.52,0,0,0-.9-3.42A2.56,2.56,0,0,0,349,77Z"/><path class="cls-1" d="M374.87,87.2c-.1.29-.21.57-.33.85l.25-.6a22.66,22.66,0,0,1-2.88,4.79l.39-.51q-.76,1-1.59,1.92a2.66,2.66,0,0,0-.73,1.77,2.57,2.57,0,0,0,.73,1.77,2.53,2.53,0,0,0,3.53,0,27.34,27.34,0,0,0,5.45-8.66,2.5,2.5,0,0,0-4.82-1.33Z"/><path class="cls-1" d="M403.27,47.47A26.22,26.22,0,0,1,400.75,52l-.29.42c-.4.54.32-.39-.1.11-.2.25-.4.49-.61.72a15,15,0,0,1-1.54,1.44c.49-.4-.09.06-.29.19s-.44.28-.67.41-.51.26-.76.39-.52.18.11,0l-.57.2a13.77,13.77,0,0,1-1.44.36c-.18,0-.68.05.08,0l-.44,0c-.3,0-.6,0-.9,0a14.51,14.51,0,0,1-1.61-.11c-.35,0,.65.14.13,0l-.47-.09-.94-.2c-.6-.15-1.18-.33-1.76-.53l-.81-.29-.48-.19c-.48-.19.45.2-.06,0A54.28,54.28,0,0,1,380,50.82c-5.09-3.27-9.86-7-15-10.18-4.37-2.67-9.49-5.31-14.77-4.52a11.21,11.21,0,0,0-6.43,3.43c-3.17,3.3-4.34,7.75-6.42,11.7a14.39,14.39,0,0,1-2,3,12,12,0,0,1-1.41,1.35c-.16.12-.35.24-.53.35a3.72,3.72,0,0,1-.48.27h0c-.6.19-1.22.2-1.81.36a5.53,5.53,0,0,0-2.54,1.62,11.72,11.72,0,0,0-2.86,6.66,25.48,25.48,0,0,1-.57,3.35,3.26,3.26,0,0,1-.35.91c-.41.59.3-.22-.22.24.41-.36.11-.06,0,0a2,2,0,0,0-.32.18c-.35.28.58-.23.18-.08-.58.21.27,0,.1,0-.56,0,.66.17.15,0s.63.3.28.11.15.09.21.19a2.44,2.44,0,0,0-.42-.43c.52.41.2.31,0,0l-.29-.55c-.09-.16-.23-.61,0,.1l-.18-.48a69.16,69.16,0,0,1-2.06-8c-1.28-5.3-3.37-12.92-9.74-13.94a9.68,9.68,0,0,0-10.29,5.67,22.8,22.8,0,0,0-1.6,12.9,92,92,0,0,0,1.88,9.88c.86,3.3,2.23,7.73,5.78,9a5.76,5.76,0,0,0,5.1-.74c2.71-1.71.2-6-2.53-4.32a6.32,6.32,0,0,1-.56.33c.45-.24.12,0,0,0l-.43.11c.71-.14.17-.08,0-.06.3,0,.49,0,.2,0-.13,0-.7-.23,0,0-.05,0-.32-.14-.34-.2s-.09-.06.18.14l-.26-.24c-.11-.14-.24-.27-.36-.4.06.06.3.42,0,0s-.37-.58-.53-.88l-.3-.59s-.31-.73-.11-.25c-.18-.45-.35-.91-.5-1.38a69.8,69.8,0,0,1-2.16-10.14l-.15-.82c0-.22-.07-.43-.1-.65,0,.1.05.48,0,0a24.44,24.44,0,0,1-.14-3,16.41,16.41,0,0,1,.89-5.5,6.6,6.6,0,0,1,2.59-3.58,1.88,1.88,0,0,1,.82-.35,5,5,0,0,1,.79-.18c-.09,0-.43,0,0,0s.61,0,.91,0,.7.13,0,0l.57.12.38.12c.54.14-.49-.27,0,0,.23.12.46.26.69.39.58.31-.22-.28.26.19l.69.7c.49.49-.14-.28.24.3a9,9,0,0,1,.53.83,15,15,0,0,1,1,1.92c-.25-.57.13.36.19.51l.33.95c.24.72.46,1.44.66,2.17.4,1.47.74,3,1.08,4.44.87,3.8,2.38,12.67,8.3,10.2,4.56-1.9,3.54-6.93,4.87-10.76a4.69,4.69,0,0,1,.6-1,4.85,4.85,0,0,1,.74-.9c-.39.36,0,0,.13-.06-.49.06-.33.12-.14.08l.91-.16a10.59,10.59,0,0,0,5.94-3.89c3.33-4,4.38-9.13,7.26-13.36.07-.1.46-.58,0-.05a2.88,2.88,0,0,1,.27-.34c.2-.22.39-.45.61-.66s.37-.36.57-.54a3.47,3.47,0,0,1,.29-.25c.09-.08-.47.3,0,0s.81-.49,1.22-.72c.57-.31-.48.12.23-.09.28-.09.56-.18.85-.25s.44-.08.66-.13c.39-.1-.23,0-.26,0,.13,0,.27,0,.41,0a13,13,0,0,1,1.53,0c.33,0,.82.13.19,0,.29,0,.58.09.87.16a13.22,13.22,0,0,1,1.64.44c.51.16,1,.36,1.52.55s-.52-.23,0,0l.31.13,1,.48c1.18.58,2.32,1.22,3.45,1.9,5.06,3,9.73,6.68,14.65,9.92,4.56,3,9.54,5.94,15,6.59,5.71.68,10.46-2.28,13.6-6.89a27.94,27.94,0,0,0,2.34-4.3,2.57,2.57,0,0,0-.9-3.42,2.53,2.53,0,0,0-3.42.9Z"/><path class="cls-1" d="M304.75,83.75a18,18,0,0,1-2.42,9c-1.56,3-3.42,5.88-4.79,9a2.58,2.58,0,0,0,.89,3.42,2.52,2.52,0,0,0,3.42-.9c3-6.73,8.19-12.71,7.9-20.48a2.55,2.55,0,0,0-2.5-2.5,2.52,2.52,0,0,0-2.5,2.5Z"/><path class="cls-1" d="M300.4,93.69c-5,2-11.52,5-10.44,11.43.5,2.94,2.38,5.55,4.13,7.87,2.6,3.44,4.94,7,7.2,10.71s4.48,7.4,6.9,11,4.86,6.77,7,10.38a71,71,0,0,1,5.4,11.17c1.27,3.43,2.11,7,3.07,10.49,1,3.78,2.1,7.57,2.76,11.44.57,3.32.87,6.82-.28,10a2.5,2.5,0,1,0,4.82,1.33c2.25-6.17.31-13.51-1.28-19.61-1.85-7.1-3.62-14.17-6.75-20.85a80.5,80.5,0,0,0-6-10.58c-2.31-3.45-4.79-6.76-7-10.28s-4.34-7.13-6.6-10.64c-2.15-3.34-4.7-6.41-6.82-9.77a11.39,11.39,0,0,1-1.62-3.51l-.06-.32c0,.22,0,.31,0,0a7.12,7.12,0,0,1,0-.8c-.06.55.05,0,.11-.27s-.19.25.11-.2l.21-.34c.18-.31-.26.29,0,0a7.41,7.41,0,0,1,.61-.64,5.79,5.79,0,0,1,1.23-.92,28.82,28.82,0,0,1,4.64-2.26,2.58,2.58,0,0,0,1.75-3.08,2.53,2.53,0,0,0-3.08-1.75Z"/><path class="cls-1" d="M344,140.07c-1.29,9.55-5.93,18.33-9.12,27.33-1.73,4.89-3.23,9.82-5.17,14.64-2,5.09-4.3,10.12-6.05,15.33-3.1,9.26-3.61,19.06-5.62,28.56a53.18,53.18,0,0,1-4.56,13.55c-1.86,3.61-4.35,6.84-6.52,10.26a83,83,0,0,0-6.46,12c-1.59,3.77-3.1,8-2.59,12.19a2.58,2.58,0,0,0,2.5,2.5,2.51,2.51,0,0,0,2.5-2.5c-.41-3.39.68-6.67,2-9.92a75.62,75.62,0,0,1,5.46-10.34c2-3.29,4.4-6.38,6.34-9.72a53,53,0,0,0,5.43-13.66c2.36-9.32,2.78-19,5.32-28.29a133.78,133.78,0,0,1,5.63-15.11c2-4.93,3.95-9.87,5.53-15,3.16-10.21,8.73-19.84,10.19-30.53a2.6,2.6,0,0,0-1.75-3.08,2.52,2.52,0,0,0-3.08,1.75Z"/><path class="cls-1" d="M301.05,94.38c-5.21-.79-9.36,1.87-13.16,5.15-3.3,2.86-6.42,5.8-10.42,7.67-4.6,2.15-10.12,2.44-15.08,3.33-6,1.08-11.89,2.31-17.77,3.76-5.71,1.4-11.35,2.95-17.11,4.13-5.5,1.12-11,2.15-16.5,3.5a79.34,79.34,0,0,0-16.13,5.57,50.9,50.9,0,0,0-12.31,8.74,112.48,112.48,0,0,0-10.1,11.28c-3.51,4.33-7.11,8.53-11,12.52-7.94,8.16-16.25,15.9-23.82,24.41a170.28,170.28,0,0,0-18,23.64,117.11,117.11,0,0,0-12.22,27.15,66.32,66.32,0,0,0-3.15,16.5,78.28,78.28,0,0,0,1.33,17.42,103.68,103.68,0,0,0,4.08,16.69c2,5.5,5,10.41,7.77,15.54a46.14,46.14,0,0,1,3.32,7.55c1,3.05,5.81,1.74,4.82-1.33-1.76-5.48-4.76-10.38-7.51-15.39a60.91,60.91,0,0,1-5.86-15.61c-2.49-10.63-4.36-22-1.94-32.8,4.26-19,14-35.94,26.46-50.74,6.89-8.22,14.4-15.82,22-23.33,4.12-4,8.22-8.13,12-12.48,3.4-3.88,6.5-8,9.91-11.91a62.54,62.54,0,0,1,10.31-9.74,49.76,49.76,0,0,1,13.66-6.71c10.57-3.47,21.67-4.84,32.44-7.51,5.71-1.41,11.38-3,17.14-4.19s11.84-2.19,17.78-3.26a30.19,30.19,0,0,0,12.28-5c3.62-2.55,6.58-6,10.36-8.33a7.67,7.67,0,0,1,5-1.37,2.56,2.56,0,0,0,3.07-1.74,2.52,2.52,0,0,0-1.74-3.08Z"/><path class="cls-1" d="M126.09,310.9a32.91,32.91,0,0,1,4.65-5.74,11.22,11.22,0,0,1,1.88-1.5,17,17,0,0,1,2.94-1.58c.56-.24,2-.74,2.95-1,1.34-.4,2.69-.73,4.05-1a40.39,40.39,0,0,1,11.25-.56,50.87,50.87,0,0,0,11.17-.28,30.73,30.73,0,0,0,9.6-3.64c5.95-3.3,10.93-8,16.66-11.6,6.26-3.94,13.53-5,20.55-6.92,3.1-.84,1.78-5.67-1.33-4.82-6.48,1.76-13.15,2.85-19.18,6s-11.23,8.15-17.09,11.82a31.13,31.13,0,0,1-9.19,4.11c-3.65.87-7.47.57-11.19.38A44.58,44.58,0,0,0,142,295a47.69,47.69,0,0,0-7.86,2.26,21.92,21.92,0,0,0-6.74,4.15,38.59,38.59,0,0,0-5.62,6.92c-1.81,2.67,2.52,5.18,4.32,2.53Z"/><path class="cls-1" d="M125.59,310.72c2.63,2.68,6.41,3.88,10,4.46a71.85,71.85,0,0,0,12.95.63c3.65-.09,7.31-.34,11-.22a32.62,32.62,0,0,0,14.41-2.85c4.72-2.07,9-5,13.82-6.87a2.59,2.59,0,0,0,1.75-3.08,2.52,2.52,0,0,0-3.08-1.74c-8.14,3.24-15.38,9.25-24.45,9.55-3.72.13-7.44,0-11.16.14a95.13,95.13,0,0,1-12.06-.16,26.78,26.78,0,0,1-5.78-1.15,9.37,9.37,0,0,1-3.85-2.25c-2.25-2.3-5.79,1.23-3.54,3.54Z"/><path class="cls-1" d="M151,230.39c3.74,4.18,9,5.3,14.24,6.37,4.3.87,8.06,2,11,5.11,3.34,3.6,5.63,8.14,8.08,12.35,2.81,4.83,5.91,9.3,10.32,12.8,5.4,4.28,11.41,7.64,17.32,11.13,2.78,1.64,5.3-2.68,2.53-4.32a172.09,172.09,0,0,1-15.12-9.44,33.21,33.21,0,0,1-6.07-5.59,49.86,49.86,0,0,1-4.26-6.41c-2.64-4.5-5.11-9.14-8.49-13.16a20.5,20.5,0,0,0-10.85-6.59c-5.27-1.4-11.24-1.44-15.13-5.79-2.15-2.4-5.67,1.14-3.53,3.54Z"/><path class="cls-1" d="M182.64,244.39a56.93,56.93,0,0,0,.08-20.7c-1.12-6.7-3.11-13.22-4.89-19.77-.84-3.1-5.66-1.78-4.82,1.33,3.35,12.37,7.39,24.89,4.81,37.81a2.55,2.55,0,0,0,1.74,3.07,2.52,2.52,0,0,0,3.08-1.74Z"/><path class="cls-1" d="M185.06,248.88c4.82,1.75,8.78-2.18,11.12-5.93,2.76-4.43,4.47-9.55,6-14.52.61-2,1.15-4,1.75-6,.94-3.09-3.88-4.41-4.82-1.33-1.12,3.7-2.11,7.43-3.43,11.08a44,44,0,0,1-2.71,6.32,27.58,27.58,0,0,1-1.68,2.82l-.46.65.05-.07-.2.25c-.35.38-.69.77-1.07,1.12-.08.08-.57.49-.33.3s-.3.2-.43.28-.41.23-.62.33.2-.08.21-.08l-.33.11c-.3.07-.7.11-.15.08l-.67,0-.25,0c-.31,0,.45.12.15,0s-.54-.14-.79-.23a2.5,2.5,0,1,0-1.33,4.82Z"/><path class="cls-1" d="M195.73,246.86a102.46,102.46,0,0,0,20.88-24.39c3.25-5.1,6.39-10.26,9.69-15.33s6.49-10,9.38-15.16a88.82,88.82,0,0,0,8.07-19c.87-3.1-4-4.43-4.82-1.33-3.23,11.49-9.57,21.62-16,31.54-3.16,4.87-6.25,9.78-9.33,14.71a128.8,128.8,0,0,1-8.76,12.73,89.18,89.18,0,0,1-12.63,12.7,2.51,2.51,0,0,0,0,3.53,2.55,2.55,0,0,0,3.54,0Z"/><path class="cls-1" d="M394.1,190.88c-2.66,13.28-8.05,25.79-11.54,38.84-3.15,11.75-4,24.61-10.86,35-6.11,9.17-15.53,15.72-20.62,25.64-2.93,5.72-4.68,11.94-6.28,18.14-1.49,5.74-2.6,11.94-5.69,17.08-3.31,5.51-8.21,9.88-11.22,15.59-3.1,5.87-4.72,12.44-8.38,18-1.77,2.7,2.56,5.21,4.32,2.53,3.27-5,4.92-10.79,7.44-16.17s6.5-9.54,10-14.24a34.82,34.82,0,0,0,4.24-7.37,72.47,72.47,0,0,0,2.84-9.16c1.61-6.13,3-12.34,5.38-18.24a47,47,0,0,1,9-13.81c3.78-4.21,7.83-8.17,11.28-12.66a49.65,49.65,0,0,0,8-16.13c1.8-6,2.82-12.17,4.21-18.27,3.37-14.73,9.72-28.61,12.69-43.45a2.57,2.57,0,0,0-1.75-3.08,2.52,2.52,0,0,0-3.07,1.75Z"/><path class="cls-1" d="M174.05,299.09c3.57.13,6.82,1.8,9.82,3.62,3.32,2,6.44,4.35,9.8,6.29a48.19,48.19,0,0,0,11,4.26,19.37,19.37,0,0,1,4.87,2,18.36,18.36,0,0,1,4.5,4.16c2.59,3.17,4.68,6.7,7.8,9.43A37.24,37.24,0,0,0,232.17,335a117.52,117.52,0,0,0,11.14,3.75c3.69,1.12,7.3,2.61,11.13,3.16a12.45,12.45,0,0,0,10-2.72,6.66,6.66,0,0,0,2.51-4.67,7.07,7.07,0,0,0-2.58-5.4c-2.35-2.19-5.9,1.34-3.54,3.54a5.36,5.36,0,0,1,.78.8c.05.06.38.72.27.42a2.51,2.51,0,0,1,.12.49c0-.07,0-.35,0-.08s0-.05,0-.09-.2.61-.09.35-.38.61-.1.21a4.62,4.62,0,0,1-.61.64,1.33,1.33,0,0,1-.42.34c-.3.2-.61.38-.93.55a5.27,5.27,0,0,1-1.36.56l-.83.21-.34.07c.34-.06.15,0-.08,0a18.83,18.83,0,0,1-4.83-.73c-3.51-.94-6.95-2.2-10.42-3.26a69.46,69.46,0,0,1-10.11-3.7,28,28,0,0,1-8.56-6.16c-2.63-2.86-4.53-6.31-7.23-9.11A22.12,22.12,0,0,0,206,308.44a42.51,42.51,0,0,1-10-3.85c-7-4.07-13.48-10.19-22-10.5-3.22-.12-3.21,4.88,0,5Z"/><path class="cls-1" d="M209.86,280.9c7.07,4.2,15.08,5.59,23.22,5.24,7.69-.32,15.27-1.92,23-2.2a41,41,0,0,1,12.77,1.33c3.1.87,4.43-3.95,1.33-4.82-7.5-2.12-15.27-1.66-22.92-.75-7.4.88-14.94,2.13-22.4,1.19a32.22,32.22,0,0,1-12.44-4.31c-2.78-1.65-5.29,2.67-2.53,4.32Z"/><path class="cls-1" d="M258.11,286.58a13.43,13.43,0,0,0-4.28,7.06,10.17,10.17,0,0,0,1.31,6.94c2.47,4.25,7.05,7.12,11.27,9.39,2.16,1.16,4.38,2.19,6.62,3.2a2.58,2.58,0,0,0,3.42-.9,2.51,2.51,0,0,0-.9-3.42,73.18,73.18,0,0,1-10.8-5.69,20.3,20.3,0,0,1-4.48-3.9l-.28-.35s.22.29.06.06l-.37-.54a6.32,6.32,0,0,1-.33-.56l-.15-.27c0-.06-.28-.59-.14-.27s-.1-.28-.13-.37-.12-.39-.17-.59-.13-.68-.08-.36,0-.45,0-.57,0-.48,0-.72c0,.51,0-.08.07-.28s.14-.49.22-.74c.15-.45,0-.15,0-.05a3.42,3.42,0,0,1,.21-.43,10.6,10.6,0,0,1,2.44-3.1c2.33-2.23-1.21-5.77-3.53-3.54Z"/><path class="cls-1" d="M249.08,309.35a14.45,14.45,0,0,0,4.59,2.85,52.3,52.3,0,0,1,5.3,3.26,14.31,14.31,0,0,0,6.32,2.38,11.51,11.51,0,0,0,6.34-1.73c2.83-1.53.31-5.85-2.52-4.32a9.58,9.58,0,0,1-2.29,1,6,6,0,0,1-1.41.11,12.5,12.5,0,0,1-4.81-2.29,34.74,34.74,0,0,0-4.4-2.69c-.68-.32-1.37-.63-2-1a11.12,11.12,0,0,1-1-.62c-.34-.23.21.2-.09-.06-.15-.13-.28-.27-.42-.41-2.19-2.36-5.72,1.18-3.53,3.54Z"/><path class="cls-1" d="M245.29,317.31c3.1,3.15,7.22,4,11.15,5.67,2,.85,3.93,2.06,6.11,2.54a9.68,9.68,0,0,0,7.29-1.24c2.74-1.68.23-6-2.53-4.32a4.81,4.81,0,0,1-4.4.47c-1.79-.58-3.42-1.58-5.16-2.28-3.09-1.24-6.51-1.92-8.92-4.37-2.26-2.3-5.8,1.24-3.54,3.53Z"/><path class="cls-1" d="M239.82,326.87c2.9,1.44,5.53,3.28,8.63,4.31a47.41,47.41,0,0,0,9.57,2.47,19.66,19.66,0,0,0,6.91-.64c2.28-.57,4.81-1.53,6.41-3.35a2.55,2.55,0,0,0,0-3.53,2.53,2.53,0,0,0-3.54,0,4.68,4.68,0,0,1-1.83,1.28,18,18,0,0,1-5.5,1.29c-.48,0-1,0-1.43,0l-.65,0c-.44,0,.54.11-.15,0a61.87,61.87,0,0,1-8.46-2.31c-2.66-.88-4.94-2.57-7.43-3.81-2.87-1.44-5.41,2.87-2.53,4.32Z"/><path class="cls-1" d="M272.58,327.56c.1-.33.23-.66.34-1a7.93,7.93,0,0,0,.33-1.68,4,4,0,0,0-.44-2.16,3.35,3.35,0,0,0-.63-.86,4.86,4.86,0,0,0-.66-.54l-.29-.18a2.7,2.7,0,0,0-1.93-.25,2.56,2.56,0,0,0-1.49,1.15,2.5,2.5,0,0,0,.9,3.42,1.67,1.67,0,0,1,.28.18l-.5-.39a1.75,1.75,0,0,1,.24.23l-.39-.5a1.75,1.75,0,0,1,.16.27l-.26-.6a1.2,1.2,0,0,1,.1.37l-.09-.67a2.18,2.18,0,0,1,0,.57l.09-.66a12.24,12.24,0,0,1-.58,2,2.5,2.5,0,0,0,3.67,2.83,2.66,2.66,0,0,0,1.15-1.5Z"/><path class="cls-1" d="M270.83,324.28a7.37,7.37,0,0,0,3.69-5.1,7.57,7.57,0,0,0-1.59-6.6,2.5,2.5,0,0,0-3.53,0,2.56,2.56,0,0,0,0,3.54l.17.2-.39-.5a5,5,0,0,1,.49.84l-.25-.6a5.12,5.12,0,0,1,.33,1.22l-.09-.67a6,6,0,0,1,0,1.58l.09-.67a6.27,6.27,0,0,1-.42,1.54l.25-.6a6,6,0,0,1-.65,1.12l.39-.5a5,5,0,0,1-.82.84l.5-.39a5,5,0,0,1-.69.43,2.52,2.52,0,0,0-.9,3.42,2.57,2.57,0,0,0,3.42.9Z"/><path class="cls-2" d="M276.33,310.9a42.8,42.8,0,0,0,8.87-4.82c3.54-2.35,7.11-5,9.68-8.4,2.3-3.08,2.73-7.08-.75-9.47-4.35-3-10-1.1-14.24,1.11-5,2.63-9.22,6.54-14.18,9.23-2.83,1.54-.31,5.86,2.52,4.32,3.85-2.09,7.24-5,10.94-7.34a30.83,30.83,0,0,1,6.16-3.19,15.08,15.08,0,0,1,2.6-.64,5.5,5.5,0,0,1,2.37.18,2.21,2.21,0,0,1,.93.4l.31.19c.51.32-.41-.34,0,0,.12.1.21.22.32.33-.42-.45-.22-.27-.11-.09s.12.45-.06-.17c.1.33,0,.62.06,0,0,.28-.16.86.05.16-.08.26-.14.53-.22.8s.29-.56,0-.08c-.08.16-.15.31-.24.46-.18.33-.39.63-.6.94-.37.54.34-.4-.09.13l-.4.48c-.24.27-.49.54-.75.8a27.14,27.14,0,0,1-2.08,1.94c-.63.55-1.37,1.14-1.76,1.43-.79.59-1.59,1.16-2.4,1.72q-2.46,1.67-5.05,3.11c-.71.4-1.43.79-2.16,1.14-.27.14-.56.25-.82.39-.45.23.57-.19.12-.05l-.4.15a2.58,2.58,0,0,0-1.75,3.08,2.53,2.53,0,0,0,3.08,1.74Z"/><path class="cls-2" d="M262.74,293.26c5.17-3.34,9.32-8,14.55-11.25a19.14,19.14,0,0,1,8.54-2.89c2-.19,3.95-.23,5.92-.42s4.06-.65,6.1-1c3.36-.66,6.74-.77,10.13-1.14,1.13-.13,2.26-.29,3.39-.33h.77c.14,0,.73.06.31,0,.23,0,.45.1.67.15,0,0,.37.14.11,0s.14.08.18.11,0,0,0,.06a1,1,0,0,1,.12.43c0,.13,0,.93.05.65a4.25,4.25,0,0,1-.2.72c.12-.39-.19.21.08-.13-.1.12-.47.47-.15.21a3.29,3.29,0,0,1-.68.4c-.25.13,0,0,.06,0a2.42,2.42,0,0,1-.35.12c-.24.06-.48.14-.72.19a5.64,5.64,0,0,1-1.29.19c-1.08.09-2.16.09-3.25.11-7.69.15-15.88.42-22.65,4.5-2.75,1.67-.24,6,2.53,4.32,6.15-3.71,13.76-3.71,20.74-3.83,2.54,0,5.26-.09,7.56-1.31a6.59,6.59,0,0,0,3.05-7.63c-.81-3-3.57-4.24-6.46-4.27a29.82,29.82,0,0,0-3.53.29c-1.68.2-3.37.25-5.05.41-4.29.41-8.46,1.6-12.75,1.92-3.94.29-7.95.31-11.67,1.82-7.25,2.94-12.22,9.15-18.68,13.32-2.69,1.74-.19,6.07,2.53,4.32Z"/><path class="cls-2" d="M293,289.61l.33-.21c.08-.06.46-.22.06,0s.34-.09.49-.12c.36-.08.32.09-.09,0a1.67,1.67,0,0,0,.38,0H295c.31,0,.61,0,.92.07s.2,0-.06,0a4.85,4.85,0,0,1,.53.08c.66.11,1.32.24,2,.38,2.62.53,5.5,1.33,8.16.59a2.53,2.53,0,0,0,1.75-3.07,2.56,2.56,0,0,0-3.08-1.75l-.38.1c-.46.13.61,0,.12,0l-.81,0-.87,0a2.28,2.28,0,0,1-.5-.06c0,.06.61.09.07,0-1.35-.23-2.69-.53-4-.79-2.64-.5-6-1.1-8.36.6a2.55,2.55,0,0,0-.89,3.42,2.52,2.52,0,0,0,3.42.89Z"/><path class="cls-2" d="M302.48,296.54l.48.17c.55.19-.51-.24,0,0,.26.12.51.23.76.36.55.28,1.09.6,1.61.93,1,.63,2,1.32,2.94,2,1.8,1.23,4,2.6,6.26,2,2.73-.74,4.16-4,3.67-6.6-.44-2.37-2.4-4.09-4.25-5.42s-3.68-2.14-5.46-3.32a2.52,2.52,0,0,0-3.42.9A2.56,2.56,0,0,0,306,291c1.39.92,2.9,1.65,4.32,2.55l1.08.72a2.13,2.13,0,0,0,.34.25s-.48-.38-.17-.13l.58.49c.31.29.59.59.87.9s-.16-.19-.16-.21.19.26.21.3.19.34.29.51c.22.38-.16-.6-.08-.17a1.66,1.66,0,0,0,.06.21c0,.07,0,.15.05.22.13.42,0-.65,0-.22,0,.12,0,.75,0,.23s-.12.23-.14.37c.08-.54.2-.41.06-.16l-.17.3-.14.22c-.23.38.37-.37.15-.19a1.14,1.14,0,0,0-.19.19c-.2.25.23-.19.28-.2a1.23,1.23,0,0,0-.25.14c.06-.07.7-.25.27-.12s.65,0,.17,0,.48.14.15,0l-.5-.13a.84.84,0,0,0-.2-.08l.28.12L313,297a16.65,16.65,0,0,1-2.28-1.41,28.46,28.46,0,0,0-6.88-3.88,2.51,2.51,0,0,0-3.07,1.75,2.56,2.56,0,0,0,1.74,3.07Z"/><path class="cls-2" d="M312.87,303.8a15.31,15.31,0,0,0,3,4.17,8.66,8.66,0,0,0,5.49,2.91c2.63.16,4.62-2.08,5.31-4.42.76-2.58-.41-5.13-2.13-7a14.1,14.1,0,0,0-6.11-3.88,2.5,2.5,0,0,0-1.33,4.82l.49.17.22.09c.28.1-.66-.3-.29-.12s.76.36,1.13.58.68.41,1,.64l.24.18c.38.27-.49-.4-.13-.11l.54.46a9.88,9.88,0,0,1,.9.93c.12.15.34.5-.1-.15l.13.18c.14.2.27.4.39.61s.33.88.06,0c.05.17.12.33.17.5s.05.21.07.31c.11.43-.05-.69,0-.25,0,.21,0,.41,0,.63,0,.44.14-.68,0-.25,0,.07,0,.15-.05.22s-.07.21-.1.32c-.14.43.28-.58.06-.16-.09.17-.17.35-.27.51s-.13.18-.18.27c.33-.57.32-.39.15-.2l-.19.2c-.19.2-.36.12.24-.17a2.39,2.39,0,0,0-.34.21c-.32.19.66-.21.31-.14l-.15,0c-.24.08-.46-.05.37,0l-.3,0h-.16c-.38,0,.73.15.36.05l-.39-.1-.24-.08c-.37-.12.63.31.28.12l-.48-.25-.39-.26-.24-.16c-.34-.24.52.42.2.15s-.56-.48-.83-.74-.62-.64-.9-1l-.39-.47c.59.72.12.14,0,0a12.36,12.36,0,0,1-1.1-1.85,2.51,2.51,0,0,0-1.5-1.15,2.5,2.5,0,0,0-2.82,3.67Z"/><path class="cls-2" d="M302.9,300.5a14.37,14.37,0,0,0-1.46,6.21,10.58,10.58,0,0,0,1.26,5.17,5.26,5.26,0,0,0,4.3,2.82c2.09.08,3.72-1.43,4.86-3a15.88,15.88,0,0,0,1.82-3.58,33.56,33.56,0,0,0,1.47-5,2.5,2.5,0,1,0-4.82-1.33,31.34,31.34,0,0,1-1.66,5.44l.25-.6a12.46,12.46,0,0,1-1.49,2.7l.39-.51a5.86,5.86,0,0,1-1,1l.51-.39a4,4,0,0,1-.69.41l.59-.25a2.46,2.46,0,0,1-.59.16l.66-.09a2.09,2.09,0,0,1-.5,0l.66.09a1.94,1.94,0,0,1-.51-.14l.6.25a2.62,2.62,0,0,1-.51-.3l.51.39a3.41,3.41,0,0,1-.6-.6l.39.51a5.48,5.48,0,0,1-.64-1.13l.25.6a7.67,7.67,0,0,1-.53-2l.09.67a10.39,10.39,0,0,1,0-2.84l-.09.66a12.09,12.09,0,0,1,.8-2.94l-.25.6.21-.48a2.75,2.75,0,0,0,.26-1.93,2.56,2.56,0,0,0-1.15-1.49,2.53,2.53,0,0,0-3.42.9Z"/><path class="cls-2" d="M303.7,301.76c-1.43.6-3.9,0-5.54-.16a32.83,32.83,0,0,0-6,0c-4,.24-8.46-.08-12.18,1.81a2.5,2.5,0,1,0,2.53,4.31,3.88,3.88,0,0,1,.79-.3c.44-.13.89-.23,1.34-.32a23,23,0,0,1,2.66-.28c2-.13,4-.11,6-.3,4.34-.43,8.74,1.31,12.91-.46a2.51,2.51,0,0,0,.9-3.42,2.56,2.56,0,0,0-3.42-.89Z"/><path class="cls-1" d="M330.48,375.2c-.13.48-.28.94-.45,1.4s.11-.18-.13.32c-.09.19-.18.38-.28.57A18.94,18.94,0,0,1,328.1,380a21,21,0,0,1-1.69,2.1c-.69.79-1.43,1.54-2.18,2.27-2.9,2.81-6.12,5.25-9.21,7.84a2.51,2.51,0,0,0,0,3.53,2.55,2.55,0,0,0,3.54,0c6.38-5.33,14.42-10.74,16.74-19.22a2.5,2.5,0,1,0-4.82-1.33Z"/><path class="cls-1" d="M359.25,378.29c-1.39,2.92-3.68,5.25-5.25,8.06-1.73,3.13-2.82,6.58-4.5,9.73-2.83,5.3-4.94,11.39-9,15.93-2.13,2.4,1.39,5.95,3.53,3.54,4.3-4.82,6.49-10.94,9.54-16.53,1.72-3.16,2.86-6.59,4.53-9.77,1.56-3,4-5.39,5.45-8.43a2.56,2.56,0,0,0-.9-3.42,2.52,2.52,0,0,0-3.42.89Z"/><path class="cls-1" d="M339.12,413.78a41,41,0,0,1-2.31,9.43c-.88,2.61-1.55,5-3.54,6.79-3.44,3.09-8.93,3.9-13.46,5.19-3.09.88-1.77,5.7,1.33,4.82,5.48-1.56,11.58-2.61,15.88-6.67,2.43-2.3,3.43-5.34,4.48-8.42a47,47,0,0,0,2.62-11.14,2.5,2.5,0,0,0-5,0Z"/><path class="cls-1" d="M315.11,390.48c-4.54-.49-8.37,2-10.87,5.61A65.35,65.35,0,0,0,301,402c-1.25,2.28-2.57,4.52-3.84,6.8a2.5,2.5,0,1,0,4.32,2.52c1.14-2,2.32-4.06,3.45-6.11s1.95-4,3.1-5.84c.22-.37.46-.72.7-1.07s-.07.07.11-.13.29-.35.45-.52a10.46,10.46,0,0,1,.89-.87c.08-.07.6-.45.19-.16l.46-.31a8,8,0,0,1,1.08-.58c-.4.17.11,0,.25-.07a4.94,4.94,0,0,1,.55-.15l.57-.12c-.52.09.24,0,.29,0a8.59,8.59,0,0,1,1.52.06,2.5,2.5,0,0,0,0-5Z"/><path class="cls-1" d="M314,399.6c-3.1,3.14-6.25,7.1-9.63,9.54-3.75,2.71-7.72,3.46-12.42,3.14a2.5,2.5,0,0,0,0,5c5.21.36,10.41-.6,14.72-3.66,4.12-2.93,7.34-6.91,10.87-10.49,2.26-2.29-1.27-5.83-3.54-3.53Z"/><path class="cls-1" d="M289.52,413.69a7.16,7.16,0,0,0-1.33,2.36,6.84,6.84,0,0,0-.21,1.28,4.54,4.54,0,0,0,0,.74,9.79,9.79,0,0,0,.37,2c.22.69.51,1.35.8,2a2.48,2.48,0,0,0,1.49,1.14,2.55,2.55,0,0,0,1.93-.25,2.46,2.46,0,0,0,1.15-1.49l.09-.67a2.53,2.53,0,0,0-.34-1.26c0-.08-.07-.17-.11-.25l.25.6a9.38,9.38,0,0,1-.69-2.26l.09.67a4.26,4.26,0,0,1,0-1.07l-.09.66a3.44,3.44,0,0,1,.22-.82l-.25.6a4.37,4.37,0,0,1,.51-.89l-.39.5.07-.08a1.83,1.83,0,0,0,.51-.8,1.88,1.88,0,0,0,.22-1,2.49,2.49,0,0,0-2.5-2.5,2.38,2.38,0,0,0-1.77.73Z"/><path class="cls-1" d="M293,424.33c5.56-.31,11.79.62,17-1.61a27.37,27.37,0,0,0,6.45-4.19,36.6,36.6,0,0,0,5.11-5,2.57,2.57,0,0,0,0-3.53,2.52,2.52,0,0,0-3.54,0c-2.59,3.16-6.26,6.58-9.94,8.14a20.37,20.37,0,0,1-6.89,1c-2.75.09-5.5,0-8.24.16-3.2.18-3.22,5.18,0,5Z"/><path class="cls-1" d="M290.47,422.25a6.83,6.83,0,0,0-.8,1.68,6.24,6.24,0,0,0-.29,1.82,7.89,7.89,0,0,0,.13,1.18,3,3,0,0,0,.14.59,6.42,6.42,0,0,0,.48,1.11,7.2,7.2,0,0,0,.73,1,2.51,2.51,0,0,0,3.54,0,2.51,2.51,0,0,0,.73-1.77l-.09-.67a2.5,2.5,0,0,0-.64-1.1l-.09-.11.39.51a4,4,0,0,1-.4-.69l.25.6a3.36,3.36,0,0,1-.22-.81l.09.66a3.43,3.43,0,0,1,0-1l-.09.66a4.54,4.54,0,0,1,.28-1l-.25.6a4.46,4.46,0,0,1,.43-.77,2.5,2.5,0,0,0-.9-3.42,2.49,2.49,0,0,0-1.92-.25l-.6.25a2.5,2.5,0,0,0-.9.9Z"/><path class="cls-1" d="M294,431.71c11.48.37,23.51-.3,32.64-8.11a2.5,2.5,0,0,0-3.54-3.54c-8,6.85-19.13,7-29.1,6.65-3.21-.1-3.21,4.9,0,5Z"/><path class="cls-1" d="M296.23,430.8a7,7,0,0,0-1.79,2.74,4.25,4.25,0,0,0-.21,1.42,4,4,0,0,0,.23,1.32,5.2,5.2,0,0,0,1,1.64,5.49,5.49,0,0,0,1,.89,6.48,6.48,0,0,0,2.13,1,11.31,11.31,0,0,0,1.63.27,6.21,6.21,0,0,0,1.14,0,2.64,2.64,0,0,0,1.77-.73,2.52,2.52,0,0,0,.73-1.77,2.49,2.49,0,0,0-2.5-2.5,6.43,6.43,0,0,1-1.24,0l.66.09a5.81,5.81,0,0,1-1.47-.39l.6.25a4.2,4.2,0,0,1-.95-.53l.5.39a3.45,3.45,0,0,1-.51-.5l.39.5a2.18,2.18,0,0,1-.29-.49l.25.6a1.85,1.85,0,0,1-.13-.5l.09.66a1.93,1.93,0,0,1,0-.48l-.09.66a2.66,2.66,0,0,1,.17-.63l-.25.6a4.12,4.12,0,0,1,.48-.81l-.39.51a7.59,7.59,0,0,1,.6-.66,2.57,2.57,0,0,0,.73-1.76,2.49,2.49,0,0,0-2.5-2.5,2.66,2.66,0,0,0-1.77.73Z"/><path class="cls-1" d="M301.68,440.35c8.27-2.76,17-4.21,24.76-8.31,2.85-1.5.32-5.82-2.53-4.32-7.36,3.89-15.72,5.19-23.56,7.8-3,1-1.73,5.85,1.33,4.83Z"/><path class="cls-1" d="M310.74,441.35c.47-.12.94-.21,1.41-.29.29-.05.27-.05,0,0l.31,0,.72-.06c.94-.07,1.88-.09,2.83-.1a34.71,34.71,0,0,0,6.19-.51,2.53,2.53,0,0,0,1.75-3.08,2.58,2.58,0,0,0-3.08-1.75,4.55,4.55,0,0,1-.82.15c.61,0-.06,0-.16,0-.49.05-1,.08-1.46.11-.95,0-1.9.05-2.84.07a25.76,25.76,0,0,0-6.13.66,2.5,2.5,0,0,0,1.33,4.82Z"/><path class="cls-1" d="M321,358.83c-2.84,6.09-7,12.1-5.85,19.17a5.52,5.52,0,0,0,4.29,4.84c2.37.44,4.7-.49,6.84-1.41,1-.44,2-.92,3.06-1.39l.71-.32.35-.16s-.3.12,0,0c.69-.29,1.4-.53,2.12-.76a42.43,42.43,0,0,1,11.44-2.08,56.92,56.92,0,0,1,22.55,4.05,25.45,25.45,0,0,1,14.24,13.78,2.52,2.52,0,0,0,3.42.9,2.55,2.55,0,0,0,.9-3.42,29.82,29.82,0,0,0-12.35-13.8,44.94,44.94,0,0,0-9.6-3.89A64.16,64.16,0,0,0,352,372.05a48,48,0,0,0-22.38,2.49c-1,.37-1.93.8-2.88,1.24s-2.23,1-2.84,1.29a14.45,14.45,0,0,1-2.8.88c-.69.13.49,0-.18,0h-.4c-.65,0,.53.09-.08,0-.26-.08-.23-.06.1.07a3.07,3.07,0,0,1-.31-.17c.66.58-.26-.4.24.25a2.5,2.5,0,0,1-.21-.35v0A4.47,4.47,0,0,1,320,376a15.18,15.18,0,0,1,.76-4.91c1.08-3.44,3.08-6.51,4.6-9.76a2.57,2.57,0,0,0-.9-3.42,2.52,2.52,0,0,0-3.42.89Z"/><path class="cls-1" d="M358.06,132.94a31.31,31.31,0,0,1,5.46,1.28c2.21.71,4.39,1.55,6.53,2.48a135.41,135.41,0,0,1,13.55,6.85,42.07,42.07,0,0,1,10.61,8.14A64.35,64.35,0,0,1,403.09,165a116.29,116.29,0,0,1,11.79,33.89c2.34,13.18,2.78,26.6,4.92,39.81,1,6.37,2.75,12.69,2.46,19.19a50.11,50.11,0,0,1-1.72,9.69c-.84,3.45-1.74,6.89-2.51,10.36-1.54,6.92-3,13.86-4,20.88a70.28,70.28,0,0,0-.94,10.83c0,3.47.35,6.94.25,10.41-.17,6.26-2.68,11.93-5,17.64a82,82,0,0,0-5.12,18.61c-1,6.47-1.75,13.05-2.3,19.59-.49,5.85-.31,11.75-1,17.59a35.75,35.75,0,0,1-1.9,8.1c-.8,2.15-2,4.65-3.89,6a5.39,5.39,0,0,1-4.48.72,37.18,37.18,0,0,1-6.4-2.19,30.11,30.11,0,0,0-5.81-2,59.56,59.56,0,0,0-6-.67c-4.14-.3-8.34-.27-12.27-1.32-.32-.08-.64-.19-1-.29-.05,0-.77-.31-.26-.08-.13-.06-.27-.12-.39-.19s-1-.64-.46-.25a1,1,0,0,1-.26-.24c-.21-.52.28.44,0,0-1.67-2.74-6-.23-4.32,2.53,2,3.35,6.81,3.82,10.32,4.22,2.26.26,4.53.39,6.8.54,1,.06,2.06.13,3.09.22s2.08.19,2.84.31c4.4.7,8.23,3.26,12.58,4.2a11.54,11.54,0,0,0,6.56-.23,12.34,12.34,0,0,0,6-5.47c3.15-5.25,4.09-11.51,4.51-17.52s.48-12.13,1.12-18.19a183.38,183.38,0,0,1,2.93-20.62c1.45-6.48,4.2-12.35,6.49-18.53a41.1,41.1,0,0,0,2.35-9.24,67.33,67.33,0,0,0,.06-11c-.28-7.38.94-14.62,2.36-21.84s3.09-14.23,4.82-21.32a59.63,59.63,0,0,0,1.94-10.77,47.69,47.69,0,0,0-.64-9.91c-1-6.84-2.46-13.58-3.24-20.47s-1.36-13.85-2.23-20.76a139.77,139.77,0,0,0-3.92-20.69,126.31,126.31,0,0,0-6.42-17.11c-4.5-10-10.31-20.64-19.59-27a101,101,0,0,0-12.34-7,95,95,0,0,0-14.66-6.13,30.71,30.71,0,0,0-6.14-1.26,2.51,2.51,0,0,0-2.5,2.5,2.56,2.56,0,0,0,2.5,2.5Z"/><path class="cls-1" d="M151.68,312.67c-3.46,4.19-1.66,9.31-2.37,14.19-.76,5.26-5.1,9.37-7.13,14.13a65.15,65.15,0,0,0-4.55,17.12c-.82,6.19-.93,12.53-1.28,18.77-.42,7.33-.73,14.67-.5,22,.09,3.21,5.1,3.23,5,0-.2-6.37,0-12.75.34-19.12s.59-12.57,1.12-18.82a61.85,61.85,0,0,1,3.55-15.77c1.84-5,5.45-9.07,7.41-14a20.44,20.44,0,0,0,1.12-8.25c0-2-.46-5.13.83-6.69a2.57,2.57,0,0,0,0-3.54,2.54,2.54,0,0,0-3.54,0Z"/><path class="cls-1" d="M133.15,395.75c-5.34,6.69-13.08,10.84-19.86,15.84a93.46,93.46,0,0,0-20,19.29c-2.7,3.67-5.15,7.53-7.8,11.23-2.48,3.48-5,6.88-7.79,10.16a114.58,114.58,0,0,1-19,17.91c-6.73,5.09-13.64,10.06-19.49,16.18a58.16,58.16,0,0,0-7.79,10.09,71.2,71.2,0,0,0-4.17,8.67c-2.44,5.75-4.77,11.56-6.63,17.53-1.79,5.75-3.58,12.2-2.85,18.28a12,12,0,0,0,3.28,7.33,18.5,18.5,0,0,0,10.48,4.9,97.64,97.64,0,0,0,11.6.58c4.72.14,9.33,1.23,14,1.43a27.3,27.3,0,0,0,7.64-.76c3.12-.77,1.8-5.59-1.33-4.82-4.68,1.16-9.42.33-14.12-.3a112.9,112.9,0,0,0-11.92-.64c-3.36-.09-7-.31-10-1.88a12,12,0,0,1-1.93-1.21,10.57,10.57,0,0,1-1-1c-.17-.17-.82-1-.44-.45a8.27,8.27,0,0,1-.74-1.29c.21.46,0,0-.07-.22s-.18-.58-.26-.88-.11-.55-.17-.83c0-.11,0-.22,0-.32-.06-.39,0,.4,0,0-.06-.67-.1-1.33-.1-2a30.37,30.37,0,0,1,.25-3.85,64.62,64.62,0,0,1,2-9,162.09,162.09,0,0,1,6.34-17.35l.18-.44s-.13.33,0,.07.23-.55.34-.82c.21-.5.43-1,.64-1.49.63-1.48,1.27-2.94,2-4.36a48.86,48.86,0,0,1,6.93-9.95c5.36-6,11.8-10.84,18.19-15.65a129.8,129.8,0,0,0,19.23-17.12,202.17,202.17,0,0,0,15.55-20.49,82.37,82.37,0,0,1,8.17-10.51,116,116,0,0,1,10-9.11c6.45-5.38,13.93-9.39,20.17-15a35.27,35.27,0,0,0,4-4.25,2.58,2.58,0,0,0,0-3.54,2.51,2.51,0,0,0-3.53,0Z"/><path class="cls-1" d="M253.34,419.51c-1.63,5.27-5.3,9.67-8.71,13.9-3.77,4.67-7.52,9.34-9.82,14.94a2.51,2.51,0,0,0,1.74,3.08,2.58,2.58,0,0,0,3.08-1.75c2.14-5.22,6-9.6,9.51-13.94,3.65-4.55,7.27-9.25,9-14.9,1-3.08-3.86-4.4-4.82-1.33Z"/><path class="cls-1" d="M225.79,406.45c0,14.91.57,29.81.67,44.72,0,3.29,0,6.56.26,9.84a86.39,86.39,0,0,1,.33,9.78,17.37,17.37,0,0,1-2,7.64,49.06,49.06,0,0,1-5.15,7.33c-8.34,10.38-14.33,22.17-20.73,33.77-6.61,12-14.66,23-21.63,34.74q-2.65,4.46-5,9.05A70.23,70.23,0,0,1,168,571.6a56.69,56.69,0,0,1-11.77,11.89c-2.27,1.8-4.61,3.52-6.93,5.26-2,1.5-3.83,2.9-6.28,3.54-5.07,1.34-10.64.36-15.72-.48-3-.48-5.92-1-8.91-1.39-2.55-.33-5.12-.42-7.68-.63a79.78,79.78,0,0,1-14.49-2.45c-9-2.45-17.27-7.16-22.7-14.92-3.26-4.66-5-9.95-7.31-15.12-2.43-5.55-5.1-11.08-6.25-17.07-1.21-6.35.39-12.68,1.51-18.92,1.24-6.91,2.59-13.8,4.15-20.65.75-3.27,1.54-6.54,2.4-9.79s-4-4.44-4.82-1.32c-1.85,7-3.42,14.11-4.82,21.24-1.38,6.95-2.9,14-3.71,21.05-.74,6.4.86,12.73,3.2,18.64,1.25,3.15,2.67,6.24,4,9.34,1.22,2.81,2.24,5.71,3.52,8.49a42,42,0,0,0,21.24,20.92,63.2,63.2,0,0,0,14.63,4.36c5.32.94,10.67,1.09,16,1.7,10.72,1.21,23.66,6,33.23-1.26,4.78-3.62,9.71-7.09,14.12-11.16a48.9,48.9,0,0,0,11-14.54c6.22-12.76,14.59-24.2,22.06-36.22,7.34-11.82,13.06-24.58,20.83-36.13,3.44-5.11,8-9.59,10.89-15,3.2-6,2.82-12.56,2.38-19.1-.48-7.1-.33-14.22-.45-21.34-.14-7.57-.33-15.14-.45-22.72,0-3.78-.09-7.57-.09-11.35,0-3.22-5-3.23-5,0Z"/></g></g></svg>