<svg xmlns="http://www.w3.org/2000/svg" viewBox="0 0 558.07 793.91"><defs><style>.cls-1{fill:#1b1464;}.cls-2{fill:#8cc63f;}</style></defs><title>aikido1</title><g id="Capa_2" data-name="Capa 2"><g id="Capa_1-2" data-name="Capa 1"><path class="cls-1" d="M245.24,422.25a29.73,29.73,0,0,1,3.4.13l-.67-.09c1.89.26,3.64,1,5.49,1.44a2.57,2.57,0,0,0,3.08-1.75,2.53,2.53,0,0,0-1.75-3.07c-1.53-.32-3-.93-4.52-1.27a22.93,22.93,0,0,0-5-.39,2.52,2.52,0,0,0-2.5,2.5,2.55,2.55,0,0,0,2.5,2.5Z"/><path class="cls-1" d="M240.71,360.45c-4.26-21.36-7.4-42.93-11.37-64.34-1.9-10.28-3.94-20.55-6.53-30.68-3-11.89-7.78-23.21-12.65-34.46-5.52-12.76-11.2-25.54-14.42-39.12-.74-3.13-5.57-1.8-4.82,1.33C196.68,217.49,210.21,239,217,263c2.83,10,4.86,20.26,6.8,30.47,2.12,11.15,4,22.33,5.91,33.51,2,11.62,3.89,23.24,6.2,34.8a2.5,2.5,0,0,0,4.82-1.33Z"/><path class="cls-1" d="M200.64,118.7c-13,2.55-26.29,7.16-37.07,15.09a50.58,50.58,0,0,0-13.21,14,72.09,72.09,0,0,0-7.71,17.87c-3.82,13-5.05,26.73-6.18,40.22q-2,23.25-5.1,46.33c-2.28,16.89-4.79,33.74-6.8,50.66-1,8.47-1.89,16.95-2.55,25.46a106.74,106.74,0,0,0,1.17,24c1.14,7.75,2.5,15.44,2.77,23.28.19,5.23.83,11,4.21,15.21,5.54,6.95,15.77,4.42,23.11,2.61,4.79-1.17,9.55-2.5,14.42-3.32A123,123,0,0,1,182.8,389c12.42-.51,24.85-.59,37.27-1,2.41-.09,4.82-.19,7.23-.33,3.2-.19,3.22-5.19,0-5-11.54.68-23.13.71-34.68,1-10.76.29-21.58.41-32.1,2.86-4.56,1.06-9.06,2.38-13.66,3.27a27.63,27.63,0,0,1-5.44.64c-.45,0-.91,0-1.36,0l-.66-.05c-.09,0-.81-.09-.19,0a12.56,12.56,0,0,1-2.4-.59c-.63-.21.46.23-.14-.05-.18-.09-.36-.17-.53-.27a9.49,9.49,0,0,1-1-.63c.46.33-.37-.33-.51-.46l-.36-.38c-.07-.07-.62-.76-.29-.32a12.56,12.56,0,0,1-2.27-5.39,54.3,54.3,0,0,1-.84-9.09c-.23-3.94-.71-7.85-1.27-11.75-1.08-7.52-2.5-15-2.83-22.6-.36-8.08.68-16.23,1.51-24.26,1.69-16.51,4-32.94,6.32-49.37s4.53-32.74,6-49.2c1.16-12.76,1.87-25.6,4.29-38.2,2.31-12,6.11-24.77,14.68-33.89,8.78-9.34,21.18-14.82,33.34-18.22,3-.84,6-1.54,9.05-2.14a2.5,2.5,0,0,0-1.33-4.82Z"/><path class="cls-1" d="M140.89,164.45c-3.17,9.33-7.58,18.19-11.1,27.39a94.67,94.67,0,0,0-4,13.06,47.73,47.73,0,0,1-4,11.7c-4.09,7.73-11,13.4-15,21.32-4.62,9.13-6.11,19.32-6.34,29.45-.25,11.25.92,22.49.34,33.74-.17,3.22,4.84,3.21,5,0,.51-9.95-.35-19.9-.38-29.85,0-9.63.69-19.59,4.61-28.52A55.43,55.43,0,0,1,118.29,230a80.88,80.88,0,0,0,6.93-9.26c4.5-7.49,5.32-16.27,8.2-24.37,3.68-10.37,8.75-20.2,12.29-30.61,1-3.06-3.79-4.37-4.82-1.33Z"/><path class="cls-1" d="M104.56,279.94a28.5,28.5,0,0,0-13.16-7.1,2.6,2.6,0,0,0-3.08,1.75,20.48,20.48,0,0,0-1.21,12.17,23.63,23.63,0,0,0,5.42,10.18c5.28,6.2,12.69,10.49,19.85,14.15,3.55,1.82,7.18,3.47,10.77,5.2a2.56,2.56,0,0,0,3.42-.89,2.52,2.52,0,0,0-.9-3.42c-6.44-3.12-13-6.05-19-9.87a47.39,47.39,0,0,1-8.83-6.84,21.82,21.82,0,0,1-5.37-8,16.45,16.45,0,0,1-.67-2.77c.06.44,0-.09,0-.2,0-.3,0-.59-.07-.89q0-.71,0-1.41a18.64,18.64,0,0,1,1.48-6l-3.07,1.74a23.5,23.5,0,0,1,11,5.81c2.36,2.18,5.9-1.34,3.54-3.53Z"/><path class="cls-1" d="M299.54,124.86a222.21,222.21,0,0,0,12.94-28.51A156.77,156.77,0,0,0,321,64.51c1.41-9.7,1.85-19.9-.86-29.42a45.59,45.59,0,0,0-11.72-19.85c-10.92-10.82-26.79-16-42-15.15-17.35,1-33.73,9.78-42.94,24.74-11.12,18.08-6.53,39.75,0,58.57.82,2.37,1.68,4.73,2.56,7.08a2.57,2.57,0,0,0,3.08,1.75,2.52,2.52,0,0,0,1.74-3.08c-6.45-17.3-13.34-37.33-6.24-55.52A45.11,45.11,0,0,1,241.87,13a49.28,49.28,0,0,1,20-7.45c13.44-2,28.69,1.47,39.4,10a41.07,41.07,0,0,1,12.55,16.52c3.23,8,3.67,16.73,3,25.26-.84,10.49-3.46,20.82-6.76,30.79a208.11,208.11,0,0,1-11.75,28.26q-1.5,3-3.1,5.94c-1.54,2.83,2.78,5.35,4.32,2.52Z"/><path class="cls-1" d="M263.3,77a31.94,31.94,0,0,0-.09-15.18c-1-4.4-3.56-9.63-8.48-10.56-5.7-1.07-11.78,3.56-14.32,8.36a20.68,20.68,0,0,0-.69,16.84c2.44,6.3,7.49,11.18,14.42,11.83a2.52,2.52,0,0,0,2.5-2.5,2.56,2.56,0,0,0-2.5-2.5,11.06,11.06,0,0,1-5.24-2.14,13.66,13.66,0,0,1-4-5.17,16.92,16.92,0,0,1-1.08-3,15.37,15.37,0,0,1-.53-3.14,14.27,14.27,0,0,1,.88-6.54,13.53,13.53,0,0,1,1.48-2.69,7.6,7.6,0,0,1,.85-1A11.75,11.75,0,0,1,248,58.31a16.35,16.35,0,0,1,2.94-1.78c.13-.05.87-.28,1.26-.38.2,0,.63-.1.17,0a7,7,0,0,1,.79,0,5.44,5.44,0,0,1,.57,0c-.65-.06,0,0,.15.06l.6.19c-.46-.16-.08,0,.14.09l.54.33c.38.24-.27-.26.07.06a11.82,11.82,0,0,1,.92,1c.31.35-.17-.28.09.12l.4.59c.26.43.49.87.7,1.31.05.11.33.77.15.32l.24.64c.18.51.35,1,.49,1.55a24,24,0,0,1,.95,6.87,32.52,32.52,0,0,1-.14,3.69l-.09.78c.07-.53,0,.25-.07.41-.1.53-.21,1.06-.35,1.59-.8,3.12,4,4.45,4.82,1.33Z"/><path class="cls-1" d="M303.08,68.88C301,75.12,300,81.64,297.67,87.8a2.53,2.53,0,0,0,1.75,3.08,2.56,2.56,0,0,0,3.07-1.75c2.29-6.16,3.36-12.68,5.41-18.92a2.5,2.5,0,0,0-4.82-1.33Z"/><path class="cls-1" d="M262.93,82.77c4,1.27,7.24-1.41,9.15-4.71,2.27-3.91,3.52-8.4,5.05-12.62a45.57,45.57,0,0,1,2.47-5.94,23.59,23.59,0,0,1,1.55-2.61l.19-.27c.23-.31-.23.29,0,0s.26-.32.4-.47a10,10,0,0,1,.93-.91,27.21,27.21,0,0,1,7.49-4.1,27.71,27.71,0,0,1,9-2.12c7.12-.2,12.65,5.82,19.83,5.47,3.2-.15,3.22-5.16,0-5-2.81.14-5.34-1-7.85-2.14A31.79,31.79,0,0,0,302,44.19c-6.45-.87-13.51,1.7-19,4.87a18.49,18.49,0,0,0-5.73,4.78,25.93,25.93,0,0,0-3,5.43c-1.86,4.33-3.19,8.86-5,13.22A5,5,0,0,1,269,73c-.11.25-.22.5-.34.75-.22.47-.45.93-.71,1.39a15,15,0,0,1-.8,1.32c-.11.17-.43.58-.11.19-.14.16-.27.32-.42.48s-.28.28-.42.43c-.42.43.15,0-.13.12s-.32.18-.46.28c-.42.29.31,0,0,0l-.51.13c-.24.09.28,0,.29,0s-.26,0-.39,0c-.34,0-.48-.11-.05,0-.23-.06-.46-.1-.68-.17-3.07-1-4.39,3.85-1.33,4.82Z"/><path class="cls-1" d="M238.46,76.39a22.46,22.46,0,0,1-2.32,3.92c-.13.18-.14.19,0,0-.14.17-.27.34-.41.5s-.45.55-.69.82c-.5.57-1,1.12-1.55,1.65-2.16,2.16-4.53,4.1-6.81,6.12a2.53,2.53,0,0,0,0,3.54,2.56,2.56,0,0,0,3.54,0c4.69-4.17,9.87-8.17,12.55-14a2.5,2.5,0,0,0-4.32-2.53Z"/><path class="cls-1" d="M226.05,90.48c.06.22.11.44.16.65.11.47,0-.2,0,.09s.05.68,0,1c0,.17,0,.34,0,.51.06-.62,0,0,0,.13-.08.33-.17.66-.28,1,0,.06-.24.59-.1.27s-.11.21-.14.27c-.17.35-.36.69-.56,1s-.4.61-.61.91l-.32.45c-.44.59.31-.36-.17.21-2.23,2.67-4.74,5.09-6.86,7.85a2.52,2.52,0,0,0,.9,3.42,2.56,2.56,0,0,0,3.42-.9c-.29.38.18-.22.19-.23.15-.19.31-.37.46-.55l.87-1c.6-.66,1.2-1.31,1.81-2a54.24,54.24,0,0,0,3.69-4.32c2.21-3,3.39-6.5,2.39-10.16a2.5,2.5,0,0,0-4.82,1.33Z"/><path class="cls-1" d="M293.87,123.69c-.2.39-.42.78-.65,1.16-.11.18-.23.35-.35.52-.37.55.33-.37-.09.12-.2.23-.41.47-.63.68l-.39.36c-.31.28.41-.21-.18.13-.28.16-.56.33-.85.48-.49.26.54-.16,0,0l-.3.1-.93.21c.79-.16-.35,0-.61,0s-1.09-.12-.33,0c-.34-.06-.67-.12-1-.2s-.69-.2-1-.32l-.52-.19c-.49-.19.42.2-.1,0-.73-.36-1.44-.73-2.13-1.15l-.89-.59-.54-.38c-.07,0-.79-.6-.38-.28A48.24,48.24,0,0,1,268,105.78l-.18-.43c.2.47-.16-.38-.19-.47-.19-.48-.37-1-.54-1.45a26.17,26.17,0,0,1-.75-2.58c-.11-.44-.19-.88-.27-1.31,0-.05-.09-.65,0-.21s0-.3,0-.37c0-.39,0-.78,0-1.16s.13-1.43,0-.56a2.6,2.6,0,0,0-1.75-3.08,2.52,2.52,0,0,0-3.08,1.75,20.53,20.53,0,0,0,1.71,10.41A54.08,54.08,0,0,0,269.35,118a48.82,48.82,0,0,0,8.9,9.7c3,2.37,6.36,4.45,10.24,4.74,4.33.32,7.81-2.49,9.7-6.19,1.46-2.86-2.85-5.39-4.32-2.52Z"/><path class="cls-1" d="M274,121.83l-.35.28s.27-.21,0,0l-.68.51c-.48.36-1,.71-1.45,1-1.1.79-2.21,1.57-3.32,2.35-2.46,1.75-4.91,3.53-7.24,5.45-4.24,3.51-8.59,7.89-10,13.39a14.71,14.71,0,0,0,1,9.77,2.52,2.52,0,0,0,3.42.9,2.57,2.57,0,0,0,.9-3.42,12.59,12.59,0,0,1-.75-2.83,13.94,13.94,0,0,1,0-1.71,6.45,6.45,0,0,1,.25-1.38,15.72,15.72,0,0,1,3.08-5.69c3.39-4.09,7.7-7.21,12-10.25,2.24-1.58,4.5-3.14,6.66-4.84a2.53,2.53,0,0,0,0-3.54,2.56,2.56,0,0,0-3.54,0Z"/><path class="cls-1" d="M201,124.27l.73.53c.32.23-.1-.1.31.24s1,.8,1.45,1.22c1,.86,1.9,1.77,2.8,2.71a65.14,65.14,0,0,1,5.26,6.36,127.29,127.29,0,0,1,10.2,17,214.11,214.11,0,0,1,15.09,38.61c.93,3.26,1.78,6.53,2.5,9.84.31,1.43.61,2.86.86,4.3q.19,1.07.36,2.13c.05.3.09.61.14.91l.06.44c-.06-.44,0,0,0,.21a2.57,2.57,0,0,0,2.5,2.5,2.51,2.51,0,0,0,2.5-2.5c-1.58-12.42-5.41-24.59-9.8-36.28-5-13.32-11-26.61-19.18-38.31-3.72-5.32-7.95-10.42-13.29-14.19a2.52,2.52,0,0,0-3.42.9,2.55,2.55,0,0,0,.9,3.42Z"/><path class="cls-1" d="M233.18,313.84c2.53-1,5.12-1.77,7.68-2.64a13.12,13.12,0,0,0,4.8-2.46,10.2,10.2,0,0,0,2.56-4.66,68.61,68.61,0,0,0,1.88-8.62c1.43-8.78.62-17.84,2.68-26.53,2.12-8.95,5-17.71,8-26.41,3.39-9.89,7-19.72,9.94-29.74.92-3.1-3.9-4.42-4.82-1.33-5.12,17.23-12,33.9-16.69,51.27a78.38,78.38,0,0,0-2.53,13.14c-.41,4.35-.48,8.72-.81,13.08a78.16,78.16,0,0,1-1.72,10.86c-.24,1.09-.49,2.17-.82,3.22-.09.27-.52,1.33-.23.7-.15.33-.33.64-.5,1s-.12.14,0,0c-.12.11-.23.25-.34.37s-.54.46-.18.18-.13.08-.22.13c-.33.19-.66.36-1,.52l-.14.05-.65.25c-2.73,1-5.51,1.79-8.22,2.82a2.58,2.58,0,0,0-1.75,3.08,2.52,2.52,0,0,0,3.08,1.74Z"/><path class="cls-1" d="M270.15,212.79a95.89,95.89,0,0,0-3.69-27.21,110.18,110.18,0,0,0-10.16-22.76c-4.41-7.73-9.34-15.15-13.79-22.86-4.66-8.07-9.15-16.23-14-24.2-5-8.3-10.38-16.67-17.18-23.65a2.55,2.55,0,0,0-3.93.51c-6.2,8.28-8.36,18.32-8.62,28.49-.08,3.22,4.92,3.22,5,0,.24-9.37,2.23-18.35,7.94-26l-3.93.51c5.77,5.92,10.38,12.9,14.73,19.9,4.87,7.85,9.36,15.93,13.94,24,4.33,7.58,9.05,14.92,13.51,22.42a118.82,118.82,0,0,1,10.63,21.84,89.41,89.41,0,0,1,4.53,29c0,3.21,5,3.22,5,0Z"/><path class="cls-1" d="M109.13,307c-3.21,3.7-6.45,7.85-7.61,12.72a20,20,0,0,0,1,11.56c1.74,4.78,4.17,9.29,6.26,13.92,2.44,5.42,4.6,11,6.9,16.43A134.42,134.42,0,0,0,125,380.26c1.69,2.73,6,.22,4.32-2.52-6.09-9.85-10-20.8-14.52-31.4-2-4.75-4.39-9.34-6.44-14.07-1.45-3.35-2.45-6.43-2.22-9.83a5.18,5.18,0,0,1,.16-1c.1-.45.21-.89.35-1.33a13.65,13.65,0,0,1,1.16-2.74,36.61,36.61,0,0,1,4.91-6.83,2.57,2.57,0,0,0,0-3.54,2.54,2.54,0,0,0-3.54,0Z"/><path class="cls-1" d="M87.8,290.11c0,11.44,1.25,23-.91,34.34a2.56,2.56,0,0,0,1.75,3.07,2.51,2.51,0,0,0,3.07-1.74C94,314,92.78,302,92.8,290.11c0-3.22-5-3.22-5,0Z"/><path class="cls-1" d="M135.51,394.55c-3.21,10-7.27,19.82-9,30.25a46.2,46.2,0,0,0-.21,15.43,23,23,0,0,0,3.49,8.56,54.76,54.76,0,0,0,6.81,8.73c2.27,2.35,5,4.77,8.19,5.72,2.71.8,5.85.11,7.19-2.57s1.43-5.92,1.52-8.85c.13-4,0-8-.12-12.05,0-1.82-.06-3.65,0-5.47,0-.73.09-1.45.16-2.18,0-.16.1-.47,0,.16,0-.16,0-.31.08-.47s.12-.53.2-.8c1-3.08-3.88-4.4-4.82-1.33a25.72,25.72,0,0,0-.64,7.58c0,3.39.15,6.78.18,10.17,0,1.63,0,3.28,0,4.91,0,.74-.07,1.49-.13,2.22l-.09.92c-.07.71,0-.33,0,.09,0,.17,0,.34-.08.51a13.38,13.38,0,0,1-.37,1.64c0,.12-.31.85-.14.45s-.19.3-.23.39c-.17.46.4-.36,0,0s.5-.42.07-.07.34-.09.06,0a1.92,1.92,0,0,1-.32.09c-.2,0-.53,0,.09,0h-.52c-.37,0,.44.15-.22,0l-.82-.24c-.07,0-.47-.19-.17-.06s-.27-.14-.27-.14q-.49-.25-1-.54c-.27-.16-.53-.34-.79-.52l-.49-.35-.09-.07c-.65-.52-1.27-1.08-1.87-1.66a44.93,44.93,0,0,1-6.17-7.42c-.81-1.2-1.58-2.43-2.27-3.71-.24-.46-.46-.93-.69-1.4s.13.5-.05-.16c-.11-.39-.24-.76-.34-1.15a36.18,36.18,0,0,1-.46-13.64c1.46-10.92,5.82-21.19,9.16-31.6,1-3.07-3.84-4.39-4.82-1.33Z"/><path class="cls-1" d="M153.94,438.46c.06-13.94-.78-28.95,5.06-42a2.58,2.58,0,0,0-.9-3.43,2.53,2.53,0,0,0-3.42.9c-6.25,14-5.68,29.55-5.74,44.51,0,3.21,5,3.22,5,0Z"/><path class="cls-1" d="M102,313A80.9,80.9,0,0,0,72.51,345c-6.9,13.34-10.57,28-12.51,42.86-4,30.61-.77,61.77,3.4,92.19,1.08,7.91,2.41,15.8,3,23.77a188.18,188.18,0,0,1-.59,31.49c-2.1,21.46-7.3,42.48-12.73,63.3s-11.23,41.45-15,62.6a317.21,317.21,0,0,0-4.35,56.83c0,7.07.69,14.73,4.59,20.84,4.44,7,12.19,10.07,20.08,11.26,18.58,2.83,37.68-4.06,56.05.65a37.56,37.56,0,0,1,12.75,6c2.61,1.89,5.11-2.45,2.53-4.32-16-11.54-35.84-7.77-54.15-6.77-8.6.47-18.42.65-26.28-3.43C43,739,40.13,732.91,39.2,726.13c-1-7.11-.26-14.35-.14-21.49a258.42,258.42,0,0,1,2.06-30.83c2.87-21,8.22-41.53,13.62-62,5.34-20.27,10.83-40.56,14.08-61.3,3.16-20.14,3.89-40.28,1-60.49-4.19-29.21-7.93-58.78-6.12-88.34C65.45,373.1,73,342.46,96,323.36a72.4,72.4,0,0,1,8.58-6.09c2.74-1.68.23-6-2.52-4.32Z"/><path class="cls-1" d="M255.07,155.1a56.57,56.57,0,0,0,7.55,6.44c.39.3.14.11.06,0l.36.29.79.65a18.23,18.23,0,0,1,1.36,1.28c.2.21.39.43.58.65.44.53-.17-.24.07.1.09.12.17.24.25.37a8.81,8.81,0,0,1,.47.77c.05.1.47,1,.31.58,1.51,3.52,1.1,7.51.87,11.27-.3,5.13-.7,10.26-1,15.39a134.91,134.91,0,0,0,0,17.18,2.56,2.56,0,0,0,2.5,2.5,2.53,2.53,0,0,0,2.5-2.5c-.8-10.49.23-21,.88-31.49.26-4.28.67-8.83-.73-13a15.45,15.45,0,0,0-5-7c-3-2.44-5.64-4.16-8.32-7.06-2.19-2.37-5.72,1.18-3.54,3.54Z"/><path class="cls-1" d="M267.85,181.71c.88,6.73,3.52,13.12,6.51,19.17a111.34,111.34,0,0,0,11.45,18.48,55.14,55.14,0,0,0,6.72,7.52c2.39,2.14,5.94-1.38,3.54-3.54-4.41-4-7.92-8.89-11.09-13.85A100.48,100.48,0,0,1,275.45,191c-.63-1.67-1.2-3.37-1.67-5.09-.21-.75-.4-1.5-.56-2.25-.09-.41-.17-.81-.24-1.22,0-.2-.17-1.08-.13-.76a2.57,2.57,0,0,0-2.5-2.5,2.52,2.52,0,0,0-2.5,2.5Z"/><path class="cls-1" d="M234,324.4c6,4.32,14,3.8,20.86,5.66,3.11.84,4.44-4,1.33-4.82-6.45-1.74-14.13-1.2-19.67-5.16A2.5,2.5,0,0,0,234,324.4Z"/><path class="cls-1" d="M238.81,458.67a18.48,18.48,0,0,0,9.16,4.92,10.89,10.89,0,0,0,10.25-3.25,2.5,2.5,0,1,0-3.54-3.54c-.26.29-.54.55-.82.83s.11-.06-.1.09l-.45.3c-.27.17-.56.29-.83.45s.37-.11-.07,0l-.49.16c-.29.08-.59.13-.89.19.62-.12,0,0-.14,0l-.41,0c-.34,0-.68,0-1,0-.49,0,.23.08-.06,0l-.51-.1a12,12,0,0,1-1.94-.57c-.1,0-.56-.24-.11,0l-.49-.23q-.45-.21-.87-.45c-.64-.36-1.25-.76-1.84-1.17-.19-.13-.2-.15,0,0l-.42-.34c-.3-.25-.59-.51-.87-.77a2.5,2.5,0,1,0-3.53,3.54Z"/><path class="cls-1" d="M248.83,452a18.11,18.11,0,0,0,16.64,3.15,2.5,2.5,0,1,0-1.33-4.82,17.86,17.86,0,0,1-1.75.43c-.1,0-1,.15-.45.08-.29,0-.59.06-.89.08a17.82,17.82,0,0,1-1.79,0c-.3,0-.59,0-.89-.06l-.44-.05c.26,0,.3,0,.11,0-.54-.12-1.09-.21-1.63-.36l-.85-.26c-.09,0-.94-.37-.44-.16a13.2,13.2,0,0,1-1.59-.81l-.76-.49-.37-.27c.21.16.19.15,0,0a2.55,2.55,0,0,0-3.54,0,2.52,2.52,0,0,0,0,3.53Z"/><path class="cls-1" d="M257.69,444.85a29.7,29.7,0,0,1,5.66,3.44l-.51-.39c.64.5,1.27,1,1.87,1.57a2.5,2.5,0,1,0,3.53-3.53,31.05,31.05,0,0,0-8-5.4,2.7,2.7,0,0,0-1.93-.26,2.5,2.5,0,0,0-1.74,3.08,2.39,2.39,0,0,0,1.14,1.49Z"/><path class="cls-1" d="M154.72,395.67c2.05,2.74,5.18,2.45,8.25,2.33a28.13,28.13,0,0,1,5.35,0c2,.29,3.75,1.25,5.7,1.58,4.36.72,8.49-.44,12.69-1.47a53.1,53.1,0,0,1,6-1.27,17.86,17.86,0,0,0,3.15-.68,9.92,9.92,0,0,1,2.46-.65c3.2-.18,3.22-5.18,0-5-1.92.11-3.56.9-5.41,1.27s-3.56.52-5.33,1c-3.73.94-7.67,2.34-11.55,2.07a24.65,24.65,0,0,1-5.08-1.32,16.77,16.77,0,0,0-5.55-.52l-4.07.16a11.18,11.18,0,0,1-1.83,0c.27,0-.41-.11-.47-.11-.4-.05-.16-.09,0,.18a2.58,2.58,0,0,0-3.42-.9,2.53,2.53,0,0,0-.9,3.42Z"/><path class="cls-1" d="M209.46,482.25c.06,3,.55,6,.89,9.05a29.88,29.88,0,0,1,.25,4.12,18.19,18.19,0,0,0,.21,4.6,22.15,22.15,0,0,1,.87,3.29c.11,1.63.31,3.24.57,4.85.45,2.81,1.35,5.57,1.72,8.38s-.36,5.38,0,8.08,1,5.45,1.18,8.23c.34,5.9-.3,11.84-.14,17.75a25.1,25.1,0,0,1-1.51,8.12c-.87,2.94-1.57,5.94-2.38,8.9-1.54,5.67-3.49,11.62-3.76,17.53s-1.69,11.4-2.91,17.13c-1.29,6.11-2.14,12.29-3.5,18.39-.67,3-.76,6.06-1.15,9.11s-.71,6.2-1,9.32c-.28,3-.84,5.91-1.24,8.86s-.8,6-1.36,8.92a38,38,0,0,0-.73,4.52c-.1,1.45,0,2.9,0,4.36,0,2.94-.87,5.83-1,8.79s-.13,6.16-.17,9.23a39.41,39.41,0,0,0,.52,8.82,29.72,29.72,0,0,1,.64,3.49,32.33,32.33,0,0,0,1,3.91c.26,1.22.11,2.53.33,3.78s.63,2.5.81,3.78c.2,1.44.16,2.89.39,4.34s.61,2.67.75,4a74.34,74.34,0,0,1,.08,9.08c-.05,2.93.15,5.87.06,8.79-.08,2.61-1.74,5.05-3,7.27a62.67,62.67,0,0,1-3.4,6.17,11.37,11.37,0,0,1-4.13,3.37c-5,2.61-10.45.12-15.72.21-5.67.11-11.26,2.41-16.57,4.2-2.87,1-5.71,2-8.49,3.22-2.1.89-4.13,2-6.28,2.75-1.64.57-3.54,1.19-4.91-.19a13.28,13.28,0,0,1-2.88-5,16.13,16.13,0,0,1-1.05-5.66c.07-3.22-4.93-3.22-5,0a21.46,21.46,0,0,0,4.49,13.19,8,8,0,0,0,5.84,3.33c2.48.17,4.91-.77,7.14-1.73a158.57,158.57,0,0,1,15.94-6.17,86,86,0,0,1,8.48-2.53,23.42,23.42,0,0,1,8.18,0,29.07,29.07,0,0,0,8.73.38,16.42,16.42,0,0,0,6.95-3.13c3.94-2.94,5.84-7.66,8.09-11.88a17.68,17.68,0,0,0,2.56-8.51c0-3-.1-5.92-.06-8.89a59.92,59.92,0,0,0-.26-9.66c-.2-1.33-.56-2.63-.75-4-.23-1.52-.18-3.05-.45-4.57-.2-1.19-.62-2.36-.76-3.55A20.64,20.64,0,0,0,201,698a19.06,19.06,0,0,1-.75-3.57c-.2-1.38-.63-2.71-.83-4.09a57,57,0,0,1-.11-9.24,79.11,79.11,0,0,1,.36-9.11c.2-1.5.59-3,.73-4.46s0-3.08,0-4.62c0-3.07.88-6.13,1.33-9.16.93-6.31,1.81-12.61,2.38-19,.28-3.12.76-6.24,1.07-9.36s1.18-6.09,1.75-9.13c1.16-6.24,2.27-12.45,3.66-18.64a72.82,72.82,0,0,0,1.58-9.28,62.85,62.85,0,0,1,1-8.55c1.41-6.15,3.17-12.22,4.75-18.33.77-3,1.93-5.8,2.08-8.91s-.13-6.07,0-9.1.31-6.08.23-9.12a55.58,55.58,0,0,0-1-8.63c-.5-2.81-.06-5.48-.11-8.3,0-3.05-1.12-6.11-1.67-9.1s-.41-5.85-1.38-8.58a9.23,9.23,0,0,1-.39-3.62,31.58,31.58,0,0,0-.22-4.86c-.34-3-.83-6-.89-9.05-.06-3.21-5.06-3.22-5,0Z"/><path class="cls-1" d="M118.74,580.53c0,6.64.27,13.28.54,19.91s.42,13.3.68,19.95.64,13.17.82,19.76.1,13.05.53,19.59c.24,3.67.47,7.34.61,11a55.31,55.31,0,0,0,1.23,10.89c.74,3.12,5.57,1.8,4.82-1.33a47.06,47.06,0,0,1-1-9.09c-.13-3.19-.29-6.36-.5-9.54-.44-6.53-.48-13-.61-19.55s-.52-13.18-.79-19.77-.4-13.14-.67-19.71c-.3-7.37-.62-14.74-.63-22.12,0-3.22-5-3.22-5,0Z"/><path class="cls-1" d="M231.06,495.21c0,6.56,3.28,12.29,4.22,18.66.23,1.54.32,3.09.6,4.62a34.7,34.7,0,0,1,.59,5.27c.08,3.34,1.19,6.49,1,9.85-.06,1.5-.19,3-.1,4.5a20.1,20.1,0,0,0,1.13,4.92,34.12,34.12,0,0,1,.61,5,39.45,39.45,0,0,0,1.33,5.35,46.85,46.85,0,0,1,1.18,4.81,23.53,23.53,0,0,1,.18,4.82,55.47,55.47,0,0,1-1.18,10.11c-1.48,6.8-4.43,13.1-7.18,19.45-2.88,6.63-5.11,13.47-7.55,20.27s-5.1,13.57-8,20.17c-.7,1.61-1.46,3.19-2.11,4.83a43,43,0,0,0-1.55,5.23c-.84,3.27-2.07,6.37-3.09,9.58-2.38,7.52-4.12,15.2-6.83,22.62-1.33,3.64-3,7.43-3.32,11.31-.16,1.78.17,3.67-.17,5.42s-1.26,3.31-1.1,5.21a2.57,2.57,0,0,0,2.5,2.5,2.52,2.52,0,0,0,2.5-2.5c-.12-1.37.62-2.57.92-3.88a25.93,25.93,0,0,0,.28-5.43c.06-3.34,1.52-6.66,2.65-9.76,2.41-6.65,4.26-13.4,6.2-20.19.93-3.23,2.05-6.37,3.14-9.55s1.61-6.72,3-9.91c2.87-6.71,5.71-13.42,8.32-20.24s4.65-13.66,7.37-20.34c2.64-6.46,5.82-12.71,7.84-19.41a57.87,57.87,0,0,0,2.07-10.53,41.69,41.69,0,0,0,.11-10.23c-.49-3.46-1.91-6.69-2.5-10.12-.29-1.66-.24-3.36-.56-5-.27-1.46-1-2.75-1.14-4.24-.13-1.84.08-3.69.12-5.54a27,27,0,0,0-.67-5.8,45.61,45.61,0,0,1-.44-5.08c-.16-2-.66-3.92-.93-5.89a55,55,0,0,0-.85-5.71c-.39-1.62-.89-3.21-1.4-4.79-1.08-3.36-2.19-6.73-2.19-10.3,0-3.22-5-3.22-5,0Z"/><path class="cls-1" d="M65.8,503.11a5.45,5.45,0,0,1,0,.7c0-.52,0,.12-.07.33-.14.67-.33,1.34-.53,2-.45,1.49-1,2.95-1.47,4.42a20.57,20.57,0,0,0-1,3.34,32.46,32.46,0,0,0-.23,3.68,27.21,27.21,0,0,1-.5,3.11c-.74,4.4-1.42,8.6-3.37,12.66a83.41,83.41,0,0,0-5.29,12.88c-1.33,4.56-2.58,9.1-4.15,13.59-.78,2.22-1.56,4.44-2.28,6.69a65.06,65.06,0,0,0-1.5,6.75,40.37,40.37,0,0,1-2.25,6.33c-.85,2.23-1.43,4.57-2.18,6.84-1.51,4.63-3.18,9.2-4.88,13.77-1.6,4.32-3.35,8.53-3.74,13.16a61.64,61.64,0,0,1-.93,6.48,46.28,46.28,0,0,0-1.23,6.89c0,1.06.12,2.17,0,3.23a19.82,19.82,0,0,1-.83,2.92c-.61,2.15,0,4.27-.52,6.4-1,4.29-1.15,8.7-2.19,13-1.08,4.46-2.7,8.74-4,13.13-.55,1.85-1,3.87-2.21,5.42A20.7,20.7,0,0,1,16.9,674c-2.83,2.22-5.12,4.94-7.76,7.37s-5.7,5.15-7.53,8.51c-4.09,7.49.2,16.4,6.21,21.49a44.83,44.83,0,0,0,5.44,3.84c1.78,1.1,3.5,2.31,5.29,3.39,3.26,2,7.3,2.39,11,2.55,1.75.08,3.51.07,5.26.09,3.22,0,3.22-5,0-5-3.44,0-7,.09-10.33-.68a12.16,12.16,0,0,1-4.35-1.89c-1.78-1.22-3.64-2.3-5.46-3.46a22.57,22.57,0,0,1-8-8c-1.61-2.9-2.55-6.41-1-9.52s4.47-5.55,7.05-7.94,4.84-5.06,7.62-7.25a22.25,22.25,0,0,0,3.62-3.3,16,16,0,0,0,2.81-5.52c1.35-4.22,2.83-8.43,4-12.7a64.72,64.72,0,0,0,1.46-6.42c.37-2.1.47-4.22.76-6.32.33-2.27,1.11-4.29,1-6.61a7.11,7.11,0,0,1,.21-2.68,24.26,24.26,0,0,0,.85-3.14,23.28,23.28,0,0,0,.12-3.44,15.41,15.41,0,0,1,.43-3.18c.46-2.14.9-4.29,1.23-6.45s.37-4.45.83-6.62a42.3,42.3,0,0,1,1.89-6c1.66-4.49,3.35-9,4.91-13.49s2.74-8.94,4.53-13.26a30.44,30.44,0,0,0,1.69-6.53,43.61,43.61,0,0,1,1.85-6.52c1.47-4.37,3.07-8.68,4.31-13.13a73.9,73.9,0,0,1,4.26-12.66c2-4.09,4-8,4.86-12.51.4-2.11.68-4.24,1.07-6.35a23.75,23.75,0,0,0,.46-3.37,19.56,19.56,0,0,1,.13-2.61c.54-2.72,1.82-5.3,2.56-8a10.8,10.8,0,0,0,.57-3.65,2.56,2.56,0,0,0-2.5-2.5,2.52,2.52,0,0,0-2.5,2.5Z"/><path class="cls-2" d="M215.42,425.25c-3-.29-5.56,1.06-8.32,1.83a34.26,34.26,0,0,1-8.51.91c-5.27.09-10.56-.55-15.83-.05-4.8.45-12.22,2-13.56,7.54a5.66,5.66,0,0,0,3.71,6.8c2.58.92,5.76.59,8.45.61,3.57,0,7.15,0,10.72-.11a29.27,29.27,0,0,0,9.91-1.59,2.56,2.56,0,0,0,1.74-3.07,2.52,2.52,0,0,0-3.07-1.75c-4.79,1.88-10.33,1.51-15.39,1.53q-4.16,0-8.31-.08c-.89,0-3.46.22-2.84-1.36s3.14-2.33,4.62-2.76a25.63,25.63,0,0,1,6.46-.91c4.54-.16,9.08.29,13.63.2a43.27,43.27,0,0,0,9-.94c2.53-.6,4.91-2.06,7.58-1.8a2.52,2.52,0,0,0,2.5-2.5,2.56,2.56,0,0,0-2.5-2.5Z"/><path class="cls-2" d="M429.81,113c-7.16-.95-13.68,2.79-19.11,7s-10.17,9.55-15.7,13.79c-14.25,10.88-32.5,13.85-48.27,21.69-28.27,14.05-45.22,42.51-55.35,71.34-2.88,8.21-5.18,16.62-7.95,24.87-3.22,9.58-6.75,19-10.39,28.48-3.56,9.22-7.22,18.4-10.79,27.62-3.66,9.43-7.12,18.93-11.17,28.2a126.73,126.73,0,0,1-9.45,18.31c-3.73,5.81-7.64,11.52-11,17.53-3,5.24-5.89,10.95-6.51,17-.55,5.32,2.15,9.56,5.45,13.48a102.32,102.32,0,0,0,14.13,13.23c4.74,3.84,9.64,7.49,14.62,11,12.81,9.06,26.7,18.92,42.42,21.88a39.15,39.15,0,0,0,11.53.58,2.56,2.56,0,0,0,2.5-2.5,2.52,2.52,0,0,0-2.5-2.5c-7.95.87-15.85-1.32-23.08-4.54a140.22,140.22,0,0,1-21.26-12.31c-10.12-6.88-20.22-14.06-29.14-22.47a68.26,68.26,0,0,1-6.14-6.47,19.89,19.89,0,0,1-3.22-5.22,10.63,10.63,0,0,1,0-5.71,36.77,36.77,0,0,1,2.9-7.93,158.29,158.29,0,0,1,10.28-17.33c3-4.65,6.3-9.25,8.67-14.28,8.39-17.72,14.9-36.28,22.06-54.52,7.1-18.08,14-36.22,19.59-54.84,8.39-27.93,22.24-56.69,47.25-73.33,14.14-9.4,31-12.68,46.05-20.16a79.26,79.26,0,0,0,18.71-13.13c5-4.59,10-9.73,16.26-12.52a15.85,15.85,0,0,1,8.67-1.31c1.34.18,2.5-1.28,2.5-2.5a2.57,2.57,0,0,0-2.5-2.5Z"/><path class="cls-2" d="M423.59,196.66c-3.8,8.72-6,17.93-8.25,27.13s-4.88,18-9,26.37a160.61,160.61,0,0,1-14.49,23.27c-5.38,7.34-11.19,14.36-16.47,21.79a290.45,290.45,0,0,0-26.44,45.6,357.36,357.36,0,0,0-18.59,49.8c-2.4,8.16-4,16.47-5.79,24.78-1.75,8-3.85,16.12-7.95,23.3a47.9,47.9,0,0,1-3.42,5.15,2.51,2.51,0,0,0,.9,3.42,2.56,2.56,0,0,0,3.42-.9c10.38-13.66,11.71-31.33,15.73-47.43,2.14-8.6,4.94-17.09,7.85-25.46s6-16.4,9.57-24.4A293.17,293.17,0,0,1,376,303c10.15-15,22.45-28.47,31.41-44.29a115.17,115.17,0,0,0,10.78-26c2.51-9.06,4.28-18.32,7.31-27.24.72-2.14,1.52-4.27,2.42-6.35a2.57,2.57,0,0,0-.9-3.42,2.53,2.53,0,0,0-3.42.9Z"/><path class="cls-2" d="M403.45,269.25c6.2-2.14,11.64-6.31,16.44-10.69A72.67,72.67,0,0,0,433.65,242a32.55,32.55,0,0,0,4-9.58,2.57,2.57,0,0,0-1.74-3.08A2.53,2.53,0,0,0,432.8,231c-1.17,5.55-4.53,10.65-8.14,15.14a71.81,71.81,0,0,1-14.58,13.92,46,46,0,0,1-4.23,2.64c-.65.35-1.3.68-2,1a17.37,17.37,0,0,1-1.76.7,2.56,2.56,0,0,0-1.75,3.07,2.53,2.53,0,0,0,3.08,1.75Z"/><path class="cls-2" d="M427.19,119c5.52,3,9.95,7.84,13.89,12.74A135.22,135.22,0,0,1,453.17,150a143.42,143.42,0,0,1,8.9,18,76,76,0,0,1,5.1,26.25,132.73,132.73,0,0,1-3.29,30.05,2.57,2.57,0,0,0,1.75,3.08,2.52,2.52,0,0,0,3.07-1.75c3.84-18.31,5.49-37.6-.59-55.64a127.8,127.8,0,0,0-9.29-20.13,149.05,149.05,0,0,0-12.33-19.25c-4.66-6.08-10-12.15-16.77-15.91-2.82-1.55-5.35,2.76-2.53,4.32Z"/><path class="cls-2" d="M544.14,105.85a69.72,69.72,0,0,0-3.67,10.83c-.51,1.83-1.06,3.65-1.72,5.43-.17.49-.36,1-.55,1.44-.05.12-.1.23-.14.35-.14.33.17-.41,0-.08s-.23.53-.35.79c-.49,1.09-1,2.15-1.6,3.2a66.22,66.22,0,0,1-11.55,14.84c-3.31,3.35-6.83,6.5-10.43,9.53-1,.8-1.93,1.6-2.91,2.39l-.8.65-.35.27c-.37.3.15-.1-.08.07a20.86,20.86,0,0,1-2.63,1.72c-.66.35.16,0-.29.14l-.66.2c-.09,0-.21,0-.3.07-.44.18.52,0,.07,0-.25,0-.51,0-.76,0-.64,0,.36.12-.29,0l-.76-.19c-.17-.06-.88-.36-.37-.13-.32-.14-.63-.3-.94-.47-3.76-2.07-6.92-5.44-10-8.54-2.28-2.27-5.82,1.26-3.54,3.54a63.59,63.59,0,0,0,10,8.72,10.8,10.8,0,0,0,7.27,2c2.49-.35,4.53-1.81,6.46-3.32,3.69-2.87,7.24-5.92,10.67-9.1a88.11,88.11,0,0,0,14.82-17,52.63,52.63,0,0,0,5.89-13c.61-2,1.14-4.09,1.74-6.12.29-1,.61-2,1-3,.18-.5.37-1,.57-1.49.28-.72-.08.15.13-.31l.38-.84a2.57,2.57,0,0,0-.9-3.42,2.53,2.53,0,0,0-3.42.9Z"/><path class="cls-2" d="M521.15,115.58a6.27,6.27,0,0,0-5.66-3.6,8.32,8.32,0,0,0-5.69,3.27,17.31,17.31,0,0,0-3.58,14.88,12.69,12.69,0,0,0,6.11,7.79c2.8,1.6,5.32-2.72,2.52-4.32-.28-.16-.55-.32-.81-.5s-.29-.19-.43-.29c.08.05.38.32,0,0a14,14,0,0,1-1.23-1.21l-.24-.28c.37.45.1.11,0,0s-.3-.45-.43-.69-.21-.42-.33-.63c-.21-.37,0,0,0,.12-.07-.17-.13-.33-.19-.5a11.15,11.15,0,0,1-.39-1.43c0-.21-.08-1-.06-.28,0-.29,0-.58-.07-.87a14.77,14.77,0,0,1,0-1.49c0-.27,0-.53.08-.79-.07.66,0-.14.07-.37a19.35,19.35,0,0,1,.88-3c.15-.39-.22.44.09-.17.09-.2.19-.4.29-.6a13.21,13.21,0,0,1,.77-1.31c.12-.2.27-.38.39-.57s-.33.38.07-.08a10.65,10.65,0,0,1,.93-1l.25-.22c.21-.21-.09,0-.2.15a1.22,1.22,0,0,1,.41-.29c.15-.1.31-.18.47-.27.59-.34-.42.09,0,0a2.09,2.09,0,0,0,.52-.14c-.21.15-.61,0,0,0s-.55-.12-.06,0l.2,0c.46.18-.4-.26-.2-.1a2.14,2.14,0,0,0,.48.28c.25.1-.37-.4-.23-.17a2.33,2.33,0,0,0,.28.26l.17.19c.36.34-.1-.25-.05-.07a5,5,0,0,0,.45.72c1.55,2.81,5.87.29,4.31-2.53Z"/><path class="cls-2" d="M446.07,110.88c4-4.87,6.79-10.26,7.34-16.6.47-5.35-.57-10.73-.83-16.07-.28-6,.29-11.77,3.15-17.11a39.74,39.74,0,0,1,11.15-12.47A69.93,69.93,0,0,1,483.19,39a56.37,56.37,0,0,1,19.53-4c11.42-.29,23.4,1.88,33.21,7.91A35.07,35.07,0,0,1,552.35,66.1a45.42,45.42,0,0,1-.1,16.92c-.23,1.24-.51,2.48-.86,3.7-.28,1-.82,2.53-1.07,3.12a23.07,23.07,0,0,1-1.39,2.71c-.25.41-.51.82-.78,1.21l-.41.57,0,0-.29.36a22.19,22.19,0,0,1-8.52,6.07c-.06,0-.74.32-.23.11l-.63.25c-.42.18-.85.34-1.28.5-1,.35-1.91.68-2.87,1-1.93.64-3.88,1.22-5.82,1.84a85.65,85.65,0,0,0-12.7,4.9,50.12,50.12,0,0,0-12.83,9.22c-1.65,1.63-3.18,3.38-4.77,5.07-.62.66-1.25,1.32-1.93,1.92l-.47.41c-.51.43.41-.29-.12.1a11.92,11.92,0,0,1-1.13.71l-.49.24c.6-.27,0,0-.08,0s-1.29.25-.59.17a9,9,0,0,1-1.16,0c-.11,0-.77-.09-.17,0-.29,0-.59-.11-.88-.18a22.29,22.29,0,0,1-6.74-3.5c-9.94-6.8-18.94-17.78-31.78-18.66a19,19,0,0,0-8.82,1.64,2.52,2.52,0,0,0-.9,3.42,2.57,2.57,0,0,0,3.42.89c5.47-2.31,11.38-.23,16.21,2.59,5.32,3.1,9.91,7.22,14.73,11,4.24,3.33,9.6,7.8,15.33,7.81,4.15,0,7.15-2.94,9.78-5.8,3.51-3.81,7-7.46,11.41-10.24a55,55,0,0,1,12.49-5.8c7.72-2.63,16.19-4.29,22.58-9.69,8-6.76,9.91-18.63,9.57-28.54a40,40,0,0,0-13.24-28.89C536.25,35.81,525.21,32,514,30.65a71.1,71.1,0,0,0-21.5.47,60.34,60.34,0,0,0-20,7.67C462.22,45,452,53.29,448.67,65.42c-1.67,6.16-1.2,12.57-.62,18.84.49,5.3,1,10.4-.86,15.37a27,27,0,0,1-4.66,7.71,2.58,2.58,0,0,0,0,3.54,2.53,2.53,0,0,0,3.54,0Z"/><path class="cls-2" d="M431.64,119.52a18.24,18.24,0,0,0,12-2.63,58,58,0,0,0,9.54-7.74,2.5,2.5,0,0,0-3.54-3.53,54.28,54.28,0,0,1-8,6.64,16,16,0,0,1-4.25,2,10.76,10.76,0,0,1-4.42.43,2.59,2.59,0,0,0-3.08,1.75c-.32,1.16.4,2.89,1.75,3.07Z"/><path class="cls-2" d="M472.51,173.51c6.05-12.37,19.05-19.47,29.33-27.87a2.52,2.52,0,0,0,0-3.54,2.55,2.55,0,0,0-3.53,0c-10.66,8.72-23.84,16.05-30.12,28.89a2.56,2.56,0,0,0,.89,3.42,2.54,2.54,0,0,0,3.43-.9Z"/><path class="cls-2" d="M548.94,108.47c1.85-3,1.2-6.52,1.2-9.8a2.5,2.5,0,1,0-5,0,45.74,45.74,0,0,1,0,6l.09-.66a8.28,8.28,0,0,1-.29,1.29c0,.1-.06.19-.1.29-.13.39.22-.47.09-.2a6.55,6.55,0,0,1-.32.58,2.53,2.53,0,0,0,.89,3.43,2.57,2.57,0,0,0,3.42-.9Z"/><path class="cls-2" d="M418.24,374.59c3.22,0,3.22-5,0-5s-3.22,5,0,5Z"/><path class="cls-2" d="M415,369.19c5.72.22,10.48,4.25,15.59,6.39a2.53,2.53,0,0,0,2.82-1.15c5.68-8.16,12.55-15.39,19-22.9,6.33-7.33,12.63-15.06,16.55-24a47.18,47.18,0,0,0,3.86-14.17c.55-5.31-.25-10.47-1.11-15.69C469.8,285.8,467.5,274,466.44,262c-1.28-14.53-.55-29.08,3.27-43.2.84-3.11-4-4.44-4.82-1.33a123.18,123.18,0,0,0-3.85,38.9c.66,12.16,2.75,24.17,4.8,36.15.93,5.42,2.19,10.94,2.23,16.46a39,39,0,0,1-2.31,13.31c-3.13,8.84-9,16.5-15,23.58-7.3,8.62-15.19,16.76-21.66,26l2.83-1.15c-2.68-1.11-5.13-2.73-7.73-4a22.73,22.73,0,0,0-9.19-2.55c-3.22-.12-3.21,4.88,0,5Z"/><path class="cls-2" d="M343.06,358.3a297.61,297.61,0,0,0,34.82,8.9,44.33,44.33,0,0,0,6.87,1,51.1,51.1,0,0,0,6.31-.17c4.43-.34,8.84-1,13.28-1.18a39.13,39.13,0,0,1,6.36.13,11,11,0,0,1,5.2,1.84,2.52,2.52,0,0,0,3.42-.9,2.55,2.55,0,0,0-.9-3.42c-3.28-2.26-7.53-2.7-11.41-2.71-4.41,0-8.8.57-13.18,1-2.19.22-4.39.4-6.59.45a26.44,26.44,0,0,1-5.54-.39q-8.74-1.69-17.42-3.77c-6.7-1.63-13.35-3.46-19.89-5.62-3.07-1-4.38,3.82-1.33,4.82Z"/><path class="cls-2" d="M415,371.19c6.19,13.81,15.16,26,24.13,38.13,4.5,6.06,9,12.11,13.23,18.38,3.9,5.81,7.5,11.77,11.64,17.42,8.47,11.58,17.8,22.55,25.4,34.73a90.37,90.37,0,0,1,9.08,18.29,77.79,77.79,0,0,1,3.73,22.15c.35,8.17.1,16.35.45,24.53.36,8.43,1.72,16.79,2.75,25.15,2.13,17.32,4.26,34.64,7.52,51.79,3.21,16.9,6.84,33.84,6.58,51.13-.13,8.22-.68,16.48.76,24.62,1.29,7.34,4.55,14.21,6.72,21.31.26.86.51,1.72.69,2.59,0,.21.09.42.11.63,0-.11,0-.45,0,0,0,.22,0,1.19,0,.5,0,.38-.2.59-.06.27-.18.42.3-.17-.19.22-.34.27,0,0,.08,0a4,4,0,0,1-.43.28c-.19.1-1,.48-.81.41a79.45,79.45,0,0,1-14.6,4.14c-11.8,2.41-25.05,3.06-36.55-1a30.14,30.14,0,0,1-7.15-3.7c-2.64-1.85-5.14,2.48-2.52,4.32,10.34,7.25,24.45,8,36.61,6.84A92.4,92.4,0,0,0,520,730.94c2.39-.71,4.83-1.36,7.17-2.23a9.88,9.88,0,0,0,4.25-2.51c2.68-3.06.71-7.73-.39-11-2.55-7.64-5.82-15.1-6.5-23.2-.71-8.47.2-17-.09-25.43a196.71,196.71,0,0,0-3-26.39c-1.51-8.79-3.35-17.51-4.91-26.3s-2.83-17.74-4-26.65c-2.22-17.27-5-34.55-5.1-52-.06-8.34,0-16.71-1.09-25a72.05,72.05,0,0,0-6.06-20.85c-6.07-13.24-15.23-24.81-24.05-36.28-4.36-5.67-8.72-11.35-12.71-17.28-4.18-6.22-8.07-12.57-12.46-18.65C442,404.6,432.21,392.5,424.55,379q-2.85-5-5.23-10.32c-1.31-2.93-5.62-.39-4.32,2.52Z"/><path class="cls-2" d="M387.75,414.88c4.13,20.51,13.34,39.49,22.93,57.93s19.81,36.69,25.94,56.61c3.37,10.94,4.88,22.25,6.74,33.52,2.1,12.67,4.21,25.34,6.24,38,4,25.33,7.73,50.74,10.11,76.29,2.33,24.93,4.67,50.1,3.22,75.16q-.29,4.79-.75,9.56c-.31,3.2,4.69,3.18,5,0,2.45-25.17.47-50.36-1.66-75.48-2.18-25.68-5.54-51.21-9.49-76.67-2-12.69-4.06-25.36-6.16-38q-1.58-9.51-3.14-19c-.91-5.6-1.75-11.2-3.08-16.71C438.7,515.71,429,496.94,419.3,478.5s-19.64-37.08-25-57.36q-1-3.78-1.76-7.59c-.63-3.16-5.45-1.82-4.82,1.33Z"/><path class="cls-2" d="M269,430.83c-2.54,7.39-2.64,15.54-2,23.25a162.69,162.69,0,0,0,4.92,27.61c2.21,8.57,4.89,17,7.91,25.34,3.42,9.38,7.34,18.56,10.72,28,8.12,22.59,14,45.75,16.57,69.64.66,6.15,1.28,12.31,2.26,18.43.77,4.81,2.36,9.58,2.29,14.48-.11,8.47-3.45,16.76-6.47,24.55-3.16,8.16-6.78,16.36-8.27,25a42.15,42.15,0,0,0-.17,12.13,83.56,83.56,0,0,1-.07,16.51c-.47,5.55-1.24,11.06-1.94,16.57-.61,4.87-.91,9.77-2.11,14.54-2.21,8.76-6.76,18.33-4.59,27.52a11.75,11.75,0,0,0,6.17,8.11,19.69,19.69,0,0,0,10.25,1.34c4.26-.37,8.43-1.34,12.64-2a78.75,78.75,0,0,1,17.48-1.09,57.71,57.71,0,0,1,17.21,3.75c5.29,2,10.34,4.61,15.64,6.61a37.77,37.77,0,0,0,11.43,2.8,52,52,0,0,0,7.48-.34c14.66-1.43,29.2-4.65,43.53-7.94,5.13-1.18,10.26-2.37,15.34-3.77,3.57-1,7.32-2.19,10.22-4.6,2.05-1.72,3.13-4,4.13-6.43a31.82,31.82,0,0,1,4.79-8.14c2-2.45-1.47-6-3.54-3.54a35.71,35.71,0,0,0-5.63,9.29c-.82,2-1.48,3.82-3.18,5.19-2.31,1.87-5.74,2.76-8.66,3.56-2.19.59-4.39,1.14-6.59,1.68-13.86,3.39-27.87,6.45-42,8.62-5.31.81-10.84,1.72-16.23,1.4-.26,0-1.49-.16-.8-.05a32.45,32.45,0,0,1-3.36-.73,62.87,62.87,0,0,1-7.66-2.62c-5.14-2.09-10.12-4.6-15.36-6.46-11-3.9-22.78-4-34.24-2.22-4.15.64-8.27,1.67-12.46,2.06-2.82.26-6.11.44-8.66-1-2.87-1.66-3.53-5.29-3.52-8.35,0-4.49,1.46-9,2.7-13.22a94.39,94.39,0,0,0,3.44-14c.66-5,1.15-10.13,1.8-15.19.71-5.53,1.37-11.08,1.61-16.66.12-2.64.13-5.29,0-7.94-.13-2.35-.55-4.66-.7-7-.48-8,2.54-16.06,5.35-23.46,3.11-8.21,6.74-16.32,8.72-24.91a41.07,41.07,0,0,0,1.21-11.94c-.36-5.21-2-10.34-2.72-15.51-1.75-11.88-2.51-23.86-4.65-35.7a289.76,289.76,0,0,0-8.47-34.22c-3.47-11.18-7.51-22.18-11.86-33-3-7.48-5.8-15-8.23-22.7a226.42,226.42,0,0,1-6.83-26.5c-1.56-8.29-2.6-16.83-2-25.27a39.66,39.66,0,0,1,2-10.08c1.05-3.05-3.78-4.36-4.82-1.33Z"/><path class="cls-2" d="M238,466a16.19,16.19,0,0,0-2.66,5.57c-.79,2.52-1.39,5.09-2,7.65-1.22,5.24-2.21,10.64-4.21,15.66-.13.33.18-.4,0-.07l-.15.33c-.1.22-.2.43-.31.63-.2.4-.47.75-.68,1.14s.4-.35,0,0a2.24,2.24,0,0,0-.34.35s.52-.31.07-.08.63-.19.09-.05l.2-.05c-.09,0-.56-.08.07,0l-.37-.07-.63-.17c-.12,0-.23-.08-.35-.12-.28-.1.43.24,0,0l-.6-.35c-.33-.19.29.31-.19-.15l-.49-.5a3.08,3.08,0,0,1-.24-.27c.11.13.24.33.07.08a13,13,0,0,1-.76-1.3c-.3-.59,0,.05-.14-.31s-.2-.57-.29-.87a13.68,13.68,0,0,1-.39-1.56c-.06-.29-.11-.59-.16-.88-.08-.49,0-.12,0,0l-.06-.57a35.22,35.22,0,0,1,.21-8.08c-.05.38.09-.62.11-.74.06-.38.13-.75.2-1.13q.19-1.11.45-2.22c.33-1.39.71-2.76,1.16-4.11.21-.61.43-1.21.67-1.81.18-.44,0,0,0,0l.24-.53q.18-.39.36-.75c.23-.45.47-.89.74-1.31.12-.19.25-.37.38-.55-.33.48-.11.14.11-.1,2.18-2.36-1.35-5.91-3.54-3.53a18.25,18.25,0,0,0-3.32,6,43.46,43.46,0,0,0-2.12,7.94c-1,5.65-1.49,12.12,1,17.46,1.86,4,7.95,7.92,11.54,3.65a19,19,0,0,0,3.11-6.51c.91-2.84,1.6-5.76,2.28-8.66.76-3.27,1.47-6.54,2.34-9.78.36-1.33.74-2.66,1.22-3.95.07-.17.44-1,.14-.38.11-.24.21-.48.33-.71s.21-.36.31-.55a2.46,2.46,0,0,0,.17-.27c.16-.38-.38.46-.11.14a2.58,2.58,0,0,0,0-3.54,2.53,2.53,0,0,0-3.54,0Z"/><path class="cls-2" d="M199.27,439.71c.35,1.23-2.35,2-3.18,2.25a47.26,47.26,0,0,1-6.54,1.6c-4.09.76-8.26,1.27-12.19,2.69a22.08,22.08,0,0,0-9.53,6.09c-2,2.36-5.66,7.6-1.79,9.93,2.76,1.66,5.28-2.66,2.52-4.32.36,1.78.62,2.24.78,1.39.07-.29.1-.37.09-.26a7,7,0,0,1,.45-.86,20.3,20.3,0,0,1,1.21-2,12.63,12.63,0,0,1,3.34-3.05,28.11,28.11,0,0,1,10-3.64c4.12-.82,8.32-1.29,12.34-2.56,3.84-1.21,8.68-3.7,7.32-8.6-.87-3.09-5.69-1.78-4.83,1.33Z"/><path class="cls-2" d="M164.8,459.11c.16,1.78,1.57,3.13,2.86,4.25a4.52,4.52,0,0,0,2.9,1.36,10.46,10.46,0,0,0,4-1A13.17,13.17,0,0,0,177.8,462a19.3,19.3,0,0,1,1.94-1.3,22.56,22.56,0,0,1,2.2-1.1c-.44.2.21-.08.3-.12l.74-.29c.66-.25,1.32-.48,2-.71a2.56,2.56,0,0,0,1.74-3.07,2.52,2.52,0,0,0-3.07-1.75,42.87,42.87,0,0,0-5.49,2.22c-1.25.63-2.28,1.54-3.49,2.22a12.54,12.54,0,0,1-2.45,1.08c-.25.08-.48.17-.72.26a6.67,6.67,0,0,0-.86.29c.14-.18,1,.29.66.14s.26.15.23.18a14.58,14.58,0,0,1-1.35-1.24c-.2-.21-.39-.43-.59-.65-.36-.39.28.44,0,.05s.06-.38.17.86a2.57,2.57,0,0,0-2.5-2.5,2.52,2.52,0,0,0-2.5,2.5Z"/><path class="cls-2" d="M184.27,458.8a58.13,58.13,0,0,1,19.91-3.15c3.22.06,3.22-4.94,0-5A62.08,62.08,0,0,0,182.94,454a2.57,2.57,0,0,0-1.75,3.08,2.53,2.53,0,0,0,3.08,1.74Z"/><path class="cls-2" d="M202.11,453.09c-.9,1.07-1.43,2.4-2.69,3.12s-3,1.1-4.39,1.75c-3,1.36-6.35,2-9.44,3.15-1.8.67-3.6,1.46-5.36,2.21-1.48.63-3,1.12-4.51,1.74a14.2,14.2,0,0,0-8.95,11c-.33,1.71-1,3.43.33,4.92s3.27,1.56,5.07,1.28a28.15,28.15,0,0,0,4.9-1.15c3.37-1.17,6.71-2.28,10-3.68,1.44-.61,2.91-1.11,4.37-1.66,1.71-.64,3.52-.8,5.21-1.47a35.74,35.74,0,0,0,5.41-2.84c.86-.53,1.66-1.17,2.54-1.69a14.4,14.4,0,0,0,2.37-1.51c.31-.28.6-.59.91-.87a7.15,7.15,0,0,0,1-.83c-.08.11.28,0-.23.11.29-.06.6-.22.89-.31.62-.21,1.25-.39,1.88-.55l.72-.18c.23-.05,1.08-.13.13-.05a2.56,2.56,0,0,0,2.5-2.5,2.52,2.52,0,0,0-2.5-2.5,15.83,15.83,0,0,0-5.87,1.66,32.77,32.77,0,0,0-3,2.48c-.47.35-1,.54-1.54.85-.8.5-1.55,1.08-2.36,1.57a40,40,0,0,1-4,2.23,41,41,0,0,1-4.62,1.28c-3.08,1-6.05,2.33-9.06,3.56-1.45.59-3,1-4.45,1.48a33.39,33.39,0,0,1-4.54,1.38,8.78,8.78,0,0,0-2.09.34c-.06,0-.15,0-.19,0l.65,1.52c.07-.24.13-.49.2-.73a15.36,15.36,0,0,1,1.2-4.17,10.31,10.31,0,0,1,6-4.81c3.06-1.09,6-2.64,9.08-3.61l5.18-1.67c.81-.27,1.62-.5,2.43-.75s1.56-.71,2.37-1a23.58,23.58,0,0,0,4.54-1.91,10.49,10.49,0,0,0,2-1.68c.56-.63.89-1.4,1.42-2a2.57,2.57,0,0,0,0-3.54,2.54,2.54,0,0,0-3.54,0Z"/><path class="cls-2" d="M222.59,464.63a10,10,0,0,1-1.08.4,7.17,7.17,0,0,0-1.34.84c-1.06.79-2,1.61-3.15,2.31a78.5,78.5,0,0,0-7.18,4.78,137.54,137.54,0,0,0-12,11,48.21,48.21,0,0,1-5.73,5.15c-.47.34-1,.49-1.5.78-1.08.64.38-.14.55.13-.07-.1-.65-.15-.78-.18-1.56-.39,0,.22-.21.31s.23-1,.25-1.05c1.15-2.24,3.42-3.93,5-5.82,1.85-2.13,4-4.11,6-6.06,1-1,1.94-2.11,3-3.13s2-1.91,3-2.87,2.21-2,3.37-2.95A27.48,27.48,0,0,0,214,465a2.56,2.56,0,0,0,0-3.54,2.53,2.53,0,0,0-3.54,0,28,28,0,0,1-2.82,3c-1.25,1.07-2.52,2.08-3.71,3.22-1,1-2.06,1.88-3.05,2.87s-1.91,2.13-2.95,3.13c-2.27,2.18-4.53,4.39-6.58,6.77s-4.72,4.38-5.83,7.44a5.67,5.67,0,0,0,.21,4.53,4.74,4.74,0,0,0,3.32,2.24,4.9,4.9,0,0,0,3.68-.25,16.22,16.22,0,0,0,4-2.69c2.33-2,4.49-4.08,6.64-6.26,1-1.06,2.14-2.05,3.23-3s2.14-2.21,3.31-3.19,2.67-2.19,4-3.21,2.9-1.82,4.33-2.74a46.25,46.25,0,0,0,4.4-3.08c1.07-.88,2.37-1.18,3.46-2.07a2.52,2.52,0,0,0,0-3.54,2.56,2.56,0,0,0-3.53,0Z"/><path class="cls-2" d="M469.39,173a10.55,10.55,0,0,0,4.16,2.5,6.07,6.07,0,0,1,1.45.66,1.41,1.41,0,0,1,.39.34c-.21-.25.21.41.2.38.56,1.49.08,3.44-.23,4.93-.44,2.11-1,4.2-1.44,6.29a64.35,64.35,0,0,0-2,14.2c0,5,.06,9.94.06,14.92,0,10-.05,20-.05,30.06,0,4.71-.1,9.42.15,14.12a8.88,8.88,0,0,1-.1,2.47c-.24,1-.74,2-1,3-.47,2.24-.11,4.59,0,6.84.24,4.21-1.05,8.11-2.09,12.14s-2.13,8.11-2.12,12.24c0,3.22,5,3.22,5,0,0-3.57,1-7.1,1.85-10.54s2.18-7.24,2.39-10.95c.13-2.31-.23-4.61-.27-6.92,0-2.11,1-3.89,1.24-6a58.18,58.18,0,0,0-.11-6.33v-7.67q0-15.28,0-30.55,0-7.59,0-15.18a61.74,61.74,0,0,1,1.79-14.37c.53-2.3,1.11-4.59,1.57-6.9a15.83,15.83,0,0,0,.24-6.88,6.66,6.66,0,0,0-3.67-4.4c-1.55-.74-2.91-.94-3.9-2-2.19-2.37-5.72,1.17-3.54,3.54Z"/><path class="cls-1" d="M192.91,388.87c5.34,5,8,11.75,10.54,18.4,2.71,7,5.6,14.08,11.08,19.44,2.31,2.25,5.84-1.28,3.54-3.54-5.21-5.08-7.75-11.92-10.31-18.57-2.71-7-5.7-14-11.31-19.26-2.36-2.19-5.9,1.34-3.54,3.53Z"/><path class="cls-1" d="M214.19,426.41c2.25,3.46-.18,7.72-.57,11.43-.52,4.86,2.4,8.73,5.35,12.26,1.31,1.57,2.64,3.11,3.8,4.82s2.25,3.43,3.42,5.12c2,2.93,4.33,6.09,7.59,7.73,4.36,2.2,9,1.06,13.07-1.19,2.82-1.56.3-5.88-2.52-4.32a13.25,13.25,0,0,1-4.81,1.73,6.11,6.11,0,0,1-3.45-.66c-2.5-1.35-4.45-4.14-6.14-6.65a112.93,112.93,0,0,0-7-9.66c-2.35-2.79-4.87-5.7-4.21-9.59.38-2.22,1.13-4.35,1.4-6.6a10.29,10.29,0,0,0-1.58-6.94c-1.75-2.69-6.08-.19-4.31,2.52Z"/><path class="cls-2" d="M350.81,358.23a9.64,9.64,0,0,0-2.46,5.41,37.81,37.81,0,0,1-1.6,5.71,47.07,47.07,0,0,1-3,5.89,36.17,36.17,0,0,0-2.53,6.5c-1.31,4.19-4,7.77-6.11,11.57-2.29,4.12-4.9,8.08-7,12.28-1.45,2.86,2.86,5.4,4.32,2.52,2.07-4.07,4.64-7.88,6.82-11.9s4.82-7.65,6.42-11.92a49.6,49.6,0,0,1,2.11-5.92c1.09-2,2.25-4,3.17-6.14a35.81,35.81,0,0,0,2-6.14c.32-1.37.33-3.3,1.4-4.32,2.34-2.23-1.2-5.76-3.53-3.54Z"/></g></g></svg>